<?xml version="1.0" encoding="utf-8" standalone="no"?>
<!DOCTYPE svg PUBLIC "-//W3C//DTD SVG 1.1//EN"
  "http://www.w3.org/Graphics/SVG/1.1/DTD/svg11.dtd">
<!-- Created with matplotlib (https://matplotlib.org/) -->
<svg height="167.87625pt" version="1.1" viewBox="0 0 508.945312 167.87625" width="508.945312pt" xmlns="http://www.w3.org/2000/svg" xmlns:xlink="http://www.w3.org/1999/xlink">
 <metadata>
  <rdf:RDF xmlns:cc="http://creativecommons.org/ns#" xmlns:dc="http://purl.org/dc/elements/1.1/" xmlns:rdf="http://www.w3.org/1999/02/22-rdf-syntax-ns#">
   <cc:Work>
    <dc:type rdf:resource="http://purl.org/dc/dcmitype/StillImage"/>
    <dc:date>2021-02-22T12:08:47.242722</dc:date>
    <dc:format>image/svg+xml</dc:format>
    <dc:creator>
     <cc:Agent>
      <dc:title>Matplotlib v3.3.2, https://matplotlib.org/</dc:title>
     </cc:Agent>
    </dc:creator>
   </cc:Work>
  </rdf:RDF>
 </metadata>
 <defs>
  <style type="text/css">*{stroke-linecap:butt;stroke-linejoin:round;}</style>
 </defs>
 <g id="figure_1">
  <g id="patch_1">
   <path d="M 0 167.87625 
L 508.945312 167.87625 
L 508.945312 0 
L 0 0 
z
" style="fill:none;"/>
  </g>
  <g id="axes_1">
   <g id="patch_2">
    <path d="M 48.982813 130.32 
L 495.382812 130.32 
L 495.382812 21.6 
L 48.982813 21.6 
z
" style="fill:#ffffff;"/>
   </g>
   <g id="matplotlib.axis_1">
    <g id="xtick_1">
     <g id="line2d_1">
      <path clip-path="url(#pfa012cfe8b)" d="M 48.982813 130.32 
L 48.982813 21.6 
" style="fill:none;stroke:#b0b0b0;stroke-linecap:square;stroke-width:0.8;"/>
     </g>
     <g id="line2d_2">
      <defs>
       <path d="M 0 0 
L 0 3.5 
" id="mcae89b3a0c" style="stroke:#000000;stroke-width:0.8;"/>
      </defs>
      <g>
       <use style="stroke:#000000;stroke-width:0.8;" x="48.982813" xlink:href="#mcae89b3a0c" y="130.32"/>
      </g>
     </g>
     <g id="text_1">
      <!-- 0 -->
      <g transform="translate(45.801563 144.918437)scale(0.1 -0.1)">
       <defs>
        <path d="M 31.78125 66.40625 
Q 24.171875 66.40625 20.328125 58.90625 
Q 16.5 51.421875 16.5 36.375 
Q 16.5 21.390625 20.328125 13.890625 
Q 24.171875 6.390625 31.78125 6.390625 
Q 39.453125 6.390625 43.28125 13.890625 
Q 47.125 21.390625 47.125 36.375 
Q 47.125 51.421875 43.28125 58.90625 
Q 39.453125 66.40625 31.78125 66.40625 
z
M 31.78125 74.21875 
Q 44.046875 74.21875 50.515625 64.515625 
Q 56.984375 54.828125 56.984375 36.375 
Q 56.984375 17.96875 50.515625 8.265625 
Q 44.046875 -1.421875 31.78125 -1.421875 
Q 19.53125 -1.421875 13.0625 8.265625 
Q 6.59375 17.96875 6.59375 36.375 
Q 6.59375 54.828125 13.0625 64.515625 
Q 19.53125 74.21875 31.78125 74.21875 
z
" id="DejaVuSans-48"/>
       </defs>
       <use xlink:href="#DejaVuSans-48"/>
      </g>
     </g>
    </g>
    <g id="xtick_2">
     <g id="line2d_3">
      <path clip-path="url(#pfa012cfe8b)" d="M 123.382812 130.32 
L 123.382812 21.6 
" style="fill:none;stroke:#b0b0b0;stroke-linecap:square;stroke-width:0.8;"/>
     </g>
     <g id="line2d_4">
      <g>
       <use style="stroke:#000000;stroke-width:0.8;" x="123.382812" xlink:href="#mcae89b3a0c" y="130.32"/>
      </g>
     </g>
     <g id="text_2">
      <!-- 2 -->
      <g transform="translate(120.201562 144.918437)scale(0.1 -0.1)">
       <defs>
        <path d="M 19.1875 8.296875 
L 53.609375 8.296875 
L 53.609375 0 
L 7.328125 0 
L 7.328125 8.296875 
Q 12.9375 14.109375 22.625 23.890625 
Q 32.328125 33.6875 34.8125 36.53125 
Q 39.546875 41.84375 41.421875 45.53125 
Q 43.3125 49.21875 43.3125 52.78125 
Q 43.3125 58.59375 39.234375 62.25 
Q 35.15625 65.921875 28.609375 65.921875 
Q 23.96875 65.921875 18.8125 64.3125 
Q 13.671875 62.703125 7.8125 59.421875 
L 7.8125 69.390625 
Q 13.765625 71.78125 18.9375 73 
Q 24.125 74.21875 28.421875 74.21875 
Q 39.75 74.21875 46.484375 68.546875 
Q 53.21875 62.890625 53.21875 53.421875 
Q 53.21875 48.921875 51.53125 44.890625 
Q 49.859375 40.875 45.40625 35.40625 
Q 44.1875 33.984375 37.640625 27.21875 
Q 31.109375 20.453125 19.1875 8.296875 
z
" id="DejaVuSans-50"/>
       </defs>
       <use xlink:href="#DejaVuSans-50"/>
      </g>
     </g>
    </g>
    <g id="xtick_3">
     <g id="line2d_5">
      <path clip-path="url(#pfa012cfe8b)" d="M 197.782812 130.32 
L 197.782812 21.6 
" style="fill:none;stroke:#b0b0b0;stroke-linecap:square;stroke-width:0.8;"/>
     </g>
     <g id="line2d_6">
      <g>
       <use style="stroke:#000000;stroke-width:0.8;" x="197.782812" xlink:href="#mcae89b3a0c" y="130.32"/>
      </g>
     </g>
     <g id="text_3">
      <!-- 4 -->
      <g transform="translate(194.601562 144.918437)scale(0.1 -0.1)">
       <defs>
        <path d="M 37.796875 64.3125 
L 12.890625 25.390625 
L 37.796875 25.390625 
z
M 35.203125 72.90625 
L 47.609375 72.90625 
L 47.609375 25.390625 
L 58.015625 25.390625 
L 58.015625 17.1875 
L 47.609375 17.1875 
L 47.609375 0 
L 37.796875 0 
L 37.796875 17.1875 
L 4.890625 17.1875 
L 4.890625 26.703125 
z
" id="DejaVuSans-52"/>
       </defs>
       <use xlink:href="#DejaVuSans-52"/>
      </g>
     </g>
    </g>
    <g id="xtick_4">
     <g id="line2d_7">
      <path clip-path="url(#pfa012cfe8b)" d="M 272.182813 130.32 
L 272.182813 21.6 
" style="fill:none;stroke:#b0b0b0;stroke-linecap:square;stroke-width:0.8;"/>
     </g>
     <g id="line2d_8">
      <g>
       <use style="stroke:#000000;stroke-width:0.8;" x="272.182813" xlink:href="#mcae89b3a0c" y="130.32"/>
      </g>
     </g>
     <g id="text_4">
      <!-- 6 -->
      <g transform="translate(269.001563 144.918437)scale(0.1 -0.1)">
       <defs>
        <path d="M 33.015625 40.375 
Q 26.375 40.375 22.484375 35.828125 
Q 18.609375 31.296875 18.609375 23.390625 
Q 18.609375 15.53125 22.484375 10.953125 
Q 26.375 6.390625 33.015625 6.390625 
Q 39.65625 6.390625 43.53125 10.953125 
Q 47.40625 15.53125 47.40625 23.390625 
Q 47.40625 31.296875 43.53125 35.828125 
Q 39.65625 40.375 33.015625 40.375 
z
M 52.59375 71.296875 
L 52.59375 62.3125 
Q 48.875 64.0625 45.09375 64.984375 
Q 41.3125 65.921875 37.59375 65.921875 
Q 27.828125 65.921875 22.671875 59.328125 
Q 17.53125 52.734375 16.796875 39.40625 
Q 19.671875 43.65625 24.015625 45.921875 
Q 28.375 48.1875 33.59375 48.1875 
Q 44.578125 48.1875 50.953125 41.515625 
Q 57.328125 34.859375 57.328125 23.390625 
Q 57.328125 12.15625 50.6875 5.359375 
Q 44.046875 -1.421875 33.015625 -1.421875 
Q 20.359375 -1.421875 13.671875 8.265625 
Q 6.984375 17.96875 6.984375 36.375 
Q 6.984375 53.65625 15.1875 63.9375 
Q 23.390625 74.21875 37.203125 74.21875 
Q 40.921875 74.21875 44.703125 73.484375 
Q 48.484375 72.75 52.59375 71.296875 
z
" id="DejaVuSans-54"/>
       </defs>
       <use xlink:href="#DejaVuSans-54"/>
      </g>
     </g>
    </g>
    <g id="xtick_5">
     <g id="line2d_9">
      <path clip-path="url(#pfa012cfe8b)" d="M 346.582812 130.32 
L 346.582812 21.6 
" style="fill:none;stroke:#b0b0b0;stroke-linecap:square;stroke-width:0.8;"/>
     </g>
     <g id="line2d_10">
      <g>
       <use style="stroke:#000000;stroke-width:0.8;" x="346.582812" xlink:href="#mcae89b3a0c" y="130.32"/>
      </g>
     </g>
     <g id="text_5">
      <!-- 8 -->
      <g transform="translate(343.401563 144.918437)scale(0.1 -0.1)">
       <defs>
        <path d="M 31.78125 34.625 
Q 24.75 34.625 20.71875 30.859375 
Q 16.703125 27.09375 16.703125 20.515625 
Q 16.703125 13.921875 20.71875 10.15625 
Q 24.75 6.390625 31.78125 6.390625 
Q 38.8125 6.390625 42.859375 10.171875 
Q 46.921875 13.96875 46.921875 20.515625 
Q 46.921875 27.09375 42.890625 30.859375 
Q 38.875 34.625 31.78125 34.625 
z
M 21.921875 38.8125 
Q 15.578125 40.375 12.03125 44.71875 
Q 8.5 49.078125 8.5 55.328125 
Q 8.5 64.0625 14.71875 69.140625 
Q 20.953125 74.21875 31.78125 74.21875 
Q 42.671875 74.21875 48.875 69.140625 
Q 55.078125 64.0625 55.078125 55.328125 
Q 55.078125 49.078125 51.53125 44.71875 
Q 48 40.375 41.703125 38.8125 
Q 48.828125 37.15625 52.796875 32.3125 
Q 56.78125 27.484375 56.78125 20.515625 
Q 56.78125 9.90625 50.3125 4.234375 
Q 43.84375 -1.421875 31.78125 -1.421875 
Q 19.734375 -1.421875 13.25 4.234375 
Q 6.78125 9.90625 6.78125 20.515625 
Q 6.78125 27.484375 10.78125 32.3125 
Q 14.796875 37.15625 21.921875 38.8125 
z
M 18.3125 54.390625 
Q 18.3125 48.734375 21.84375 45.5625 
Q 25.390625 42.390625 31.78125 42.390625 
Q 38.140625 42.390625 41.71875 45.5625 
Q 45.3125 48.734375 45.3125 54.390625 
Q 45.3125 60.0625 41.71875 63.234375 
Q 38.140625 66.40625 31.78125 66.40625 
Q 25.390625 66.40625 21.84375 63.234375 
Q 18.3125 60.0625 18.3125 54.390625 
z
" id="DejaVuSans-56"/>
       </defs>
       <use xlink:href="#DejaVuSans-56"/>
      </g>
     </g>
    </g>
    <g id="xtick_6">
     <g id="line2d_11">
      <path clip-path="url(#pfa012cfe8b)" d="M 420.982812 130.32 
L 420.982812 21.6 
" style="fill:none;stroke:#b0b0b0;stroke-linecap:square;stroke-width:0.8;"/>
     </g>
     <g id="line2d_12">
      <g>
       <use style="stroke:#000000;stroke-width:0.8;" x="420.982812" xlink:href="#mcae89b3a0c" y="130.32"/>
      </g>
     </g>
     <g id="text_6">
      <!-- 10 -->
      <g transform="translate(414.620312 144.918437)scale(0.1 -0.1)">
       <defs>
        <path d="M 12.40625 8.296875 
L 28.515625 8.296875 
L 28.515625 63.921875 
L 10.984375 60.40625 
L 10.984375 69.390625 
L 28.421875 72.90625 
L 38.28125 72.90625 
L 38.28125 8.296875 
L 54.390625 8.296875 
L 54.390625 0 
L 12.40625 0 
z
" id="DejaVuSans-49"/>
       </defs>
       <use xlink:href="#DejaVuSans-49"/>
       <use x="63.623047" xlink:href="#DejaVuSans-48"/>
      </g>
     </g>
    </g>
    <g id="xtick_7">
     <g id="line2d_13">
      <path clip-path="url(#pfa012cfe8b)" d="M 495.382812 130.32 
L 495.382812 21.6 
" style="fill:none;stroke:#b0b0b0;stroke-linecap:square;stroke-width:0.8;"/>
     </g>
     <g id="line2d_14">
      <g>
       <use style="stroke:#000000;stroke-width:0.8;" x="495.382812" xlink:href="#mcae89b3a0c" y="130.32"/>
      </g>
     </g>
     <g id="text_7">
      <!-- 12 -->
      <g transform="translate(489.020312 144.918437)scale(0.1 -0.1)">
       <use xlink:href="#DejaVuSans-49"/>
       <use x="63.623047" xlink:href="#DejaVuSans-50"/>
      </g>
     </g>
    </g>
    <g id="text_8">
     <!-- Time (s) -->
     <g transform="translate(251.853906 158.596563)scale(0.1 -0.1)">
      <defs>
       <path d="M -0.296875 72.90625 
L 61.375 72.90625 
L 61.375 64.59375 
L 35.5 64.59375 
L 35.5 0 
L 25.59375 0 
L 25.59375 64.59375 
L -0.296875 64.59375 
z
" id="DejaVuSans-84"/>
       <path d="M 9.421875 54.6875 
L 18.40625 54.6875 
L 18.40625 0 
L 9.421875 0 
z
M 9.421875 75.984375 
L 18.40625 75.984375 
L 18.40625 64.59375 
L 9.421875 64.59375 
z
" id="DejaVuSans-105"/>
       <path d="M 52 44.1875 
Q 55.375 50.25 60.0625 53.125 
Q 64.75 56 71.09375 56 
Q 79.640625 56 84.28125 50.015625 
Q 88.921875 44.046875 88.921875 33.015625 
L 88.921875 0 
L 79.890625 0 
L 79.890625 32.71875 
Q 79.890625 40.578125 77.09375 44.375 
Q 74.3125 48.1875 68.609375 48.1875 
Q 61.625 48.1875 57.5625 43.546875 
Q 53.515625 38.921875 53.515625 30.90625 
L 53.515625 0 
L 44.484375 0 
L 44.484375 32.71875 
Q 44.484375 40.625 41.703125 44.40625 
Q 38.921875 48.1875 33.109375 48.1875 
Q 26.21875 48.1875 22.15625 43.53125 
Q 18.109375 38.875 18.109375 30.90625 
L 18.109375 0 
L 9.078125 0 
L 9.078125 54.6875 
L 18.109375 54.6875 
L 18.109375 46.1875 
Q 21.1875 51.21875 25.484375 53.609375 
Q 29.78125 56 35.6875 56 
Q 41.65625 56 45.828125 52.96875 
Q 50 49.953125 52 44.1875 
z
" id="DejaVuSans-109"/>
       <path d="M 56.203125 29.59375 
L 56.203125 25.203125 
L 14.890625 25.203125 
Q 15.484375 15.921875 20.484375 11.0625 
Q 25.484375 6.203125 34.421875 6.203125 
Q 39.59375 6.203125 44.453125 7.46875 
Q 49.3125 8.734375 54.109375 11.28125 
L 54.109375 2.78125 
Q 49.265625 0.734375 44.1875 -0.34375 
Q 39.109375 -1.421875 33.890625 -1.421875 
Q 20.796875 -1.421875 13.15625 6.1875 
Q 5.515625 13.8125 5.515625 26.8125 
Q 5.515625 40.234375 12.765625 48.109375 
Q 20.015625 56 32.328125 56 
Q 43.359375 56 49.78125 48.890625 
Q 56.203125 41.796875 56.203125 29.59375 
z
M 47.21875 32.234375 
Q 47.125 39.59375 43.09375 43.984375 
Q 39.0625 48.390625 32.421875 48.390625 
Q 24.90625 48.390625 20.390625 44.140625 
Q 15.875 39.890625 15.1875 32.171875 
z
" id="DejaVuSans-101"/>
       <path id="DejaVuSans-32"/>
       <path d="M 31 75.875 
Q 24.46875 64.65625 21.28125 53.65625 
Q 18.109375 42.671875 18.109375 31.390625 
Q 18.109375 20.125 21.3125 9.0625 
Q 24.515625 -2 31 -13.1875 
L 23.1875 -13.1875 
Q 15.875 -1.703125 12.234375 9.375 
Q 8.59375 20.453125 8.59375 31.390625 
Q 8.59375 42.28125 12.203125 53.3125 
Q 15.828125 64.359375 23.1875 75.875 
z
" id="DejaVuSans-40"/>
       <path d="M 44.28125 53.078125 
L 44.28125 44.578125 
Q 40.484375 46.53125 36.375 47.5 
Q 32.28125 48.484375 27.875 48.484375 
Q 21.1875 48.484375 17.84375 46.4375 
Q 14.5 44.390625 14.5 40.28125 
Q 14.5 37.15625 16.890625 35.375 
Q 19.28125 33.59375 26.515625 31.984375 
L 29.59375 31.296875 
Q 39.15625 29.25 43.1875 25.515625 
Q 47.21875 21.78125 47.21875 15.09375 
Q 47.21875 7.46875 41.1875 3.015625 
Q 35.15625 -1.421875 24.609375 -1.421875 
Q 20.21875 -1.421875 15.453125 -0.5625 
Q 10.6875 0.296875 5.421875 2 
L 5.421875 11.28125 
Q 10.40625 8.6875 15.234375 7.390625 
Q 20.0625 6.109375 24.8125 6.109375 
Q 31.15625 6.109375 34.5625 8.28125 
Q 37.984375 10.453125 37.984375 14.40625 
Q 37.984375 18.0625 35.515625 20.015625 
Q 33.0625 21.96875 24.703125 23.78125 
L 21.578125 24.515625 
Q 13.234375 26.265625 9.515625 29.90625 
Q 5.8125 33.546875 5.8125 39.890625 
Q 5.8125 47.609375 11.28125 51.796875 
Q 16.75 56 26.8125 56 
Q 31.78125 56 36.171875 55.265625 
Q 40.578125 54.546875 44.28125 53.078125 
z
" id="DejaVuSans-115"/>
       <path d="M 8.015625 75.875 
L 15.828125 75.875 
Q 23.140625 64.359375 26.78125 53.3125 
Q 30.421875 42.28125 30.421875 31.390625 
Q 30.421875 20.453125 26.78125 9.375 
Q 23.140625 -1.703125 15.828125 -13.1875 
L 8.015625 -13.1875 
Q 14.5 -2 17.703125 9.0625 
Q 20.90625 20.125 20.90625 31.390625 
Q 20.90625 42.671875 17.703125 53.65625 
Q 14.5 64.65625 8.015625 75.875 
z
" id="DejaVuSans-41"/>
      </defs>
      <use xlink:href="#DejaVuSans-84"/>
      <use x="57.958984" xlink:href="#DejaVuSans-105"/>
      <use x="85.742188" xlink:href="#DejaVuSans-109"/>
      <use x="183.154297" xlink:href="#DejaVuSans-101"/>
      <use x="244.677734" xlink:href="#DejaVuSans-32"/>
      <use x="276.464844" xlink:href="#DejaVuSans-40"/>
      <use x="315.478516" xlink:href="#DejaVuSans-115"/>
      <use x="367.578125" xlink:href="#DejaVuSans-41"/>
     </g>
    </g>
   </g>
   <g id="matplotlib.axis_2">
    <g id="ytick_1">
     <g id="line2d_15">
      <path clip-path="url(#pfa012cfe8b)" d="M 48.982813 130.32 
L 495.382812 130.32 
" style="fill:none;stroke:#b0b0b0;stroke-linecap:square;stroke-width:0.8;"/>
     </g>
     <g id="line2d_16">
      <defs>
       <path d="M 0 0 
L -3.5 0 
" id="m3e6ff2397e" style="stroke:#000000;stroke-width:0.8;"/>
      </defs>
      <g>
       <use style="stroke:#000000;stroke-width:0.8;" x="48.982813" xlink:href="#m3e6ff2397e" y="130.32"/>
      </g>
     </g>
     <g id="text_9">
      <!-- −20 -->
      <g transform="translate(20.878125 134.119219)scale(0.1 -0.1)">
       <defs>
        <path d="M 10.59375 35.5 
L 73.1875 35.5 
L 73.1875 27.203125 
L 10.59375 27.203125 
z
" id="DejaVuSans-8722"/>
       </defs>
       <use xlink:href="#DejaVuSans-8722"/>
       <use x="83.789062" xlink:href="#DejaVuSans-50"/>
       <use x="147.412109" xlink:href="#DejaVuSans-48"/>
      </g>
     </g>
    </g>
    <g id="ytick_2">
     <g id="line2d_17">
      <path clip-path="url(#pfa012cfe8b)" d="M 48.982813 103.14 
L 495.382812 103.14 
" style="fill:none;stroke:#b0b0b0;stroke-linecap:square;stroke-width:0.8;"/>
     </g>
     <g id="line2d_18">
      <g>
       <use style="stroke:#000000;stroke-width:0.8;" x="48.982813" xlink:href="#m3e6ff2397e" y="103.14"/>
      </g>
     </g>
     <g id="text_10">
      <!-- −10 -->
      <g transform="translate(20.878125 106.939219)scale(0.1 -0.1)">
       <use xlink:href="#DejaVuSans-8722"/>
       <use x="83.789062" xlink:href="#DejaVuSans-49"/>
       <use x="147.412109" xlink:href="#DejaVuSans-48"/>
      </g>
     </g>
    </g>
    <g id="ytick_3">
     <g id="line2d_19">
      <path clip-path="url(#pfa012cfe8b)" d="M 48.982813 75.96 
L 495.382812 75.96 
" style="fill:none;stroke:#b0b0b0;stroke-linecap:square;stroke-width:0.8;"/>
     </g>
     <g id="line2d_20">
      <g>
       <use style="stroke:#000000;stroke-width:0.8;" x="48.982813" xlink:href="#m3e6ff2397e" y="75.96"/>
      </g>
     </g>
     <g id="text_11">
      <!-- 0 -->
      <g transform="translate(35.620313 79.759219)scale(0.1 -0.1)">
       <use xlink:href="#DejaVuSans-48"/>
      </g>
     </g>
    </g>
    <g id="ytick_4">
     <g id="line2d_21">
      <path clip-path="url(#pfa012cfe8b)" d="M 48.982813 48.78 
L 495.382812 48.78 
" style="fill:none;stroke:#b0b0b0;stroke-linecap:square;stroke-width:0.8;"/>
     </g>
     <g id="line2d_22">
      <g>
       <use style="stroke:#000000;stroke-width:0.8;" x="48.982813" xlink:href="#m3e6ff2397e" y="48.78"/>
      </g>
     </g>
     <g id="text_12">
      <!-- 10 -->
      <g transform="translate(29.257813 52.579219)scale(0.1 -0.1)">
       <use xlink:href="#DejaVuSans-49"/>
       <use x="63.623047" xlink:href="#DejaVuSans-48"/>
      </g>
     </g>
    </g>
    <g id="ytick_5">
     <g id="line2d_23">
      <path clip-path="url(#pfa012cfe8b)" d="M 48.982813 21.6 
L 495.382812 21.6 
" style="fill:none;stroke:#b0b0b0;stroke-linecap:square;stroke-width:0.8;"/>
     </g>
     <g id="line2d_24">
      <g>
       <use style="stroke:#000000;stroke-width:0.8;" x="48.982813" xlink:href="#m3e6ff2397e" y="21.6"/>
      </g>
     </g>
     <g id="text_13">
      <!-- 20 -->
      <g transform="translate(29.257813 25.399219)scale(0.1 -0.1)">
       <use xlink:href="#DejaVuSans-50"/>
       <use x="63.623047" xlink:href="#DejaVuSans-48"/>
      </g>
     </g>
    </g>
    <g id="text_14">
     <!-- Amplitude 0 -->
     <g transform="translate(14.798438 106.352969)rotate(-90)scale(0.1 -0.1)">
      <defs>
       <path d="M 34.1875 63.1875 
L 20.796875 26.90625 
L 47.609375 26.90625 
z
M 28.609375 72.90625 
L 39.796875 72.90625 
L 67.578125 0 
L 57.328125 0 
L 50.6875 18.703125 
L 17.828125 18.703125 
L 11.1875 0 
L 0.78125 0 
z
" id="DejaVuSans-65"/>
       <path d="M 18.109375 8.203125 
L 18.109375 -20.796875 
L 9.078125 -20.796875 
L 9.078125 54.6875 
L 18.109375 54.6875 
L 18.109375 46.390625 
Q 20.953125 51.265625 25.265625 53.625 
Q 29.59375 56 35.59375 56 
Q 45.5625 56 51.78125 48.09375 
Q 58.015625 40.1875 58.015625 27.296875 
Q 58.015625 14.40625 51.78125 6.484375 
Q 45.5625 -1.421875 35.59375 -1.421875 
Q 29.59375 -1.421875 25.265625 0.953125 
Q 20.953125 3.328125 18.109375 8.203125 
z
M 48.6875 27.296875 
Q 48.6875 37.203125 44.609375 42.84375 
Q 40.53125 48.484375 33.40625 48.484375 
Q 26.265625 48.484375 22.1875 42.84375 
Q 18.109375 37.203125 18.109375 27.296875 
Q 18.109375 17.390625 22.1875 11.75 
Q 26.265625 6.109375 33.40625 6.109375 
Q 40.53125 6.109375 44.609375 11.75 
Q 48.6875 17.390625 48.6875 27.296875 
z
" id="DejaVuSans-112"/>
       <path d="M 9.421875 75.984375 
L 18.40625 75.984375 
L 18.40625 0 
L 9.421875 0 
z
" id="DejaVuSans-108"/>
       <path d="M 18.3125 70.21875 
L 18.3125 54.6875 
L 36.8125 54.6875 
L 36.8125 47.703125 
L 18.3125 47.703125 
L 18.3125 18.015625 
Q 18.3125 11.328125 20.140625 9.421875 
Q 21.96875 7.515625 27.59375 7.515625 
L 36.8125 7.515625 
L 36.8125 0 
L 27.59375 0 
Q 17.1875 0 13.234375 3.875 
Q 9.28125 7.765625 9.28125 18.015625 
L 9.28125 47.703125 
L 2.6875 47.703125 
L 2.6875 54.6875 
L 9.28125 54.6875 
L 9.28125 70.21875 
z
" id="DejaVuSans-116"/>
       <path d="M 8.5 21.578125 
L 8.5 54.6875 
L 17.484375 54.6875 
L 17.484375 21.921875 
Q 17.484375 14.15625 20.5 10.265625 
Q 23.53125 6.390625 29.59375 6.390625 
Q 36.859375 6.390625 41.078125 11.03125 
Q 45.3125 15.671875 45.3125 23.6875 
L 45.3125 54.6875 
L 54.296875 54.6875 
L 54.296875 0 
L 45.3125 0 
L 45.3125 8.40625 
Q 42.046875 3.421875 37.71875 1 
Q 33.40625 -1.421875 27.6875 -1.421875 
Q 18.265625 -1.421875 13.375 4.4375 
Q 8.5 10.296875 8.5 21.578125 
z
M 31.109375 56 
z
" id="DejaVuSans-117"/>
       <path d="M 45.40625 46.390625 
L 45.40625 75.984375 
L 54.390625 75.984375 
L 54.390625 0 
L 45.40625 0 
L 45.40625 8.203125 
Q 42.578125 3.328125 38.25 0.953125 
Q 33.9375 -1.421875 27.875 -1.421875 
Q 17.96875 -1.421875 11.734375 6.484375 
Q 5.515625 14.40625 5.515625 27.296875 
Q 5.515625 40.1875 11.734375 48.09375 
Q 17.96875 56 27.875 56 
Q 33.9375 56 38.25 53.625 
Q 42.578125 51.265625 45.40625 46.390625 
z
M 14.796875 27.296875 
Q 14.796875 17.390625 18.875 11.75 
Q 22.953125 6.109375 30.078125 6.109375 
Q 37.203125 6.109375 41.296875 11.75 
Q 45.40625 17.390625 45.40625 27.296875 
Q 45.40625 37.203125 41.296875 42.84375 
Q 37.203125 48.484375 30.078125 48.484375 
Q 22.953125 48.484375 18.875 42.84375 
Q 14.796875 37.203125 14.796875 27.296875 
z
" id="DejaVuSans-100"/>
      </defs>
      <use xlink:href="#DejaVuSans-65"/>
      <use x="68.408203" xlink:href="#DejaVuSans-109"/>
      <use x="165.820312" xlink:href="#DejaVuSans-112"/>
      <use x="229.296875" xlink:href="#DejaVuSans-108"/>
      <use x="257.080078" xlink:href="#DejaVuSans-105"/>
      <use x="284.863281" xlink:href="#DejaVuSans-116"/>
      <use x="324.072266" xlink:href="#DejaVuSans-117"/>
      <use x="387.451172" xlink:href="#DejaVuSans-100"/>
      <use x="450.927734" xlink:href="#DejaVuSans-101"/>
      <use x="512.451172" xlink:href="#DejaVuSans-32"/>
      <use x="544.238281" xlink:href="#DejaVuSans-48"/>
     </g>
    </g>
   </g>
   <g id="line2d_25">
    <path clip-path="url(#pfa012cfe8b)" d="M 48.982813 76.187838 
L 57.899715 76.345328 
L 58.11458 76.171418 
L 58.436878 76.522408 
L 58.651743 76.330514 
L 58.866608 76.433352 
L 58.97404 76.520638 
L 59.081473 76.437064 
L 59.188906 76.528342 
L 59.403771 76.326566 
L 59.618636 76.382734 
L 59.833501 76.352025 
L 59.940933 76.499272 
L 60.155799 76.354296 
L 60.263231 76.413394 
L 60.478096 76.275847 
L 60.585529 76.478839 
L 60.800394 76.189174 
L 61.015259 76.353407 
L 61.230124 76.400855 
L 61.444989 76.253089 
L 61.767287 76.454656 
L 62.089585 76.45548 
L 62.411882 76.188005 
L 62.626747 76.629327 
L 62.841613 76.285763 
L 63.056478 76.191591 
L 63.16391 76.459755 
L 63.378775 76.40909 
L 63.701073 76.348033 
L 63.808506 76.193571 
L 64.238236 76.390037 
L 64.345668 76.40257 
L 64.453101 76.564459 
L 64.775399 76.157274 
L 65.097696 76.486236 
L 65.312561 76.309498 
L 65.527426 76.412452 
L 66.172022 76.457311 
L 66.279454 76.243005 
L 66.601752 76.38862 
L 66.816617 76.262034 
L 66.92405 76.443405 
L 67.031482 76.362251 
L 67.246347 76.565107 
L 67.461213 76.367379 
L 67.568645 76.389014 
L 67.676078 76.267815 
L 67.890943 76.401101 
L 67.998375 76.344241 
L 68.21324 76.435551 
L 68.965268 76.473153 
L 69.072701 76.228879 
L 69.394999 76.519507 
L 69.717296 76.286367 
L 69.932161 76.544844 
L 70.147026 76.348259 
L 70.469324 76.358363 
L 70.576757 76.480697 
L 70.791622 76.362767 
L 71.006487 76.442919 
L 71.221352 76.35069 
L 71.436217 76.39772 
L 71.758515 76.494873 
L 71.865947 76.296785 
L 72.188245 76.453487 
L 72.295678 76.278267 
L 72.83284 76.656036 
L 72.940273 76.357783 
L 73.155138 76.53037 
L 73.584868 76.437874 
L 73.692301 76.541309 
L 74.229464 76.361072 
L 74.444329 76.435425 
L 74.981492 76.287192 
L 75.196357 76.341203 
L 75.411222 76.290715 
L 75.733519 76.379244 
L 76.270682 76.347576 
L 76.378115 76.435918 
L 76.59298 76.355111 
L 76.915278 76.490557 
L 77.130143 76.266247 
L 77.237575 76.433568 
L 77.345008 76.373054 
L 77.667306 76.53761 
L 77.774738 76.268147 
L 78.097036 76.370547 
L 78.526766 76.472845 
L 78.741631 76.309454 
L 78.956496 76.493944 
L 79.171361 76.435118 
L 79.386226 76.444213 
L 79.601092 76.396009 
L 79.923389 76.39185 
L 80.138254 76.454064 
L 80.353119 76.376746 
L 80.460552 76.576448 
L 80.78285 76.430352 
L 80.890282 76.368917 
L 80.997715 76.460086 
L 81.21258 76.210008 
L 81.427445 76.532418 
L 81.64231 76.314593 
L 81.749743 76.508786 
L 82.07204 76.381852 
L 82.286906 76.312144 
L 82.501771 76.232896 
L 82.716636 76.528127 
L 82.931501 76.362995 
L 83.146366 76.359939 
L 83.361231 76.454362 
L 83.790961 76.197534 
L 84.005826 76.264395 
L 84.220692 76.460227 
L 84.542989 76.213877 
L 84.865287 76.402092 
L 85.295017 76.420561 
L 85.509882 76.355341 
L 86.047045 76.269991 
L 86.26191 76.467548 
L 86.369343 76.462848 
L 86.476775 76.18263 
L 86.69164 76.606303 
L 86.799073 76.467134 
L 86.906506 76.123905 
L 87.228803 76.375871 
L 87.980831 76.362121 
L 88.088264 76.229723 
L 88.195696 76.448303 
L 88.410561 76.383872 
L 89.055157 76.316267 
L 89.807185 76.339436 
L 90.129482 76.498335 
L 90.236915 76.336937 
L 90.344347 76.526714 
L 90.45178 76.228782 
L 90.666645 76.346678 
L 90.774078 76.136561 
L 91.31124 76.367997 
L 91.633538 76.349765 
L 91.955836 76.360891 
L 92.170701 76.253422 
L 92.492999 76.413456 
L 92.815296 76.521906 
L 93.030161 76.20273 
L 93.352459 76.243214 
L 93.459892 76.181329 
L 93.782189 76.345731 
L 94.104487 76.400375 
L 94.319352 76.182171 
L 94.64165 76.359763 
L 95.07138 76.390028 
L 95.178813 76.248502 
L 95.286245 76.463859 
L 95.608543 76.340033 
L 95.93084 76.316892 
L 96.145706 76.233797 
L 96.360571 76.546153 
L 96.468003 76.406428 
L 96.575436 76.482504 
L 96.790301 76.372634 
L 97.005166 76.467754 
L 97.327464 76.459255 
L 97.434896 76.469678 
L 97.542329 76.292174 
L 97.649761 76.415574 
L 97.757194 76.212226 
L 97.864626 76.2481 
L 97.972059 76.478678 
L 98.186924 76.315319 
L 98.401789 76.371437 
L 98.509222 76.492118 
L 98.724087 76.38636 
L 98.831519 76.325804 
L 98.938952 76.558283 
L 99.26125 76.306883 
L 99.583547 76.575703 
L 99.69098 76.427823 
L 99.798413 76.512318 
L 99.905845 76.242855 
L 100.013278 76.366436 
L 100.228143 76.324946 
L 101.087603 76.305718 
L 101.195036 76.447303 
L 101.409901 76.249709 
L 101.839631 76.386576 
L 102.054496 76.383482 
L 103.128822 76.324048 
L 103.236254 76.541699 
L 103.451119 76.149081 
L 103.558552 76.262507 
L 103.665985 76.537114 
L 103.988282 76.29937 
L 104.203147 76.398866 
L 104.31058 76.397654 
L 104.418013 76.134361 
L 104.632878 76.337693 
L 104.847743 76.397686 
L 104.955175 76.468615 
L 105.062608 76.289138 
L 105.17004 76.436373 
L 105.384906 76.305017 
L 105.599771 76.42227 
L 105.814636 76.145401 
L 106.029501 76.539961 
L 106.244366 76.213979 
L 106.566664 76.493561 
L 106.888961 76.328007 
L 107.211259 76.410564 
L 107.318692 76.281931 
L 107.533557 76.449827 
L 107.748422 76.28769 
L 107.855854 76.357089 
L 108.070719 76.319033 
L 108.393017 76.450435 
L 108.607882 76.584928 
L 109.037612 76.329114 
L 109.252478 76.405763 
L 109.35991 76.222396 
L 109.574775 76.473993 
L 109.78964 76.406171 
L 110.004506 76.496429 
L 110.111938 76.2313 
L 110.326803 76.349399 
L 110.541668 76.288731 
L 110.649101 76.276729 
L 110.756533 76.416375 
L 110.863966 76.339167 
L 110.971399 76.46503 
L 111.186264 76.39387 
L 111.401129 76.429176 
L 111.508561 76.320646 
L 111.723426 76.37406 
L 111.830859 76.255005 
L 112.045724 76.426979 
L 112.260589 76.22349 
L 112.475454 76.346785 
L 113.012617 76.243251 
L 113.12005 76.404767 
L 113.227482 76.298798 
L 113.442347 76.492199 
L 113.54978 76.279428 
L 113.97951 76.394211 
L 114.194375 76.448199 
L 114.301808 76.203913 
L 114.624106 76.372731 
L 115.053836 78.782571 
L 115.268701 79.773734 
L 115.376133 79.812706 
L 115.590999 79.230677 
L 116.020729 76.501814 
L 116.343026 74.630919 
L 116.880189 73.578607 
L 116.987622 73.779714 
L 117.202487 74.021692 
L 117.417352 74.96672 
L 117.954515 78.385311 
L 118.16938 78.236846 
L 118.276813 78.322588 
L 118.491678 77.472214 
L 119.02884 75.501574 
L 119.136273 75.596612 
L 119.351138 76.163679 
L 119.673436 76.55727 
L 119.780868 76.410188 
L 119.888301 76.529914 
L 119.995733 76.392049 
L 120.210599 75.866011 
L 120.318031 75.903661 
L 120.425464 75.564417 
L 120.532896 75.604557 
L 121.177492 76.963826 
L 121.392357 77.161787 
L 121.499789 77.146287 
L 121.714654 76.696524 
L 122.036952 76.417297 
L 122.144385 76.464871 
L 122.251817 76.378132 
L 122.466682 76.540721 
L 122.574115 76.558983 
L 123.433575 75.625408 
L 123.755873 76.560497 
L 124.293036 77.22234 
L 124.400468 77.254187 
L 125.045064 76.394546 
L 125.152496 76.530016 
L 125.259929 76.416369 
L 125.797092 76.897825 
L 126.119389 76.560381 
L 126.441687 76.631375 
L 126.549119 76.535455 
L 126.656552 76.589471 
L 126.763985 76.820022 
L 126.97885 76.764031 
L 127.086282 76.737782 
L 127.40858 76.146711 
L 127.623445 75.668876 
L 128.160608 75.109301 
L 128.26804 75.15618 
L 128.375473 74.441239 
L 128.482906 74.974308 
L 128.590338 73.758593 
L 128.697771 74.127558 
L 128.912636 77.697777 
L 129.020068 77.150514 
L 129.127501 77.406205 
L 129.342366 77.133942 
L 129.449799 77.15303 
L 129.879529 75.350901 
L 130.094394 76.359635 
L 130.309259 76.694858 
L 130.416692 77.044623 
L 130.524124 77.817989 
L 131.383585 75.648913 
L 131.491017 76.223991 
L 131.59845 75.76526 
L 131.705882 76.213394 
L 131.813315 75.826422 
L 131.920747 77.267265 
L 132.02818 76.024863 
L 132.135613 77.001196 
L 132.243045 75.629193 
L 132.350478 76.597379 
L 132.672775 75.255344 
L 132.780208 75.650253 
L 132.88764 75.089405 
L 133.102506 75.594401 
L 133.209938 75.480525 
L 133.317371 75.842071 
L 133.424803 75.804471 
L 133.532236 76.343317 
L 133.854533 76.115706 
L 133.961966 76.306855 
L 134.069399 75.991464 
L 134.176831 76.224469 
L 134.284264 75.969525 
L 134.499129 76.633483 
L 135.036292 77.546836 
L 135.358589 77.810204 
L 135.680887 77.562881 
L 135.895752 77.171659 
L 137.07751 75.731927 
L 137.614673 72.974155 
L 137.829538 72.063913 
L 137.936971 71.993418 
L 138.151836 72.897909 
L 138.474133 76.812054 
L 138.581566 77.440283 
L 138.688999 76.807798 
L 138.796431 78.546772 
L 138.903864 76.628124 
L 139.011296 76.781295 
L 139.118729 75.565401 
L 139.226161 76.411389 
L 139.441026 70.340583 
L 139.655892 57.634792 
L 139.870757 45.249632 
L 139.978189 43.939194 
L 140.193054 45.588598 
L 140.622785 65.895575 
L 141.159947 91.298285 
L 141.589678 101.7026 
L 141.804543 102.685859 
L 141.911975 102.561546 
L 142.019408 102.263925 
L 142.234273 97.47775 
L 142.771436 84.069479 
L 142.878868 84.120951 
L 142.986301 85.903971 
L 143.523464 103.035598 
L 143.630896 103.604441 
L 143.738329 102.882554 
L 143.953194 95.151507 
L 144.490357 58.94863 
L 144.705222 52.237002 
L 144.920087 51.006134 
L 145.242385 53.463223 
L 145.349817 57.213526 
L 145.45725 56.118104 
L 145.564682 58.790469 
L 145.672115 58.679231 
L 145.88698 62.624469 
L 146.101845 65.709761 
L 146.209278 64.76542 
L 146.31671 65.545184 
L 146.531575 64.614123 
L 147.068738 57.246344 
L 147.176171 56.891815 
L 147.283603 57.955505 
L 147.605901 69.426987 
L 148.250496 101.407701 
L 148.465361 103.401328 
L 148.572794 102.610102 
L 149.324822 89.341541 
L 149.969417 91.851966 
L 150.07685 91.736346 
L 150.50658 88.477457 
L 150.721445 86.274087 
L 150.93631 82.200819 
L 151.903203 49.652776 
L 152.010636 49.833318 
L 152.118068 50.265744 
L 152.225501 51.711539 
L 152.870096 69.259777 
L 153.299826 65.781183 
L 153.514692 61.545697 
L 153.622124 61.271599 
L 153.729557 60.643666 
L 153.836989 61.125935 
L 154.159287 68.889029 
L 154.911315 89.729678 
L 155.448478 98.585735 
L 155.55591 99.669488 
L 155.770775 98.989976 
L 156.522803 84.416983 
L 156.737668 83.68302 
L 157.167399 88.033429 
L 157.274831 88.383427 
L 157.382264 88.001166 
L 157.489696 86.536023 
L 158.456589 57.369086 
L 158.671454 55.406467 
L 158.778887 55.272682 
L 159.638347 62.67779 
L 159.960645 67.908816 
L 160.068078 68.205715 
L 160.17551 69.905969 
L 160.497808 69.374008 
L 160.712673 68.521383 
L 160.820106 68.547804 
L 160.927538 69.158099 
L 161.142403 72.963033 
L 162.109296 98.480665 
L 163.291054 86.769331 
L 163.613352 84.149317 
L 164.472812 77.560071 
L 165.117408 61.850185 
L 165.439706 54.552662 
L 165.547138 54.360669 
L 165.869436 55.997012 
L 166.299166 65.363213 
L 166.514031 68.496839 
L 166.728896 69.288722 
L 166.836329 69.134103 
L 166.943761 69.349497 
L 167.051194 69.286066 
L 167.158626 69.56817 
L 167.373492 71.092029 
L 167.695789 75.563879 
L 168.770115 94.450298 
L 168.98498 96.196745 
L 169.092412 96.142685 
L 169.199845 96.352235 
L 169.41471 94.114929 
L 169.84444 84.870181 
L 170.059306 81.773542 
L 170.274171 80.719761 
L 170.381603 80.615567 
L 170.489036 80.764699 
L 170.596468 81.27924 
L 170.811333 80.887901 
L 171.133631 76.437307 
L 171.885659 61.186889 
L 172.207957 59.044817 
L 172.422822 59.25722 
L 172.637687 59.771218 
L 172.852552 61.909448 
L 173.819445 74.096053 
L 174.141743 74.757923 
L 174.249175 74.763292 
L 174.46404 76.475455 
L 175.430933 94.088186 
L 175.538366 94.32201 
L 175.645799 94.159079 
L 175.860664 92.908844 
L 176.290394 87.776394 
L 176.612692 84.58623 
L 176.934989 81.756573 
L 177.687017 74.562202 
L 178.116747 69.844908 
L 178.65391 62.183896 
L 178.868775 59.511696 
L 178.976208 58.967012 
L 179.08364 59.254257 
L 179.298506 60.91887 
L 180.265399 72.132041 
L 180.372831 72.584468 
L 180.695129 75.018281 
L 180.909994 77.635336 
L 181.769454 87.443353 
L 182.199185 90.524101 
L 182.41405 91.506882 
L 182.521482 91.402631 
L 182.628915 91.027913 
L 182.951212 88.205446 
L 183.488375 80.481011 
L 183.810673 78.013252 
L 184.455268 72.922401 
L 185.314729 63.252102 
L 185.529594 62.790548 
L 185.851892 63.110525 
L 186.174189 64.735058 
L 186.603919 68.864671 
L 187.03365 74.423593 
L 188.107975 83.527981 
L 188.752571 89.731894 
L 188.860003 89.969552 
L 188.967436 89.86918 
L 189.289733 88.284467 
L 190.149194 81.07871 
L 190.471492 77.651409 
L 191.223519 70.327873 
L 192.08298 64.133861 
L 192.297845 63.655972 
L 192.51271 63.769501 
L 193.157306 69.567446 
L 193.587036 73.855284 
L 194.016766 77.853794 
L 195.198524 87.103428 
L 195.305957 87.231528 
L 195.520822 87.799614 
L 195.843119 87.599258 
L 196.057985 87.084822 
L 196.595147 81.893498 
L 197.347175 74.475999 
L 197.56204 72.85997 
L 198.528933 65.434446 
L 198.743799 65.180013 
L 198.851231 65.217391 
L 199.388394 67.235283 
L 199.710692 69.149273 
L 200.247854 74.976347 
L 200.89245 80.677833 
L 201.644478 85.947393 
L 201.859343 86.600333 
L 202.074208 87.334203 
L 202.289073 87.31004 
L 202.396506 86.93076 
L 203.900561 74.943623 
L 204.437724 69.747558 
L 204.974887 67.224669 
L 205.297185 66.514606 
L 205.51205 66.294681 
L 205.726915 66.648667 
L 206.049213 68.128595 
L 206.478943 71.90958 
L 206.908673 75.846787 
L 207.123538 77.175606 
L 208.090431 84.94809 
L 208.520161 86.061682 
L 208.627594 86.085182 
L 208.735026 85.72453 
L 208.842459 85.86034 
L 209.057324 85.137208 
L 209.594487 82.347365 
L 210.56138 73.691337 
L 211.205975 69.204228 
L 211.635706 67.17948 
L 211.743138 67.208835 
L 211.958003 66.874528 
L 212.172868 67.245159 
L 212.710031 69.716577 
L 214.428952 82.886506 
L 214.858682 84.704162 
L 215.288412 85.480907 
L 215.825575 83.784718 
L 216.899901 75.970801 
L 217.974226 68.299353 
L 218.189092 68.31619 
L 218.511389 68.04165 
L 218.833687 68.195234 
L 219.155985 69.527785 
L 219.908012 74.644465 
L 220.337743 77.972693 
L 221.089771 83.166252 
L 221.412068 84.376726 
L 221.734366 84.575246 
L 221.841799 84.561648 
L 222.056664 84.116238 
L 222.916124 80.191254 
L 224.527612 69.29302 
L 224.635045 69.281445 
L 224.957343 68.340378 
L 225.27964 68.595085 
L 225.601938 69.815786 
L 227.643157 82.674166 
L 228.072887 83.714572 
L 228.287752 83.919532 
L 228.395185 83.710157 
L 228.502617 83.833712 
L 228.61005 83.673981 
L 229.254645 81.222282 
L 229.89924 76.416573 
L 230.006673 76.059596 
L 230.758701 71.122375 
L 231.295864 69.300889 
L 231.510729 69.161925 
L 231.618161 69.191356 
L 232.047892 70.173745 
L 232.692487 72.701232 
L 233.65938 79.48311 
L 233.874245 80.641079 
L 234.08911 81.526114 
L 234.51884 83.148575 
L 234.733706 83.376056 
L 234.841138 83.54583 
L 235.485733 81.959252 
L 236.452626 76.695802 
L 236.882357 73.530736 
L 237.526952 70.577578 
L 237.956682 69.773899 
L 238.171547 69.628129 
L 238.27898 69.639117 
L 238.70871 70.582304 
L 239.783036 76.759126 
L 240.105333 78.739909 
L 240.320199 79.650388 
L 240.642496 81.407859 
L 240.964794 82.283311 
L 241.287092 82.877498 
L 241.609389 82.623543 
L 242.253985 80.67948 
L 242.576282 78.84289 
L 244.080338 70.981937 
L 244.510068 69.970278 
L 245.262096 71.149496 
L 247.195882 81.053938 
L 247.94791 82.448629 
L 248.055343 82.421019 
L 248.37764 81.824293 
L 248.592506 81.070066 
L 250.096561 73.38062 
L 250.956022 70.78963 
L 251.063454 70.627639 
L 251.278319 70.742144 
L 251.385752 70.728443 
L 251.493185 70.855341 
L 252.245212 73.45595 
L 253.319538 79.054991 
L 253.749268 80.900735 
L 254.286431 81.88101 
L 254.501296 82.101091 
L 254.608729 82.037984 
L 255.468189 79.343679 
L 256.972245 72.070612 
L 257.401975 71.084301 
L 257.61684 71.105985 
L 257.831706 71.109539 
L 257.939138 71.156926 
L 258.476301 72.540443 
L 260.302654 80.725222 
L 260.839817 81.576262 
L 260.94725 81.519863 
L 261.162115 81.283796 
L 261.269547 81.244916 
L 261.699278 80.244477 
L 262.129008 78.469164 
L 262.881036 74.978395 
L 263.418199 72.780824 
L 263.633064 72.189811 
L 263.740496 72.068401 
L 263.955361 71.318224 
L 264.599957 71.651117 
L 264.922254 72.580555 
L 265.56685 75.16543 
L 266.748608 80.111696 
L 266.85604 80.191722 
L 267.285771 81.086323 
L 267.500636 81.156826 
L 267.930366 80.669969 
L 268.360096 79.414817 
L 268.789826 77.559106 
L 269.219557 75.838146 
L 270.293882 72.222006 
L 270.401315 72.19854 
L 270.831045 71.749069 
L 271.04591 72.094129 
L 271.47564 72.918989 
L 272.012803 75.118486 
L 272.120236 75.365283 
L 272.657399 77.686195 
L 273.516859 80.485981 
L 273.946589 80.848064 
L 274.054022 80.852594 
L 274.268887 80.398071 
L 274.376319 80.430781 
L 274.483752 80.310346 
L 274.913482 78.914612 
L 275.343212 77.752094 
L 275.66551 76.081033 
L 276.847268 72.487651 
L 276.954701 72.261495 
L 277.062133 72.372545 
L 277.276999 72.275014 
L 277.384431 72.211415 
L 278.243892 74.002141 
L 278.995919 76.793945 
L 279.318217 78.004366 
L 279.533082 78.755056 
L 279.747947 79.415251 
L 279.962812 79.979192 
L 280.28511 80.42599 
L 280.392543 80.421668 
L 280.499975 80.287639 
L 280.71484 80.296881 
L 280.822273 80.319721 
L 281.037138 80.006048 
L 281.466868 78.554568 
L 281.681733 78.133705 
L 282.111464 76.438586 
L 282.433761 75.323164 
L 282.863492 73.836642 
L 283.508087 72.497557 
L 283.830385 72.59008 
L 284.152682 72.732921 
L 284.47498 73.419804 
L 286.193901 79.11573 
L 286.731064 80.144468 
L 287.053361 80.120014 
L 287.160794 80.129111 
L 287.268226 80.00166 
L 287.375659 80.104199 
L 288.557417 76.587914 
L 289.309445 74.128441 
L 289.739175 73.247741 
L 290.276338 72.829216 
L 290.491203 72.891136 
L 291.458096 74.751706 
L 292.854719 79.310035 
L 293.069585 79.547381 
L 293.177017 79.767216 
L 293.28445 79.687808 
L 293.499315 79.868664 
L 293.71418 79.956891 
L 293.929045 79.483826 
L 294.251343 79.077604 
L 294.57364 78.128008 
L 295.325668 75.842669 
L 295.647966 74.748917 
L 295.970264 74.06234 
L 296.185129 73.416866 
L 296.292561 73.387957 
L 296.614859 73.105357 
L 296.829724 72.997859 
L 297.044589 73.22961 
L 297.152022 73.230239 
L 297.366887 73.502403 
L 297.474319 73.568202 
L 297.689185 74.178148 
L 299.408106 79.077616 
L 300.160133 79.757554 
L 300.374999 79.436985 
L 301.127026 78.12441 
L 301.341892 77.276949 
L 301.556757 76.704136 
L 301.879054 75.71911 
L 302.738515 73.642302 
L 303.060812 73.439034 
L 303.275678 73.284812 
L 303.38311 73.164332 
L 303.597975 73.440816 
L 303.81284 73.545425 
L 304.027706 73.877212 
L 304.887166 76.379441 
L 305.102031 76.932251 
L 305.424329 77.878559 
L 305.961492 78.983127 
L 306.283789 79.449898 
L 306.928385 79.31723 
L 308.217575 76.178567 
L 308.539873 75.305964 
L 308.862171 74.581743 
L 309.399333 73.604977 
L 309.721631 73.488793 
L 310.043929 73.604645 
L 310.258794 73.752185 
L 310.366226 73.723792 
L 310.795957 74.799685 
L 311.010822 75.385812 
L 311.118254 75.486476 
L 311.440552 76.546208 
L 311.547985 76.638908 
L 311.870282 77.755882 
L 312.300012 78.584514 
L 312.514878 78.848442 
L 313.05204 79.115735 
L 313.374338 78.98898 
L 313.696636 78.590302 
L 314.985826 75.645622 
L 315.415557 74.57065 
L 315.630422 74.111757 
L 315.737854 74.089033 
L 315.952719 73.789407 
L 316.060152 73.920214 
L 316.167585 73.656615 
L 316.275017 73.695157 
L 316.38245 73.578613 
L 317.456775 75.085762 
L 317.779073 76.166017 
L 317.993938 76.624003 
L 318.208803 76.961471 
L 318.423668 77.591243 
L 318.531101 77.741382 
L 318.745966 78.258062 
L 319.068264 78.732467 
L 319.283129 78.976007 
L 319.497994 78.968132 
L 319.820292 79.006586 
L 320.572319 77.859089 
L 320.787185 77.252031 
L 321.109482 76.433624 
L 321.324347 76.122097 
L 321.86151 74.761569 
L 322.613538 73.75607 
L 323.365566 74.309373 
L 323.472999 74.205499 
L 325.084487 77.711153 
L 325.836515 78.824169 
L 326.05138 78.820798 
L 326.158813 78.85435 
L 326.373678 78.620278 
L 326.588543 78.43731 
L 326.695975 78.363104 
L 327.018273 77.738216 
L 328.092599 75.345232 
L 328.307464 74.979015 
L 328.414896 74.866406 
L 328.737194 74.300541 
L 329.059492 74.072131 
L 329.274357 73.957277 
L 329.381789 74.091053 
L 329.489222 74.03936 
L 330.563547 75.489672 
L 331.208143 77.019085 
L 331.315575 77.143845 
L 331.637873 77.958027 
L 331.960171 78.269688 
L 332.282468 78.577007 
L 332.712199 78.781233 
L 333.034496 78.267467 
L 333.249361 78.083171 
L 333.893957 76.937729 
L 334.001389 76.860718 
L 335.398012 74.218303 
L 335.612878 74.522841 
L 335.827743 74.192538 
L 336.15004 74.181545 
L 336.687203 74.950501 
L 336.794636 75.400477 
L 336.902068 75.269708 
L 337.009501 75.414764 
L 337.439231 76.547491 
L 337.546664 76.497884 
L 337.761529 77.208389 
L 337.868961 77.259345 
L 338.298692 77.982609 
L 338.620989 78.437403 
L 338.728422 78.216507 
L 339.050719 78.527586 
L 339.373017 78.346258 
L 339.802747 77.921611 
L 340.017612 77.650343 
L 340.447343 76.836355 
L 341.199371 75.366153 
L 341.414236 74.854714 
L 341.629101 74.729581 
L 341.843966 74.511679 
L 342.166264 74.382886 
L 342.381129 74.335984 
L 342.595994 74.368273 
L 342.918292 74.85274 
L 343.025724 74.748757 
L 343.562887 75.800899 
L 343.670319 75.79329 
L 343.777752 75.999102 
L 343.992617 76.60761 
L 344.207482 76.905142 
L 344.422347 77.439694 
L 345.281808 78.291816 
L 345.496673 78.26377 
L 345.604106 78.410957 
L 345.818971 78.223479 
L 346.033836 78.163424 
L 346.248701 77.849209 
L 346.463566 77.447976 
L 346.678431 77.388413 
L 348.075054 74.654774 
L 348.182487 74.736141 
L 348.289919 74.675042 
L 348.397352 74.802017 
L 348.934515 74.420259 
L 349.041947 74.623912 
L 349.14938 74.580046 
L 349.793975 75.271036 
L 350.331138 76.302403 
L 351.298031 77.954154 
L 351.620329 78.007503 
L 351.835194 78.127869 
L 352.264924 78.175411 
L 352.479789 78.001659 
L 353.016952 77.391457 
L 353.446682 76.816503 
L 354.19871 75.414901 
L 354.306143 75.378057 
L 354.521008 74.766567 
L 354.62844 74.846466 
L 354.843306 74.876466 
L 354.950738 74.726068 
L 355.058171 74.827639 
L 355.273036 74.546437 
L 355.487901 74.62437 
L 355.595333 74.56241 
L 355.810199 74.981363 
L 355.917631 75.012243 
L 356.132496 75.383372 
L 356.347361 75.492474 
L 357.314254 77.131739 
L 358.281147 77.946107 
L 358.38858 77.88408 
L 358.710878 78.103647 
L 358.81831 78.030787 
L 359.033175 77.766292 
L 359.140608 77.825564 
L 359.355473 77.531114 
L 359.570338 77.472723 
L 359.785203 76.866738 
L 360.000068 76.49843 
L 360.214933 76.26887 
L 360.429799 75.58144 
L 360.537231 75.721786 
L 360.966961 75.408208 
L 361.181826 74.928987 
L 361.289259 74.857762 
L 361.396692 74.987877 
L 361.826422 74.696081 
L 362.57845 75.205441 
L 362.793315 75.601161 
L 363.223045 76.002693 
L 363.43791 76.390992 
L 363.975073 77.204099 
L 364.189938 77.361775 
L 364.404803 77.784131 
L 364.727101 77.873825 
L 364.941966 77.987259 
L 365.049399 77.951809 
L 365.156831 77.746954 
L 365.264264 77.826557 
L 365.371696 77.705935 
L 365.479129 77.756068 
L 365.693994 77.509523 
L 365.908859 77.440383 
L 366.446022 76.831274 
L 366.768319 76.073819 
L 366.875752 76.042962 
L 367.090617 75.686565 
L 367.19805 75.692167 
L 367.520347 75.122659 
L 367.62778 75.235152 
L 368.164943 74.796461 
L 368.379808 74.827286 
L 368.594673 74.959356 
L 368.809538 75.01921 
L 369.131836 75.395302 
L 369.561566 75.951147 
L 369.776431 76.322507 
L 369.883864 76.580565 
L 369.991296 76.547027 
L 370.098729 76.804326 
L 370.206161 76.770503 
L 370.313594 77.033699 
L 370.421026 76.962801 
L 370.743324 77.486565 
L 370.850757 77.452872 
L 370.958189 77.784293 
L 371.280487 77.742007 
L 371.495352 77.928964 
L 371.602785 77.691134 
L 371.81765 77.859224 
L 372.784543 76.735503 
L 373.10684 76.282067 
L 373.214273 76.377307 
L 373.644003 75.577002 
L 374.503464 75.004012 
L 374.718329 74.93574 
L 375.255492 75.137382 
L 375.470357 75.340361 
L 375.685222 75.398067 
L 376.007519 76.062213 
L 376.114952 76.107819 
L 376.43725 76.473938 
L 377.404143 77.547638 
L 377.511575 77.638298 
L 377.619008 77.504806 
L 377.833873 77.806519 
L 377.941306 77.839019 
L 378.263603 77.595248 
L 378.371036 77.600954 
L 378.478468 77.722571 
L 378.693333 77.484018 
L 378.800766 77.433681 
L 379.230496 76.721583 
L 379.445361 76.711959 
L 379.660226 76.085321 
L 379.767659 76.216672 
L 379.982524 75.907094 
L 380.734552 75.140157 
L 380.841985 75.125185 
L 380.949417 75.280837 
L 381.271715 74.975984 
L 381.48658 75.199541 
L 381.701445 75.180123 
L 381.808878 75.31207 
L 381.91631 75.137762 
L 382.131175 75.350688 
L 383.312933 76.866337 
L 383.420366 76.962438 
L 383.635231 77.35691 
L 383.850096 77.375144 
L 384.387259 77.70666 
L 384.709557 77.771132 
L 385.139287 77.322769 
L 385.246719 77.260448 
L 385.354152 77.061765 
L 385.569017 77.078498 
L 385.783882 76.732029 
L 385.891315 76.65262 
L 386.10618 76.171737 
L 386.213613 76.251325 
L 386.53591 75.90761 
L 386.96564 75.433418 
L 387.287938 75.190981 
L 387.395371 75.330667 
L 387.610236 75.023583 
L 387.825101 75.240668 
L 387.932533 75.254767 
L 388.039966 75.114027 
L 388.577129 75.701415 
L 388.899426 75.943811 
L 389.114292 76.257603 
L 389.329157 76.359263 
L 390.081185 77.244093 
L 390.188617 77.194214 
L 390.403482 77.450605 
L 390.833213 77.770736 
L 391.048078 77.414211 
L 391.370375 77.613161 
L 391.477808 77.554867 
L 391.800106 77.025179 
L 392.014971 77.100722 
L 392.444701 76.478082 
L 392.659566 76.212283 
L 392.766999 76.174684 
L 393.196729 75.357844 
L 393.411594 75.640164 
L 393.519026 75.334014 
L 393.626459 75.420109 
L 393.841324 75.16693 
L 394.056189 75.265284 
L 394.271054 74.948741 
L 394.485919 75.363504 
L 394.700785 75.384687 
L 394.91565 75.555094 
L 395.023082 75.474052 
L 395.237947 75.874342 
L 395.34538 75.843432 
L 395.882543 76.540788 
L 396.097408 76.593147 
L 396.312273 77.041818 
L 396.527138 76.959901 
L 396.742003 77.315387 
L 396.849436 77.245558 
L 397.171733 77.450174 
L 397.279166 77.292452 
L 397.494031 77.613037 
L 397.816329 77.419846 
L 397.923761 77.448682 
L 398.138626 76.981828 
L 398.246059 77.163648 
L 398.675789 76.836988 
L 398.783222 76.539187 
L 398.890654 76.681772 
L 399.427817 75.933578 
L 399.53525 75.939375 
L 400.179845 75.35349 
L 400.287278 75.428469 
L 400.609575 75.309043 
L 400.82444 75.36393 
L 401.146738 75.50103 
L 402.543361 76.635979 
L 402.758226 76.866217 
L 403.187957 77.154361 
L 403.402822 77.088495 
L 403.832552 77.535957 
L 404.047417 77.445299 
L 404.15485 77.570011 
L 404.477147 76.983922 
L 404.692013 77.244154 
L 405.01431 76.698612 
L 405.44404 76.522113 
L 405.766338 76.326299 
L 406.088636 75.86036 
L 406.196068 75.644177 
L 406.410933 75.728568 
L 406.733231 75.55183 
L 406.948096 75.483446 
L 407.270394 75.269976 
L 407.485259 75.639807 
L 407.592692 75.551381 
L 408.129854 75.867029 
L 408.237287 75.792568 
L 408.452152 76.107249 
L 408.667017 76.416181 
L 408.77445 76.323356 
L 409.419045 76.969948 
L 409.526478 76.991405 
L 409.63391 77.139773 
L 409.848775 76.943006 
L 409.956208 77.362426 
L 410.278506 77.27169 
L 410.385938 77.368343 
L 410.493371 77.146184 
L 410.708236 77.270631 
L 410.923101 77.219114 
L 411.460264 76.950502 
L 411.675129 76.63161 
L 412.319724 76.203524 
L 412.534589 75.742788 
L 412.749454 75.745864 
L 413.179185 75.353786 
L 413.39405 75.627949 
L 413.716347 75.313601 
L 413.931213 75.332646 
L 414.146078 75.600557 
L 414.360943 75.621403 
L 414.790673 76.073904 
L 414.898106 76.125604 
L 415.005538 76.464774 
L 415.220403 76.351401 
L 415.327836 76.570731 
L 415.435268 76.534511 
L 415.650133 76.889306 
L 415.864999 76.749843 
L 416.509594 77.303467 
L 416.617026 77.29282 
L 416.831892 76.955628 
L 417.046757 77.215287 
L 417.369054 77.151376 
L 417.691352 76.77319 
L 417.906217 76.950264 
L 418.335947 76.416018 
L 418.550813 76.203611 
L 418.658245 76.274962 
L 418.87311 76.03942 
L 419.195408 75.973125 
L 419.410273 75.613214 
L 420.162301 75.489457 
L 420.592031 75.516772 
L 420.699464 75.788665 
L 420.806896 75.661319 
L 421.129194 75.96524 
L 421.451492 76.116208 
L 422.848115 77.095929 
L 423.06298 77.099191 
L 423.170412 77.036474 
L 423.385278 77.260502 
L 423.707575 77.122087 
L 423.815008 76.904683 
L 423.92244 77.018612 
L 424.029873 76.699017 
L 424.137306 76.998743 
L 424.459603 76.610313 
L 424.567036 76.788905 
L 425.104199 76.110961 
L 425.211631 76.370509 
L 425.426496 75.877728 
L 425.641361 75.879944 
L 425.856226 75.60889 
L 425.963659 75.700785 
L 426.071092 75.536287 
L 426.178524 75.63004 
L 426.285957 75.572253 
L 426.393389 75.768768 
L 426.715687 75.549261 
L 426.823119 75.693185 
L 427.037985 75.564029 
L 427.467715 75.879376 
L 427.68258 75.89169 
L 428.327175 76.414753 
L 428.434608 76.417158 
L 428.54204 76.745822 
L 428.756906 76.684413 
L 428.971771 76.774235 
L 429.079203 76.779447 
L 429.401501 77.102159 
L 429.723799 76.964351 
L 429.938664 77.290698 
L 430.583259 77.036868 
L 431.012989 76.621567 
L 431.120422 76.591278 
L 431.335287 76.368507 
L 431.442719 76.456072 
L 431.657585 76.248215 
L 431.765017 76.185353 
L 431.87245 75.97238 
L 432.087315 75.988712 
L 432.409613 75.685778 
L 433.054208 75.588957 
L 433.16164 75.518894 
L 433.376506 75.624809 
L 433.591371 75.680031 
L 433.806236 75.7582 
L 433.913668 75.749726 
L 434.128533 75.926309 
L 434.235966 75.891725 
L 434.558264 76.262655 
L 434.665696 76.341177 
L 434.773129 76.215459 
L 434.987994 76.54294 
L 435.095426 76.7933 
L 435.310292 76.634095 
L 435.525157 76.95848 
L 435.632589 76.925581 
L 435.740022 77.175277 
L 435.847454 76.888972 
L 436.384617 77.156547 
L 436.49205 77.116278 
L 436.706915 77.15979 
L 437.244078 76.655434 
L 437.458943 76.77038 
L 437.888673 76.375788 
L 438.533268 76.195591 
L 438.748133 75.7879 
L 438.962999 75.65465 
L 439.070431 75.491254 
L 439.500161 75.84865 
L 439.607594 75.620098 
L 439.715026 75.821721 
L 439.822459 75.735177 
L 439.929892 75.807243 
L 440.037324 75.638058 
L 440.144757 75.844044 
L 440.252189 75.699913 
L 440.467054 75.850085 
L 440.681919 75.911686 
L 441.11165 76.311667 
L 441.219082 76.123669 
L 441.54138 76.719763 
L 442.078543 77.046242 
L 442.185975 76.808112 
L 442.40084 76.905566 
L 442.723138 77.036094 
L 443.367733 76.916795 
L 443.582599 76.836558 
L 444.549492 76.371669 
L 444.656924 75.99892 
L 444.764357 76.17457 
L 444.871789 75.979169 
L 444.979222 76.176058 
L 445.194087 75.855845 
L 445.301519 75.867099 
L 445.408952 75.647429 
L 445.73125 75.853488 
L 445.946115 75.527899 
L 446.053547 75.734696 
L 446.16098 75.67721 
L 446.375845 75.703027 
L 446.483278 75.610302 
L 446.698143 75.813843 
L 446.805575 75.740359 
L 446.913008 76.115499 
L 447.127873 76.001565 
L 447.235306 76.230411 
L 447.342738 76.172229 
L 447.450171 76.348485 
L 447.557603 76.287451 
L 447.879901 76.567916 
L 448.094766 76.630149 
L 448.309631 76.613271 
L 448.739361 76.879451 
L 448.954226 77.016104 
L 449.061659 77.076908 
L 449.169092 76.980035 
L 449.491389 77.091292 
L 449.598822 76.90248 
L 449.921119 76.941287 
L 450.028552 76.902625 
L 450.135985 76.7135 
L 450.243417 76.785306 
L 450.35085 76.623831 
L 450.565715 76.674598 
L 450.673147 76.466492 
L 450.78058 76.582975 
L 450.995445 76.188744 
L 451.317743 76.204833 
L 451.532608 76.040113 
L 451.747473 76.115761 
L 451.962338 75.811775 
L 452.069771 75.782429 
L 452.177203 75.939509 
L 452.392068 75.808039 
L 452.821799 75.596133 
L 453.144096 75.937958 
L 453.251529 75.914548 
L 453.466394 76.077174 
L 453.896124 76.124026 
L 454.110989 76.450616 
L 454.433287 76.459143 
L 455.40018 76.965905 
L 455.507612 76.942422 
L 455.615045 77.142953 
L 455.82991 76.79107 
L 456.152208 77.199027 
L 456.367073 76.754511 
L 457.226533 76.430886 
L 457.548831 76.250163 
L 457.871129 76.083264 
L 457.978561 76.162539 
L 458.085994 76.093082 
L 458.193426 76.204626 
L 458.408292 76.034925 
L 458.730589 75.739964 
L 459.267752 76.063691 
L 459.697482 75.999138 
L 459.912347 76.162171 
L 460.127213 76.188165 
L 460.44951 76.370109 
L 460.556943 76.547607 
L 460.771808 76.442973 
L 461.201538 76.767371 
L 461.308971 76.426622 
L 461.523836 76.786727 
L 461.631268 77.003533 
L 461.846133 76.86867 
L 461.953566 76.904456 
L 462.060999 76.78636 
L 462.168431 76.985448 
L 462.275864 76.927501 
L 462.383296 76.996513 
L 462.598161 76.647528 
L 462.705594 76.873076 
L 462.813026 76.687422 
L 463.027892 76.806102 
L 463.135324 76.80024 
L 463.350189 76.683864 
L 463.457622 76.777558 
L 463.672487 76.407919 
L 463.887352 76.232933 
L 463.994785 76.092681 
L 464.20965 76.135225 
L 464.63938 75.957436 
L 464.854245 75.892998 
L 464.961678 75.949943 
L 465.06911 75.76261 
L 465.391408 75.928985 
L 465.606273 75.835839 
L 465.821138 75.711927 
L 466.036003 75.940945 
L 466.143436 75.771761 
L 466.250868 76.184133 
L 466.358301 76.014449 
L 466.573166 76.380056 
L 466.680599 76.161899 
L 467.002896 76.247973 
L 467.217761 76.478333 
L 467.325194 76.384334 
L 467.647492 76.678894 
L 467.862357 76.61454 
L 468.077222 76.851685 
L 468.721817 76.84164 
L 468.936682 76.929466 
L 469.151547 76.846195 
L 469.366412 76.697972 
L 469.68871 76.621018 
L 469.903575 76.445583 
L 470.225873 76.454971 
L 470.440738 76.381823 
L 470.548171 76.309192 
L 470.763036 75.958126 
L 470.870468 76.24851 
L 470.977901 76.208991 
L 471.192766 75.871795 
L 471.407631 75.793889 
L 471.515064 75.992949 
L 471.729929 75.819981 
L 471.837361 75.772043 
L 472.052226 76.068499 
L 472.159659 76.070664 
L 472.267092 75.838496 
L 472.374524 75.956915 
L 472.481957 75.799484 
L 472.911687 76.222421 
L 473.233985 76.188521 
L 473.556282 76.418997 
L 473.663715 76.30544 
L 473.87858 76.626576 
L 473.986012 76.528067 
L 474.415743 76.825395 
L 474.630608 76.559038 
L 474.845473 76.876781 
L 474.952906 76.859771 
L 475.167771 77.036704 
L 475.382636 76.869878 
L 475.490068 76.951181 
L 475.704933 76.811133 
L 475.812366 76.799092 
L 475.919799 76.516474 
L 476.134664 76.656692 
L 476.349529 76.518802 
L 476.564394 76.377081 
L 476.671826 76.531991 
L 476.994124 76.148243 
L 477.101557 76.314101 
L 477.208989 76.034928 
L 477.531287 76.156841 
L 477.638719 76.038519 
L 477.853585 76.037305 
L 477.961017 76.047896 
L 478.175882 75.83519 
L 478.49818 76.036361 
L 478.605612 75.823297 
L 478.605612 75.823297 
" style="fill:none;stroke:#1f77b4;stroke-linecap:square;stroke-width:0.5;"/>
   </g>
   <g id="patch_3">
    <path d="M 48.982813 130.32 
L 48.982813 21.6 
" style="fill:none;stroke:#000000;stroke-linecap:square;stroke-linejoin:miter;stroke-width:0.8;"/>
   </g>
   <g id="patch_4">
    <path d="M 495.382812 130.32 
L 495.382812 21.6 
" style="fill:none;stroke:#000000;stroke-linecap:square;stroke-linejoin:miter;stroke-width:0.8;"/>
   </g>
   <g id="patch_5">
    <path d="M 48.982813 130.32 
L 495.382812 130.32 
" style="fill:none;stroke:#000000;stroke-linecap:square;stroke-linejoin:miter;stroke-width:0.8;"/>
   </g>
   <g id="patch_6">
    <path d="M 48.982813 21.6 
L 495.382812 21.6 
" style="fill:none;stroke:#000000;stroke-linecap:square;stroke-linejoin:miter;stroke-width:0.8;"/>
   </g>
  </g>
  <g id="text_15">
   <!-- Time Domain Amplitude -->
   <g transform="translate(180.3725 17.837812)scale(0.14 -0.14)">
    <defs>
     <path d="M 19.671875 64.796875 
L 19.671875 8.109375 
L 31.59375 8.109375 
Q 46.6875 8.109375 53.6875 14.9375 
Q 60.6875 21.78125 60.6875 36.53125 
Q 60.6875 51.171875 53.6875 57.984375 
Q 46.6875 64.796875 31.59375 64.796875 
z
M 9.8125 72.90625 
L 30.078125 72.90625 
Q 51.265625 72.90625 61.171875 64.09375 
Q 71.09375 55.28125 71.09375 36.53125 
Q 71.09375 17.671875 61.125 8.828125 
Q 51.171875 0 30.078125 0 
L 9.8125 0 
z
" id="DejaVuSans-68"/>
     <path d="M 30.609375 48.390625 
Q 23.390625 48.390625 19.1875 42.75 
Q 14.984375 37.109375 14.984375 27.296875 
Q 14.984375 17.484375 19.15625 11.84375 
Q 23.34375 6.203125 30.609375 6.203125 
Q 37.796875 6.203125 41.984375 11.859375 
Q 46.1875 17.53125 46.1875 27.296875 
Q 46.1875 37.015625 41.984375 42.703125 
Q 37.796875 48.390625 30.609375 48.390625 
z
M 30.609375 56 
Q 42.328125 56 49.015625 48.375 
Q 55.71875 40.765625 55.71875 27.296875 
Q 55.71875 13.875 49.015625 6.21875 
Q 42.328125 -1.421875 30.609375 -1.421875 
Q 18.84375 -1.421875 12.171875 6.21875 
Q 5.515625 13.875 5.515625 27.296875 
Q 5.515625 40.765625 12.171875 48.375 
Q 18.84375 56 30.609375 56 
z
" id="DejaVuSans-111"/>
     <path d="M 34.28125 27.484375 
Q 23.390625 27.484375 19.1875 25 
Q 14.984375 22.515625 14.984375 16.5 
Q 14.984375 11.71875 18.140625 8.90625 
Q 21.296875 6.109375 26.703125 6.109375 
Q 34.1875 6.109375 38.703125 11.40625 
Q 43.21875 16.703125 43.21875 25.484375 
L 43.21875 27.484375 
z
M 52.203125 31.203125 
L 52.203125 0 
L 43.21875 0 
L 43.21875 8.296875 
Q 40.140625 3.328125 35.546875 0.953125 
Q 30.953125 -1.421875 24.3125 -1.421875 
Q 15.921875 -1.421875 10.953125 3.296875 
Q 6 8.015625 6 15.921875 
Q 6 25.140625 12.171875 29.828125 
Q 18.359375 34.515625 30.609375 34.515625 
L 43.21875 34.515625 
L 43.21875 35.40625 
Q 43.21875 41.609375 39.140625 45 
Q 35.0625 48.390625 27.6875 48.390625 
Q 23 48.390625 18.546875 47.265625 
Q 14.109375 46.140625 10.015625 43.890625 
L 10.015625 52.203125 
Q 14.9375 54.109375 19.578125 55.046875 
Q 24.21875 56 28.609375 56 
Q 40.484375 56 46.34375 49.84375 
Q 52.203125 43.703125 52.203125 31.203125 
z
" id="DejaVuSans-97"/>
     <path d="M 54.890625 33.015625 
L 54.890625 0 
L 45.90625 0 
L 45.90625 32.71875 
Q 45.90625 40.484375 42.875 44.328125 
Q 39.84375 48.1875 33.796875 48.1875 
Q 26.515625 48.1875 22.3125 43.546875 
Q 18.109375 38.921875 18.109375 30.90625 
L 18.109375 0 
L 9.078125 0 
L 9.078125 54.6875 
L 18.109375 54.6875 
L 18.109375 46.1875 
Q 21.34375 51.125 25.703125 53.5625 
Q 30.078125 56 35.796875 56 
Q 45.21875 56 50.046875 50.171875 
Q 54.890625 44.34375 54.890625 33.015625 
z
" id="DejaVuSans-110"/>
    </defs>
    <use xlink:href="#DejaVuSans-84"/>
    <use x="57.958984" xlink:href="#DejaVuSans-105"/>
    <use x="85.742188" xlink:href="#DejaVuSans-109"/>
    <use x="183.154297" xlink:href="#DejaVuSans-101"/>
    <use x="244.677734" xlink:href="#DejaVuSans-32"/>
    <use x="276.464844" xlink:href="#DejaVuSans-68"/>
    <use x="353.466797" xlink:href="#DejaVuSans-111"/>
    <use x="414.648438" xlink:href="#DejaVuSans-109"/>
    <use x="512.060547" xlink:href="#DejaVuSans-97"/>
    <use x="573.339844" xlink:href="#DejaVuSans-105"/>
    <use x="601.123047" xlink:href="#DejaVuSans-110"/>
    <use x="664.501953" xlink:href="#DejaVuSans-32"/>
    <use x="696.289062" xlink:href="#DejaVuSans-65"/>
    <use x="764.697266" xlink:href="#DejaVuSans-109"/>
    <use x="862.109375" xlink:href="#DejaVuSans-112"/>
    <use x="925.585938" xlink:href="#DejaVuSans-108"/>
    <use x="953.369141" xlink:href="#DejaVuSans-105"/>
    <use x="981.152344" xlink:href="#DejaVuSans-116"/>
    <use x="1020.361328" xlink:href="#DejaVuSans-117"/>
    <use x="1083.740234" xlink:href="#DejaVuSans-100"/>
    <use x="1147.216797" xlink:href="#DejaVuSans-101"/>
   </g>
  </g>
 </g>
 <defs>
  <clipPath id="pfa012cfe8b">
   <rect height="108.72" width="446.4" x="48.982813" y="21.6"/>
  </clipPath>
 </defs>
</svg>
