<?xml version="1.0" encoding="utf-8" standalone="no"?>
<!DOCTYPE svg PUBLIC "-//W3C//DTD SVG 1.1//EN"
  "http://www.w3.org/Graphics/SVG/1.1/DTD/svg11.dtd">
<!-- Created with matplotlib (https://matplotlib.org/) -->
<svg height="167.87625pt" version="1.1" viewBox="0 0 508.945312 167.87625" width="508.945312pt" xmlns="http://www.w3.org/2000/svg" xmlns:xlink="http://www.w3.org/1999/xlink">
 <metadata>
  <rdf:RDF xmlns:cc="http://creativecommons.org/ns#" xmlns:dc="http://purl.org/dc/elements/1.1/" xmlns:rdf="http://www.w3.org/1999/02/22-rdf-syntax-ns#">
   <cc:Work>
    <dc:type rdf:resource="http://purl.org/dc/dcmitype/StillImage"/>
    <dc:date>2021-02-22T12:08:46.947069</dc:date>
    <dc:format>image/svg+xml</dc:format>
    <dc:creator>
     <cc:Agent>
      <dc:title>Matplotlib v3.3.2, https://matplotlib.org/</dc:title>
     </cc:Agent>
    </dc:creator>
   </cc:Work>
  </rdf:RDF>
 </metadata>
 <defs>
  <style type="text/css">*{stroke-linecap:butt;stroke-linejoin:round;}</style>
 </defs>
 <g id="figure_1">
  <g id="patch_1">
   <path d="M 0 167.87625 
L 508.945312 167.87625 
L 508.945312 0 
L 0 0 
z
" style="fill:none;"/>
  </g>
  <g id="axes_1">
   <g id="patch_2">
    <path d="M 48.982813 130.32 
L 495.382812 130.32 
L 495.382812 21.6 
L 48.982813 21.6 
z
" style="fill:#ffffff;"/>
   </g>
   <g id="matplotlib.axis_1">
    <g id="xtick_1">
     <g id="line2d_1">
      <path clip-path="url(#p91739dd464)" d="M 48.982813 130.32 
L 48.982813 21.6 
" style="fill:none;stroke:#b0b0b0;stroke-linecap:square;stroke-width:0.8;"/>
     </g>
     <g id="line2d_2">
      <defs>
       <path d="M 0 0 
L 0 3.5 
" id="m0592a0f518" style="stroke:#000000;stroke-width:0.8;"/>
      </defs>
      <g>
       <use style="stroke:#000000;stroke-width:0.8;" x="48.982813" xlink:href="#m0592a0f518" y="130.32"/>
      </g>
     </g>
     <g id="text_1">
      <!-- 0 -->
      <g transform="translate(45.801563 144.918437)scale(0.1 -0.1)">
       <defs>
        <path d="M 31.78125 66.40625 
Q 24.171875 66.40625 20.328125 58.90625 
Q 16.5 51.421875 16.5 36.375 
Q 16.5 21.390625 20.328125 13.890625 
Q 24.171875 6.390625 31.78125 6.390625 
Q 39.453125 6.390625 43.28125 13.890625 
Q 47.125 21.390625 47.125 36.375 
Q 47.125 51.421875 43.28125 58.90625 
Q 39.453125 66.40625 31.78125 66.40625 
z
M 31.78125 74.21875 
Q 44.046875 74.21875 50.515625 64.515625 
Q 56.984375 54.828125 56.984375 36.375 
Q 56.984375 17.96875 50.515625 8.265625 
Q 44.046875 -1.421875 31.78125 -1.421875 
Q 19.53125 -1.421875 13.0625 8.265625 
Q 6.59375 17.96875 6.59375 36.375 
Q 6.59375 54.828125 13.0625 64.515625 
Q 19.53125 74.21875 31.78125 74.21875 
z
" id="DejaVuSans-48"/>
       </defs>
       <use xlink:href="#DejaVuSans-48"/>
      </g>
     </g>
    </g>
    <g id="xtick_2">
     <g id="line2d_3">
      <path clip-path="url(#p91739dd464)" d="M 123.382812 130.32 
L 123.382812 21.6 
" style="fill:none;stroke:#b0b0b0;stroke-linecap:square;stroke-width:0.8;"/>
     </g>
     <g id="line2d_4">
      <g>
       <use style="stroke:#000000;stroke-width:0.8;" x="123.382812" xlink:href="#m0592a0f518" y="130.32"/>
      </g>
     </g>
     <g id="text_2">
      <!-- 2 -->
      <g transform="translate(120.201562 144.918437)scale(0.1 -0.1)">
       <defs>
        <path d="M 19.1875 8.296875 
L 53.609375 8.296875 
L 53.609375 0 
L 7.328125 0 
L 7.328125 8.296875 
Q 12.9375 14.109375 22.625 23.890625 
Q 32.328125 33.6875 34.8125 36.53125 
Q 39.546875 41.84375 41.421875 45.53125 
Q 43.3125 49.21875 43.3125 52.78125 
Q 43.3125 58.59375 39.234375 62.25 
Q 35.15625 65.921875 28.609375 65.921875 
Q 23.96875 65.921875 18.8125 64.3125 
Q 13.671875 62.703125 7.8125 59.421875 
L 7.8125 69.390625 
Q 13.765625 71.78125 18.9375 73 
Q 24.125 74.21875 28.421875 74.21875 
Q 39.75 74.21875 46.484375 68.546875 
Q 53.21875 62.890625 53.21875 53.421875 
Q 53.21875 48.921875 51.53125 44.890625 
Q 49.859375 40.875 45.40625 35.40625 
Q 44.1875 33.984375 37.640625 27.21875 
Q 31.109375 20.453125 19.1875 8.296875 
z
" id="DejaVuSans-50"/>
       </defs>
       <use xlink:href="#DejaVuSans-50"/>
      </g>
     </g>
    </g>
    <g id="xtick_3">
     <g id="line2d_5">
      <path clip-path="url(#p91739dd464)" d="M 197.782812 130.32 
L 197.782812 21.6 
" style="fill:none;stroke:#b0b0b0;stroke-linecap:square;stroke-width:0.8;"/>
     </g>
     <g id="line2d_6">
      <g>
       <use style="stroke:#000000;stroke-width:0.8;" x="197.782812" xlink:href="#m0592a0f518" y="130.32"/>
      </g>
     </g>
     <g id="text_3">
      <!-- 4 -->
      <g transform="translate(194.601562 144.918437)scale(0.1 -0.1)">
       <defs>
        <path d="M 37.796875 64.3125 
L 12.890625 25.390625 
L 37.796875 25.390625 
z
M 35.203125 72.90625 
L 47.609375 72.90625 
L 47.609375 25.390625 
L 58.015625 25.390625 
L 58.015625 17.1875 
L 47.609375 17.1875 
L 47.609375 0 
L 37.796875 0 
L 37.796875 17.1875 
L 4.890625 17.1875 
L 4.890625 26.703125 
z
" id="DejaVuSans-52"/>
       </defs>
       <use xlink:href="#DejaVuSans-52"/>
      </g>
     </g>
    </g>
    <g id="xtick_4">
     <g id="line2d_7">
      <path clip-path="url(#p91739dd464)" d="M 272.182813 130.32 
L 272.182813 21.6 
" style="fill:none;stroke:#b0b0b0;stroke-linecap:square;stroke-width:0.8;"/>
     </g>
     <g id="line2d_8">
      <g>
       <use style="stroke:#000000;stroke-width:0.8;" x="272.182813" xlink:href="#m0592a0f518" y="130.32"/>
      </g>
     </g>
     <g id="text_4">
      <!-- 6 -->
      <g transform="translate(269.001563 144.918437)scale(0.1 -0.1)">
       <defs>
        <path d="M 33.015625 40.375 
Q 26.375 40.375 22.484375 35.828125 
Q 18.609375 31.296875 18.609375 23.390625 
Q 18.609375 15.53125 22.484375 10.953125 
Q 26.375 6.390625 33.015625 6.390625 
Q 39.65625 6.390625 43.53125 10.953125 
Q 47.40625 15.53125 47.40625 23.390625 
Q 47.40625 31.296875 43.53125 35.828125 
Q 39.65625 40.375 33.015625 40.375 
z
M 52.59375 71.296875 
L 52.59375 62.3125 
Q 48.875 64.0625 45.09375 64.984375 
Q 41.3125 65.921875 37.59375 65.921875 
Q 27.828125 65.921875 22.671875 59.328125 
Q 17.53125 52.734375 16.796875 39.40625 
Q 19.671875 43.65625 24.015625 45.921875 
Q 28.375 48.1875 33.59375 48.1875 
Q 44.578125 48.1875 50.953125 41.515625 
Q 57.328125 34.859375 57.328125 23.390625 
Q 57.328125 12.15625 50.6875 5.359375 
Q 44.046875 -1.421875 33.015625 -1.421875 
Q 20.359375 -1.421875 13.671875 8.265625 
Q 6.984375 17.96875 6.984375 36.375 
Q 6.984375 53.65625 15.1875 63.9375 
Q 23.390625 74.21875 37.203125 74.21875 
Q 40.921875 74.21875 44.703125 73.484375 
Q 48.484375 72.75 52.59375 71.296875 
z
" id="DejaVuSans-54"/>
       </defs>
       <use xlink:href="#DejaVuSans-54"/>
      </g>
     </g>
    </g>
    <g id="xtick_5">
     <g id="line2d_9">
      <path clip-path="url(#p91739dd464)" d="M 346.582812 130.32 
L 346.582812 21.6 
" style="fill:none;stroke:#b0b0b0;stroke-linecap:square;stroke-width:0.8;"/>
     </g>
     <g id="line2d_10">
      <g>
       <use style="stroke:#000000;stroke-width:0.8;" x="346.582812" xlink:href="#m0592a0f518" y="130.32"/>
      </g>
     </g>
     <g id="text_5">
      <!-- 8 -->
      <g transform="translate(343.401563 144.918437)scale(0.1 -0.1)">
       <defs>
        <path d="M 31.78125 34.625 
Q 24.75 34.625 20.71875 30.859375 
Q 16.703125 27.09375 16.703125 20.515625 
Q 16.703125 13.921875 20.71875 10.15625 
Q 24.75 6.390625 31.78125 6.390625 
Q 38.8125 6.390625 42.859375 10.171875 
Q 46.921875 13.96875 46.921875 20.515625 
Q 46.921875 27.09375 42.890625 30.859375 
Q 38.875 34.625 31.78125 34.625 
z
M 21.921875 38.8125 
Q 15.578125 40.375 12.03125 44.71875 
Q 8.5 49.078125 8.5 55.328125 
Q 8.5 64.0625 14.71875 69.140625 
Q 20.953125 74.21875 31.78125 74.21875 
Q 42.671875 74.21875 48.875 69.140625 
Q 55.078125 64.0625 55.078125 55.328125 
Q 55.078125 49.078125 51.53125 44.71875 
Q 48 40.375 41.703125 38.8125 
Q 48.828125 37.15625 52.796875 32.3125 
Q 56.78125 27.484375 56.78125 20.515625 
Q 56.78125 9.90625 50.3125 4.234375 
Q 43.84375 -1.421875 31.78125 -1.421875 
Q 19.734375 -1.421875 13.25 4.234375 
Q 6.78125 9.90625 6.78125 20.515625 
Q 6.78125 27.484375 10.78125 32.3125 
Q 14.796875 37.15625 21.921875 38.8125 
z
M 18.3125 54.390625 
Q 18.3125 48.734375 21.84375 45.5625 
Q 25.390625 42.390625 31.78125 42.390625 
Q 38.140625 42.390625 41.71875 45.5625 
Q 45.3125 48.734375 45.3125 54.390625 
Q 45.3125 60.0625 41.71875 63.234375 
Q 38.140625 66.40625 31.78125 66.40625 
Q 25.390625 66.40625 21.84375 63.234375 
Q 18.3125 60.0625 18.3125 54.390625 
z
" id="DejaVuSans-56"/>
       </defs>
       <use xlink:href="#DejaVuSans-56"/>
      </g>
     </g>
    </g>
    <g id="xtick_6">
     <g id="line2d_11">
      <path clip-path="url(#p91739dd464)" d="M 420.982812 130.32 
L 420.982812 21.6 
" style="fill:none;stroke:#b0b0b0;stroke-linecap:square;stroke-width:0.8;"/>
     </g>
     <g id="line2d_12">
      <g>
       <use style="stroke:#000000;stroke-width:0.8;" x="420.982812" xlink:href="#m0592a0f518" y="130.32"/>
      </g>
     </g>
     <g id="text_6">
      <!-- 10 -->
      <g transform="translate(414.620312 144.918437)scale(0.1 -0.1)">
       <defs>
        <path d="M 12.40625 8.296875 
L 28.515625 8.296875 
L 28.515625 63.921875 
L 10.984375 60.40625 
L 10.984375 69.390625 
L 28.421875 72.90625 
L 38.28125 72.90625 
L 38.28125 8.296875 
L 54.390625 8.296875 
L 54.390625 0 
L 12.40625 0 
z
" id="DejaVuSans-49"/>
       </defs>
       <use xlink:href="#DejaVuSans-49"/>
       <use x="63.623047" xlink:href="#DejaVuSans-48"/>
      </g>
     </g>
    </g>
    <g id="xtick_7">
     <g id="line2d_13">
      <path clip-path="url(#p91739dd464)" d="M 495.382812 130.32 
L 495.382812 21.6 
" style="fill:none;stroke:#b0b0b0;stroke-linecap:square;stroke-width:0.8;"/>
     </g>
     <g id="line2d_14">
      <g>
       <use style="stroke:#000000;stroke-width:0.8;" x="495.382812" xlink:href="#m0592a0f518" y="130.32"/>
      </g>
     </g>
     <g id="text_7">
      <!-- 12 -->
      <g transform="translate(489.020312 144.918437)scale(0.1 -0.1)">
       <use xlink:href="#DejaVuSans-49"/>
       <use x="63.623047" xlink:href="#DejaVuSans-50"/>
      </g>
     </g>
    </g>
    <g id="text_8">
     <!-- Time (s) -->
     <g transform="translate(251.853906 158.596563)scale(0.1 -0.1)">
      <defs>
       <path d="M -0.296875 72.90625 
L 61.375 72.90625 
L 61.375 64.59375 
L 35.5 64.59375 
L 35.5 0 
L 25.59375 0 
L 25.59375 64.59375 
L -0.296875 64.59375 
z
" id="DejaVuSans-84"/>
       <path d="M 9.421875 54.6875 
L 18.40625 54.6875 
L 18.40625 0 
L 9.421875 0 
z
M 9.421875 75.984375 
L 18.40625 75.984375 
L 18.40625 64.59375 
L 9.421875 64.59375 
z
" id="DejaVuSans-105"/>
       <path d="M 52 44.1875 
Q 55.375 50.25 60.0625 53.125 
Q 64.75 56 71.09375 56 
Q 79.640625 56 84.28125 50.015625 
Q 88.921875 44.046875 88.921875 33.015625 
L 88.921875 0 
L 79.890625 0 
L 79.890625 32.71875 
Q 79.890625 40.578125 77.09375 44.375 
Q 74.3125 48.1875 68.609375 48.1875 
Q 61.625 48.1875 57.5625 43.546875 
Q 53.515625 38.921875 53.515625 30.90625 
L 53.515625 0 
L 44.484375 0 
L 44.484375 32.71875 
Q 44.484375 40.625 41.703125 44.40625 
Q 38.921875 48.1875 33.109375 48.1875 
Q 26.21875 48.1875 22.15625 43.53125 
Q 18.109375 38.875 18.109375 30.90625 
L 18.109375 0 
L 9.078125 0 
L 9.078125 54.6875 
L 18.109375 54.6875 
L 18.109375 46.1875 
Q 21.1875 51.21875 25.484375 53.609375 
Q 29.78125 56 35.6875 56 
Q 41.65625 56 45.828125 52.96875 
Q 50 49.953125 52 44.1875 
z
" id="DejaVuSans-109"/>
       <path d="M 56.203125 29.59375 
L 56.203125 25.203125 
L 14.890625 25.203125 
Q 15.484375 15.921875 20.484375 11.0625 
Q 25.484375 6.203125 34.421875 6.203125 
Q 39.59375 6.203125 44.453125 7.46875 
Q 49.3125 8.734375 54.109375 11.28125 
L 54.109375 2.78125 
Q 49.265625 0.734375 44.1875 -0.34375 
Q 39.109375 -1.421875 33.890625 -1.421875 
Q 20.796875 -1.421875 13.15625 6.1875 
Q 5.515625 13.8125 5.515625 26.8125 
Q 5.515625 40.234375 12.765625 48.109375 
Q 20.015625 56 32.328125 56 
Q 43.359375 56 49.78125 48.890625 
Q 56.203125 41.796875 56.203125 29.59375 
z
M 47.21875 32.234375 
Q 47.125 39.59375 43.09375 43.984375 
Q 39.0625 48.390625 32.421875 48.390625 
Q 24.90625 48.390625 20.390625 44.140625 
Q 15.875 39.890625 15.1875 32.171875 
z
" id="DejaVuSans-101"/>
       <path id="DejaVuSans-32"/>
       <path d="M 31 75.875 
Q 24.46875 64.65625 21.28125 53.65625 
Q 18.109375 42.671875 18.109375 31.390625 
Q 18.109375 20.125 21.3125 9.0625 
Q 24.515625 -2 31 -13.1875 
L 23.1875 -13.1875 
Q 15.875 -1.703125 12.234375 9.375 
Q 8.59375 20.453125 8.59375 31.390625 
Q 8.59375 42.28125 12.203125 53.3125 
Q 15.828125 64.359375 23.1875 75.875 
z
" id="DejaVuSans-40"/>
       <path d="M 44.28125 53.078125 
L 44.28125 44.578125 
Q 40.484375 46.53125 36.375 47.5 
Q 32.28125 48.484375 27.875 48.484375 
Q 21.1875 48.484375 17.84375 46.4375 
Q 14.5 44.390625 14.5 40.28125 
Q 14.5 37.15625 16.890625 35.375 
Q 19.28125 33.59375 26.515625 31.984375 
L 29.59375 31.296875 
Q 39.15625 29.25 43.1875 25.515625 
Q 47.21875 21.78125 47.21875 15.09375 
Q 47.21875 7.46875 41.1875 3.015625 
Q 35.15625 -1.421875 24.609375 -1.421875 
Q 20.21875 -1.421875 15.453125 -0.5625 
Q 10.6875 0.296875 5.421875 2 
L 5.421875 11.28125 
Q 10.40625 8.6875 15.234375 7.390625 
Q 20.0625 6.109375 24.8125 6.109375 
Q 31.15625 6.109375 34.5625 8.28125 
Q 37.984375 10.453125 37.984375 14.40625 
Q 37.984375 18.0625 35.515625 20.015625 
Q 33.0625 21.96875 24.703125 23.78125 
L 21.578125 24.515625 
Q 13.234375 26.265625 9.515625 29.90625 
Q 5.8125 33.546875 5.8125 39.890625 
Q 5.8125 47.609375 11.28125 51.796875 
Q 16.75 56 26.8125 56 
Q 31.78125 56 36.171875 55.265625 
Q 40.578125 54.546875 44.28125 53.078125 
z
" id="DejaVuSans-115"/>
       <path d="M 8.015625 75.875 
L 15.828125 75.875 
Q 23.140625 64.359375 26.78125 53.3125 
Q 30.421875 42.28125 30.421875 31.390625 
Q 30.421875 20.453125 26.78125 9.375 
Q 23.140625 -1.703125 15.828125 -13.1875 
L 8.015625 -13.1875 
Q 14.5 -2 17.703125 9.0625 
Q 20.90625 20.125 20.90625 31.390625 
Q 20.90625 42.671875 17.703125 53.65625 
Q 14.5 64.65625 8.015625 75.875 
z
" id="DejaVuSans-41"/>
      </defs>
      <use xlink:href="#DejaVuSans-84"/>
      <use x="57.958984" xlink:href="#DejaVuSans-105"/>
      <use x="85.742188" xlink:href="#DejaVuSans-109"/>
      <use x="183.154297" xlink:href="#DejaVuSans-101"/>
      <use x="244.677734" xlink:href="#DejaVuSans-32"/>
      <use x="276.464844" xlink:href="#DejaVuSans-40"/>
      <use x="315.478516" xlink:href="#DejaVuSans-115"/>
      <use x="367.578125" xlink:href="#DejaVuSans-41"/>
     </g>
    </g>
   </g>
   <g id="matplotlib.axis_2">
    <g id="ytick_1">
     <g id="line2d_15">
      <path clip-path="url(#p91739dd464)" d="M 48.982813 130.32 
L 495.382812 130.32 
" style="fill:none;stroke:#b0b0b0;stroke-linecap:square;stroke-width:0.8;"/>
     </g>
     <g id="line2d_16">
      <defs>
       <path d="M 0 0 
L -3.5 0 
" id="m39d6cdfa78" style="stroke:#000000;stroke-width:0.8;"/>
      </defs>
      <g>
       <use style="stroke:#000000;stroke-width:0.8;" x="48.982813" xlink:href="#m39d6cdfa78" y="130.32"/>
      </g>
     </g>
     <g id="text_9">
      <!-- −20 -->
      <g transform="translate(20.878125 134.119219)scale(0.1 -0.1)">
       <defs>
        <path d="M 10.59375 35.5 
L 73.1875 35.5 
L 73.1875 27.203125 
L 10.59375 27.203125 
z
" id="DejaVuSans-8722"/>
       </defs>
       <use xlink:href="#DejaVuSans-8722"/>
       <use x="83.789062" xlink:href="#DejaVuSans-50"/>
       <use x="147.412109" xlink:href="#DejaVuSans-48"/>
      </g>
     </g>
    </g>
    <g id="ytick_2">
     <g id="line2d_17">
      <path clip-path="url(#p91739dd464)" d="M 48.982813 103.14 
L 495.382812 103.14 
" style="fill:none;stroke:#b0b0b0;stroke-linecap:square;stroke-width:0.8;"/>
     </g>
     <g id="line2d_18">
      <g>
       <use style="stroke:#000000;stroke-width:0.8;" x="48.982813" xlink:href="#m39d6cdfa78" y="103.14"/>
      </g>
     </g>
     <g id="text_10">
      <!-- −10 -->
      <g transform="translate(20.878125 106.939219)scale(0.1 -0.1)">
       <use xlink:href="#DejaVuSans-8722"/>
       <use x="83.789062" xlink:href="#DejaVuSans-49"/>
       <use x="147.412109" xlink:href="#DejaVuSans-48"/>
      </g>
     </g>
    </g>
    <g id="ytick_3">
     <g id="line2d_19">
      <path clip-path="url(#p91739dd464)" d="M 48.982813 75.96 
L 495.382812 75.96 
" style="fill:none;stroke:#b0b0b0;stroke-linecap:square;stroke-width:0.8;"/>
     </g>
     <g id="line2d_20">
      <g>
       <use style="stroke:#000000;stroke-width:0.8;" x="48.982813" xlink:href="#m39d6cdfa78" y="75.96"/>
      </g>
     </g>
     <g id="text_11">
      <!-- 0 -->
      <g transform="translate(35.620313 79.759219)scale(0.1 -0.1)">
       <use xlink:href="#DejaVuSans-48"/>
      </g>
     </g>
    </g>
    <g id="ytick_4">
     <g id="line2d_21">
      <path clip-path="url(#p91739dd464)" d="M 48.982813 48.78 
L 495.382812 48.78 
" style="fill:none;stroke:#b0b0b0;stroke-linecap:square;stroke-width:0.8;"/>
     </g>
     <g id="line2d_22">
      <g>
       <use style="stroke:#000000;stroke-width:0.8;" x="48.982813" xlink:href="#m39d6cdfa78" y="48.78"/>
      </g>
     </g>
     <g id="text_12">
      <!-- 10 -->
      <g transform="translate(29.257813 52.579219)scale(0.1 -0.1)">
       <use xlink:href="#DejaVuSans-49"/>
       <use x="63.623047" xlink:href="#DejaVuSans-48"/>
      </g>
     </g>
    </g>
    <g id="ytick_5">
     <g id="line2d_23">
      <path clip-path="url(#p91739dd464)" d="M 48.982813 21.6 
L 495.382812 21.6 
" style="fill:none;stroke:#b0b0b0;stroke-linecap:square;stroke-width:0.8;"/>
     </g>
     <g id="line2d_24">
      <g>
       <use style="stroke:#000000;stroke-width:0.8;" x="48.982813" xlink:href="#m39d6cdfa78" y="21.6"/>
      </g>
     </g>
     <g id="text_13">
      <!-- 20 -->
      <g transform="translate(29.257813 25.399219)scale(0.1 -0.1)">
       <use xlink:href="#DejaVuSans-50"/>
       <use x="63.623047" xlink:href="#DejaVuSans-48"/>
      </g>
     </g>
    </g>
    <g id="text_14">
     <!-- Amplitude 0 -->
     <g transform="translate(14.798438 106.352969)rotate(-90)scale(0.1 -0.1)">
      <defs>
       <path d="M 34.1875 63.1875 
L 20.796875 26.90625 
L 47.609375 26.90625 
z
M 28.609375 72.90625 
L 39.796875 72.90625 
L 67.578125 0 
L 57.328125 0 
L 50.6875 18.703125 
L 17.828125 18.703125 
L 11.1875 0 
L 0.78125 0 
z
" id="DejaVuSans-65"/>
       <path d="M 18.109375 8.203125 
L 18.109375 -20.796875 
L 9.078125 -20.796875 
L 9.078125 54.6875 
L 18.109375 54.6875 
L 18.109375 46.390625 
Q 20.953125 51.265625 25.265625 53.625 
Q 29.59375 56 35.59375 56 
Q 45.5625 56 51.78125 48.09375 
Q 58.015625 40.1875 58.015625 27.296875 
Q 58.015625 14.40625 51.78125 6.484375 
Q 45.5625 -1.421875 35.59375 -1.421875 
Q 29.59375 -1.421875 25.265625 0.953125 
Q 20.953125 3.328125 18.109375 8.203125 
z
M 48.6875 27.296875 
Q 48.6875 37.203125 44.609375 42.84375 
Q 40.53125 48.484375 33.40625 48.484375 
Q 26.265625 48.484375 22.1875 42.84375 
Q 18.109375 37.203125 18.109375 27.296875 
Q 18.109375 17.390625 22.1875 11.75 
Q 26.265625 6.109375 33.40625 6.109375 
Q 40.53125 6.109375 44.609375 11.75 
Q 48.6875 17.390625 48.6875 27.296875 
z
" id="DejaVuSans-112"/>
       <path d="M 9.421875 75.984375 
L 18.40625 75.984375 
L 18.40625 0 
L 9.421875 0 
z
" id="DejaVuSans-108"/>
       <path d="M 18.3125 70.21875 
L 18.3125 54.6875 
L 36.8125 54.6875 
L 36.8125 47.703125 
L 18.3125 47.703125 
L 18.3125 18.015625 
Q 18.3125 11.328125 20.140625 9.421875 
Q 21.96875 7.515625 27.59375 7.515625 
L 36.8125 7.515625 
L 36.8125 0 
L 27.59375 0 
Q 17.1875 0 13.234375 3.875 
Q 9.28125 7.765625 9.28125 18.015625 
L 9.28125 47.703125 
L 2.6875 47.703125 
L 2.6875 54.6875 
L 9.28125 54.6875 
L 9.28125 70.21875 
z
" id="DejaVuSans-116"/>
       <path d="M 8.5 21.578125 
L 8.5 54.6875 
L 17.484375 54.6875 
L 17.484375 21.921875 
Q 17.484375 14.15625 20.5 10.265625 
Q 23.53125 6.390625 29.59375 6.390625 
Q 36.859375 6.390625 41.078125 11.03125 
Q 45.3125 15.671875 45.3125 23.6875 
L 45.3125 54.6875 
L 54.296875 54.6875 
L 54.296875 0 
L 45.3125 0 
L 45.3125 8.40625 
Q 42.046875 3.421875 37.71875 1 
Q 33.40625 -1.421875 27.6875 -1.421875 
Q 18.265625 -1.421875 13.375 4.4375 
Q 8.5 10.296875 8.5 21.578125 
z
M 31.109375 56 
z
" id="DejaVuSans-117"/>
       <path d="M 45.40625 46.390625 
L 45.40625 75.984375 
L 54.390625 75.984375 
L 54.390625 0 
L 45.40625 0 
L 45.40625 8.203125 
Q 42.578125 3.328125 38.25 0.953125 
Q 33.9375 -1.421875 27.875 -1.421875 
Q 17.96875 -1.421875 11.734375 6.484375 
Q 5.515625 14.40625 5.515625 27.296875 
Q 5.515625 40.1875 11.734375 48.09375 
Q 17.96875 56 27.875 56 
Q 33.9375 56 38.25 53.625 
Q 42.578125 51.265625 45.40625 46.390625 
z
M 14.796875 27.296875 
Q 14.796875 17.390625 18.875 11.75 
Q 22.953125 6.109375 30.078125 6.109375 
Q 37.203125 6.109375 41.296875 11.75 
Q 45.40625 17.390625 45.40625 27.296875 
Q 45.40625 37.203125 41.296875 42.84375 
Q 37.203125 48.484375 30.078125 48.484375 
Q 22.953125 48.484375 18.875 42.84375 
Q 14.796875 37.203125 14.796875 27.296875 
z
" id="DejaVuSans-100"/>
      </defs>
      <use xlink:href="#DejaVuSans-65"/>
      <use x="68.408203" xlink:href="#DejaVuSans-109"/>
      <use x="165.820312" xlink:href="#DejaVuSans-112"/>
      <use x="229.296875" xlink:href="#DejaVuSans-108"/>
      <use x="257.080078" xlink:href="#DejaVuSans-105"/>
      <use x="284.863281" xlink:href="#DejaVuSans-116"/>
      <use x="324.072266" xlink:href="#DejaVuSans-117"/>
      <use x="387.451172" xlink:href="#DejaVuSans-100"/>
      <use x="450.927734" xlink:href="#DejaVuSans-101"/>
      <use x="512.451172" xlink:href="#DejaVuSans-32"/>
      <use x="544.238281" xlink:href="#DejaVuSans-48"/>
     </g>
    </g>
   </g>
   <g id="line2d_25">
    <path clip-path="url(#p91739dd464)" d="M 48.982813 76.259445 
L 57.794571 76.223365 
L 57.902031 76.442292 
L 58.116952 76.270362 
L 58.224413 76.454688 
L 58.439333 76.268738 
L 58.654254 76.482531 
L 58.761715 76.288134 
L 58.976636 76.409217 
L 59.191557 76.289203 
L 59.299017 76.366263 
L 59.406478 76.622513 
L 59.728859 76.515328 
L 59.94378 76.305964 
L 60.266161 76.326709 
L 60.481082 76.601184 
L 60.803464 76.395267 
L 61.125845 76.413874 
L 61.340766 76.248661 
L 61.448226 76.326196 
L 61.555687 76.583192 
L 61.878068 76.359621 
L 62.092989 76.554152 
L 62.30791 76.219125 
L 62.522831 76.343705 
L 62.737752 76.233853 
L 62.952673 76.354166 
L 63.060133 76.236893 
L 63.275054 76.428694 
L 63.489975 76.221922 
L 63.704896 76.339113 
L 64.242199 76.285404 
L 64.457119 76.359329 
L 64.56458 76.212485 
L 64.779501 76.334816 
L 64.994422 76.25125 
L 65.531724 76.49283 
L 65.639185 76.466711 
L 65.746645 76.557873 
L 65.854106 76.143807 
L 66.176487 76.497052 
L 66.283947 76.360198 
L 66.391408 76.466757 
L 66.498868 76.182112 
L 66.713789 76.484934 
L 66.82125 76.503738 
L 67.036171 76.222405 
L 67.143631 76.563453 
L 67.251092 76.257784 
L 67.573473 76.609341 
L 68.325696 76.376064 
L 68.433157 76.40699 
L 68.540617 76.296858 
L 68.755538 76.427342 
L 68.862999 76.266225 
L 68.970459 76.455088 
L 69.18538 76.310446 
L 69.29284 76.409782 
L 69.400301 76.176051 
L 69.722682 76.412878 
L 69.830143 76.202358 
L 70.045064 76.330667 
L 70.152524 76.291012 
L 70.259985 76.377571 
L 70.474906 76.299045 
L 70.582366 76.408654 
L 70.797287 76.248638 
L 70.904747 76.478234 
L 71.012208 76.242421 
L 71.119668 76.56308 
L 71.227129 76.230865 
L 71.44205 76.424105 
L 71.54951 76.350582 
L 71.871892 76.74532 
L 72.086813 76.279323 
L 72.301733 76.440891 
L 72.516654 76.207191 
L 72.731575 76.494594 
L 73.161417 76.1618 
L 73.268878 76.268928 
L 73.483799 76.531918 
L 73.698719 76.421361 
L 73.91364 76.426965 
L 74.021101 76.272858 
L 74.236022 76.492714 
L 74.450943 76.214611 
L 74.665864 76.438981 
L 74.880785 76.503852 
L 75.203166 76.312336 
L 75.310626 76.488545 
L 75.525547 76.19224 
L 75.633008 76.386526 
L 75.955389 76.260149 
L 76.06285 76.425906 
L 76.17031 76.387325 
L 76.385231 76.510263 
L 76.492692 76.254551 
L 76.600152 76.339661 
L 76.815073 76.124779 
L 77.137454 76.512676 
L 77.459836 76.197529 
L 77.674757 76.459997 
L 77.782217 76.243323 
L 78.42698 76.518802 
L 78.53444 76.287729 
L 78.641901 76.360078 
L 78.749361 76.282963 
L 78.964282 76.377375 
L 79.071743 76.43744 
L 79.179203 76.193415 
L 79.394124 76.48504 
L 79.501585 76.355939 
L 79.609045 76.428701 
L 79.716506 76.329126 
L 79.823966 76.453579 
L 80.038887 76.196767 
L 80.146347 76.259496 
L 80.253808 76.044391 
L 80.468729 76.373542 
L 80.576189 76.375171 
L 80.68365 76.186083 
L 80.898571 76.397308 
L 81.006031 76.286759 
L 81.113492 76.380782 
L 81.220952 76.294415 
L 81.328413 76.396614 
L 81.435873 76.158466 
L 81.543333 76.456225 
L 81.650794 76.241604 
L 81.758254 76.311309 
L 81.865715 76.154826 
L 82.080636 76.393663 
L 82.295557 76.506913 
L 82.403017 76.51263 
L 82.617938 76.333678 
L 82.940319 76.49368 
L 83.15524 76.258458 
L 83.262701 76.448544 
L 83.370161 76.35119 
L 83.585082 76.531436 
L 84.014924 76.285391 
L 84.444766 76.479699 
L 84.552226 76.249276 
L 84.659687 76.486315 
L 84.767147 76.436169 
L 84.982068 76.509225 
L 85.089529 76.297871 
L 85.196989 76.376708 
L 85.30445 76.087641 
L 85.41191 76.483002 
L 85.519371 76.154828 
L 85.626831 76.256265 
L 85.734292 76.146363 
L 85.841752 76.236502 
L 86.056673 76.538069 
L 86.164133 76.211661 
L 86.271594 76.316286 
L 86.379054 76.628754 
L 86.593975 76.407689 
L 86.808896 76.517498 
L 86.916357 76.529929 
L 87.131278 76.203963 
L 87.238738 76.48235 
L 87.346199 76.341589 
L 87.561119 76.471818 
L 87.66858 76.272007 
L 87.883501 76.487139 
L 88.098422 76.247736 
L 88.205882 76.397933 
L 88.420803 76.283663 
L 88.528264 76.430454 
L 88.635724 76.154653 
L 88.850645 76.297886 
L 88.958106 76.355803 
L 89.065566 76.567354 
L 89.280487 76.165462 
L 89.387947 76.268927 
L 89.495408 76.662851 
L 89.92525 74.865205 
L 90.03271 74.971493 
L 90.140171 75.007112 
L 90.247631 74.878136 
L 90.355092 74.970449 
L 90.570013 75.950131 
L 90.784933 76.367931 
L 90.999854 76.956792 
L 91.107315 77.059666 
L 91.322236 77.376293 
L 91.429696 77.139339 
L 91.537157 77.17476 
L 91.859538 76.639603 
L 92.074459 76.236458 
L 92.826682 77.10322 
L 93.041603 77.454515 
L 93.471445 76.710039 
L 93.686366 76.999845 
L 94.008747 76.449306 
L 94.223668 76.588557 
L 94.331129 76.654323 
L 94.438589 76.497618 
L 94.54605 76.847085 
L 94.65351 76.478156 
L 94.975892 76.76467 
L 95.405733 76.438253 
L 95.620654 76.499141 
L 95.728115 76.442858 
L 96.050496 75.562608 
L 96.372878 74.838009 
L 96.480338 74.812766 
L 96.587799 74.565536 
L 96.695259 74.691832 
L 96.802719 74.386447 
L 97.125101 74.697232 
L 97.447482 73.801217 
L 98.199706 69.472175 
L 98.522087 67.412829 
L 98.951929 65.92649 
L 99.059389 65.70712 
L 99.16685 65.959714 
L 99.27431 65.83435 
L 99.811612 69.520543 
L 100.133994 74.514108 
L 100.241454 75.186373 
L 101.101138 97.156586 
L 101.423519 107.393686 
L 101.745901 113.540173 
L 101.853361 114.231935 
L 101.960822 114.18602 
L 102.605585 101.258478 
L 103.572729 71.157298 
L 104.217492 45.496786 
L 104.324952 45.723218 
L 104.432412 39.503017 
L 104.539873 43.024997 
L 104.647333 38.950544 
L 104.754794 44.757271 
L 104.862254 42.262534 
L 104.969715 43.71519 
L 105.077175 42.337937 
L 105.184636 42.806188 
L 105.399557 42.215264 
L 105.507017 40.568379 
L 105.829399 45.065567 
L 105.936859 45.67466 
L 106.25924 55.035322 
L 107.441306 87.511265 
L 107.978608 112.014607 
L 108.193529 113.958799 
L 108.300989 114.188429 
L 108.623371 110.830505 
L 108.838292 108.474222 
L 108.945752 108.188383 
L 109.053213 108.22413 
L 109.375594 108.81558 
L 109.590515 106.369737 
L 109.805436 101.686744 
L 110.88004 64.287417 
L 111.094961 59.55841 
L 111.309882 53.951889 
L 111.632264 45.655034 
L 111.739724 47.07147 
L 111.847185 43.254134 
L 111.954645 45.36014 
L 112.062106 44.666687 
L 112.491947 48.548714 
L 112.599408 48.474671 
L 112.706868 48.539219 
L 112.921789 48.93051 
L 113.02925 49.100423 
L 113.244171 50.233221 
L 113.888933 66.789253 
L 114.426236 85.022324 
L 114.856078 96.660847 
L 115.285919 106.650624 
L 115.608301 109.128096 
L 115.715761 109.043241 
L 116.038143 107.499503 
L 116.467985 104.217546 
L 116.790366 100.609681 
L 117.435129 82.569241 
L 118.294813 56.116167 
L 118.402273 55.04069 
L 118.509733 50.846108 
L 118.617194 51.190859 
L 118.724654 47.462798 
L 118.832115 50.207293 
L 118.939575 48.613511 
L 119.047036 51.08016 
L 119.261957 48.232488 
L 119.369417 49.23723 
L 119.476878 49.055897 
L 119.691799 50.38223 
L 119.799259 49.692841 
L 119.906719 50.899972 
L 120.01418 50.25471 
L 120.336561 55.036121 
L 120.551482 58.462548 
L 121.303706 77.283785 
L 121.948468 97.386217 
L 122.27085 103.289046 
L 122.700692 104.420448 
L 122.808152 104.436356 
L 123.130533 104.149408 
L 123.237994 104.047498 
L 123.452915 103.072512 
L 123.882757 96.71497 
L 124.420059 83.861976 
L 124.957361 67.354094 
L 125.709585 49.943914 
L 125.817045 50.720732 
L 126.031966 48.30721 
L 126.676729 54.407625 
L 126.89165 54.654974 
L 126.99911 54.242358 
L 127.106571 55.453141 
L 127.214031 54.202635 
L 127.751333 63.71784 
L 128.825938 90.601858 
L 129.36324 102.156542 
L 129.578161 103.677061 
L 129.685622 104.286212 
L 130.008003 102.590127 
L 130.330385 98.475995 
L 130.867687 93.086912 
L 131.082608 89.495489 
L 131.942292 68.68461 
L 132.264673 60.571661 
L 132.479594 57.183163 
L 132.801975 50.814676 
L 133.016896 52.392246 
L 133.124357 53.069304 
L 133.231817 50.76867 
L 133.339278 51.797495 
L 133.554199 54.613135 
L 133.769119 57.205195 
L 133.98404 59.209618 
L 134.091501 58.511127 
L 134.198961 60.818208 
L 134.306422 60.213145 
L 134.628803 64.621025 
L 135.166106 74.38453 
L 135.595947 86.33504 
L 136.24071 99.687572 
L 136.563092 101.927604 
L 136.778012 101.699558 
L 137.100394 98.636047 
L 137.530236 92.485201 
L 138.067538 85.850812 
L 138.282459 82.744085 
L 138.712301 74.055533 
L 139.357064 57.462754 
L 139.571985 54.491815 
L 139.786906 52.019144 
L 139.894366 51.539626 
L 140.001826 53.585089 
L 140.109287 53.15808 
L 140.216747 55.701928 
L 140.431668 55.171525 
L 140.646589 59.905103 
L 140.86151 61.651721 
L 141.076431 62.393624 
L 141.828654 71.631872 
L 142.258496 81.002264 
L 142.903259 95.37181 
L 143.010719 96.039446 
L 143.333101 100.676042 
L 143.548022 100.535413 
L 143.762943 99.062882 
L 144.407706 88.648807 
L 144.730087 85.303955 
L 145.052468 83.228898 
L 145.697231 70.410653 
L 146.341994 56.934198 
L 146.449454 56.692503 
L 146.664375 54.244096 
L 146.771836 54.406383 
L 146.879296 55.593041 
L 146.986757 55.014995 
L 147.416599 62.21389 
L 147.631519 63.720974 
L 148.061361 67.181562 
L 148.168822 67.795729 
L 148.276282 67.68344 
L 148.706124 72.327913 
L 149.888189 96.112681 
L 150.10311 98.112976 
L 150.210571 97.914357 
L 150.318031 98.784793 
L 150.855333 92.412426 
L 151.607557 82.611599 
L 152.144859 78.538684 
L 152.574701 71.192762 
L 152.897082 62.584394 
L 153.434385 55.497297 
L 153.864226 57.556952 
L 155.153752 72.074593 
L 155.691054 76.632375 
L 156.120896 84.732796 
L 156.658199 96.034624 
L 156.873119 97.557134 
L 157.08804 97.045054 
L 158.162645 83.34493 
L 158.485026 80.756 
L 159.129789 73.466162 
L 160.204394 57.081772 
L 160.311854 56.442589 
L 160.526775 57.406021 
L 160.741696 59.784316 
L 161.386459 69.787832 
L 161.493919 70.026596 
L 161.816301 72.473241 
L 161.923761 72.649629 
L 162.461064 78.406201 
L 162.998366 87.268526 
L 163.320747 92.766738 
L 163.643129 94.703055 
L 163.85805 94.707575 
L 164.072971 92.493289 
L 165.147575 79.531791 
L 165.362496 78.338645 
L 165.792338 74.426553 
L 166.759482 59.499907 
L 166.974403 59.08521 
L 167.081864 59.043302 
L 167.189324 59.398141 
L 167.619166 63.198443 
L 167.834087 66.374906 
L 168.371389 72.894547 
L 168.47885 73.406972 
L 168.693771 75.573791 
L 168.801231 75.404549 
L 170.198217 92.661868 
L 170.305678 92.560303 
L 170.413138 93.065365 
L 170.628059 92.327808 
L 171.272822 84.436701 
L 171.810124 79.211643 
L 172.562347 72.276318 
L 172.992189 67.107478 
L 173.529492 61.274263 
L 173.636952 61.280531 
L 173.851873 60.864857 
L 174.066794 61.940867 
L 176.860766 89.914743 
L 177.075687 90.564645 
L 177.290608 90.085746 
L 177.505529 88.910601 
L 178.042831 83.440918 
L 178.580133 77.490249 
L 179.332357 71.162115 
L 179.547278 68.691761 
L 179.654738 68.105537 
L 180.08458 63.802682 
L 180.406961 62.856542 
L 180.729343 63.703244 
L 181.911408 75.258289 
L 182.233789 78.668693 
L 182.986013 84.74682 
L 183.523315 88.42266 
L 183.738236 88.913604 
L 183.845696 89.101189 
L 184.275538 87.175769 
L 185.350143 76.079266 
L 186.317287 67.744043 
L 186.96205 64.539722 
L 187.06951 64.525959 
L 187.499352 65.394468 
L 187.821733 67.9665 
L 188.466496 74.751522 
L 188.896338 78.998953 
L 189.218719 81.406635 
L 189.756022 85.132881 
L 190.078403 86.722501 
L 190.293324 87.578876 
L 190.615706 87.158489 
L 190.830626 86.440169 
L 191.58285 80.24285 
L 192.120152 74.261188 
L 192.335073 73.273257 
L 192.872375 68.747528 
L 193.624599 65.793073 
L 193.732059 65.830119 
L 193.839519 65.743548 
L 194.161901 66.932342 
L 196.096189 83.166765 
L 196.418571 84.779324 
L 196.848412 86.228399 
L 197.063333 86.236483 
L 197.385715 85.735935 
L 198.030478 81.285332 
L 199.320003 70.142956 
L 200.072226 67.079616 
L 200.179687 67.107823 
L 200.287147 66.856535 
L 200.502068 67.26422 
L 200.93191 68.558436 
L 201.469213 73.06432 
L 202.113975 78.40867 
L 202.328896 79.907415 
L 202.651278 82.470609 
L 202.866199 83.501806 
L 203.29604 85.12577 
L 203.618422 85.349646 
L 203.940803 84.782307 
L 204.263185 83.549114 
L 204.907947 78.917272 
L 205.55271 73.181501 
L 206.412394 68.331105 
L 206.519854 68.274691 
L 206.842236 67.643263 
L 206.949696 67.667355 
L 207.164617 68.226983 
L 207.272078 68.160178 
L 207.80938 71.346257 
L 209.636208 83.76324 
L 210.17351 84.50574 
L 210.388431 84.473895 
L 210.603352 83.734993 
L 210.710812 83.592382 
L 211.677957 77.50854 
L 212.107799 73.752614 
L 212.43018 71.708158 
L 213.074943 68.929151 
L 213.289864 68.508265 
L 213.504785 68.667115 
L 213.612245 68.632937 
L 213.934626 69.317052 
L 214.901771 74.742809 
L 215.653994 80.359634 
L 215.976375 82.146373 
L 216.621138 83.919029 
L 216.728599 83.858918 
L 216.836059 84.14736 
L 217.15844 83.083943 
L 217.373361 82.633513 
L 218.447966 76.148316 
L 218.770347 73.741905 
L 219.41511 70.16431 
L 219.844952 69.28675 
L 220.059873 69.057227 
L 220.167333 69.117327 
L 220.597175 70.321406 
L 221.134478 72.901616 
L 221.67178 76.28742 
L 222.209082 79.880028 
L 222.638924 82.033083 
L 222.746385 82.146519 
L 222.961306 83.001872 
L 223.068766 83.018249 
L 223.283687 83.305723 
L 223.606068 83.183504 
L 224.143371 81.276384 
L 224.680673 78.196809 
L 225.325436 74.081672 
L 226.185119 70.306002 
L 226.40004 69.706811 
L 226.507501 69.773434 
L 226.614961 69.516562 
L 226.722422 69.572975 
L 227.259724 70.950563 
L 227.689566 72.885234 
L 228.54925 78.183531 
L 228.979092 80.441713 
L 229.086552 80.771565 
L 229.301473 81.714313 
L 229.731315 82.84812 
L 230.053696 82.694592 
L 230.698459 81.081682 
L 231.02084 79.262699 
L 232.310366 72.401639 
L 232.955129 70.242951 
L 233.17005 70.389726 
L 233.492431 70.250505 
L 233.707352 71.012578 
L 234.029733 71.980989 
L 234.674496 75.439502 
L 236.071482 81.858951 
L 236.178943 81.818187 
L 236.393864 82.269021 
L 236.608785 82.105122 
L 236.716245 82.183123 
L 237.361008 80.262934 
L 238.435612 74.906998 
L 238.757994 73.287742 
L 239.510217 70.667494 
L 239.832599 70.807321 
L 240.047519 70.915247 
L 240.26244 71.42501 
L 241.014664 74.287575 
L 241.874347 78.532687 
L 242.089268 79.683977 
L 242.304189 80.393036 
L 242.734031 81.676918 
L 242.948952 81.74871 
L 243.056412 82.035686 
L 243.271333 81.618136 
L 243.378794 81.704726 
L 243.808636 80.370215 
L 244.238478 78.519193 
L 244.77578 76.266932 
L 245.098161 74.658109 
L 245.957845 71.526319 
L 246.280226 71.02346 
L 246.387687 70.945407 
L 247.13991 72.745375 
L 247.354831 73.351567 
L 247.677212 75.072866 
L 247.784673 75.279717 
L 248.751817 79.673963 
L 249.39658 81.327864 
L 249.50404 81.289197 
L 249.718961 81.373471 
L 250.471185 79.695964 
L 251.008487 77.560697 
L 251.868171 73.604335 
L 251.975631 73.584415 
L 252.298012 72.34464 
L 252.405473 72.331241 
L 252.727854 71.728419 
L 253.157696 71.535275 
L 253.587538 72.546571 
L 254.01738 74.171034 
L 254.232301 74.759148 
L 254.554682 76.270866 
L 254.877064 77.698539 
L 255.199445 78.930162 
L 255.414366 79.717803 
L 255.629287 80.229882 
L 255.736747 80.354343 
L 255.844208 80.768548 
L 255.951668 80.727403 
L 256.166589 81.065221 
L 256.27405 80.811323 
L 256.38151 80.936262 
L 256.488971 80.865224 
L 257.885957 76.266457 
L 258.208338 74.800767 
L 258.315799 74.59797 
L 258.74564 72.795066 
L 258.960561 72.475797 
L 259.175482 72.298188 
L 259.497864 71.836979 
L 259.605324 71.833842 
L 260.250087 73.281514 
L 261.217231 76.82532 
L 261.539612 78.071161 
L 262.076915 79.928975 
L 262.291836 80.165981 
L 262.614217 80.36101 
L 262.721678 80.650041 
L 262.936599 80.358542 
L 263.044059 80.511536 
L 263.473901 79.387646 
L 263.903743 78.321578 
L 264.441045 75.88616 
L 265.51565 72.728062 
L 265.838031 72.500168 
L 266.052952 72.315307 
L 266.160413 72.394641 
L 266.267873 72.32773 
L 266.375333 72.417765 
L 266.697715 73.131675 
L 267.020096 74.013034 
L 267.449938 75.603626 
L 267.98724 77.53421 
L 268.309622 78.79053 
L 269.169306 80.258583 
L 269.384226 80.102814 
L 269.491687 80.200988 
L 269.706608 80.093046 
L 270.028989 79.478093 
L 270.13645 79.360701 
L 270.351371 78.489495 
L 271.748357 73.776636 
L 272.285659 72.639306 
L 272.393119 72.78977 
L 272.60804 72.569596 
L 272.930422 73.095731 
L 273.037882 72.901417 
L 273.145343 72.95103 
L 273.360264 73.768003 
L 273.467724 73.756682 
L 273.897566 75.33528 
L 274.005026 75.341548 
L 274.327408 76.733063 
L 275.402012 79.639593 
L 275.616933 79.574024 
L 275.831854 80.019018 
L 276.046775 79.85558 
L 276.369157 79.49062 
L 276.476617 79.506788 
L 276.584078 79.381929 
L 277.766143 75.308839 
L 277.873603 75.302571 
L 278.088524 74.559089 
L 278.410906 73.650531 
L 278.518366 73.655779 
L 278.733287 73.079275 
L 278.840747 73.179566 
L 279.055668 72.931152 
L 279.163129 72.827459 
L 279.700431 73.268252 
L 279.915352 73.567826 
L 280.345194 74.946675 
L 280.667575 76.084922 
L 280.989957 76.894183 
L 281.527259 78.730325 
L 282.386943 79.629941 
L 282.601864 79.637159 
L 282.816785 79.574693 
L 283.354087 78.412627 
L 283.569008 77.85545 
L 283.99885 76.548538 
L 284.536152 75.222161 
L 284.751073 74.392126 
L 285.073454 73.783349 
L 285.288375 73.354836 
L 286.040599 73.257115 
L 286.47044 74.162723 
L 286.577901 74.099203 
L 286.792822 74.718994 
L 287.115203 75.655133 
L 287.222664 75.931538 
L 287.437585 76.750478 
L 287.652506 77.176035 
L 287.867426 77.962717 
L 287.974887 77.945211 
L 288.404729 78.973485 
L 288.61965 79.20017 
L 288.72711 79.120582 
L 288.834571 79.189247 
L 288.942031 79.532939 
L 289.156952 79.375021 
L 289.371873 79.325953 
L 290.446478 76.619403 
L 291.843464 73.47966 
L 291.950924 73.660853 
L 292.165845 73.366959 
L 292.273306 73.225924 
L 292.488226 73.492403 
L 292.595687 73.475476 
L 292.810608 73.833326 
L 293.025529 74.091281 
L 293.562831 75.403501 
L 293.777752 75.841024 
L 293.992673 76.574182 
L 294.637436 78.348524 
L 295.282199 79.120253 
L 295.389659 78.975927 
L 295.819501 79.147453 
L 296.464264 78.062634 
L 296.679185 77.512645 
L 296.786645 77.42884 
L 297.646329 75.123407 
L 298.183631 74.100663 
L 298.613473 73.718969 
L 298.720933 73.762065 
L 298.828394 73.67526 
L 299.043315 73.680882 
L 299.150775 73.643273 
L 300.33284 76.114417 
L 300.440301 76.288062 
L 300.870143 77.653439 
L 301.514906 78.714379 
L 301.729826 78.886926 
L 301.944747 78.976395 
L 302.052208 78.907736 
L 302.159668 79.036228 
L 302.267129 78.900918 
L 302.48205 78.927426 
L 302.696971 78.600145 
L 302.804431 78.175552 
L 302.911892 78.324147 
L 303.664115 76.395586 
L 303.771575 76.311324 
L 304.84618 74.056395 
L 305.276022 73.801929 
L 305.490943 73.933409 
L 305.813324 74.330457 
L 305.920785 74.220134 
L 306.350626 74.82043 
L 306.673008 75.698928 
L 306.780468 75.805262 
L 307.10285 76.857183 
L 307.425231 77.366028 
L 307.747613 78.010264 
L 307.855073 77.991459 
L 308.069994 78.558069 
L 308.392375 78.86224 
L 309.144599 78.669587 
L 311.186347 74.355059 
L 311.293808 74.378884 
L 311.72365 74.036524 
L 311.938571 74.149601 
L 312.046031 73.918839 
L 312.583333 74.686803 
L 312.798254 74.875848 
L 312.905715 74.955768 
L 313.550478 76.449479 
L 313.657938 76.556039 
L 314.19524 77.841551 
L 314.410161 78.112784 
L 314.517622 77.95296 
L 314.625082 78.357659 
L 314.732543 78.287072 
L 314.947464 78.496493 
L 315.269845 78.54357 
L 315.377306 78.478287 
L 315.484766 78.639593 
L 315.592226 78.525613 
L 315.914608 77.835042 
L 316.236989 77.551371 
L 316.45191 76.975692 
L 316.559371 76.92706 
L 317.633975 74.693815 
L 317.848896 74.496613 
L 318.063817 74.255778 
L 318.278738 74.335506 
L 318.493659 74.096509 
L 318.70858 74.580439 
L 318.923501 74.379682 
L 319.460803 75.188559 
L 319.675724 75.738161 
L 319.783185 75.7733 
L 319.998106 76.224438 
L 320.320487 77.05546 
L 321.395092 78.389848 
L 321.502552 78.298292 
L 321.717473 78.512623 
L 321.824933 78.264523 
L 321.932394 78.304299 
L 322.147315 77.904303 
L 322.254775 78.283516 
L 322.362236 78.222401 
L 323.974143 75.153847 
L 324.081603 75.285364 
L 324.296524 74.781481 
L 324.833826 74.346907 
L 325.048747 74.298852 
L 325.800971 75.000961 
L 326.015892 75.252603 
L 326.338273 75.800426 
L 326.553194 76.496565 
L 327.627799 77.960022 
L 327.735259 77.969895 
L 327.95018 78.303594 
L 328.05764 78.154131 
L 328.272561 78.466918 
L 329.347166 77.369747 
L 329.669547 76.691976 
L 330.31431 75.506598 
L 330.529231 75.359207 
L 330.959073 74.723392 
L 331.066533 74.702237 
L 331.281454 74.311383 
L 331.603836 74.410583 
L 331.711296 74.365551 
L 331.818757 74.461351 
L 332.033678 74.890005 
L 332.248599 75.006125 
L 332.463519 75.370194 
L 332.785901 75.722257 
L 333.108282 76.462551 
L 333.323203 76.855462 
L 333.860506 77.42487 
L 334.397808 78.045197 
L 334.720189 78.065941 
L 334.82765 78.188557 
L 335.042571 77.923745 
L 335.257492 77.956992 
L 335.902254 77.23689 
L 336.439557 76.33975 
L 336.547017 76.186598 
L 336.761938 75.805851 
L 337.406701 74.812807 
L 337.729082 74.853289 
L 337.836543 74.579525 
L 337.944003 74.659921 
L 338.051464 74.924596 
L 338.158924 74.723833 
L 338.266385 74.761442 
L 338.373845 74.498992 
L 338.588766 74.937469 
L 338.803687 75.152802 
L 339.018608 75.304407 
L 339.985752 76.978507 
L 340.093212 77.048269 
L 340.308133 77.456027 
L 340.630515 77.580698 
L 340.952896 77.98512 
L 341.167817 77.898269 
L 341.490199 78.098324 
L 341.705119 77.875706 
L 341.81258 77.981136 
L 342.027501 77.625883 
L 342.134961 77.651655 
L 342.349882 77.171507 
L 342.672264 76.742486 
L 342.779724 76.723151 
L 343.209566 75.805643 
L 343.424487 75.591387 
L 343.639408 75.222132 
L 343.854329 74.977295 
L 344.06925 74.653621 
L 344.17671 74.86299 
L 344.499092 74.749987 
L 344.714012 74.945076 
L 344.928933 75.037129 
L 345.036394 74.941885 
L 345.251315 75.146445 
L 346.325919 76.755194 
L 346.54084 76.942845 
L 346.648301 76.982017 
L 346.970682 77.514098 
L 347.078143 77.395585 
L 347.293064 77.63965 
L 347.507985 77.771972 
L 347.615445 77.907901 
L 347.937826 77.756667 
L 348.045287 77.91231 
L 348.152747 77.776854 
L 348.260208 77.890597 
L 348.475129 77.615491 
L 348.582589 77.373595 
L 348.69005 77.485131 
L 349.334812 76.45085 
L 349.442273 76.53547 
L 349.764654 75.737372 
L 349.872115 75.847079 
L 349.979575 75.64261 
L 350.087036 75.686003 
L 350.409417 75.105579 
L 350.516878 74.905319 
L 350.731799 74.952943 
L 350.946719 74.631767 
L 351.16164 74.915997 
L 351.591482 75.019787 
L 351.913864 75.522109 
L 352.021324 75.526524 
L 353.41831 77.330821 
L 353.525771 77.238556 
L 353.633231 77.672574 
L 353.740692 77.424062 
L 353.955613 77.811474 
L 354.170533 77.717987 
L 354.277994 77.823098 
L 354.600375 77.577483 
L 354.815296 77.680526 
L 355.030217 77.613392 
L 355.567519 76.742986 
L 355.997361 76.404562 
L 356.427203 75.708187 
L 356.749585 75.314878 
L 357.179426 75.072889 
L 357.394347 74.787685 
L 357.824189 74.993855 
L 357.93165 74.867903 
L 358.146571 75.21922 
L 358.254031 75.10679 
L 358.468952 75.596235 
L 358.683873 75.535291 
L 358.898794 75.891846 
L 359.543557 76.878841 
L 359.651017 76.781871 
L 359.865938 77.263196 
L 359.973399 77.056345 
L 360.188319 77.544186 
L 360.29578 77.44801 
L 360.40324 77.634348 
L 360.510701 77.533412 
L 360.725622 77.914797 
L 360.833082 77.748553 
L 360.940543 77.847004 
L 361.155464 77.603712 
L 361.262924 77.339353 
L 361.370385 77.52272 
L 361.907687 76.983475 
L 362.122608 76.854835 
L 362.55245 76.182969 
L 362.65991 76.10855 
L 362.874831 75.805802 
L 362.982292 75.866361 
L 363.089752 75.752162 
L 363.304673 75.276002 
L 363.412133 75.340318 
L 363.627054 75.067014 
L 363.949436 75.137761 
L 364.056896 74.989183 
L 364.164357 75.083507 
L 364.379278 75.004382 
L 364.486738 75.204016 
L 364.594199 74.972131 
L 364.809119 75.341088 
L 365.02404 75.553558 
L 365.346422 75.859722 
L 365.453882 75.914298 
L 365.668803 76.321797 
L 365.883724 76.552052 
L 365.991185 76.516887 
L 366.635947 77.404065 
L 366.850868 77.576991 
L 367.065789 77.440566 
L 367.28071 77.66931 
L 367.495631 77.495089 
L 367.818013 77.663432 
L 368.032933 77.225877 
L 368.355315 77.273037 
L 368.462775 77.148529 
L 368.677696 76.614254 
L 369.322459 75.848979 
L 369.429919 75.664602 
L 369.53738 75.730265 
L 369.859761 75.584696 
L 369.967222 75.516075 
L 370.182143 75.234579 
L 370.397064 75.137337 
L 370.504524 75.312587 
L 370.719445 75.159311 
L 370.934366 75.241788 
L 371.149287 75.375929 
L 371.364208 75.391486 
L 371.579129 75.541923 
L 371.686589 75.942914 
L 371.90151 75.837418 
L 372.116431 76.199192 
L 372.438812 76.474077 
L 373.298496 77.284231 
L 373.405957 77.128776 
L 373.835799 77.488609 
L 374.050719 77.408817 
L 374.480561 77.369764 
L 374.695482 77.106807 
L 374.802943 77.199863 
L 375.017864 77.011521 
L 376.307389 75.516721 
L 376.41485 75.479112 
L 376.52231 75.294374 
L 376.629771 75.503714 
L 376.952152 75.226058 
L 377.274533 75.27074 
L 377.381994 75.172841 
L 378.349138 75.795526 
L 378.77898 76.3637 
L 378.88644 76.346098 
L 379.101361 76.753705 
L 379.316282 76.843543 
L 379.423743 77.090139 
L 379.638664 76.972831 
L 379.853585 77.343288 
L 380.068506 77.471238 
L 380.175966 77.181113 
L 380.283426 77.444377 
L 380.605808 77.323746 
L 380.713268 77.447452 
L 380.928189 77.087646 
L 381.14311 77.251317 
L 381.250571 76.956712 
L 381.358031 77.169576 
L 381.572952 76.943328 
L 381.895333 76.427289 
L 382.110254 76.331791 
L 383.077399 75.525065 
L 383.184859 75.524652 
L 383.39978 75.23897 
L 383.722161 75.445455 
L 383.937082 75.2941 
L 384.044543 75.477359 
L 384.152003 75.32513 
L 384.366924 75.658803 
L 384.474385 75.668245 
L 384.581845 75.792526 
L 384.689306 75.714391 
L 384.796766 75.921829 
L 384.904226 75.813742 
L 385.871371 77.012744 
L 385.978831 76.913325 
L 386.086292 77.170321 
L 386.408673 76.934569 
L 386.838515 77.451641 
L 387.483278 77.169489 
L 387.590738 77.276533 
L 388.02058 76.710074 
L 388.235501 76.643494 
L 388.557882 76.448897 
L 388.772803 76.007536 
L 388.987724 75.984147 
L 389.202645 75.91389 
L 389.632487 75.5613 
L 389.847408 75.433436 
L 389.954868 75.372327 
L 390.169789 75.52903 
L 390.599631 75.301357 
L 390.922012 75.75827 
L 391.136933 75.853837 
L 391.244394 75.794261 
L 391.674236 76.174189 
L 391.889157 76.545029 
L 391.996617 76.541138 
L 392.211538 76.792194 
L 392.426459 76.608224 
L 392.64138 77.055352 
L 392.856301 77.107098 
L 393.286143 77.335683 
L 393.608524 77.343651 
L 393.930906 77.280684 
L 394.253287 76.907697 
L 394.468208 77.051156 
L 395.00551 76.354309 
L 395.112971 76.416683 
L 395.220431 76.022541 
L 395.327892 76.140413 
L 395.865194 75.657757 
L 396.509957 75.433139 
L 396.617417 75.297443 
L 396.832338 75.537487 
L 397.047259 75.3453 
L 397.26218 75.71944 
L 397.906943 75.972655 
L 398.121864 76.294342 
L 398.229324 76.230751 
L 398.336785 76.331847 
L 398.551706 76.70486 
L 398.874087 76.648809 
L 399.089008 76.987591 
L 399.303929 77.091864 
L 399.411389 76.952077 
L 399.51885 77.013186 
L 399.733771 77.215462 
L 399.841231 77.187181 
L 399.948692 77.285005 
L 400.056152 77.194433 
L 400.271073 77.285302 
L 400.700915 77.149486 
L 400.915836 76.953148 
L 401.345678 76.582325 
L 401.453138 76.675322 
L 401.668059 76.404723 
L 402.205361 75.747674 
L 402.312822 75.76487 
L 402.420282 75.453592 
L 402.527743 75.780525 
L 402.635203 75.734571 
L 402.742664 75.81387 
L 402.850124 75.609461 
L 402.957585 75.644438 
L 403.172506 75.454604 
L 403.387426 75.524283 
L 403.602347 75.66142 
L 403.817268 75.682103 
L 403.924729 75.68154 
L 404.13965 75.894903 
L 404.24711 75.894903 
L 404.462031 76.050511 
L 404.569492 76.023676 
L 404.784413 76.372605 
L 405.321715 76.849839 
L 405.536636 76.780574 
L 405.644096 76.817076 
L 405.751557 76.69067 
L 405.966478 77.211968 
L 406.288859 76.982066 
L 406.61124 77.161386 
L 406.826161 76.950905 
L 406.933622 77.230139 
L 407.041082 76.913305 
L 407.363464 76.979113 
L 407.578385 76.717237 
L 407.685845 76.839843 
L 408.008226 76.288486 
L 408.223147 76.50026 
L 408.330608 76.049722 
L 408.438068 76.220063 
L 408.76045 75.933886 
L 409.620133 75.597711 
L 409.727594 75.615803 
L 409.835054 75.790666 
L 410.049975 75.603243 
L 410.372357 75.933369 
L 410.587278 75.706453 
L 410.694738 75.719142 
L 410.802199 76.001976 
L 410.909659 75.824828 
L 411.23204 76.211293 
L 411.339501 76.231916 
L 411.876803 76.774143 
L 411.984264 76.617705 
L 412.306645 77.026901 
L 412.521566 76.887974 
L 412.843947 77.178725 
L 412.951408 77.117081 
L 413.058868 77.254981 
L 413.273789 76.918903 
L 413.48871 77.113373 
L 413.596171 76.84275 
L 413.811092 77.024315 
L 414.026012 76.779238 
L 414.348394 76.599751 
L 414.455854 76.651268 
L 414.670775 76.462649 
L 414.993157 76.309822 
L 415.208078 75.932397 
L 415.315538 76.01801 
L 415.960301 75.622184 
L 416.605064 75.774177 
L 416.712524 75.613163 
L 416.927445 75.868832 
L 417.034906 76.037213 
L 417.357287 75.94708 
L 417.464747 76.146925 
L 417.787129 75.966617 
L 417.894589 76.367782 
L 418.00205 76.326486 
L 418.324431 76.655716 
L 418.431892 76.556469 
L 419.076654 77.041932 
L 419.291575 76.939732 
L 419.613957 77.131709 
L 420.36618 76.87105 
L 420.581101 76.627875 
L 420.796022 76.56609 
L 421.010943 76.489192 
L 421.655706 76.062405 
L 421.763166 75.792872 
L 422.085547 75.937679 
L 422.193008 75.850089 
L 422.300468 75.508427 
L 422.407929 75.625956 
L 422.515389 75.91761 
L 422.73031 75.563911 
L 423.052692 75.939648 
L 423.160152 75.680483 
L 423.267612 75.752671 
L 423.375073 75.98502 
L 423.589994 75.868993 
L 423.697454 75.886717 
L 423.912375 76.158523 
L 424.127296 76.137647 
L 424.234757 76.356997 
L 424.449678 76.256749 
L 424.557138 76.37432 
L 424.772059 76.826452 
L 424.98698 76.71277 
L 425.201901 76.84696 
L 425.309361 76.787757 
L 425.631743 77.084882 
L 425.846664 77.125196 
L 425.954124 77.13646 
L 426.169045 76.964866 
L 426.383966 77.161784 
L 426.598887 76.956044 
L 426.813808 77.127277 
L 426.921268 76.978099 
L 427.028729 76.571696 
L 427.136189 76.642213 
L 427.24365 76.506677 
L 427.458571 76.65153 
L 427.780952 76.15949 
L 428.103333 76.219229 
L 428.210794 76.007599 
L 428.318254 76.09798 
L 428.640636 75.782732 
L 428.748096 75.975479 
L 428.963017 75.766129 
L 429.285399 75.62001 
L 429.500319 75.761995 
L 429.60778 75.865352 
L 429.71524 75.665961 
L 430.145082 76.03729 
L 430.360003 75.875972 
L 431.649529 76.965636 
L 431.86445 76.723503 
L 432.186831 77.044219 
L 432.294292 77.008158 
L 432.509212 76.747669 
L 432.616673 77.020981 
L 432.939054 76.907552 
L 433.046515 76.99358 
L 433.368896 76.532523 
L 433.476357 76.786385 
L 433.798738 76.644078 
L 434.22858 76.30217 
L 434.33604 76.306663 
L 434.765882 75.992274 
L 434.873343 75.92047 
L 435.088264 75.957199 
L 435.303185 75.879971 
L 435.410645 75.922153 
L 435.518106 75.809428 
L 435.840487 75.8871 
L 436.055408 75.645643 
L 436.270329 75.855698 
L 436.377789 75.763296 
L 436.59271 75.839231 
L 436.807631 76.028924 
L 437.022552 76.24056 
L 437.130012 75.96868 
L 437.344933 76.425266 
L 437.559854 76.77808 
L 437.667315 76.411327 
L 437.774775 76.734271 
L 437.989696 76.557513 
L 438.097157 76.731523 
L 438.312078 76.633351 
L 438.419538 76.831844 
L 438.634459 76.765345 
L 438.84938 76.898391 
L 439.171761 76.812118 
L 439.601603 76.97884 
L 440.031445 76.511803 
L 440.461287 76.617975 
L 440.783668 76.312754 
L 440.891129 76.294203 
L 441.10605 75.922779 
L 441.21351 76.207346 
L 441.428431 76.012941 
L 441.643352 75.949789 
L 441.858273 75.927775 
L 441.965733 75.818653 
L 442.073194 75.980387 
L 442.395575 75.873075 
L 442.610496 75.947772 
L 442.717957 75.704254 
L 442.825417 76.214386 
L 442.932878 75.822208 
L 443.040338 76.104277 
L 443.147799 75.857687 
L 443.57764 76.310011 
L 443.792561 76.16067 
L 444.114943 76.524 
L 444.437324 76.698965 
L 444.759706 76.600585 
L 444.867166 76.635623 
L 445.189547 76.956179 
L 445.404468 76.968964 
L 445.511929 76.879848 
L 445.619389 77.017694 
L 445.72685 76.962535 
L 445.83431 76.77311 
L 446.049231 76.853131 
L 446.264152 76.820003 
L 446.693994 76.59713 
L 446.801454 76.598914 
L 446.908915 76.339896 
L 447.016375 76.472137 
L 447.231296 76.254151 
L 447.553678 76.222683 
L 447.661138 76.294672 
L 447.768599 75.989097 
L 448.09098 76.078107 
L 448.19844 75.85604 
L 448.305901 75.945392 
L 448.413361 75.784425 
L 448.628282 76.073245 
L 448.843203 75.88307 
L 449.058124 75.898341 
L 449.380506 75.803413 
L 449.487966 76.100556 
L 449.595426 76.049238 
L 449.810347 76.15529 
L 450.025268 76.023226 
L 450.45511 76.436281 
L 450.562571 76.382766 
L 450.777492 76.624427 
L 451.314794 76.691617 
L 451.529715 76.900068 
L 451.744636 76.845314 
L 451.959557 76.968187 
L 452.067017 76.804709 
L 452.174478 77.087648 
L 452.389399 76.700905 
L 452.496859 76.616284 
L 452.604319 76.679991 
L 452.71178 76.520692 
L 452.81924 76.757907 
L 452.926701 76.662117 
L 453.034161 76.757027 
L 453.356543 76.366205 
L 453.571464 76.621065 
L 453.786385 76.209674 
L 454.001306 76.214702 
L 454.108766 76.203899 
L 454.323687 75.977454 
L 454.431147 76.265572 
L 454.538608 75.990922 
L 454.646068 76.19216 
L 454.96845 75.763908 
L 455.183371 75.998493 
L 455.290831 75.862193 
L 455.505752 75.927434 
L 455.720673 75.804856 
L 455.935594 76.078357 
L 456.150515 76.095213 
L 456.365436 76.248234 
L 456.472896 76.087722 
L 456.902738 76.503104 
L 457.010199 76.325403 
L 457.117659 76.610878 
L 457.225119 76.38868 
L 457.547501 76.766273 
L 457.762422 76.535479 
L 457.977343 76.988972 
L 458.192264 76.656746 
L 458.407185 76.965101 
L 458.622106 76.702834 
L 458.729566 76.731622 
L 458.837026 76.912274 
L 459.159408 76.709093 
L 459.481789 76.60234 
L 459.69671 76.679333 
L 459.911631 76.486481 
L 460.019092 76.586061 
L 460.126552 76.517006 
L 460.234012 76.193788 
L 460.448933 76.305933 
L 460.878775 76.00339 
L 460.986236 76.034155 
L 461.093696 75.908472 
L 461.201157 76.037491 
L 461.416078 75.906984 
L 461.523538 76.099683 
L 461.630999 75.721401 
L 461.845919 76.044242 
L 461.95338 75.796109 
L 462.275761 75.993667 
L 462.490682 76.063417 
L 462.705603 75.878744 
L 462.920524 76.223312 
L 463.135445 75.973503 
L 463.350366 76.245289 
L 463.780208 76.563198 
L 463.995129 76.395762 
L 464.21005 76.772609 
L 464.31751 76.687927 
L 464.532431 76.831006 
L 464.639892 76.650488 
L 464.962273 76.868349 
L 465.069733 76.611792 
L 465.284654 76.762994 
L 465.392115 76.603935 
L 465.714496 76.681237 
L 465.821957 76.61263 
L 466.036878 76.693012 
L 466.251799 76.522159 
L 466.466719 76.611057 
L 466.68164 76.23546 
L 467.004022 76.335482 
L 467.218943 76.058309 
L 467.433864 76.14878 
L 467.648785 75.980029 
L 467.756245 76.034219 
L 467.863706 75.921125 
L 467.971166 76.139908 
L 468.078626 75.941008 
L 468.293547 76.226146 
L 468.401008 75.962881 
L 468.508468 76.051134 
L 468.615929 75.953224 
L 468.723389 76.147266 
L 468.83085 75.907466 
L 468.93831 76.115824 
L 469.045771 75.81394 
L 469.153231 76.247517 
L 469.368152 76.133309 
L 469.475613 76.355445 
L 469.690533 76.219293 
L 469.797994 76.167974 
L 470.012915 76.482005 
L 470.227836 76.307084 
L 470.442757 76.672916 
L 470.550217 76.434275 
L 470.980059 76.795224 
L 471.19498 76.533076 
L 471.30244 76.825861 
L 471.409901 76.685668 
L 471.624822 76.835673 
L 471.732282 76.619144 
L 471.947203 76.818523 
L 472.269585 76.518268 
L 472.377045 76.707118 
L 472.591966 76.568436 
L 473.55911 76.157992 
L 473.666571 76.373643 
L 473.774031 76.264342 
L 473.881492 76.38233 
L 473.988952 76.075189 
L 474.311333 76.146751 
L 474.526254 76.102264 
L 474.848636 75.9929 
L 474.956096 76.107781 
L 475.493399 75.907319 
L 476.245622 76.601996 
L 476.460543 76.184229 
L 476.568003 76.174542 
L 476.890385 76.533763 
L 477.320226 76.67916 
L 477.427687 76.563138 
L 477.535147 76.739972 
L 477.642608 76.409754 
L 477.857529 76.691781 
L 477.964989 76.605142 
L 478.07245 76.887374 
L 478.17991 76.679359 
L 478.394831 76.822904 
L 478.502292 76.587593 
L 478.717212 76.663044 
L 478.717212 76.663044 
" style="fill:none;stroke:#1f77b4;stroke-linecap:square;stroke-width:0.5;"/>
   </g>
   <g id="patch_3">
    <path d="M 48.982813 130.32 
L 48.982813 21.6 
" style="fill:none;stroke:#000000;stroke-linecap:square;stroke-linejoin:miter;stroke-width:0.8;"/>
   </g>
   <g id="patch_4">
    <path d="M 495.382812 130.32 
L 495.382812 21.6 
" style="fill:none;stroke:#000000;stroke-linecap:square;stroke-linejoin:miter;stroke-width:0.8;"/>
   </g>
   <g id="patch_5">
    <path d="M 48.982813 130.32 
L 495.382812 130.32 
" style="fill:none;stroke:#000000;stroke-linecap:square;stroke-linejoin:miter;stroke-width:0.8;"/>
   </g>
   <g id="patch_6">
    <path d="M 48.982813 21.6 
L 495.382812 21.6 
" style="fill:none;stroke:#000000;stroke-linecap:square;stroke-linejoin:miter;stroke-width:0.8;"/>
   </g>
  </g>
  <g id="text_15">
   <!-- Time Domain Amplitude -->
   <g transform="translate(180.3725 17.837812)scale(0.14 -0.14)">
    <defs>
     <path d="M 19.671875 64.796875 
L 19.671875 8.109375 
L 31.59375 8.109375 
Q 46.6875 8.109375 53.6875 14.9375 
Q 60.6875 21.78125 60.6875 36.53125 
Q 60.6875 51.171875 53.6875 57.984375 
Q 46.6875 64.796875 31.59375 64.796875 
z
M 9.8125 72.90625 
L 30.078125 72.90625 
Q 51.265625 72.90625 61.171875 64.09375 
Q 71.09375 55.28125 71.09375 36.53125 
Q 71.09375 17.671875 61.125 8.828125 
Q 51.171875 0 30.078125 0 
L 9.8125 0 
z
" id="DejaVuSans-68"/>
     <path d="M 30.609375 48.390625 
Q 23.390625 48.390625 19.1875 42.75 
Q 14.984375 37.109375 14.984375 27.296875 
Q 14.984375 17.484375 19.15625 11.84375 
Q 23.34375 6.203125 30.609375 6.203125 
Q 37.796875 6.203125 41.984375 11.859375 
Q 46.1875 17.53125 46.1875 27.296875 
Q 46.1875 37.015625 41.984375 42.703125 
Q 37.796875 48.390625 30.609375 48.390625 
z
M 30.609375 56 
Q 42.328125 56 49.015625 48.375 
Q 55.71875 40.765625 55.71875 27.296875 
Q 55.71875 13.875 49.015625 6.21875 
Q 42.328125 -1.421875 30.609375 -1.421875 
Q 18.84375 -1.421875 12.171875 6.21875 
Q 5.515625 13.875 5.515625 27.296875 
Q 5.515625 40.765625 12.171875 48.375 
Q 18.84375 56 30.609375 56 
z
" id="DejaVuSans-111"/>
     <path d="M 34.28125 27.484375 
Q 23.390625 27.484375 19.1875 25 
Q 14.984375 22.515625 14.984375 16.5 
Q 14.984375 11.71875 18.140625 8.90625 
Q 21.296875 6.109375 26.703125 6.109375 
Q 34.1875 6.109375 38.703125 11.40625 
Q 43.21875 16.703125 43.21875 25.484375 
L 43.21875 27.484375 
z
M 52.203125 31.203125 
L 52.203125 0 
L 43.21875 0 
L 43.21875 8.296875 
Q 40.140625 3.328125 35.546875 0.953125 
Q 30.953125 -1.421875 24.3125 -1.421875 
Q 15.921875 -1.421875 10.953125 3.296875 
Q 6 8.015625 6 15.921875 
Q 6 25.140625 12.171875 29.828125 
Q 18.359375 34.515625 30.609375 34.515625 
L 43.21875 34.515625 
L 43.21875 35.40625 
Q 43.21875 41.609375 39.140625 45 
Q 35.0625 48.390625 27.6875 48.390625 
Q 23 48.390625 18.546875 47.265625 
Q 14.109375 46.140625 10.015625 43.890625 
L 10.015625 52.203125 
Q 14.9375 54.109375 19.578125 55.046875 
Q 24.21875 56 28.609375 56 
Q 40.484375 56 46.34375 49.84375 
Q 52.203125 43.703125 52.203125 31.203125 
z
" id="DejaVuSans-97"/>
     <path d="M 54.890625 33.015625 
L 54.890625 0 
L 45.90625 0 
L 45.90625 32.71875 
Q 45.90625 40.484375 42.875 44.328125 
Q 39.84375 48.1875 33.796875 48.1875 
Q 26.515625 48.1875 22.3125 43.546875 
Q 18.109375 38.921875 18.109375 30.90625 
L 18.109375 0 
L 9.078125 0 
L 9.078125 54.6875 
L 18.109375 54.6875 
L 18.109375 46.1875 
Q 21.34375 51.125 25.703125 53.5625 
Q 30.078125 56 35.796875 56 
Q 45.21875 56 50.046875 50.171875 
Q 54.890625 44.34375 54.890625 33.015625 
z
" id="DejaVuSans-110"/>
    </defs>
    <use xlink:href="#DejaVuSans-84"/>
    <use x="57.958984" xlink:href="#DejaVuSans-105"/>
    <use x="85.742188" xlink:href="#DejaVuSans-109"/>
    <use x="183.154297" xlink:href="#DejaVuSans-101"/>
    <use x="244.677734" xlink:href="#DejaVuSans-32"/>
    <use x="276.464844" xlink:href="#DejaVuSans-68"/>
    <use x="353.466797" xlink:href="#DejaVuSans-111"/>
    <use x="414.648438" xlink:href="#DejaVuSans-109"/>
    <use x="512.060547" xlink:href="#DejaVuSans-97"/>
    <use x="573.339844" xlink:href="#DejaVuSans-105"/>
    <use x="601.123047" xlink:href="#DejaVuSans-110"/>
    <use x="664.501953" xlink:href="#DejaVuSans-32"/>
    <use x="696.289062" xlink:href="#DejaVuSans-65"/>
    <use x="764.697266" xlink:href="#DejaVuSans-109"/>
    <use x="862.109375" xlink:href="#DejaVuSans-112"/>
    <use x="925.585938" xlink:href="#DejaVuSans-108"/>
    <use x="953.369141" xlink:href="#DejaVuSans-105"/>
    <use x="981.152344" xlink:href="#DejaVuSans-116"/>
    <use x="1020.361328" xlink:href="#DejaVuSans-117"/>
    <use x="1083.740234" xlink:href="#DejaVuSans-100"/>
    <use x="1147.216797" xlink:href="#DejaVuSans-101"/>
   </g>
  </g>
 </g>
 <defs>
  <clipPath id="p91739dd464">
   <rect height="108.72" width="446.4" x="48.982813" y="21.6"/>
  </clipPath>
 </defs>
</svg>
