<?xml version="1.0" encoding="utf-8" standalone="no"?>
<!DOCTYPE svg PUBLIC "-//W3C//DTD SVG 1.1//EN"
  "http://www.w3.org/Graphics/SVG/1.1/DTD/svg11.dtd">
<!-- Created with matplotlib (https://matplotlib.org/) -->
<svg height="167.87625pt" version="1.1" viewBox="0 0 508.945312 167.87625" width="508.945312pt" xmlns="http://www.w3.org/2000/svg" xmlns:xlink="http://www.w3.org/1999/xlink">
 <metadata>
  <rdf:RDF xmlns:cc="http://creativecommons.org/ns#" xmlns:dc="http://purl.org/dc/elements/1.1/" xmlns:rdf="http://www.w3.org/1999/02/22-rdf-syntax-ns#">
   <cc:Work>
    <dc:type rdf:resource="http://purl.org/dc/dcmitype/StillImage"/>
    <dc:date>2021-02-22T12:08:47.081249</dc:date>
    <dc:format>image/svg+xml</dc:format>
    <dc:creator>
     <cc:Agent>
      <dc:title>Matplotlib v3.3.2, https://matplotlib.org/</dc:title>
     </cc:Agent>
    </dc:creator>
   </cc:Work>
  </rdf:RDF>
 </metadata>
 <defs>
  <style type="text/css">*{stroke-linecap:butt;stroke-linejoin:round;}</style>
 </defs>
 <g id="figure_1">
  <g id="patch_1">
   <path d="M 0 167.87625 
L 508.945312 167.87625 
L 508.945312 0 
L 0 0 
z
" style="fill:none;"/>
  </g>
  <g id="axes_1">
   <g id="patch_2">
    <path d="M 48.982813 130.32 
L 495.382812 130.32 
L 495.382812 21.6 
L 48.982813 21.6 
z
" style="fill:#ffffff;"/>
   </g>
   <g id="matplotlib.axis_1">
    <g id="xtick_1">
     <g id="line2d_1">
      <path clip-path="url(#p46a200014a)" d="M 48.982813 130.32 
L 48.982813 21.6 
" style="fill:none;stroke:#b0b0b0;stroke-linecap:square;stroke-width:0.8;"/>
     </g>
     <g id="line2d_2">
      <defs>
       <path d="M 0 0 
L 0 3.5 
" id="mff421baa4e" style="stroke:#000000;stroke-width:0.8;"/>
      </defs>
      <g>
       <use style="stroke:#000000;stroke-width:0.8;" x="48.982813" xlink:href="#mff421baa4e" y="130.32"/>
      </g>
     </g>
     <g id="text_1">
      <!-- 0 -->
      <g transform="translate(45.801563 144.918437)scale(0.1 -0.1)">
       <defs>
        <path d="M 31.78125 66.40625 
Q 24.171875 66.40625 20.328125 58.90625 
Q 16.5 51.421875 16.5 36.375 
Q 16.5 21.390625 20.328125 13.890625 
Q 24.171875 6.390625 31.78125 6.390625 
Q 39.453125 6.390625 43.28125 13.890625 
Q 47.125 21.390625 47.125 36.375 
Q 47.125 51.421875 43.28125 58.90625 
Q 39.453125 66.40625 31.78125 66.40625 
z
M 31.78125 74.21875 
Q 44.046875 74.21875 50.515625 64.515625 
Q 56.984375 54.828125 56.984375 36.375 
Q 56.984375 17.96875 50.515625 8.265625 
Q 44.046875 -1.421875 31.78125 -1.421875 
Q 19.53125 -1.421875 13.0625 8.265625 
Q 6.59375 17.96875 6.59375 36.375 
Q 6.59375 54.828125 13.0625 64.515625 
Q 19.53125 74.21875 31.78125 74.21875 
z
" id="DejaVuSans-48"/>
       </defs>
       <use xlink:href="#DejaVuSans-48"/>
      </g>
     </g>
    </g>
    <g id="xtick_2">
     <g id="line2d_3">
      <path clip-path="url(#p46a200014a)" d="M 123.382812 130.32 
L 123.382812 21.6 
" style="fill:none;stroke:#b0b0b0;stroke-linecap:square;stroke-width:0.8;"/>
     </g>
     <g id="line2d_4">
      <g>
       <use style="stroke:#000000;stroke-width:0.8;" x="123.382812" xlink:href="#mff421baa4e" y="130.32"/>
      </g>
     </g>
     <g id="text_2">
      <!-- 2 -->
      <g transform="translate(120.201562 144.918437)scale(0.1 -0.1)">
       <defs>
        <path d="M 19.1875 8.296875 
L 53.609375 8.296875 
L 53.609375 0 
L 7.328125 0 
L 7.328125 8.296875 
Q 12.9375 14.109375 22.625 23.890625 
Q 32.328125 33.6875 34.8125 36.53125 
Q 39.546875 41.84375 41.421875 45.53125 
Q 43.3125 49.21875 43.3125 52.78125 
Q 43.3125 58.59375 39.234375 62.25 
Q 35.15625 65.921875 28.609375 65.921875 
Q 23.96875 65.921875 18.8125 64.3125 
Q 13.671875 62.703125 7.8125 59.421875 
L 7.8125 69.390625 
Q 13.765625 71.78125 18.9375 73 
Q 24.125 74.21875 28.421875 74.21875 
Q 39.75 74.21875 46.484375 68.546875 
Q 53.21875 62.890625 53.21875 53.421875 
Q 53.21875 48.921875 51.53125 44.890625 
Q 49.859375 40.875 45.40625 35.40625 
Q 44.1875 33.984375 37.640625 27.21875 
Q 31.109375 20.453125 19.1875 8.296875 
z
" id="DejaVuSans-50"/>
       </defs>
       <use xlink:href="#DejaVuSans-50"/>
      </g>
     </g>
    </g>
    <g id="xtick_3">
     <g id="line2d_5">
      <path clip-path="url(#p46a200014a)" d="M 197.782812 130.32 
L 197.782812 21.6 
" style="fill:none;stroke:#b0b0b0;stroke-linecap:square;stroke-width:0.8;"/>
     </g>
     <g id="line2d_6">
      <g>
       <use style="stroke:#000000;stroke-width:0.8;" x="197.782812" xlink:href="#mff421baa4e" y="130.32"/>
      </g>
     </g>
     <g id="text_3">
      <!-- 4 -->
      <g transform="translate(194.601562 144.918437)scale(0.1 -0.1)">
       <defs>
        <path d="M 37.796875 64.3125 
L 12.890625 25.390625 
L 37.796875 25.390625 
z
M 35.203125 72.90625 
L 47.609375 72.90625 
L 47.609375 25.390625 
L 58.015625 25.390625 
L 58.015625 17.1875 
L 47.609375 17.1875 
L 47.609375 0 
L 37.796875 0 
L 37.796875 17.1875 
L 4.890625 17.1875 
L 4.890625 26.703125 
z
" id="DejaVuSans-52"/>
       </defs>
       <use xlink:href="#DejaVuSans-52"/>
      </g>
     </g>
    </g>
    <g id="xtick_4">
     <g id="line2d_7">
      <path clip-path="url(#p46a200014a)" d="M 272.182813 130.32 
L 272.182813 21.6 
" style="fill:none;stroke:#b0b0b0;stroke-linecap:square;stroke-width:0.8;"/>
     </g>
     <g id="line2d_8">
      <g>
       <use style="stroke:#000000;stroke-width:0.8;" x="272.182813" xlink:href="#mff421baa4e" y="130.32"/>
      </g>
     </g>
     <g id="text_4">
      <!-- 6 -->
      <g transform="translate(269.001563 144.918437)scale(0.1 -0.1)">
       <defs>
        <path d="M 33.015625 40.375 
Q 26.375 40.375 22.484375 35.828125 
Q 18.609375 31.296875 18.609375 23.390625 
Q 18.609375 15.53125 22.484375 10.953125 
Q 26.375 6.390625 33.015625 6.390625 
Q 39.65625 6.390625 43.53125 10.953125 
Q 47.40625 15.53125 47.40625 23.390625 
Q 47.40625 31.296875 43.53125 35.828125 
Q 39.65625 40.375 33.015625 40.375 
z
M 52.59375 71.296875 
L 52.59375 62.3125 
Q 48.875 64.0625 45.09375 64.984375 
Q 41.3125 65.921875 37.59375 65.921875 
Q 27.828125 65.921875 22.671875 59.328125 
Q 17.53125 52.734375 16.796875 39.40625 
Q 19.671875 43.65625 24.015625 45.921875 
Q 28.375 48.1875 33.59375 48.1875 
Q 44.578125 48.1875 50.953125 41.515625 
Q 57.328125 34.859375 57.328125 23.390625 
Q 57.328125 12.15625 50.6875 5.359375 
Q 44.046875 -1.421875 33.015625 -1.421875 
Q 20.359375 -1.421875 13.671875 8.265625 
Q 6.984375 17.96875 6.984375 36.375 
Q 6.984375 53.65625 15.1875 63.9375 
Q 23.390625 74.21875 37.203125 74.21875 
Q 40.921875 74.21875 44.703125 73.484375 
Q 48.484375 72.75 52.59375 71.296875 
z
" id="DejaVuSans-54"/>
       </defs>
       <use xlink:href="#DejaVuSans-54"/>
      </g>
     </g>
    </g>
    <g id="xtick_5">
     <g id="line2d_9">
      <path clip-path="url(#p46a200014a)" d="M 346.582812 130.32 
L 346.582812 21.6 
" style="fill:none;stroke:#b0b0b0;stroke-linecap:square;stroke-width:0.8;"/>
     </g>
     <g id="line2d_10">
      <g>
       <use style="stroke:#000000;stroke-width:0.8;" x="346.582812" xlink:href="#mff421baa4e" y="130.32"/>
      </g>
     </g>
     <g id="text_5">
      <!-- 8 -->
      <g transform="translate(343.401563 144.918437)scale(0.1 -0.1)">
       <defs>
        <path d="M 31.78125 34.625 
Q 24.75 34.625 20.71875 30.859375 
Q 16.703125 27.09375 16.703125 20.515625 
Q 16.703125 13.921875 20.71875 10.15625 
Q 24.75 6.390625 31.78125 6.390625 
Q 38.8125 6.390625 42.859375 10.171875 
Q 46.921875 13.96875 46.921875 20.515625 
Q 46.921875 27.09375 42.890625 30.859375 
Q 38.875 34.625 31.78125 34.625 
z
M 21.921875 38.8125 
Q 15.578125 40.375 12.03125 44.71875 
Q 8.5 49.078125 8.5 55.328125 
Q 8.5 64.0625 14.71875 69.140625 
Q 20.953125 74.21875 31.78125 74.21875 
Q 42.671875 74.21875 48.875 69.140625 
Q 55.078125 64.0625 55.078125 55.328125 
Q 55.078125 49.078125 51.53125 44.71875 
Q 48 40.375 41.703125 38.8125 
Q 48.828125 37.15625 52.796875 32.3125 
Q 56.78125 27.484375 56.78125 20.515625 
Q 56.78125 9.90625 50.3125 4.234375 
Q 43.84375 -1.421875 31.78125 -1.421875 
Q 19.734375 -1.421875 13.25 4.234375 
Q 6.78125 9.90625 6.78125 20.515625 
Q 6.78125 27.484375 10.78125 32.3125 
Q 14.796875 37.15625 21.921875 38.8125 
z
M 18.3125 54.390625 
Q 18.3125 48.734375 21.84375 45.5625 
Q 25.390625 42.390625 31.78125 42.390625 
Q 38.140625 42.390625 41.71875 45.5625 
Q 45.3125 48.734375 45.3125 54.390625 
Q 45.3125 60.0625 41.71875 63.234375 
Q 38.140625 66.40625 31.78125 66.40625 
Q 25.390625 66.40625 21.84375 63.234375 
Q 18.3125 60.0625 18.3125 54.390625 
z
" id="DejaVuSans-56"/>
       </defs>
       <use xlink:href="#DejaVuSans-56"/>
      </g>
     </g>
    </g>
    <g id="xtick_6">
     <g id="line2d_11">
      <path clip-path="url(#p46a200014a)" d="M 420.982812 130.32 
L 420.982812 21.6 
" style="fill:none;stroke:#b0b0b0;stroke-linecap:square;stroke-width:0.8;"/>
     </g>
     <g id="line2d_12">
      <g>
       <use style="stroke:#000000;stroke-width:0.8;" x="420.982812" xlink:href="#mff421baa4e" y="130.32"/>
      </g>
     </g>
     <g id="text_6">
      <!-- 10 -->
      <g transform="translate(414.620312 144.918437)scale(0.1 -0.1)">
       <defs>
        <path d="M 12.40625 8.296875 
L 28.515625 8.296875 
L 28.515625 63.921875 
L 10.984375 60.40625 
L 10.984375 69.390625 
L 28.421875 72.90625 
L 38.28125 72.90625 
L 38.28125 8.296875 
L 54.390625 8.296875 
L 54.390625 0 
L 12.40625 0 
z
" id="DejaVuSans-49"/>
       </defs>
       <use xlink:href="#DejaVuSans-49"/>
       <use x="63.623047" xlink:href="#DejaVuSans-48"/>
      </g>
     </g>
    </g>
    <g id="xtick_7">
     <g id="line2d_13">
      <path clip-path="url(#p46a200014a)" d="M 495.382812 130.32 
L 495.382812 21.6 
" style="fill:none;stroke:#b0b0b0;stroke-linecap:square;stroke-width:0.8;"/>
     </g>
     <g id="line2d_14">
      <g>
       <use style="stroke:#000000;stroke-width:0.8;" x="495.382812" xlink:href="#mff421baa4e" y="130.32"/>
      </g>
     </g>
     <g id="text_7">
      <!-- 12 -->
      <g transform="translate(489.020312 144.918437)scale(0.1 -0.1)">
       <use xlink:href="#DejaVuSans-49"/>
       <use x="63.623047" xlink:href="#DejaVuSans-50"/>
      </g>
     </g>
    </g>
    <g id="text_8">
     <!-- Time (s) -->
     <g transform="translate(251.853906 158.596563)scale(0.1 -0.1)">
      <defs>
       <path d="M -0.296875 72.90625 
L 61.375 72.90625 
L 61.375 64.59375 
L 35.5 64.59375 
L 35.5 0 
L 25.59375 0 
L 25.59375 64.59375 
L -0.296875 64.59375 
z
" id="DejaVuSans-84"/>
       <path d="M 9.421875 54.6875 
L 18.40625 54.6875 
L 18.40625 0 
L 9.421875 0 
z
M 9.421875 75.984375 
L 18.40625 75.984375 
L 18.40625 64.59375 
L 9.421875 64.59375 
z
" id="DejaVuSans-105"/>
       <path d="M 52 44.1875 
Q 55.375 50.25 60.0625 53.125 
Q 64.75 56 71.09375 56 
Q 79.640625 56 84.28125 50.015625 
Q 88.921875 44.046875 88.921875 33.015625 
L 88.921875 0 
L 79.890625 0 
L 79.890625 32.71875 
Q 79.890625 40.578125 77.09375 44.375 
Q 74.3125 48.1875 68.609375 48.1875 
Q 61.625 48.1875 57.5625 43.546875 
Q 53.515625 38.921875 53.515625 30.90625 
L 53.515625 0 
L 44.484375 0 
L 44.484375 32.71875 
Q 44.484375 40.625 41.703125 44.40625 
Q 38.921875 48.1875 33.109375 48.1875 
Q 26.21875 48.1875 22.15625 43.53125 
Q 18.109375 38.875 18.109375 30.90625 
L 18.109375 0 
L 9.078125 0 
L 9.078125 54.6875 
L 18.109375 54.6875 
L 18.109375 46.1875 
Q 21.1875 51.21875 25.484375 53.609375 
Q 29.78125 56 35.6875 56 
Q 41.65625 56 45.828125 52.96875 
Q 50 49.953125 52 44.1875 
z
" id="DejaVuSans-109"/>
       <path d="M 56.203125 29.59375 
L 56.203125 25.203125 
L 14.890625 25.203125 
Q 15.484375 15.921875 20.484375 11.0625 
Q 25.484375 6.203125 34.421875 6.203125 
Q 39.59375 6.203125 44.453125 7.46875 
Q 49.3125 8.734375 54.109375 11.28125 
L 54.109375 2.78125 
Q 49.265625 0.734375 44.1875 -0.34375 
Q 39.109375 -1.421875 33.890625 -1.421875 
Q 20.796875 -1.421875 13.15625 6.1875 
Q 5.515625 13.8125 5.515625 26.8125 
Q 5.515625 40.234375 12.765625 48.109375 
Q 20.015625 56 32.328125 56 
Q 43.359375 56 49.78125 48.890625 
Q 56.203125 41.796875 56.203125 29.59375 
z
M 47.21875 32.234375 
Q 47.125 39.59375 43.09375 43.984375 
Q 39.0625 48.390625 32.421875 48.390625 
Q 24.90625 48.390625 20.390625 44.140625 
Q 15.875 39.890625 15.1875 32.171875 
z
" id="DejaVuSans-101"/>
       <path id="DejaVuSans-32"/>
       <path d="M 31 75.875 
Q 24.46875 64.65625 21.28125 53.65625 
Q 18.109375 42.671875 18.109375 31.390625 
Q 18.109375 20.125 21.3125 9.0625 
Q 24.515625 -2 31 -13.1875 
L 23.1875 -13.1875 
Q 15.875 -1.703125 12.234375 9.375 
Q 8.59375 20.453125 8.59375 31.390625 
Q 8.59375 42.28125 12.203125 53.3125 
Q 15.828125 64.359375 23.1875 75.875 
z
" id="DejaVuSans-40"/>
       <path d="M 44.28125 53.078125 
L 44.28125 44.578125 
Q 40.484375 46.53125 36.375 47.5 
Q 32.28125 48.484375 27.875 48.484375 
Q 21.1875 48.484375 17.84375 46.4375 
Q 14.5 44.390625 14.5 40.28125 
Q 14.5 37.15625 16.890625 35.375 
Q 19.28125 33.59375 26.515625 31.984375 
L 29.59375 31.296875 
Q 39.15625 29.25 43.1875 25.515625 
Q 47.21875 21.78125 47.21875 15.09375 
Q 47.21875 7.46875 41.1875 3.015625 
Q 35.15625 -1.421875 24.609375 -1.421875 
Q 20.21875 -1.421875 15.453125 -0.5625 
Q 10.6875 0.296875 5.421875 2 
L 5.421875 11.28125 
Q 10.40625 8.6875 15.234375 7.390625 
Q 20.0625 6.109375 24.8125 6.109375 
Q 31.15625 6.109375 34.5625 8.28125 
Q 37.984375 10.453125 37.984375 14.40625 
Q 37.984375 18.0625 35.515625 20.015625 
Q 33.0625 21.96875 24.703125 23.78125 
L 21.578125 24.515625 
Q 13.234375 26.265625 9.515625 29.90625 
Q 5.8125 33.546875 5.8125 39.890625 
Q 5.8125 47.609375 11.28125 51.796875 
Q 16.75 56 26.8125 56 
Q 31.78125 56 36.171875 55.265625 
Q 40.578125 54.546875 44.28125 53.078125 
z
" id="DejaVuSans-115"/>
       <path d="M 8.015625 75.875 
L 15.828125 75.875 
Q 23.140625 64.359375 26.78125 53.3125 
Q 30.421875 42.28125 30.421875 31.390625 
Q 30.421875 20.453125 26.78125 9.375 
Q 23.140625 -1.703125 15.828125 -13.1875 
L 8.015625 -13.1875 
Q 14.5 -2 17.703125 9.0625 
Q 20.90625 20.125 20.90625 31.390625 
Q 20.90625 42.671875 17.703125 53.65625 
Q 14.5 64.65625 8.015625 75.875 
z
" id="DejaVuSans-41"/>
      </defs>
      <use xlink:href="#DejaVuSans-84"/>
      <use x="57.958984" xlink:href="#DejaVuSans-105"/>
      <use x="85.742188" xlink:href="#DejaVuSans-109"/>
      <use x="183.154297" xlink:href="#DejaVuSans-101"/>
      <use x="244.677734" xlink:href="#DejaVuSans-32"/>
      <use x="276.464844" xlink:href="#DejaVuSans-40"/>
      <use x="315.478516" xlink:href="#DejaVuSans-115"/>
      <use x="367.578125" xlink:href="#DejaVuSans-41"/>
     </g>
    </g>
   </g>
   <g id="matplotlib.axis_2">
    <g id="ytick_1">
     <g id="line2d_15">
      <path clip-path="url(#p46a200014a)" d="M 48.982813 130.32 
L 495.382812 130.32 
" style="fill:none;stroke:#b0b0b0;stroke-linecap:square;stroke-width:0.8;"/>
     </g>
     <g id="line2d_16">
      <defs>
       <path d="M 0 0 
L -3.5 0 
" id="mca4e8334e4" style="stroke:#000000;stroke-width:0.8;"/>
      </defs>
      <g>
       <use style="stroke:#000000;stroke-width:0.8;" x="48.982813" xlink:href="#mca4e8334e4" y="130.32"/>
      </g>
     </g>
     <g id="text_9">
      <!-- −20 -->
      <g transform="translate(20.878125 134.119219)scale(0.1 -0.1)">
       <defs>
        <path d="M 10.59375 35.5 
L 73.1875 35.5 
L 73.1875 27.203125 
L 10.59375 27.203125 
z
" id="DejaVuSans-8722"/>
       </defs>
       <use xlink:href="#DejaVuSans-8722"/>
       <use x="83.789062" xlink:href="#DejaVuSans-50"/>
       <use x="147.412109" xlink:href="#DejaVuSans-48"/>
      </g>
     </g>
    </g>
    <g id="ytick_2">
     <g id="line2d_17">
      <path clip-path="url(#p46a200014a)" d="M 48.982813 103.14 
L 495.382812 103.14 
" style="fill:none;stroke:#b0b0b0;stroke-linecap:square;stroke-width:0.8;"/>
     </g>
     <g id="line2d_18">
      <g>
       <use style="stroke:#000000;stroke-width:0.8;" x="48.982813" xlink:href="#mca4e8334e4" y="103.14"/>
      </g>
     </g>
     <g id="text_10">
      <!-- −10 -->
      <g transform="translate(20.878125 106.939219)scale(0.1 -0.1)">
       <use xlink:href="#DejaVuSans-8722"/>
       <use x="83.789062" xlink:href="#DejaVuSans-49"/>
       <use x="147.412109" xlink:href="#DejaVuSans-48"/>
      </g>
     </g>
    </g>
    <g id="ytick_3">
     <g id="line2d_19">
      <path clip-path="url(#p46a200014a)" d="M 48.982813 75.96 
L 495.382812 75.96 
" style="fill:none;stroke:#b0b0b0;stroke-linecap:square;stroke-width:0.8;"/>
     </g>
     <g id="line2d_20">
      <g>
       <use style="stroke:#000000;stroke-width:0.8;" x="48.982813" xlink:href="#mca4e8334e4" y="75.96"/>
      </g>
     </g>
     <g id="text_11">
      <!-- 0 -->
      <g transform="translate(35.620313 79.759219)scale(0.1 -0.1)">
       <use xlink:href="#DejaVuSans-48"/>
      </g>
     </g>
    </g>
    <g id="ytick_4">
     <g id="line2d_21">
      <path clip-path="url(#p46a200014a)" d="M 48.982813 48.78 
L 495.382812 48.78 
" style="fill:none;stroke:#b0b0b0;stroke-linecap:square;stroke-width:0.8;"/>
     </g>
     <g id="line2d_22">
      <g>
       <use style="stroke:#000000;stroke-width:0.8;" x="48.982813" xlink:href="#mca4e8334e4" y="48.78"/>
      </g>
     </g>
     <g id="text_12">
      <!-- 10 -->
      <g transform="translate(29.257813 52.579219)scale(0.1 -0.1)">
       <use xlink:href="#DejaVuSans-49"/>
       <use x="63.623047" xlink:href="#DejaVuSans-48"/>
      </g>
     </g>
    </g>
    <g id="ytick_5">
     <g id="line2d_23">
      <path clip-path="url(#p46a200014a)" d="M 48.982813 21.6 
L 495.382812 21.6 
" style="fill:none;stroke:#b0b0b0;stroke-linecap:square;stroke-width:0.8;"/>
     </g>
     <g id="line2d_24">
      <g>
       <use style="stroke:#000000;stroke-width:0.8;" x="48.982813" xlink:href="#mca4e8334e4" y="21.6"/>
      </g>
     </g>
     <g id="text_13">
      <!-- 20 -->
      <g transform="translate(29.257813 25.399219)scale(0.1 -0.1)">
       <use xlink:href="#DejaVuSans-50"/>
       <use x="63.623047" xlink:href="#DejaVuSans-48"/>
      </g>
     </g>
    </g>
    <g id="text_14">
     <!-- Amplitude 0 -->
     <g transform="translate(14.798438 106.352969)rotate(-90)scale(0.1 -0.1)">
      <defs>
       <path d="M 34.1875 63.1875 
L 20.796875 26.90625 
L 47.609375 26.90625 
z
M 28.609375 72.90625 
L 39.796875 72.90625 
L 67.578125 0 
L 57.328125 0 
L 50.6875 18.703125 
L 17.828125 18.703125 
L 11.1875 0 
L 0.78125 0 
z
" id="DejaVuSans-65"/>
       <path d="M 18.109375 8.203125 
L 18.109375 -20.796875 
L 9.078125 -20.796875 
L 9.078125 54.6875 
L 18.109375 54.6875 
L 18.109375 46.390625 
Q 20.953125 51.265625 25.265625 53.625 
Q 29.59375 56 35.59375 56 
Q 45.5625 56 51.78125 48.09375 
Q 58.015625 40.1875 58.015625 27.296875 
Q 58.015625 14.40625 51.78125 6.484375 
Q 45.5625 -1.421875 35.59375 -1.421875 
Q 29.59375 -1.421875 25.265625 0.953125 
Q 20.953125 3.328125 18.109375 8.203125 
z
M 48.6875 27.296875 
Q 48.6875 37.203125 44.609375 42.84375 
Q 40.53125 48.484375 33.40625 48.484375 
Q 26.265625 48.484375 22.1875 42.84375 
Q 18.109375 37.203125 18.109375 27.296875 
Q 18.109375 17.390625 22.1875 11.75 
Q 26.265625 6.109375 33.40625 6.109375 
Q 40.53125 6.109375 44.609375 11.75 
Q 48.6875 17.390625 48.6875 27.296875 
z
" id="DejaVuSans-112"/>
       <path d="M 9.421875 75.984375 
L 18.40625 75.984375 
L 18.40625 0 
L 9.421875 0 
z
" id="DejaVuSans-108"/>
       <path d="M 18.3125 70.21875 
L 18.3125 54.6875 
L 36.8125 54.6875 
L 36.8125 47.703125 
L 18.3125 47.703125 
L 18.3125 18.015625 
Q 18.3125 11.328125 20.140625 9.421875 
Q 21.96875 7.515625 27.59375 7.515625 
L 36.8125 7.515625 
L 36.8125 0 
L 27.59375 0 
Q 17.1875 0 13.234375 3.875 
Q 9.28125 7.765625 9.28125 18.015625 
L 9.28125 47.703125 
L 2.6875 47.703125 
L 2.6875 54.6875 
L 9.28125 54.6875 
L 9.28125 70.21875 
z
" id="DejaVuSans-116"/>
       <path d="M 8.5 21.578125 
L 8.5 54.6875 
L 17.484375 54.6875 
L 17.484375 21.921875 
Q 17.484375 14.15625 20.5 10.265625 
Q 23.53125 6.390625 29.59375 6.390625 
Q 36.859375 6.390625 41.078125 11.03125 
Q 45.3125 15.671875 45.3125 23.6875 
L 45.3125 54.6875 
L 54.296875 54.6875 
L 54.296875 0 
L 45.3125 0 
L 45.3125 8.40625 
Q 42.046875 3.421875 37.71875 1 
Q 33.40625 -1.421875 27.6875 -1.421875 
Q 18.265625 -1.421875 13.375 4.4375 
Q 8.5 10.296875 8.5 21.578125 
z
M 31.109375 56 
z
" id="DejaVuSans-117"/>
       <path d="M 45.40625 46.390625 
L 45.40625 75.984375 
L 54.390625 75.984375 
L 54.390625 0 
L 45.40625 0 
L 45.40625 8.203125 
Q 42.578125 3.328125 38.25 0.953125 
Q 33.9375 -1.421875 27.875 -1.421875 
Q 17.96875 -1.421875 11.734375 6.484375 
Q 5.515625 14.40625 5.515625 27.296875 
Q 5.515625 40.1875 11.734375 48.09375 
Q 17.96875 56 27.875 56 
Q 33.9375 56 38.25 53.625 
Q 42.578125 51.265625 45.40625 46.390625 
z
M 14.796875 27.296875 
Q 14.796875 17.390625 18.875 11.75 
Q 22.953125 6.109375 30.078125 6.109375 
Q 37.203125 6.109375 41.296875 11.75 
Q 45.40625 17.390625 45.40625 27.296875 
Q 45.40625 37.203125 41.296875 42.84375 
Q 37.203125 48.484375 30.078125 48.484375 
Q 22.953125 48.484375 18.875 42.84375 
Q 14.796875 37.203125 14.796875 27.296875 
z
" id="DejaVuSans-100"/>
      </defs>
      <use xlink:href="#DejaVuSans-65"/>
      <use x="68.408203" xlink:href="#DejaVuSans-109"/>
      <use x="165.820312" xlink:href="#DejaVuSans-112"/>
      <use x="229.296875" xlink:href="#DejaVuSans-108"/>
      <use x="257.080078" xlink:href="#DejaVuSans-105"/>
      <use x="284.863281" xlink:href="#DejaVuSans-116"/>
      <use x="324.072266" xlink:href="#DejaVuSans-117"/>
      <use x="387.451172" xlink:href="#DejaVuSans-100"/>
      <use x="450.927734" xlink:href="#DejaVuSans-101"/>
      <use x="512.451172" xlink:href="#DejaVuSans-32"/>
      <use x="544.238281" xlink:href="#DejaVuSans-48"/>
     </g>
    </g>
   </g>
   <g id="line2d_25">
    <path clip-path="url(#p46a200014a)" d="M 48.982813 76.1618 
L 57.680329 76.330909 
L 57.787706 76.494528 
L 57.895082 76.356742 
L 58.002459 76.540307 
L 58.217213 76.426456 
L 58.324589 76.551979 
L 58.646719 76.408032 
L 58.861473 76.334192 
L 58.96885 76.27751 
L 59.076226 76.50649 
L 59.29098 76.273619 
L 59.398357 76.494351 
L 59.720487 76.253316 
L 59.93524 76.45177 
L 60.149994 76.290611 
L 60.472124 76.482214 
L 61.116385 76.381832 
L 61.331138 76.620493 
L 61.438515 76.181393 
L 61.653268 76.317542 
L 61.975399 76.509216 
L 62.190152 76.235029 
L 62.727036 76.448225 
L 62.834413 76.426666 
L 62.941789 76.281663 
L 63.156543 76.438958 
L 63.371296 76.343882 
L 63.478673 76.47664 
L 63.58605 76.297719 
L 63.800803 76.485867 
L 63.90818 76.170375 
L 64.122933 76.383958 
L 64.23031 76.255256 
L 64.337687 76.394405 
L 64.445064 76.214414 
L 64.767194 76.428307 
L 64.874571 76.328583 
L 65.196701 76.426138 
L 65.518831 76.253151 
L 65.733585 76.334897 
L 65.840961 76.187472 
L 65.948338 76.464094 
L 66.377845 76.330475 
L 66.485222 76.473996 
L 66.699975 76.225846 
L 66.807352 76.471734 
L 66.914729 76.302624 
L 67.022106 76.560066 
L 67.129482 76.297164 
L 67.451613 76.446825 
L 67.558989 76.568274 
L 67.988496 76.316661 
L 68.095873 76.437972 
L 68.20325 76.243616 
L 68.310626 76.474163 
L 68.418003 76.351042 
L 68.632757 76.525063 
L 68.954887 76.260302 
L 69.062264 76.406 
L 69.277017 76.183388 
L 69.491771 76.359821 
L 69.706524 76.457529 
L 69.921278 76.375494 
L 70.350785 76.361233 
L 70.458161 76.237619 
L 70.672915 76.454297 
L 70.780292 76.363437 
L 70.887668 76.557614 
L 70.995045 76.324004 
L 71.102422 76.582015 
L 71.209799 76.428725 
L 71.317175 76.501014 
L 71.424552 76.296129 
L 71.639306 76.372919 
L 71.961436 76.245145 
L 72.068813 76.465724 
L 72.176189 76.326672 
L 72.283566 76.556282 
L 72.498319 76.225451 
L 72.927826 76.530014 
L 73.035203 76.290883 
L 73.357333 76.55153 
L 73.46471 76.301628 
L 73.679464 76.418379 
L 73.78684 76.244195 
L 73.894217 76.435564 
L 74.001594 76.3172 
L 74.216347 76.490393 
L 74.431101 76.149661 
L 74.753231 76.403507 
L 74.967985 76.334022 
L 75.182738 76.488286 
L 75.290115 76.330224 
L 75.397492 76.445327 
L 75.612245 76.125265 
L 75.934375 76.42564 
L 76.149129 76.2752 
L 76.256506 76.491393 
L 76.686013 76.369479 
L 76.793389 76.505309 
L 77.008143 76.391137 
L 77.115519 76.420497 
L 77.222896 76.134761 
L 77.43765 76.466093 
L 77.652403 76.442916 
L 77.974533 76.346946 
L 78.08191 76.465046 
L 78.296664 76.172502 
L 78.511417 76.272206 
L 78.940924 76.36481 
L 79.048301 76.283115 
L 79.155678 76.439663 
L 79.370431 76.191001 
L 79.585185 76.422512 
L 79.799938 76.478361 
L 80.014692 76.273703 
L 80.229445 33.814671 
L 80.336822 61.519387 
L 80.444199 54.08083 
L 80.551575 77.444376 
L 80.766329 61.360761 
L 80.981082 72.702108 
L 81.195836 84.997766 
L 81.410589 96.966656 
L 81.517966 95.264272 
L 81.625343 97.528441 
L 81.840096 92.30907 
L 81.947473 92.419539 
L 82.05485 85.949185 
L 82.162226 90.195715 
L 82.269603 88.384054 
L 82.806487 99.645885 
L 82.913864 98.488046 
L 83.02124 98.577201 
L 83.558124 81.646147 
L 83.880254 72.634397 
L 83.987631 71.511455 
L 84.095008 71.877914 
L 84.739268 59.325437 
L 85.061399 53.647961 
L 85.168775 53.872511 
L 85.276152 54.744566 
L 85.813036 64.86611 
L 85.920412 64.753965 
L 86.135166 63.526572 
L 86.457296 59.894781 
L 86.564673 60.095402 
L 86.886803 65.5735 
L 87.208933 79.407287 
L 87.531064 87.127082 
L 87.63844 88.508102 
L 87.745817 88.132702 
L 87.853194 89.332838 
L 87.960571 88.640786 
L 88.282701 91.693016 
L 88.712208 97.679212 
L 88.819585 97.44251 
L 88.926961 97.135328 
L 89.678599 84.487769 
L 89.785975 84.523145 
L 90.215482 86.073785 
L 90.430236 83.100151 
L 90.752366 72.679079 
L 91.181873 59.888394 
L 91.396626 58.333247 
L 91.504003 58.190111 
L 91.93351 61.292342 
L 92.363017 59.829669 
L 92.470394 59.653692 
L 92.577771 59.9125 
L 92.792524 61.893898 
L 93.114654 67.428117 
L 93.436785 72.450654 
L 93.544161 72.40746 
L 93.866292 73.773837 
L 93.973668 74.533295 
L 94.188422 78.3239 
L 94.725306 93.984189 
L 94.940059 97.004924 
L 95.047436 97.140505 
L 95.476943 92.01202 
L 95.799073 88.259998 
L 95.90645 88.263103 
L 96.22858 88.578108 
L 96.335957 88.264548 
L 96.55071 86.383624 
L 97.194971 75.254672 
L 98.053985 62.911662 
L 98.483492 55.964029 
L 98.590868 55.944244 
L 98.698245 56.180408 
L 98.912999 59.062277 
L 99.449882 68.626464 
L 99.557259 68.502116 
L 99.664636 69.197086 
L 99.772013 68.569852 
L 99.879389 68.969009 
L 99.986766 67.849167 
L 100.201519 69.806908 
L 100.52365 75.499266 
L 100.84578 82.962172 
L 101.060533 86.210584 
L 101.275287 88.565202 
L 102.134301 93.809735 
L 102.241678 93.619942 
L 102.349054 93.191769 
L 102.563808 90.368024 
L 102.993315 82.496394 
L 103.208068 80.318875 
L 103.315445 79.972825 
L 103.530199 79.966959 
L 103.744952 79.511429 
L 103.852329 78.872646 
L 104.174459 72.324453 
L 104.711343 61.394643 
L 104.926096 60.01786 
L 105.033473 59.966902 
L 105.78511 63.191792 
L 106.10724 64.910511 
L 106.751501 74.175897 
L 107.073631 76.935598 
L 107.181008 77.10515 
L 107.288385 78.296842 
L 107.395761 78.152279 
L 108.469529 93.891039 
L 108.576906 93.697268 
L 108.899036 90.362402 
L 109.221166 86.24398 
L 109.543296 84.370421 
L 109.865426 82.625245 
L 110.294933 77.580546 
L 110.831817 70.2894 
L 111.153947 67.514802 
L 112.012961 60.309825 
L 112.120338 60.479987 
L 112.335092 62.25531 
L 112.979352 71.22499 
L 113.194106 72.34241 
L 113.516236 73.902982 
L 113.730989 75.839632 
L 114.69738 87.978718 
L 115.234264 89.447104 
L 115.556394 89.934951 
L 115.878524 88.031578 
L 116.522785 79.443264 
L 116.737538 77.194672 
L 117.381799 73.083172 
L 118.240813 62.927934 
L 118.348189 62.970779 
L 118.455566 62.610189 
L 119.421957 67.684037 
L 119.63671 69.387132 
L 119.95884 73.505824 
L 120.710478 81.335519 
L 120.925231 82.24708 
L 121.784245 89.690564 
L 121.891622 89.871273 
L 122.106375 88.799839 
L 122.535882 85.387176 
L 123.072766 80.718906 
L 123.287519 79.430214 
L 124.039157 70.862207 
L 124.683417 66.504147 
L 125.327678 64.312715 
L 125.435054 64.23435 
L 125.649808 64.904067 
L 125.864561 66.681247 
L 126.401445 73.239175 
L 127.475212 82.519291 
L 127.904719 86.453992 
L 128.119473 87.06694 
L 128.334226 87.243364 
L 128.54898 86.773066 
L 128.763733 86.800521 
L 129.19324 85.351977 
L 129.515371 82.633025 
L 130.267008 74.001339 
L 130.374385 73.719489 
L 130.911268 69.856505 
L 131.233399 67.119111 
L 131.662906 65.133536 
L 131.770282 65.107469 
L 131.985036 65.878989 
L 132.736673 70.009811 
L 133.16618 73.896056 
L 133.48831 77.588833 
L 134.132571 83.143059 
L 135.098961 86.836498 
L 135.206338 86.714363 
L 135.313715 86.890633 
L 135.528468 85.970718 
L 136.387482 78.984479 
L 137.46125 69.398469 
L 137.78338 67.796721 
L 138.320264 66.969038 
L 138.642394 66.932733 
L 138.964524 67.873085 
L 139.608785 73.470041 
L 140.145668 77.978482 
L 140.467799 80.308898 
L 140.897306 83.835205 
L 141.326813 85.61453 
L 141.648943 85.890762 
L 142.40058 83.229215 
L 142.72271 81.262187 
L 144.011231 70.295953 
L 144.870245 67.4406 
L 144.977622 67.235003 
L 145.192375 67.448662 
L 146.69565 76.990398 
L 147.125157 81.312382 
L 147.33991 82.830246 
L 147.769417 84.118941 
L 147.984171 84.606706 
L 148.306301 84.767306 
L 148.521054 84.694825 
L 148.628431 84.589695 
L 149.057938 82.145598 
L 150.024329 75.264535 
L 150.561213 71.262403 
L 151.098096 68.525662 
L 151.420226 68.039596 
L 151.63498 68.608571 
L 151.849733 68.8074 
L 152.064487 69.521653 
L 152.171864 69.692961 
L 152.816124 73.916523 
L 153.997268 82.142813 
L 154.641529 84.392773 
L 154.748906 84.473704 
L 154.963659 84.258562 
L 155.285789 83.12229 
L 156.144803 78.472536 
L 156.466933 76.204749 
L 156.789064 73.429541 
L 157.218571 70.764005 
L 157.325947 70.557315 
L 157.540701 69.480502 
L 157.648078 69.592923 
L 157.862831 69.066011 
L 158.077585 68.864692 
L 158.184961 68.869437 
L 158.614468 69.714469 
L 159.151352 72.617564 
L 160.54725 81.796995 
L 160.86938 83.190033 
L 160.976757 83.217762 
L 161.298887 83.579558 
L 161.51364 83.282502 
L 161.835771 82.896852 
L 162.802161 77.53302 
L 163.231668 74.519458 
L 163.446422 73.508438 
L 163.983306 70.60279 
L 164.305436 69.606541 
L 164.412813 69.58417 
L 164.627566 69.368373 
L 164.949696 69.866182 
L 165.48658 71.849678 
L 166.238217 76.283541 
L 166.560347 78.593558 
L 167.419361 82.462517 
L 167.526738 82.537631 
L 167.848868 83.102868 
L 168.063622 83.006403 
L 168.170999 83.094089 
L 168.922636 80.114898 
L 170.42591 71.475655 
L 170.640664 70.516744 
L 171.177547 70.07552 
L 171.607054 70.376057 
L 172.143938 72.330047 
L 172.466068 74.530894 
L 173.002952 77.489712 
L 173.325082 79.259667 
L 174.184096 82.447184 
L 174.39885 82.702806 
L 174.613603 82.34964 
L 174.72098 82.277674 
L 175.257864 80.888782 
L 176.975892 71.959311 
L 177.298022 70.894007 
L 177.405399 70.721021 
L 177.512775 70.218671 
L 177.620152 70.400307 
L 177.834906 70.272586 
L 177.942282 70.322353 
L 178.801296 73.275748 
L 179.230803 75.692954 
L 180.089817 80.007832 
L 180.411947 81.209095 
L 180.734078 81.939191 
L 181.163585 81.929451 
L 181.593092 81.270657 
L 181.807845 80.347478 
L 183.740626 71.374837 
L 183.848003 71.340017 
L 183.95538 70.994822 
L 184.062757 71.118028 
L 184.27751 70.686343 
L 184.492264 71.074786 
L 184.707017 71.615889 
L 184.921771 71.861331 
L 185.673408 75.089803 
L 186.639799 79.865381 
L 187.284059 81.671625 
L 187.391436 81.521731 
L 187.606189 81.664723 
L 188.143073 80.72429 
L 188.465203 79.66464 
L 190.183231 72.11109 
L 190.505361 71.662488 
L 190.827492 71.227569 
L 191.042245 71.330467 
L 191.471752 72.177038 
L 191.901259 73.895536 
L 192.223389 75.392773 
L 192.975026 78.661245 
L 193.297157 79.951392 
L 193.941417 81.191702 
L 194.156171 81.008432 
L 194.478301 81.0688 
L 194.800431 80.281681 
L 195.122561 78.964809 
L 195.874199 75.886177 
L 196.303706 73.80715 
L 197.162719 71.657896 
L 197.48485 71.741357 
L 197.699603 72.144195 
L 197.914357 72.437291 
L 198.665994 74.91162 
L 199.632385 78.96771 
L 199.739761 79.178411 
L 200.061892 80.243683 
L 200.276645 80.556324 
L 200.384022 80.593903 
L 200.598775 80.90931 
L 200.706152 80.904725 
L 201.565166 79.106064 
L 201.779919 78.290751 
L 201.887296 78.099143 
L 202.961064 73.536631 
L 203.175817 73.094776 
L 203.390571 72.344907 
L 203.497947 72.349927 
L 203.712701 72.010046 
L 203.820078 72.14632 
L 203.927454 72.057381 
L 204.142208 72.179845 
L 204.356961 72.581947 
L 204.464338 72.605835 
L 204.571715 72.802608 
L 205.108599 74.573776 
L 205.323352 75.563549 
L 206.71925 80.124484 
L 207.148757 80.699136 
L 207.470887 80.264094 
L 207.578264 80.295013 
L 207.793017 79.863879 
L 208.007771 79.091879 
L 208.329901 78.338505 
L 209.833175 73.028833 
L 210.047929 72.779304 
L 210.155306 72.508712 
L 210.262682 72.567699 
L 210.477436 72.19915 
L 210.799566 72.636853 
L 211.014319 72.982851 
L 211.121696 73.168726 
L 211.33645 73.81849 
L 211.551203 74.444571 
L 212.517594 77.969121 
L 212.947101 79.242221 
L 213.591361 80.27613 
L 213.806115 80.151386 
L 214.020868 80.134747 
L 214.235622 79.588749 
L 214.342999 79.527666 
L 214.772506 78.518458 
L 215.416766 76.120118 
L 215.631519 75.625494 
L 216.061026 74.01338 
L 216.168403 73.888745 
L 216.490533 73.174543 
L 216.705287 72.838185 
L 216.92004 72.773472 
L 217.027417 72.497825 
L 217.242171 72.914901 
L 217.349547 72.821284 
L 217.671678 73.390719 
L 217.886431 73.785757 
L 218.315938 75.251158 
L 218.638068 76.355209 
L 218.960199 77.616103 
L 219.389706 78.708512 
L 219.711836 79.510164 
L 219.819212 79.378016 
L 220.356096 80.045031 
L 220.678226 79.484218 
L 220.89298 79.275889 
L 221.000357 79.162622 
L 221.322487 78.078764 
L 221.429864 77.928489 
L 221.644617 77.193165 
L 222.396254 74.74498 
L 222.611008 74.383981 
L 222.718385 74.169945 
L 223.040515 73.159123 
L 223.577399 72.962933 
L 223.792152 73.23202 
L 224.329036 73.838993 
L 225.080673 76.189012 
L 225.51018 77.493634 
L 225.83231 78.118171 
L 226.15444 79.030417 
L 226.476571 79.548206 
L 226.583947 79.515059 
L 226.798701 79.598908 
L 227.120831 79.526728 
L 227.657715 78.742975 
L 227.872468 77.926749 
L 227.979845 77.841387 
L 228.194599 77.103867 
L 228.624106 75.732598 
L 229.053612 74.70542 
L 229.590496 73.41649 
L 229.80525 73.279005 
L 229.912626 73.125327 
L 230.12738 73.299264 
L 230.234757 73.192192 
L 230.879017 74.046079 
L 230.986394 74.66782 
L 231.093771 74.528929 
L 231.738031 76.63089 
L 231.845408 76.583314 
L 232.060161 77.305314 
L 232.489668 78.613946 
L 232.597045 78.629509 
L 232.704422 78.944591 
L 232.811799 78.902691 
L 233.133929 79.279331 
L 233.241306 79.286687 
L 233.456059 79.502072 
L 233.670813 79.341455 
L 233.885566 78.948365 
L 233.992943 78.935191 
L 234.851957 76.660182 
L 235.06671 76.331605 
L 235.38884 75.359749 
L 235.925724 73.800893 
L 236.033101 73.883654 
L 236.462608 73.3995 
L 236.569985 73.716348 
L 236.677361 73.669373 
L 236.784738 73.466283 
L 236.892115 73.532237 
L 237.214245 74.052603 
L 237.536375 74.44844 
L 237.751129 75.103474 
L 239.147026 78.614412 
L 239.254403 78.630083 
L 239.68391 79.163827 
L 240.00604 79.23691 
L 240.435547 78.679672 
L 240.650301 78.442433 
L 241.938822 75.205426 
L 242.046199 75.292246 
L 242.368329 74.151255 
L 243.119966 73.583614 
L 243.442096 73.567487 
L 244.408487 75.525434 
L 244.730617 76.245117 
L 245.052747 77.093277 
L 245.697008 78.464814 
L 246.019138 78.655876 
L 246.341268 79.028997 
L 246.663399 78.837383 
L 247.092906 78.260669 
L 249.24044 74.008875 
L 249.347817 74.067596 
L 249.562571 73.686907 
L 250.206831 74.341978 
L 250.743715 74.99267 
L 251.173222 76.196684 
L 251.387975 76.565294 
L 251.495352 77.148231 
L 251.602729 77.057011 
L 251.817482 77.598782 
L 252.032236 78.109484 
L 252.139612 78.037142 
L 252.354366 78.491568 
L 252.676496 78.798213 
L 252.89125 78.916251 
L 253.106003 78.751853 
L 253.21338 78.731539 
L 253.428133 78.231535 
L 253.53551 78.202568 
L 253.642887 78.331054 
L 255.253538 74.792638 
L 255.683045 74.237056 
L 256.005175 74.01132 
L 256.219929 73.992653 
L 256.864189 74.511497 
L 257.078943 75.008417 
L 257.293696 75.267776 
L 257.50845 75.612705 
L 257.723203 76.172262 
L 257.937957 76.722644 
L 258.260087 77.294174 
L 258.689594 78.165262 
L 258.796971 78.068053 
L 258.904347 78.211339 
L 259.119101 78.67876 
L 259.441231 78.737016 
L 259.655985 78.374463 
L 259.870738 78.504096 
L 260.300245 77.682087 
L 260.514999 77.396978 
L 260.622375 77.340791 
L 260.944506 76.639046 
L 261.159259 76.266889 
L 261.696143 74.987467 
L 261.803519 75.100207 
L 262.018273 74.530422 
L 262.12565 74.44117 
L 262.233026 74.578608 
L 262.662533 74.112959 
L 263.09204 74.279713 
L 263.199417 74.210151 
L 263.306794 74.300984 
L 263.521547 74.969926 
L 263.628924 74.919079 
L 264.595315 76.899264 
L 265.239575 78.163746 
L 265.346952 78.174227 
L 265.454329 78.045444 
L 265.883836 78.520943 
L 265.991213 78.456071 
L 266.098589 78.612402 
L 266.850226 77.6162 
L 266.957603 77.411229 
L 267.06498 77.452739 
L 267.38711 76.740803 
L 267.923994 75.685475 
L 268.031371 75.634714 
L 268.353501 74.97251 
L 268.890385 74.413756 
L 268.997761 74.47428 
L 269.212515 74.411667 
L 269.319892 74.539155 
L 269.642022 74.4505 
L 269.856775 74.569013 
L 270.823166 76.309383 
L 271.037919 76.911233 
L 271.145296 76.840394 
L 271.789557 78.013644 
L 272.00431 78.072646 
L 272.111687 78.125235 
L 272.219064 78.043812 
L 272.32644 78.266579 
L 272.433817 78.217824 
L 272.648571 78.292452 
L 272.863324 78.19594 
L 273.185454 77.827658 
L 273.292831 77.865238 
L 273.614961 77.143587 
L 273.722338 77.229963 
L 273.937092 76.620544 
L 274.473975 75.669732 
L 274.581352 75.554802 
L 274.796106 75.149953 
L 275.118236 74.885305 
L 275.440366 74.550338 
L 275.547743 74.366865 
L 275.869873 74.618894 
L 275.97725 74.482402 
L 276.192003 74.913191 
L 276.406757 74.823386 
L 277.265771 76.138861 
L 277.480524 76.513441 
L 277.910031 77.276787 
L 278.017408 77.262694 
L 278.876422 78.255462 
L 279.198552 78.15944 
L 279.305929 78.205116 
L 279.842812 77.683206 
L 280.809203 75.894863 
L 280.91658 76.044679 
L 281.990347 74.471104 
L 282.205101 74.694229 
L 282.634608 74.709007 
L 282.741985 74.920394 
L 282.849361 74.670331 
L 283.064115 75.326358 
L 283.171492 75.36178 
L 283.278868 75.635046 
L 283.386245 75.512697 
L 283.600999 76.070173 
L 283.708375 76.025535 
L 284.137882 76.866001 
L 284.782143 77.7226 
L 284.889519 77.640238 
L 285.104273 78.185406 
L 285.319026 77.906911 
L 285.53378 78.000207 
L 285.641157 77.774053 
L 285.748533 77.942056 
L 286.285417 77.530012 
L 286.392794 77.606249 
L 287.573938 75.587297 
L 287.681315 75.795759 
L 287.896068 75.264776 
L 288.110822 75.091312 
L 288.325575 74.853177 
L 288.432952 74.744048 
L 288.647706 74.835039 
L 288.862459 74.929744 
L 289.184589 74.83085 
L 289.399343 75.107131 
L 289.721473 75.286183 
L 289.82885 75.413069 
L 289.936226 75.865886 
L 290.15098 75.878603 
L 290.258357 76.324558 
L 290.365733 76.289619 
L 290.902617 77.074175 
L 291.117371 77.190432 
L 291.332124 77.753548 
L 291.439501 77.866794 
L 291.546878 77.52145 
L 291.761631 77.876552 
L 292.405892 77.984719 
L 292.620645 77.602532 
L 292.728022 77.296594 
L 292.835399 77.420406 
L 293.157529 77.050552 
L 293.264906 77.038479 
L 293.479659 76.60426 
L 293.801789 76.142179 
L 294.123919 75.777988 
L 294.875557 75.015838 
L 295.09031 75.222381 
L 295.41244 74.782319 
L 295.734571 75.180118 
L 295.949324 75.300023 
L 296.164078 75.175126 
L 296.593585 75.972252 
L 296.915715 76.35225 
L 297.130468 76.5289 
L 297.237845 76.957922 
L 297.345222 76.862447 
L 297.559975 77.200385 
L 297.882106 77.605558 
L 297.989482 77.824669 
L 298.096859 77.595976 
L 298.526366 77.856133 
L 298.848496 77.807751 
L 298.955873 77.847543 
L 299.278003 77.367147 
L 299.38538 77.49959 
L 299.600133 77.096613 
L 300.02964 76.491953 
L 300.566524 75.853799 
L 300.673901 75.833404 
L 300.996031 75.325429 
L 301.103408 75.33928 
L 301.425538 75.006164 
L 301.640292 75.009107 
L 301.747668 74.948766 
L 301.962422 75.066595 
L 302.069799 75.069995 
L 302.177175 74.773944 
L 302.391929 75.345288 
L 302.499306 75.278595 
L 302.606682 75.236578 
L 302.928812 75.729012 
L 303.143566 75.787863 
L 303.358319 76.374782 
L 303.895203 76.803179 
L 304.109957 77.279678 
L 304.32471 77.373742 
L 304.432087 77.383702 
L 304.64684 77.630524 
L 304.968971 77.651684 
L 305.076347 77.857975 
L 305.291101 77.678803 
L 305.505854 77.697604 
L 305.720608 77.363182 
L 305.935361 77.518858 
L 306.042738 77.180043 
L 306.150115 77.276047 
L 306.364868 76.748034 
L 307.223882 75.58104 
L 307.331259 75.691942 
L 307.546013 75.213839 
L 307.760766 75.168514 
L 307.868143 75.068297 
L 308.082896 75.258479 
L 308.405026 74.909087 
L 308.512403 74.85816 
L 308.727157 75.232555 
L 308.94191 75.236465 
L 309.26404 75.62871 
L 309.371417 75.95732 
L 309.478794 75.897372 
L 310.015678 76.38123 
L 310.230431 76.836011 
L 310.337808 76.919973 
L 310.445185 76.796706 
L 310.659938 77.364204 
L 310.767315 77.006593 
L 310.982068 77.577149 
L 311.089445 77.543983 
L 311.196822 77.722458 
L 311.411575 77.459341 
L 311.626329 77.745503 
L 311.733706 77.549377 
L 311.841082 77.63627 
L 312.485343 77.137437 
L 312.592719 77.132088 
L 312.807473 76.622412 
L 313.022226 76.778379 
L 313.23698 76.399357 
L 313.344357 76.312507 
L 313.55911 75.915508 
L 313.88124 75.644813 
L 313.988617 75.415081 
L 314.203371 75.462359 
L 314.525501 75.292261 
L 314.632878 75.097869 
L 314.740254 75.228225 
L 314.847631 75.14236 
L 314.955008 75.290688 
L 315.277138 75.209118 
L 315.384515 75.179731 
L 315.921399 75.982864 
L 316.136152 75.968568 
L 316.673036 76.702723 
L 316.780412 76.580611 
L 316.995166 76.946426 
L 317.209919 77.139252 
L 317.85418 77.556011 
L 318.068933 77.629927 
L 318.283687 77.59144 
L 318.49844 77.277677 
L 318.713194 77.29985 
L 319.035324 77.157778 
L 319.142701 76.803877 
L 319.250078 76.83676 
L 319.786961 76.141694 
L 319.894338 76.285268 
L 320.109092 75.961033 
L 320.216468 76.056361 
L 320.645975 75.402249 
L 320.753352 75.414246 
L 320.968106 75.225347 
L 321.290236 75.195867 
L 321.397612 75.063813 
L 321.612366 75.296692 
L 321.827119 75.195062 
L 322.900887 76.387839 
L 323.11564 76.602347 
L 323.223017 76.640333 
L 323.437771 76.99837 
L 323.652524 76.859214 
L 323.867278 77.273823 
L 324.082031 77.373471 
L 324.189408 77.5719 
L 324.296785 77.302577 
L 324.404161 77.658983 
L 324.618915 77.414085 
L 324.833668 77.371336 
L 324.941045 77.39252 
L 325.048422 77.178948 
L 325.155799 77.330967 
L 325.263175 77.180469 
L 325.477929 77.160336 
L 325.692682 76.948253 
L 326.336943 76.217442 
L 326.551696 75.901539 
L 327.195957 75.526403 
L 327.518087 75.455005 
L 328.269724 75.272194 
L 328.484478 75.461238 
L 328.699231 75.488607 
L 329.021361 75.974443 
L 329.128738 76.003446 
L 329.450868 76.443531 
L 329.558245 76.274884 
L 329.880375 76.965187 
L 330.095129 77.070886 
L 330.954143 77.298304 
L 331.061519 77.221603 
L 331.276273 77.306471 
L 331.491026 77.253943 
L 331.598403 77.388189 
L 331.813157 77.068492 
L 331.920533 77.084456 
L 332.135287 76.83342 
L 332.242664 76.874266 
L 332.457417 76.661797 
L 332.672171 76.604079 
L 332.994301 75.89523 
L 333.101678 76.021419 
L 333.423808 75.653372 
L 333.531185 75.860061 
L 333.745938 75.486136 
L 333.960692 75.686406 
L 334.068068 75.301803 
L 334.497575 75.554734 
L 334.712329 75.458154 
L 335.034459 75.689495 
L 335.141836 75.537983 
L 335.463966 75.877775 
L 335.678719 75.991311 
L 336.215603 76.663108 
L 336.32298 76.651155 
L 336.64511 76.975254 
L 336.752487 76.89283 
L 336.96724 77.307793 
L 337.396747 77.354693 
L 337.611501 77.250758 
L 337.826254 77.378257 
L 337.933631 77.238339 
L 338.041008 77.323547 
L 338.363138 76.931911 
L 338.577892 76.887703 
L 338.685268 76.859634 
L 338.900022 76.599783 
L 339.114775 76.547761 
L 339.436906 76.17506 
L 339.651659 76.193945 
L 339.866412 75.825082 
L 340.188543 75.669966 
L 340.403296 75.431495 
L 340.510673 75.420333 
L 340.61805 75.571561 
L 340.725426 75.347647 
L 340.832803 75.626427 
L 340.94018 75.491835 
L 341.154933 75.64841 
L 341.26231 75.388413 
L 341.477064 75.727356 
L 341.691817 75.552128 
L 341.906571 75.902708 
L 342.443454 76.193387 
L 342.765585 76.84324 
L 343.087715 76.688784 
L 343.302468 76.872165 
L 343.409845 77.184283 
L 343.731975 77.065422 
L 343.946729 77.269039 
L 344.054106 77.279482 
L 344.268859 77.070509 
L 344.483612 77.30295 
L 344.698366 77.117558 
L 344.913119 77.068837 
L 345.020496 76.637308 
L 345.127873 77.025634 
L 345.342626 76.73695 
L 345.664757 76.400718 
L 345.87951 76.277063 
L 346.738524 75.55882 
L 346.953278 75.735922 
L 347.275408 75.424747 
L 347.490161 75.639334 
L 347.812292 75.543333 
L 348.134422 75.844002 
L 348.241799 75.816252 
L 348.349175 75.962028 
L 348.456552 75.916799 
L 348.671306 76.07346 
L 348.886059 76.249256 
L 349.100813 76.447548 
L 349.208189 76.432858 
L 349.85245 77.058784 
L 349.959826 76.921871 
L 350.281957 77.29889 
L 350.49671 76.954125 
L 350.711464 77.341681 
L 350.926217 77.091321 
L 351.140971 77.194062 
L 351.355724 76.872761 
L 351.570478 76.937113 
L 351.999985 76.386547 
L 352.322115 76.260097 
L 352.644245 75.972261 
L 352.751622 76.034102 
L 352.966375 75.792215 
L 353.073752 75.934445 
L 353.288506 75.725056 
L 353.395882 75.7134 
L 353.503259 75.432985 
L 353.610636 75.469691 
L 353.825389 75.356447 
L 353.932766 75.557006 
L 354.040143 75.508689 
L 354.147519 75.634225 
L 354.254896 75.508404 
L 355.328664 76.203333 
L 355.543417 76.426577 
L 355.650794 76.474228 
L 355.758171 76.375581 
L 356.617185 77.051019 
L 356.724561 76.955193 
L 356.831938 77.099043 
L 356.939315 76.850569 
L 357.154068 77.201642 
L 357.690952 77.076922 
L 357.905706 76.89157 
L 358.227836 76.696339 
L 359.194226 75.944417 
L 359.301603 76.044819 
L 359.516357 75.761365 
L 359.73111 75.831668 
L 359.945864 75.592041 
L 360.05324 75.867621 
L 360.267994 75.679311 
L 360.482747 75.501998 
L 360.697501 75.862876 
L 361.019631 75.504822 
L 361.127008 75.955781 
L 361.341761 75.789165 
L 361.449138 75.858023 
L 361.556515 76.171338 
L 361.663892 76.062387 
L 361.878645 76.332901 
L 362.415529 76.806888 
L 362.630282 76.681952 
L 362.737659 76.915447 
L 362.952412 76.822915 
L 363.167166 77.000002 
L 363.381919 77.031443 
L 363.596673 77.140462 
L 363.811426 77.041114 
L 363.918803 77.041853 
L 364.02618 76.862538 
L 364.455687 76.919336 
L 364.885194 76.493869 
L 364.992571 76.650348 
L 365.207324 76.450369 
L 365.314701 76.500004 
L 365.744208 76.120193 
L 365.851585 76.245459 
L 366.173715 75.874165 
L 366.281092 75.711283 
L 366.388468 75.764333 
L 366.495845 75.560262 
L 367.032729 75.810357 
L 367.140106 75.648539 
L 367.354859 75.853149 
L 367.462236 75.529519 
L 367.784366 76.088166 
L 368.106496 75.991735 
L 368.32125 76.239704 
L 368.536003 76.303296 
L 369.072887 76.845605 
L 369.180264 76.704451 
L 369.609771 76.873541 
L 369.717147 76.908632 
L 369.824524 77.151459 
L 370.039278 76.831726 
L 370.254031 77.009091 
L 370.361408 76.873459 
L 370.576161 77.019551 
L 370.790915 76.901778 
L 371.005668 76.733911 
L 371.113045 76.803764 
L 371.327799 76.647548 
L 371.435175 76.331085 
L 371.542552 76.636719 
L 372.401566 75.939616 
L 372.93845 75.836448 
L 373.26058 75.635456 
L 374.012217 75.884178 
L 374.441724 75.966895 
L 374.549101 76.182405 
L 374.656478 76.044523 
L 375.300738 76.490931 
L 375.515492 76.827331 
L 375.622868 76.588024 
L 375.730245 76.789747 
L 375.837622 76.748291 
L 376.052375 76.999282 
L 376.159752 76.874782 
L 376.374506 77.051054 
L 376.481882 76.851592 
L 376.804012 76.911741 
L 377.018766 76.642564 
L 377.340896 76.786849 
L 377.55565 76.639588 
L 377.770403 76.710465 
L 378.092533 76.450074 
L 378.19991 76.526372 
L 378.52204 76.275845 
L 378.629417 76.336456 
L 379.166301 75.9832 
L 379.381054 76.00832 
L 379.595808 75.597194 
L 379.810561 75.718316 
L 380.025315 75.74065 
L 380.240068 75.930132 
L 380.347445 75.846826 
L 380.562199 76.028315 
L 380.991706 75.940084 
L 381.528589 76.465218 
L 381.635966 76.515542 
L 381.743343 76.41637 
L 381.958096 76.918512 
L 382.17285 76.758379 
L 382.49498 76.99877 
L 382.709733 76.68445 
L 382.81711 76.692664 
L 383.031864 77.059752 
L 383.13924 76.812537 
L 383.246617 76.873226 
L 383.461371 76.804762 
L 383.568747 76.84665 
L 383.783501 76.675822 
L 383.890878 76.661806 
L 383.998254 76.761582 
L 384.427761 76.570496 
L 384.642515 76.632491 
L 384.964645 76.226383 
L 385.179399 76.069167 
L 385.501529 76.027727 
L 385.608906 75.897628 
L 385.716282 76.00988 
L 385.823659 75.720252 
L 386.038412 75.814548 
L 386.145789 75.740503 
L 386.467919 75.926242 
L 386.682673 75.753213 
L 386.897426 76.052298 
L 387.004803 75.81954 
L 387.11218 75.925308 
L 387.326933 75.813182 
L 387.43431 76.032268 
L 387.541687 75.929014 
L 387.649064 76.029228 
L 387.75644 76.318995 
L 387.971194 76.145426 
L 388.185947 76.376231 
L 388.508078 76.547787 
L 388.722831 76.648945 
L 388.937585 76.819784 
L 389.152338 76.720087 
L 389.259715 76.914874 
L 389.581845 76.847241 
L 390.118729 76.928343 
L 390.333482 76.666371 
L 390.440859 76.733859 
L 390.655613 76.497082 
L 390.977743 76.563873 
L 391.085119 76.473091 
L 391.299873 76.239145 
L 391.836757 75.874971 
L 391.944133 76.251698 
L 392.05151 75.78273 
L 392.266264 76.069191 
L 392.588394 75.755244 
L 392.803147 75.861889 
L 393.017901 75.951145 
L 393.232654 75.899729 
L 393.984292 76.190083 
L 394.091668 75.922738 
L 394.413799 76.471135 
L 394.521175 76.368108 
L 395.058059 76.625262 
L 395.165436 76.641311 
L 395.380189 76.921002 
L 395.594943 76.730118 
L 396.131826 76.909548 
L 396.239203 76.812766 
L 396.34658 76.94835 
L 396.453957 76.815374 
L 396.66871 76.880488 
L 396.883464 76.675843 
L 396.99084 76.783885 
L 397.098217 76.562361 
L 397.205594 76.725537 
L 397.635101 76.169466 
L 397.742478 76.485336 
L 398.064608 76.33403 
L 398.171985 75.901227 
L 398.279361 75.94846 
L 398.386738 76.239856 
L 398.494115 75.815879 
L 398.708868 76.06922 
L 398.816245 75.907358 
L 398.923622 76.044984 
L 399.030999 75.965613 
L 399.138375 75.709659 
L 399.353129 75.959512 
L 399.460506 75.929783 
L 399.567882 76.021541 
L 399.782636 76.019862 
L 400.319519 76.04883 
L 400.534273 76.252288 
L 400.96378 76.395562 
L 401.071157 76.300044 
L 401.178533 76.605292 
L 401.28591 76.400034 
L 401.500664 76.646324 
L 401.60804 76.500031 
L 401.715417 76.707165 
L 401.822794 76.636702 
L 402.037547 76.782049 
L 402.252301 76.827664 
L 402.359678 77.098164 
L 402.681808 76.755807 
L 402.896561 76.890471 
L 403.218692 76.520928 
L 403.326068 76.727618 
L 403.433445 76.512607 
L 403.648199 76.54587 
L 403.755575 76.54587 
L 403.970329 76.422035 
L 404.077706 76.522358 
L 404.185082 76.296476 
L 404.292459 76.368922 
L 404.507212 76.136951 
L 404.614589 76.248738 
L 404.721966 76.19226 
L 404.936719 75.952455 
L 405.151473 76.095315 
L 405.366226 75.989984 
L 405.473603 75.919022 
L 405.58098 76.064789 
L 405.90311 75.90678 
L 406.010487 76.102436 
L 406.22524 75.997407 
L 406.439994 75.999527 
L 406.547371 76.000025 
L 406.654747 76.154913 
L 406.869501 75.958737 
L 407.084254 76.314014 
L 407.191631 76.145686 
L 407.299008 76.380218 
L 407.406385 76.26192 
L 407.513761 76.43103 
L 407.621138 76.215293 
L 407.943268 76.387402 
L 408.050645 76.789351 
L 408.265399 76.41749 
L 408.480152 76.772497 
L 408.587529 76.610048 
L 409.017036 76.876005 
L 409.124412 76.949889 
L 409.231789 76.576872 
L 409.446543 76.736677 
L 409.553919 76.736388 
L 409.768673 76.671297 
L 409.87605 76.756908 
L 410.090803 76.458319 
L 410.305557 76.6818 
L 410.84244 76.27089 
L 410.949817 76.277414 
L 411.057194 76.119159 
L 411.164571 76.329005 
L 411.379324 76.121286 
L 411.486701 76.24261 
L 411.701454 76.057699 
L 411.916208 75.87044 
L 412.130961 76.11217 
L 412.238338 75.889096 
L 412.345715 76.070396 
L 412.453092 75.780217 
L 412.560468 76.150275 
L 412.667845 76.052478 
L 412.775222 76.145129 
L 412.989975 75.951683 
L 413.204729 76.117094 
L 413.526859 76.165509 
L 413.741613 76.28133 
L 413.956366 76.139467 
L 414.171119 76.549732 
L 414.49325 76.399814 
L 414.708003 76.610052 
L 415.13751 76.739982 
L 415.244887 76.626315 
L 415.352264 76.933272 
L 415.567017 76.735137 
L 415.674394 76.627711 
L 415.996524 76.846616 
L 416.211278 76.680538 
L 416.426031 76.763497 
L 416.640785 76.508854 
L 416.855538 76.585265 
L 417.070292 76.342125 
L 417.285045 76.431315 
L 417.499799 76.15215 
L 417.607175 76.395332 
L 417.929306 75.919855 
L 418.036682 76.184342 
L 418.251436 75.914432 
L 418.358812 76.005264 
L 418.466189 75.775358 
L 418.573566 76.137165 
L 418.895696 76.025325 
L 419.11045 76.135761 
L 419.217826 76.135761 
L 419.325203 75.939814 
L 419.539957 76.132517 
L 419.75471 76.051311 
L 419.969464 76.187674 
L 420.07684 76.207646 
L 420.184217 76.403703 
L 420.398971 76.309334 
L 420.506347 76.379649 
L 420.613724 76.299521 
L 421.043231 76.74413 
L 421.150608 76.723709 
L 421.257985 76.452785 
L 421.365361 76.506519 
L 421.580115 76.746198 
L 421.794868 76.603666 
L 422.009622 76.809733 
L 422.331752 76.761884 
L 422.439129 76.78318 
L 422.546506 76.610288 
L 422.761259 76.765696 
L 422.976012 76.631335 
L 423.298143 76.726146 
L 423.405519 76.322779 
L 423.512896 76.576415 
L 423.620273 76.131719 
L 423.72765 76.515215 
L 423.942403 76.21302 
L 424.04978 76.410314 
L 424.264533 76.03697 
L 424.479287 75.98602 
L 424.69404 76.101678 
L 424.908794 76.11555 
L 425.016171 76.115614 
L 425.123547 75.990833 
L 425.230924 76.038565 
L 425.338301 75.829618 
L 425.553054 76.067039 
L 425.660431 75.944844 
L 425.875185 76.051453 
L 425.982561 75.957535 
L 426.197315 76.134535 
L 426.304692 75.963499 
L 426.519445 76.145103 
L 427.378459 76.452212 
L 427.485836 76.654092 
L 427.700589 76.490248 
L 427.807966 76.707034 
L 428.022719 76.615702 
L 428.559603 76.815072 
L 429.203864 76.624272 
L 429.31124 76.799115 
L 429.418617 76.668065 
L 429.525994 76.737201 
L 429.633371 76.373551 
L 429.848124 76.656574 
L 430.170254 76.392692 
L 430.277631 76.465778 
L 430.492385 76.403602 
L 430.599761 76.390403 
L 430.707138 76.108387 
L 430.814515 76.251328 
L 431.029268 76.029293 
L 431.244022 76.131787 
L 431.351399 76.211074 
L 431.673529 75.90092 
L 431.995659 76.09094 
L 432.103036 75.923159 
L 432.317789 76.132142 
L 432.425166 76.171298 
L 432.639919 76.061197 
L 432.854673 76.328969 
L 433.069426 76.090193 
L 433.176803 76.417451 
L 433.498933 76.338007 
L 433.60631 76.328751 
L 433.713687 76.550068 
L 433.92844 76.446096 
L 434.035817 76.561728 
L 434.250571 76.350453 
L 434.357947 76.848896 
L 434.465324 76.482333 
L 434.572701 76.806212 
L 434.680078 76.547158 
L 434.894831 76.74116 
L 435.109585 76.774162 
L 435.216961 76.751592 
L 435.324338 76.566872 
L 435.539092 76.835069 
L 435.646468 76.630784 
L 435.753845 76.731886 
L 435.968599 76.438255 
L 436.183352 76.559504 
L 436.398106 76.347028 
L 436.505482 76.488255 
L 436.720236 76.294864 
L 436.934989 76.445186 
L 437.042366 76.065331 
L 437.149743 76.132792 
L 437.364496 76.404277 
L 437.57925 76.168451 
L 437.686626 75.902973 
L 437.794003 75.944956 
L 437.90138 76.111034 
L 438.008757 75.965185 
L 438.116133 76.011203 
L 438.330887 76.150456 
L 438.54564 75.993012 
L 438.653017 76.188232 
L 438.867771 76.036206 
L 439.082524 76.295582 
L 439.297278 76.024921 
L 439.512031 76.160989 
L 439.619408 76.330099 
L 439.726785 76.137981 
L 439.941538 76.358373 
L 440.048915 76.215396 
L 440.263668 76.569226 
L 440.585799 76.217918 
L 440.800552 76.610025 
L 440.907929 76.540521 
L 441.015306 76.63539 
L 441.122682 76.498559 
L 441.444813 76.781034 
L 441.552189 76.824877 
L 441.659566 76.41736 
L 441.874319 76.681279 
L 442.089073 76.652826 
L 442.303826 76.446208 
L 442.411203 76.368911 
L 442.625957 76.485798 
L 442.733333 76.416024 
L 442.948087 76.517384 
L 443.16284 76.376288 
L 443.377594 76.305947 
L 443.484971 76.396147 
L 443.807101 76.246425 
L 444.021854 76.363516 
L 444.343985 75.844399 
L 444.451361 76.079884 
L 444.558738 75.946385 
L 444.666115 76.050311 
L 444.773492 75.944915 
L 444.880868 76.168059 
L 445.095622 76.174617 
L 445.202999 75.858567 
L 445.417752 76.256259 
L 445.525129 76.158383 
L 445.739882 76.390586 
L 446.169389 76.259808 
L 446.276766 76.438313 
L 446.384143 76.146806 
L 446.491519 76.5008 
L 446.706273 76.490122 
L 446.81365 76.56843 
L 446.921026 76.366976 
L 447.028403 76.549307 
L 447.13578 76.414527 
L 447.243157 76.586931 
L 447.350533 76.533458 
L 447.672664 76.852867 
L 447.887417 76.500095 
L 448.102171 76.721294 
L 448.209547 76.372033 
L 448.639054 76.666355 
L 448.853808 76.54197 
L 449.498068 76.643005 
L 449.605445 76.593052 
L 449.820199 76.35575 
L 449.927575 76.390191 
L 450.034952 76.229309 
L 450.142329 76.299502 
L 450.249706 76.115003 
L 450.357082 76.399268 
L 450.893966 75.900532 
L 451.001343 76.157328 
L 451.216096 76.06957 
L 451.323473 75.9396 
L 451.43085 76.165197 
L 451.645603 76.102047 
L 452.182487 76.061659 
L 452.289864 76.260311 
L 452.39724 76.205326 
L 452.719371 76.488589 
L 452.934124 76.226691 
L 453.471008 76.579204 
L 453.578385 76.409982 
L 453.793138 76.771495 
L 453.900515 76.637851 
L 454.222645 76.795444 
L 454.544775 76.602703 
L 454.759529 76.664745 
L 455.081659 76.465988 
L 455.403789 76.78993 
L 455.511166 76.470305 
L 455.618543 76.608531 
L 455.940673 76.36686 
L 456.477557 76.289566 
L 456.584933 76.243213 
L 456.69231 76.042787 
L 456.907064 76.290454 
L 457.01444 76.321283 
L 457.336571 75.855381 
L 457.551324 76.043509 
L 457.658701 75.911979 
L 457.873454 76.267474 
L 457.980831 76.007079 
L 458.088208 76.095216 
L 458.302961 76.00027 
L 458.517715 76.213913 
L 458.625092 76.136709 
L 458.839845 76.258015 
L 458.947222 76.139218 
L 459.913612 76.512901 
L 460.020989 76.406331 
L 460.235743 76.596181 
L 460.66525 76.548157 
L 460.772626 76.710129 
L 460.98738 76.613515 
L 461.094757 76.770714 
L 461.202133 76.378952 
L 461.416887 76.732751 
L 461.524264 76.317969 
L 461.63164 76.733092 
L 461.953771 76.576233 
L 462.168524 76.670496 
L 462.275901 76.171864 
L 462.383278 76.52261 
L 462.490654 76.204505 
L 462.598031 76.584068 
L 462.920161 76.414255 
L 463.242292 76.313854 
L 463.349668 76.296955 
L 463.457045 76.091784 
L 463.779175 76.313968 
L 463.993929 76.052798 
L 464.316059 76.181473 
L 464.530812 76.121062 
L 464.638189 76.162349 
L 464.745566 76.081677 
L 464.960319 76.227188 
L 465.175073 76.109371 
L 465.389826 76.321109 
L 465.711957 76.212409 
L 465.92671 76.382428 
L 466.034087 76.367334 
L 466.141464 76.199048 
L 466.356217 76.523251 
L 466.463594 76.481178 
L 466.893101 76.711386 
L 467.322608 76.390968 
L 467.429985 76.501599 
L 467.537361 76.445597 
L 467.752115 76.729698 
L 467.859492 76.737434 
L 468.074245 76.587537 
L 468.288999 76.60188 
L 468.503752 76.474985 
L 468.611129 76.456083 
L 468.718506 76.55397 
L 468.825882 76.328266 
L 469.040636 76.338259 
L 469.148012 76.27517 
L 469.362766 76.412343 
L 469.684896 76.220181 
L 469.792273 76.272999 
L 470.007026 76.167367 
L 470.22178 76.268767 
L 470.758664 76.040155 
L 470.973417 76.158184 
L 471.080794 76.033955 
L 471.295547 76.329765 
L 471.510301 76.064525 
L 471.617678 76.280609 
L 471.832431 76.169668 
L 472.154561 76.447725 
L 472.261938 76.407624 
L 472.369315 76.099437 
L 472.584068 76.450203 
L 472.798822 76.337979 
L 473.657836 76.539463 
L 473.872589 76.405745 
L 473.979966 76.553676 
L 474.194719 76.479381 
L 474.409473 76.531521 
L 474.51685 76.479455 
L 474.731603 76.64778 
L 475.053733 76.367308 
L 475.268487 76.618377 
L 475.805371 76.178403 
L 476.879138 76.123087 
L 476.986515 76.072116 
L 477.201268 76.358689 
L 477.308645 76.094545 
L 477.416022 76.323691 
L 477.630775 76.128533 
L 477.845529 76.231558 
L 478.167659 76.17246 
L 478.275036 76.051523 
L 478.382412 76.226896 
L 478.382412 76.226896 
" style="fill:none;stroke:#1f77b4;stroke-linecap:square;stroke-width:0.5;"/>
   </g>
   <g id="patch_3">
    <path d="M 48.982813 130.32 
L 48.982813 21.6 
" style="fill:none;stroke:#000000;stroke-linecap:square;stroke-linejoin:miter;stroke-width:0.8;"/>
   </g>
   <g id="patch_4">
    <path d="M 495.382812 130.32 
L 495.382812 21.6 
" style="fill:none;stroke:#000000;stroke-linecap:square;stroke-linejoin:miter;stroke-width:0.8;"/>
   </g>
   <g id="patch_5">
    <path d="M 48.982813 130.32 
L 495.382812 130.32 
" style="fill:none;stroke:#000000;stroke-linecap:square;stroke-linejoin:miter;stroke-width:0.8;"/>
   </g>
   <g id="patch_6">
    <path d="M 48.982813 21.6 
L 495.382812 21.6 
" style="fill:none;stroke:#000000;stroke-linecap:square;stroke-linejoin:miter;stroke-width:0.8;"/>
   </g>
  </g>
  <g id="text_15">
   <!-- Time Domain Amplitude -->
   <g transform="translate(180.3725 17.837812)scale(0.14 -0.14)">
    <defs>
     <path d="M 19.671875 64.796875 
L 19.671875 8.109375 
L 31.59375 8.109375 
Q 46.6875 8.109375 53.6875 14.9375 
Q 60.6875 21.78125 60.6875 36.53125 
Q 60.6875 51.171875 53.6875 57.984375 
Q 46.6875 64.796875 31.59375 64.796875 
z
M 9.8125 72.90625 
L 30.078125 72.90625 
Q 51.265625 72.90625 61.171875 64.09375 
Q 71.09375 55.28125 71.09375 36.53125 
Q 71.09375 17.671875 61.125 8.828125 
Q 51.171875 0 30.078125 0 
L 9.8125 0 
z
" id="DejaVuSans-68"/>
     <path d="M 30.609375 48.390625 
Q 23.390625 48.390625 19.1875 42.75 
Q 14.984375 37.109375 14.984375 27.296875 
Q 14.984375 17.484375 19.15625 11.84375 
Q 23.34375 6.203125 30.609375 6.203125 
Q 37.796875 6.203125 41.984375 11.859375 
Q 46.1875 17.53125 46.1875 27.296875 
Q 46.1875 37.015625 41.984375 42.703125 
Q 37.796875 48.390625 30.609375 48.390625 
z
M 30.609375 56 
Q 42.328125 56 49.015625 48.375 
Q 55.71875 40.765625 55.71875 27.296875 
Q 55.71875 13.875 49.015625 6.21875 
Q 42.328125 -1.421875 30.609375 -1.421875 
Q 18.84375 -1.421875 12.171875 6.21875 
Q 5.515625 13.875 5.515625 27.296875 
Q 5.515625 40.765625 12.171875 48.375 
Q 18.84375 56 30.609375 56 
z
" id="DejaVuSans-111"/>
     <path d="M 34.28125 27.484375 
Q 23.390625 27.484375 19.1875 25 
Q 14.984375 22.515625 14.984375 16.5 
Q 14.984375 11.71875 18.140625 8.90625 
Q 21.296875 6.109375 26.703125 6.109375 
Q 34.1875 6.109375 38.703125 11.40625 
Q 43.21875 16.703125 43.21875 25.484375 
L 43.21875 27.484375 
z
M 52.203125 31.203125 
L 52.203125 0 
L 43.21875 0 
L 43.21875 8.296875 
Q 40.140625 3.328125 35.546875 0.953125 
Q 30.953125 -1.421875 24.3125 -1.421875 
Q 15.921875 -1.421875 10.953125 3.296875 
Q 6 8.015625 6 15.921875 
Q 6 25.140625 12.171875 29.828125 
Q 18.359375 34.515625 30.609375 34.515625 
L 43.21875 34.515625 
L 43.21875 35.40625 
Q 43.21875 41.609375 39.140625 45 
Q 35.0625 48.390625 27.6875 48.390625 
Q 23 48.390625 18.546875 47.265625 
Q 14.109375 46.140625 10.015625 43.890625 
L 10.015625 52.203125 
Q 14.9375 54.109375 19.578125 55.046875 
Q 24.21875 56 28.609375 56 
Q 40.484375 56 46.34375 49.84375 
Q 52.203125 43.703125 52.203125 31.203125 
z
" id="DejaVuSans-97"/>
     <path d="M 54.890625 33.015625 
L 54.890625 0 
L 45.90625 0 
L 45.90625 32.71875 
Q 45.90625 40.484375 42.875 44.328125 
Q 39.84375 48.1875 33.796875 48.1875 
Q 26.515625 48.1875 22.3125 43.546875 
Q 18.109375 38.921875 18.109375 30.90625 
L 18.109375 0 
L 9.078125 0 
L 9.078125 54.6875 
L 18.109375 54.6875 
L 18.109375 46.1875 
Q 21.34375 51.125 25.703125 53.5625 
Q 30.078125 56 35.796875 56 
Q 45.21875 56 50.046875 50.171875 
Q 54.890625 44.34375 54.890625 33.015625 
z
" id="DejaVuSans-110"/>
    </defs>
    <use xlink:href="#DejaVuSans-84"/>
    <use x="57.958984" xlink:href="#DejaVuSans-105"/>
    <use x="85.742188" xlink:href="#DejaVuSans-109"/>
    <use x="183.154297" xlink:href="#DejaVuSans-101"/>
    <use x="244.677734" xlink:href="#DejaVuSans-32"/>
    <use x="276.464844" xlink:href="#DejaVuSans-68"/>
    <use x="353.466797" xlink:href="#DejaVuSans-111"/>
    <use x="414.648438" xlink:href="#DejaVuSans-109"/>
    <use x="512.060547" xlink:href="#DejaVuSans-97"/>
    <use x="573.339844" xlink:href="#DejaVuSans-105"/>
    <use x="601.123047" xlink:href="#DejaVuSans-110"/>
    <use x="664.501953" xlink:href="#DejaVuSans-32"/>
    <use x="696.289062" xlink:href="#DejaVuSans-65"/>
    <use x="764.697266" xlink:href="#DejaVuSans-109"/>
    <use x="862.109375" xlink:href="#DejaVuSans-112"/>
    <use x="925.585938" xlink:href="#DejaVuSans-108"/>
    <use x="953.369141" xlink:href="#DejaVuSans-105"/>
    <use x="981.152344" xlink:href="#DejaVuSans-116"/>
    <use x="1020.361328" xlink:href="#DejaVuSans-117"/>
    <use x="1083.740234" xlink:href="#DejaVuSans-100"/>
    <use x="1147.216797" xlink:href="#DejaVuSans-101"/>
   </g>
  </g>
 </g>
 <defs>
  <clipPath id="p46a200014a">
   <rect height="108.72" width="446.4" x="48.982813" y="21.6"/>
  </clipPath>
 </defs>
</svg>
