<?xml version="1.0" encoding="utf-8" standalone="no"?>
<!DOCTYPE svg PUBLIC "-//W3C//DTD SVG 1.1//EN"
  "http://www.w3.org/Graphics/SVG/1.1/DTD/svg11.dtd">
<!-- Created with matplotlib (https://matplotlib.org/) -->
<svg height="270.50375pt" version="1.1" viewBox="0 0 557.88375 270.50375" width="557.88375pt" xmlns="http://www.w3.org/2000/svg" xmlns:xlink="http://www.w3.org/1999/xlink">
 <metadata>
  <rdf:RDF xmlns:cc="http://creativecommons.org/ns#" xmlns:dc="http://purl.org/dc/elements/1.1/" xmlns:rdf="http://www.w3.org/1999/02/22-rdf-syntax-ns#">
   <cc:Work>
    <dc:type rdf:resource="http://purl.org/dc/dcmitype/StillImage"/>
    <dc:date>2020-11-20T15:57:12.352358</dc:date>
    <dc:format>image/svg+xml</dc:format>
    <dc:creator>
     <cc:Agent>
      <dc:title>Matplotlib v3.3.2, https://matplotlib.org/</dc:title>
     </cc:Agent>
    </dc:creator>
   </cc:Work>
  </rdf:RDF>
 </metadata>
 <defs>
  <style type="text/css">*{stroke-linecap:butt;stroke-linejoin:round;}</style>
 </defs>
 <g id="figure_1">
  <g id="patch_1">
   <path d="M 0 270.50375 
L 557.88375 270.50375 
L 557.88375 0 
L 0 0 
z
" style="fill:none;"/>
  </g>
  <g id="axes_1">
   <g id="patch_2">
    <path d="M 68.88375 224.64 
L 403.68375 224.64 
L 403.68375 7.2 
L 68.88375 7.2 
z
" style="fill:#ffffff;"/>
   </g>
   <g id="PathCollection_1">
    <defs>
     <path d="M -3.872983 3.872983 
L 3.872983 -3.872983 
M -3.872983 -3.872983 
L 3.872983 3.872983 
" id="m819849a49f" style="stroke:#1f77b4;stroke-width:1.5;"/>
    </defs>
    <g clip-path="url(#pdf4d6666b5)">
     <use style="fill:#1f77b4;stroke:#1f77b4;stroke-width:1.5;" x="275.158226" xlink:href="#m819849a49f" y="160.197664"/>
    </g>
   </g>
   <g id="PathCollection_2">
    <defs>
     <path d="M -3.872983 3.872983 
L 3.872983 -3.872983 
M -3.872983 -3.872983 
L 3.872983 3.872983 
" id="m4110d74777" style="stroke:#ff7f0e;stroke-width:1.5;"/>
    </defs>
    <g clip-path="url(#pdf4d6666b5)">
     <use style="fill:#ff7f0e;stroke:#ff7f0e;stroke-width:1.5;" x="155.280988" xlink:href="#m4110d74777" y="160.197664"/>
    </g>
   </g>
   <g id="PathCollection_3">
    <defs>
     <path d="M -3.872983 3.872983 
L 3.872983 -3.872983 
M -3.872983 -3.872983 
L 3.872983 3.872983 
" id="mb2f9c5913b" style="stroke:#2ca02c;stroke-width:1.5;"/>
    </defs>
    <g clip-path="url(#pdf4d6666b5)">
     <use style="fill:#2ca02c;stroke:#2ca02c;stroke-width:1.5;" x="81.98462" xlink:href="#mb2f9c5913b" y="173.461821"/>
    </g>
   </g>
   <g id="PathCollection_4">
    <defs>
     <path d="M -3.872983 3.872983 
L 3.872983 -3.872983 
M -3.872983 -3.872983 
L 3.872983 3.872983 
" id="md532260fa3" style="stroke:#d62728;stroke-width:1.5;"/>
    </defs>
    <g clip-path="url(#pdf4d6666b5)">
     <use style="fill:#d62728;stroke:#d62728;stroke-width:1.5;" x="120.529608" xlink:href="#md532260fa3" y="102.612769"/>
    </g>
   </g>
   <g id="PathCollection_5">
    <defs>
     <path d="M -3.872983 3.872983 
L 3.872983 -3.872983 
M -3.872983 -3.872983 
L 3.872983 3.872983 
" id="m2788144c48" style="stroke:#9467bd;stroke-width:1.5;"/>
    </defs>
    <g clip-path="url(#pdf4d6666b5)">
     <use style="fill:#9467bd;stroke:#9467bd;stroke-width:1.5;" x="210.082011" xlink:href="#m2788144c48" y="27.340945"/>
    </g>
   </g>
   <g id="matplotlib.axis_1">
    <g id="xtick_1">
     <g id="line2d_1">
      <path clip-path="url(#pdf4d6666b5)" d="M 102.36375 224.64 
L 102.36375 7.2 
" style="fill:none;stroke:#b0b0b0;stroke-linecap:square;stroke-width:0.8;"/>
     </g>
     <g id="line2d_2">
      <defs>
       <path d="M 0 0 
L 0 3.5 
" id="m1de24f41c6" style="stroke:#000000;stroke-width:0.8;"/>
      </defs>
      <g>
       <use style="stroke:#000000;stroke-width:0.8;" x="102.36375" xlink:href="#m1de24f41c6" y="224.64"/>
      </g>
     </g>
     <g id="text_1">
      <!-- 10 -->
      <g transform="translate(94.72875 240.758125)scale(0.12 -0.12)">
       <defs>
        <path d="M 12.40625 8.296875 
L 28.515625 8.296875 
L 28.515625 63.921875 
L 10.984375 60.40625 
L 10.984375 69.390625 
L 28.421875 72.90625 
L 38.28125 72.90625 
L 38.28125 8.296875 
L 54.390625 8.296875 
L 54.390625 0 
L 12.40625 0 
z
" id="DejaVuSans-49"/>
        <path d="M 31.78125 66.40625 
Q 24.171875 66.40625 20.328125 58.90625 
Q 16.5 51.421875 16.5 36.375 
Q 16.5 21.390625 20.328125 13.890625 
Q 24.171875 6.390625 31.78125 6.390625 
Q 39.453125 6.390625 43.28125 13.890625 
Q 47.125 21.390625 47.125 36.375 
Q 47.125 51.421875 43.28125 58.90625 
Q 39.453125 66.40625 31.78125 66.40625 
z
M 31.78125 74.21875 
Q 44.046875 74.21875 50.515625 64.515625 
Q 56.984375 54.828125 56.984375 36.375 
Q 56.984375 17.96875 50.515625 8.265625 
Q 44.046875 -1.421875 31.78125 -1.421875 
Q 19.53125 -1.421875 13.0625 8.265625 
Q 6.59375 17.96875 6.59375 36.375 
Q 6.59375 54.828125 13.0625 64.515625 
Q 19.53125 74.21875 31.78125 74.21875 
z
" id="DejaVuSans-48"/>
       </defs>
       <use xlink:href="#DejaVuSans-49"/>
       <use x="63.623047" xlink:href="#DejaVuSans-48"/>
      </g>
     </g>
    </g>
    <g id="xtick_2">
     <g id="line2d_3">
      <path clip-path="url(#pdf4d6666b5)" d="M 169.32375 224.64 
L 169.32375 7.2 
" style="fill:none;stroke:#b0b0b0;stroke-linecap:square;stroke-width:0.8;"/>
     </g>
     <g id="line2d_4">
      <g>
       <use style="stroke:#000000;stroke-width:0.8;" x="169.32375" xlink:href="#m1de24f41c6" y="224.64"/>
      </g>
     </g>
     <g id="text_2">
      <!-- 20 -->
      <g transform="translate(161.68875 240.758125)scale(0.12 -0.12)">
       <defs>
        <path d="M 19.1875 8.296875 
L 53.609375 8.296875 
L 53.609375 0 
L 7.328125 0 
L 7.328125 8.296875 
Q 12.9375 14.109375 22.625 23.890625 
Q 32.328125 33.6875 34.8125 36.53125 
Q 39.546875 41.84375 41.421875 45.53125 
Q 43.3125 49.21875 43.3125 52.78125 
Q 43.3125 58.59375 39.234375 62.25 
Q 35.15625 65.921875 28.609375 65.921875 
Q 23.96875 65.921875 18.8125 64.3125 
Q 13.671875 62.703125 7.8125 59.421875 
L 7.8125 69.390625 
Q 13.765625 71.78125 18.9375 73 
Q 24.125 74.21875 28.421875 74.21875 
Q 39.75 74.21875 46.484375 68.546875 
Q 53.21875 62.890625 53.21875 53.421875 
Q 53.21875 48.921875 51.53125 44.890625 
Q 49.859375 40.875 45.40625 35.40625 
Q 44.1875 33.984375 37.640625 27.21875 
Q 31.109375 20.453125 19.1875 8.296875 
z
" id="DejaVuSans-50"/>
       </defs>
       <use xlink:href="#DejaVuSans-50"/>
       <use x="63.623047" xlink:href="#DejaVuSans-48"/>
      </g>
     </g>
    </g>
    <g id="xtick_3">
     <g id="line2d_5">
      <path clip-path="url(#pdf4d6666b5)" d="M 236.28375 224.64 
L 236.28375 7.2 
" style="fill:none;stroke:#b0b0b0;stroke-linecap:square;stroke-width:0.8;"/>
     </g>
     <g id="line2d_6">
      <g>
       <use style="stroke:#000000;stroke-width:0.8;" x="236.28375" xlink:href="#m1de24f41c6" y="224.64"/>
      </g>
     </g>
     <g id="text_3">
      <!-- 30 -->
      <g transform="translate(228.64875 240.758125)scale(0.12 -0.12)">
       <defs>
        <path d="M 40.578125 39.3125 
Q 47.65625 37.796875 51.625 33 
Q 55.609375 28.21875 55.609375 21.1875 
Q 55.609375 10.40625 48.1875 4.484375 
Q 40.765625 -1.421875 27.09375 -1.421875 
Q 22.515625 -1.421875 17.65625 -0.515625 
Q 12.796875 0.390625 7.625 2.203125 
L 7.625 11.71875 
Q 11.71875 9.328125 16.59375 8.109375 
Q 21.484375 6.890625 26.8125 6.890625 
Q 36.078125 6.890625 40.9375 10.546875 
Q 45.796875 14.203125 45.796875 21.1875 
Q 45.796875 27.640625 41.28125 31.265625 
Q 36.765625 34.90625 28.71875 34.90625 
L 20.21875 34.90625 
L 20.21875 43.015625 
L 29.109375 43.015625 
Q 36.375 43.015625 40.234375 45.921875 
Q 44.09375 48.828125 44.09375 54.296875 
Q 44.09375 59.90625 40.109375 62.90625 
Q 36.140625 65.921875 28.71875 65.921875 
Q 24.65625 65.921875 20.015625 65.03125 
Q 15.375 64.15625 9.8125 62.3125 
L 9.8125 71.09375 
Q 15.4375 72.65625 20.34375 73.4375 
Q 25.25 74.21875 29.59375 74.21875 
Q 40.828125 74.21875 47.359375 69.109375 
Q 53.90625 64.015625 53.90625 55.328125 
Q 53.90625 49.265625 50.4375 45.09375 
Q 46.96875 40.921875 40.578125 39.3125 
z
" id="DejaVuSans-51"/>
       </defs>
       <use xlink:href="#DejaVuSans-51"/>
       <use x="63.623047" xlink:href="#DejaVuSans-48"/>
      </g>
     </g>
    </g>
    <g id="xtick_4">
     <g id="line2d_7">
      <path clip-path="url(#pdf4d6666b5)" d="M 303.24375 224.64 
L 303.24375 7.2 
" style="fill:none;stroke:#b0b0b0;stroke-linecap:square;stroke-width:0.8;"/>
     </g>
     <g id="line2d_8">
      <g>
       <use style="stroke:#000000;stroke-width:0.8;" x="303.24375" xlink:href="#m1de24f41c6" y="224.64"/>
      </g>
     </g>
     <g id="text_4">
      <!-- 40 -->
      <g transform="translate(295.60875 240.758125)scale(0.12 -0.12)">
       <defs>
        <path d="M 37.796875 64.3125 
L 12.890625 25.390625 
L 37.796875 25.390625 
z
M 35.203125 72.90625 
L 47.609375 72.90625 
L 47.609375 25.390625 
L 58.015625 25.390625 
L 58.015625 17.1875 
L 47.609375 17.1875 
L 47.609375 0 
L 37.796875 0 
L 37.796875 17.1875 
L 4.890625 17.1875 
L 4.890625 26.703125 
z
" id="DejaVuSans-52"/>
       </defs>
       <use xlink:href="#DejaVuSans-52"/>
       <use x="63.623047" xlink:href="#DejaVuSans-48"/>
      </g>
     </g>
    </g>
    <g id="xtick_5">
     <g id="line2d_9">
      <path clip-path="url(#pdf4d6666b5)" d="M 370.20375 224.64 
L 370.20375 7.2 
" style="fill:none;stroke:#b0b0b0;stroke-linecap:square;stroke-width:0.8;"/>
     </g>
     <g id="line2d_10">
      <g>
       <use style="stroke:#000000;stroke-width:0.8;" x="370.20375" xlink:href="#m1de24f41c6" y="224.64"/>
      </g>
     </g>
     <g id="text_5">
      <!-- 50 -->
      <g transform="translate(362.56875 240.758125)scale(0.12 -0.12)">
       <defs>
        <path d="M 10.796875 72.90625 
L 49.515625 72.90625 
L 49.515625 64.59375 
L 19.828125 64.59375 
L 19.828125 46.734375 
Q 21.96875 47.46875 24.109375 47.828125 
Q 26.265625 48.1875 28.421875 48.1875 
Q 40.625 48.1875 47.75 41.5 
Q 54.890625 34.8125 54.890625 23.390625 
Q 54.890625 11.625 47.5625 5.09375 
Q 40.234375 -1.421875 26.90625 -1.421875 
Q 22.3125 -1.421875 17.546875 -0.640625 
Q 12.796875 0.140625 7.71875 1.703125 
L 7.71875 11.625 
Q 12.109375 9.234375 16.796875 8.0625 
Q 21.484375 6.890625 26.703125 6.890625 
Q 35.15625 6.890625 40.078125 11.328125 
Q 45.015625 15.765625 45.015625 23.390625 
Q 45.015625 31 40.078125 35.4375 
Q 35.15625 39.890625 26.703125 39.890625 
Q 22.75 39.890625 18.8125 39.015625 
Q 14.890625 38.140625 10.796875 36.28125 
z
" id="DejaVuSans-53"/>
       </defs>
       <use xlink:href="#DejaVuSans-53"/>
       <use x="63.623047" xlink:href="#DejaVuSans-48"/>
      </g>
     </g>
    </g>
    <g id="text_6">
     <!-- $f_y/f_c$ -->
     <g transform="translate(222.03375 258.65375)scale(0.15 -0.15)">
      <defs>
       <path d="M 47.796875 75.984375 
L 46.390625 68.5 
L 37.796875 68.5 
Q 32.90625 68.5 30.6875 66.578125 
Q 28.46875 64.65625 27.390625 59.515625 
L 26.421875 54.6875 
L 41.21875 54.6875 
L 39.890625 47.703125 
L 25.09375 47.703125 
L 15.828125 0 
L 6.78125 0 
L 16.109375 47.703125 
L 7.515625 47.703125 
L 8.796875 54.6875 
L 17.390625 54.6875 
L 18.109375 58.5 
Q 19.96875 68.171875 24.625 72.078125 
Q 29.296875 75.984375 39.3125 75.984375 
z
" id="DejaVuSans-Oblique-102"/>
       <path d="M 24.8125 -5.078125 
Q 18.5625 -15.578125 14.625 -18.1875 
Q 10.6875 -20.796875 4.59375 -20.796875 
L -2.484375 -20.796875 
L -0.984375 -13.28125 
L 4.203125 -13.28125 
Q 7.953125 -13.28125 10.59375 -11.234375 
Q 13.234375 -9.1875 16.5 -3.21875 
L 19.28125 2 
L 7.171875 54.6875 
L 16.703125 54.6875 
L 25.78125 12.796875 
L 50.875 54.6875 
L 60.296875 54.6875 
z
" id="DejaVuSans-Oblique-121"/>
       <path d="M 25.390625 72.90625 
L 33.6875 72.90625 
L 8.296875 -9.28125 
L 0 -9.28125 
z
" id="DejaVuSans-47"/>
       <path d="M 53.609375 52.59375 
L 51.8125 43.703125 
Q 48.578125 46.046875 44.9375 47.21875 
Q 41.3125 48.390625 37.40625 48.390625 
Q 33.109375 48.390625 29.21875 46.875 
Q 25.34375 45.359375 22.703125 42.578125 
Q 18.5 38.328125 16.203125 32.609375 
Q 13.921875 26.90625 13.921875 20.796875 
Q 13.921875 13.421875 17.609375 9.8125 
Q 21.296875 6.203125 28.8125 6.203125 
Q 32.515625 6.203125 36.6875 7.328125 
Q 40.875 8.453125 45.40625 10.6875 
L 43.703125 1.8125 
Q 39.796875 0.203125 35.671875 -0.609375 
Q 31.546875 -1.421875 27.203125 -1.421875 
Q 16.3125 -1.421875 10.453125 4.015625 
Q 4.59375 9.46875 4.59375 19.578125 
Q 4.59375 28.078125 7.640625 35.234375 
Q 10.6875 42.390625 16.703125 48.09375 
Q 20.796875 52 26.3125 54 
Q 31.84375 56 38.375 56 
Q 42.1875 56 45.9375 55.140625 
Q 49.703125 54.296875 53.609375 52.59375 
z
" id="DejaVuSans-Oblique-99"/>
      </defs>
      <use transform="translate(0 0.015625)" xlink:href="#DejaVuSans-Oblique-102"/>
      <use transform="translate(35.205078 -16.390625)scale(0.7)" xlink:href="#DejaVuSans-Oblique-121"/>
      <use transform="translate(79.365234 0.015625)" xlink:href="#DejaVuSans-47"/>
      <use transform="translate(113.056641 0.015625)" xlink:href="#DejaVuSans-Oblique-102"/>
      <use transform="translate(148.261719 -16.390625)scale(0.7)" xlink:href="#DejaVuSans-Oblique-99"/>
     </g>
    </g>
   </g>
   <g id="matplotlib.axis_2">
    <g id="ytick_1">
     <g id="line2d_11">
      <path clip-path="url(#pdf4d6666b5)" d="M 68.88375 224.64 
L 403.68375 224.64 
" style="fill:none;stroke:#b0b0b0;stroke-linecap:square;stroke-width:0.8;"/>
     </g>
     <g id="line2d_12">
      <defs>
       <path d="M 0 0 
L -3.5 0 
" id="m1988696feb" style="stroke:#000000;stroke-width:0.8;"/>
      </defs>
      <g>
       <use style="stroke:#000000;stroke-width:0.8;" x="68.88375" xlink:href="#m1988696feb" y="224.64"/>
      </g>
     </g>
     <g id="text_7">
      <!-- 0.0 -->
      <g transform="translate(42.8 229.199062)scale(0.12 -0.12)">
       <defs>
        <path d="M 10.6875 12.40625 
L 21 12.40625 
L 21 0 
L 10.6875 0 
z
" id="DejaVuSans-46"/>
       </defs>
       <use xlink:href="#DejaVuSans-48"/>
       <use x="63.623047" xlink:href="#DejaVuSans-46"/>
       <use x="95.410156" xlink:href="#DejaVuSans-48"/>
      </g>
     </g>
    </g>
    <g id="ytick_2">
     <g id="line2d_13">
      <path clip-path="url(#pdf4d6666b5)" d="M 68.88375 185.105455 
L 403.68375 185.105455 
" style="fill:none;stroke:#b0b0b0;stroke-linecap:square;stroke-width:0.8;"/>
     </g>
     <g id="line2d_14">
      <g>
       <use style="stroke:#000000;stroke-width:0.8;" x="68.88375" xlink:href="#m1988696feb" y="185.105455"/>
      </g>
     </g>
     <g id="text_8">
      <!-- 0.1 -->
      <g transform="translate(42.8 189.664517)scale(0.12 -0.12)">
       <use xlink:href="#DejaVuSans-48"/>
       <use x="63.623047" xlink:href="#DejaVuSans-46"/>
       <use x="95.410156" xlink:href="#DejaVuSans-49"/>
      </g>
     </g>
    </g>
    <g id="ytick_3">
     <g id="line2d_15">
      <path clip-path="url(#pdf4d6666b5)" d="M 68.88375 145.570909 
L 403.68375 145.570909 
" style="fill:none;stroke:#b0b0b0;stroke-linecap:square;stroke-width:0.8;"/>
     </g>
     <g id="line2d_16">
      <g>
       <use style="stroke:#000000;stroke-width:0.8;" x="68.88375" xlink:href="#m1988696feb" y="145.570909"/>
      </g>
     </g>
     <g id="text_9">
      <!-- 0.2 -->
      <g transform="translate(42.8 150.129972)scale(0.12 -0.12)">
       <use xlink:href="#DejaVuSans-48"/>
       <use x="63.623047" xlink:href="#DejaVuSans-46"/>
       <use x="95.410156" xlink:href="#DejaVuSans-50"/>
      </g>
     </g>
    </g>
    <g id="ytick_4">
     <g id="line2d_17">
      <path clip-path="url(#pdf4d6666b5)" d="M 68.88375 106.036364 
L 403.68375 106.036364 
" style="fill:none;stroke:#b0b0b0;stroke-linecap:square;stroke-width:0.8;"/>
     </g>
     <g id="line2d_18">
      <g>
       <use style="stroke:#000000;stroke-width:0.8;" x="68.88375" xlink:href="#m1988696feb" y="106.036364"/>
      </g>
     </g>
     <g id="text_10">
      <!-- 0.3 -->
      <g transform="translate(42.8 110.595426)scale(0.12 -0.12)">
       <use xlink:href="#DejaVuSans-48"/>
       <use x="63.623047" xlink:href="#DejaVuSans-46"/>
       <use x="95.410156" xlink:href="#DejaVuSans-51"/>
      </g>
     </g>
    </g>
    <g id="ytick_5">
     <g id="line2d_19">
      <path clip-path="url(#pdf4d6666b5)" d="M 68.88375 66.501818 
L 403.68375 66.501818 
" style="fill:none;stroke:#b0b0b0;stroke-linecap:square;stroke-width:0.8;"/>
     </g>
     <g id="line2d_20">
      <g>
       <use style="stroke:#000000;stroke-width:0.8;" x="68.88375" xlink:href="#m1988696feb" y="66.501818"/>
      </g>
     </g>
     <g id="text_11">
      <!-- 0.4 -->
      <g transform="translate(42.8 71.060881)scale(0.12 -0.12)">
       <use xlink:href="#DejaVuSans-48"/>
       <use x="63.623047" xlink:href="#DejaVuSans-46"/>
       <use x="95.410156" xlink:href="#DejaVuSans-52"/>
      </g>
     </g>
    </g>
    <g id="ytick_6">
     <g id="line2d_21">
      <path clip-path="url(#pdf4d6666b5)" d="M 68.88375 26.967273 
L 403.68375 26.967273 
" style="fill:none;stroke:#b0b0b0;stroke-linecap:square;stroke-width:0.8;"/>
     </g>
     <g id="line2d_22">
      <g>
       <use style="stroke:#000000;stroke-width:0.8;" x="68.88375" xlink:href="#m1988696feb" y="26.967273"/>
      </g>
     </g>
     <g id="text_12">
      <!-- 0.5 -->
      <g transform="translate(42.8 31.526335)scale(0.12 -0.12)">
       <use xlink:href="#DejaVuSans-48"/>
       <use x="63.623047" xlink:href="#DejaVuSans-46"/>
       <use x="95.410156" xlink:href="#DejaVuSans-53"/>
      </g>
     </g>
    </g>
    <g id="text_13">
     <!-- $\frac {M}{b d^2 f_c}$ -->
     <g transform="translate(26.2 135.32)rotate(-90)scale(0.2 -0.2)">
      <defs>
       <path d="M 16.890625 72.90625 
L 31.6875 72.90625 
L 40.1875 23.78125 
L 68.40625 72.90625 
L 83.59375 72.90625 
L 69.390625 0 
L 59.8125 0 
L 72.21875 63.921875 
L 43.609375 14.015625 
L 33.984375 14.015625 
L 24.703125 64.109375 
L 12.3125 0 
L 2.6875 0 
z
" id="DejaVuSans-Oblique-77"/>
       <path d="M 49.515625 33.40625 
Q 49.515625 40.484375 46.265625 44.484375 
Q 43.015625 48.484375 37.3125 48.484375 
Q 33.15625 48.484375 29.515625 46.453125 
Q 25.875 44.4375 23.1875 40.578125 
Q 20.359375 36.53125 18.71875 31.171875 
Q 17.09375 25.828125 17.09375 20.515625 
Q 17.09375 13.765625 20.28125 9.9375 
Q 23.484375 6.109375 29.109375 6.109375 
Q 33.34375 6.109375 36.953125 8.078125 
Q 40.578125 10.0625 43.3125 13.921875 
Q 46.09375 17.921875 47.796875 23.234375 
Q 49.515625 28.5625 49.515625 33.40625 
z
M 21.578125 46.390625 
Q 24.90625 50.875 29.90625 53.4375 
Q 34.90625 56 40.375 56 
Q 48.78125 56 53.734375 50.328125 
Q 58.6875 44.671875 58.6875 35.015625 
Q 58.6875 27.09375 55.78125 19.671875 
Q 52.875 12.25 47.515625 6.5 
Q 44 2.6875 39.40625 0.625 
Q 34.8125 -1.421875 29.78125 -1.421875 
Q 24.46875 -1.421875 20.5625 1.015625 
Q 16.65625 3.46875 14.203125 8.296875 
L 12.59375 0 
L 3.609375 0 
L 18.40625 75.984375 
L 27.390625 75.984375 
z
" id="DejaVuSans-Oblique-98"/>
       <path d="M 41.796875 8.203125 
Q 38.1875 3.46875 33.25 1.015625 
Q 28.328125 -1.421875 22.3125 -1.421875 
Q 14.109375 -1.421875 9.34375 4.171875 
Q 4.59375 9.765625 4.59375 19.484375 
Q 4.59375 27.59375 7.46875 34.9375 
Q 10.359375 42.28125 15.828125 48.09375 
Q 19.4375 51.953125 23.96875 53.96875 
Q 28.515625 56 33.5 56 
Q 38.765625 56 42.796875 53.453125 
Q 46.828125 50.921875 49.03125 46.1875 
L 54.890625 75.984375 
L 63.921875 75.984375 
L 49.125 0 
L 40.09375 0 
z
M 13.921875 21.09375 
Q 13.921875 14.015625 17.109375 10.0625 
Q 20.3125 6.109375 25.984375 6.109375 
Q 30.171875 6.109375 33.765625 8.125 
Q 37.359375 10.15625 40.09375 14.109375 
Q 42.96875 18.21875 44.625 23.578125 
Q 46.296875 28.953125 46.296875 34.1875 
Q 46.296875 40.96875 43.09375 44.765625 
Q 39.890625 48.578125 34.28125 48.578125 
Q 30.03125 48.578125 26.359375 46.578125 
Q 22.703125 44.578125 20.125 40.828125 
Q 17.28125 36.765625 15.59375 31.390625 
Q 13.921875 26.03125 13.921875 21.09375 
z
" id="DejaVuSans-Oblique-100"/>
      </defs>
      <use transform="translate(60 43.965625)scale(0.7)" xlink:href="#DejaVuSans-Oblique-77"/>
      <use transform="translate(0 -50.448437)scale(0.7)" xlink:href="#DejaVuSans-Oblique-98"/>
      <use transform="translate(44.433594 -50.448437)scale(0.7)" xlink:href="#DejaVuSans-Oblique-100"/>
      <use transform="translate(94.080583 -23.651562)scale(0.49)" xlink:href="#DejaVuSans-50"/>
      <use transform="translate(127.169939 -50.448437)scale(0.7)" xlink:href="#DejaVuSans-Oblique-102"/>
      <use transform="translate(151.813493 -61.932812)scale(0.49)" xlink:href="#DejaVuSans-Oblique-99"/>
      <path d="M 0 18.965625 
L 0 25.215625 
L 180.667986 25.215625 
L 180.667986 18.965625 
L 0 18.965625 
z
"/>
     </g>
    </g>
   </g>
   <g id="line2d_23">
    <path clip-path="url(#pdf4d6666b5)" d="M 68.88375 214.879909 
L 75.57975 212.957542 
L 82.27575 211.045058 
L 88.97175 209.142458 
L 95.66775 207.249742 
L 102.36375 205.366909 
L 109.05975 203.49396 
L 115.75575 201.630895 
L 122.45175 199.777713 
L 129.14775 197.934415 
L 135.84375 196.101 
L 142.53975 194.277469 
L 149.23575 192.463822 
L 155.93175 190.660058 
L 162.62775 188.866178 
L 169.32375 187.082182 
L 176.01975 185.308069 
L 182.71575 183.54384 
L 189.41175 181.789495 
L 196.10775 180.045033 
L 202.80375 178.310455 
L 209.49975 176.58576 
L 216.19575 174.870949 
L 222.89175 173.166022 
L 229.58775 171.470978 
L 236.28375 169.785818 
L 242.97975 168.110542 
L 249.67575 166.445149 
L 256.37175 164.78964 
L 263.06775 163.144015 
L 269.76375 161.508273 
L 276.45975 159.882415 
L 283.15575 158.26644 
L 289.85175 156.660349 
L 296.54775 155.064142 
L 303.24375 153.477818 
L 309.93975 151.901378 
L 316.63575 150.334822 
L 323.33175 148.778149 
L 330.02775 147.23136 
L 336.72375 145.694455 
L 343.41975 144.167433 
L 350.11575 142.650295 
L 356.81175 141.14304 
L 363.50775 139.645669 
L 370.20375 138.158182 
L 376.89975 136.680578 
L 383.59575 135.212858 
L 390.29175 133.755022 
L 396.98775 132.307069 
L 403.68375 130.869 
" style="fill:none;stroke:#1f77b4;stroke-linecap:square;stroke-width:1.5;"/>
   </g>
   <g id="line2d_24">
    <path clip-path="url(#pdf4d6666b5)" d="M 68.88375 205.366909 
L 75.57975 201.630895 
L 82.27575 197.934415 
L 88.97175 194.277469 
L 95.66775 190.660058 
L 102.36375 187.082182 
L 109.05975 183.54384 
L 115.75575 180.045033 
L 122.45175 176.58576 
L 129.14775 173.166022 
L 135.84375 169.785818 
L 142.53975 166.445149 
L 149.23575 163.144015 
L 155.93175 159.882415 
L 162.62775 156.660349 
L 169.32375 153.477818 
L 176.01975 150.334822 
L 182.71575 147.23136 
L 189.41175 144.167433 
L 196.10775 141.14304 
L 202.80375 138.158182 
L 209.49975 135.212858 
L 216.19575 132.307069 
L 222.89175 129.440815 
L 229.58775 126.614095 
L 236.28375 123.826909 
L 242.97975 121.079258 
L 249.67575 118.371142 
L 256.37175 115.70256 
L 263.06775 113.073513 
L 269.76375 110.484 
L 276.45975 107.934022 
L 283.15575 105.423578 
L 289.85175 102.952669 
L 296.54775 100.521295 
L 303.24375 98.129455 
L 309.93975 95.777149 
L 316.63575 93.464378 
L 323.33175 91.191142 
L 330.02775 88.95744 
L 336.72375 86.763273 
L 343.41975 84.60864 
L 350.11575 82.493542 
L 356.81175 80.417978 
L 363.50775 78.381949 
L 370.20375 76.385455 
L 376.89975 74.428495 
L 383.59575 72.511069 
L 390.29175 70.633178 
L 396.98775 68.794822 
L 403.68375 66.996 
" style="fill:none;stroke:#ff7f0e;stroke-linecap:square;stroke-width:1.5;"/>
   </g>
   <g id="line2d_25">
    <path clip-path="url(#pdf4d6666b5)" d="M 68.88375 187.082182 
L 75.57975 180.045033 
L 82.27575 173.166022 
L 88.97175 166.445149 
L 95.66775 159.882415 
L 102.36375 153.477818 
L 109.05975 147.23136 
L 115.75575 141.14304 
L 122.45175 135.212858 
L 129.14775 129.440815 
L 135.84375 123.826909 
L 142.53975 118.371142 
L 149.23575 113.073513 
L 155.93175 107.934022 
L 162.62775 102.952669 
L 169.32375 98.129455 
L 176.01975 93.464378 
L 182.71575 88.95744 
L 189.41175 84.60864 
L 196.10775 80.417978 
L 202.80375 76.385455 
L 209.49975 72.511069 
L 216.19575 68.794822 
L 222.89175 65.236713 
L 229.58775 61.836742 
L 236.28375 58.594909 
L 242.97975 55.511215 
L 249.67575 52.585658 
L 256.37175 49.81824 
L 263.06775 47.20896 
L 269.76375 44.757818 
L 276.45975 42.464815 
L 283.15575 40.329949 
L 289.85175 38.353222 
L 296.54775 36.534633 
L 303.24375 34.874182 
L 309.93975 33.371869 
L 316.63575 32.027695 
L 323.33175 30.841658 
L 330.02775 29.81376 
L 336.72375 28.944 
L 343.41975 28.232378 
L 350.11575 27.678895 
L 356.81175 27.283549 
L 363.50775 27.046342 
L 370.20375 26.967273 
L 376.89975 27.046342 
L 383.59575 27.283549 
L 390.29175 27.678895 
L 396.98775 28.232378 
L 403.68375 28.944 
" style="fill:none;stroke:#2ca02c;stroke-linecap:square;stroke-width:1.5;"/>
   </g>
   <g id="line2d_26">
    <path clip-path="url(#pdf4d6666b5)" d="M 68.88375 169.785818 
L 75.57975 159.882415 
L 82.27575 150.334822 
L 88.97175 141.14304 
L 95.66775 132.307069 
L 102.36375 123.826909 
L 109.05975 115.70256 
L 115.75575 107.934022 
L 122.45175 100.521295 
L 129.14775 93.464378 
L 135.84375 86.763273 
L 142.53975 80.417978 
L 149.23575 74.428495 
L 155.93175 68.794822 
L 162.62775 63.51696 
L 169.32375 58.594909 
L 176.01975 54.028669 
L 182.71575 49.81824 
L 189.41175 45.963622 
L 196.10775 42.464815 
L 202.80375 39.321818 
L 209.49975 36.534633 
L 216.19575 34.103258 
L 222.89175 32.027695 
L 229.58775 30.307942 
L 236.28375 28.944 
L 242.97975 27.935869 
L 249.67575 27.283549 
L 256.37175 26.98704 
L 263.06775 27.046342 
L 269.76375 27.461455 
L 276.45975 28.232378 
L 283.15575 29.359113 
L 289.85175 30.841658 
L 296.54775 32.680015 
L 303.24375 34.874182 
L 309.93975 37.42416 
L 316.63575 40.329949 
L 323.33175 43.591549 
L 330.02775 47.20896 
L 336.72375 51.182182 
L 343.41975 55.511215 
L 350.11575 60.196058 
L 356.81175 65.236713 
L 363.50775 70.633178 
L 370.20375 76.385455 
L 376.89975 82.493542 
L 383.59575 88.95744 
L 390.29175 95.777149 
L 396.98775 102.952669 
L 403.68375 110.484 
" style="fill:none;stroke:#d62728;stroke-linecap:square;stroke-width:1.5;"/>
   </g>
   <g id="line2d_27">
    <path clip-path="url(#pdf4d6666b5)" d="M 68.88375 153.477818 
L 75.57975 141.14304 
L 82.27575 129.440815 
L 88.97175 118.371142 
L 95.66775 107.934022 
L 102.36375 98.129455 
L 109.05975 88.95744 
L 115.75575 80.417978 
L 122.45175 72.511069 
L 129.14775 65.236713 
L 135.84375 58.594909 
L 142.53975 52.585658 
L 149.23575 47.20896 
L 155.93175 42.464815 
L 162.62775 38.353222 
L 169.32375 34.874182 
L 176.01975 32.027695 
L 182.71575 29.81376 
L 189.41175 28.232378 
L 196.10775 27.283549 
L 202.80375 26.967273 
L 209.49975 27.283549 
L 216.19575 28.232378 
L 222.89175 29.81376 
L 229.58775 32.027695 
L 236.28375 34.874182 
L 242.97975 38.353222 
L 249.67575 42.464815 
L 256.37175 47.20896 
L 263.06775 52.585658 
L 269.76375 58.594909 
L 276.45975 65.236713 
L 283.15575 72.511069 
L 289.85175 80.417978 
L 296.54775 88.95744 
L 303.24375 98.129455 
L 309.93975 107.934022 
L 316.63575 118.371142 
L 323.33175 129.440815 
L 330.02775 141.14304 
L 336.72375 153.477818 
L 343.41975 166.445149 
L 350.11575 180.045033 
L 356.81175 194.277469 
L 363.50775 209.142458 
L 370.20375 224.64 
L 376.89975 240.770095 
L 383.59575 257.532742 
L 388.973663 271.50375 
" style="fill:none;stroke:#9467bd;stroke-linecap:square;stroke-width:1.5;"/>
   </g>
   <g id="patch_3">
    <path d="M 68.88375 224.64 
L 68.88375 7.2 
" style="fill:none;stroke:#000000;stroke-linecap:square;stroke-linejoin:miter;stroke-width:0.8;"/>
   </g>
   <g id="patch_4">
    <path d="M 403.68375 224.64 
L 403.68375 7.2 
" style="fill:none;stroke:#000000;stroke-linecap:square;stroke-linejoin:miter;stroke-width:0.8;"/>
   </g>
   <g id="patch_5">
    <path d="M 68.88375 224.64 
L 403.68375 224.64 
" style="fill:none;stroke:#000000;stroke-linecap:square;stroke-linejoin:miter;stroke-width:0.8;"/>
   </g>
   <g id="patch_6">
    <path d="M 68.88375 7.2 
L 403.68375 7.2 
" style="fill:none;stroke:#000000;stroke-linecap:square;stroke-linejoin:miter;stroke-width:0.8;"/>
   </g>
   <g id="legend_1">
    <g id="patch_7">
     <path d="M 412.08375 205.915312 
L 548.28375 205.915312 
Q 550.68375 205.915312 550.68375 203.515312 
L 550.68375 28.324688 
Q 550.68375 25.924688 548.28375 25.924688 
L 412.08375 25.924688 
Q 409.68375 25.924688 409.68375 28.324688 
L 409.68375 203.515312 
Q 409.68375 205.915312 412.08375 205.915312 
z
" style="fill:#ffffff;opacity:0.8;stroke:#cccccc;stroke-linejoin:miter;"/>
    </g>
    <g id="line2d_28">
     <path d="M 414.48375 35.642812 
L 438.48375 35.642812 
" style="fill:none;stroke:#1f77b4;stroke-linecap:square;stroke-width:1.5;"/>
    </g>
    <g id="line2d_29"/>
    <g id="text_14">
     <!-- $\rho=0.005$ -->
     <g transform="translate(448.08375 39.842812)scale(0.12 -0.12)">
      <defs>
       <path d="M 18.796875 44.921875 
Q 22.703125 49.90625 30.953125 54.296875 
Q 34.1875 56 43.0625 56 
Q 53.03125 56 57.71875 48.09375 
Q 62.40625 40.1875 59.90625 27.296875 
Q 57.375 14.40625 49.609375 6.484375 
Q 41.84375 -1.421875 31.890625 -1.421875 
Q 25.875 -1.421875 22.015625 0.984375 
Q 18.171875 3.328125 16.3125 8.203125 
L 10.640625 -20.796875 
L 1.609375 -20.796875 
L 10.890625 26.8125 
Q 13.09375 38.09375 18.796875 44.921875 
z
M 50.59375 27.296875 
Q 52.484375 37.203125 49.515625 42.875 
Q 46.53125 48.484375 39.40625 48.484375 
Q 32.28125 48.484375 27.09375 42.875 
Q 21.921875 37.203125 20.015625 27.296875 
Q 18.0625 17.390625 21.046875 11.71875 
Q 24.03125 6.109375 31.15625 6.109375 
Q 38.28125 6.109375 43.453125 11.71875 
Q 48.640625 17.390625 50.59375 27.296875 
z
" id="DejaVuSans-Oblique-961"/>
       <path d="M 10.59375 45.40625 
L 73.1875 45.40625 
L 73.1875 37.203125 
L 10.59375 37.203125 
z
M 10.59375 25.484375 
L 73.1875 25.484375 
L 73.1875 17.1875 
L 10.59375 17.1875 
z
" id="DejaVuSans-61"/>
      </defs>
      <use transform="translate(0 0.78125)" xlink:href="#DejaVuSans-Oblique-961"/>
      <use transform="translate(82.958984 0.78125)" xlink:href="#DejaVuSans-61"/>
      <use transform="translate(186.230469 0.78125)" xlink:href="#DejaVuSans-48"/>
      <use transform="translate(249.853516 0.78125)" xlink:href="#DejaVuSans-46"/>
      <use transform="translate(281.640625 0.78125)" xlink:href="#DejaVuSans-48"/>
      <use transform="translate(345.263672 0.78125)" xlink:href="#DejaVuSans-48"/>
      <use transform="translate(408.886719 0.78125)" xlink:href="#DejaVuSans-53"/>
     </g>
    </g>
    <g id="line2d_30">
     <path d="M 414.48375 53.280937 
L 438.48375 53.280937 
" style="fill:none;stroke:#ff7f0e;stroke-linecap:square;stroke-width:1.5;"/>
    </g>
    <g id="line2d_31"/>
    <g id="text_15">
     <!-- $\rho=0.010$ -->
     <g transform="translate(448.08375 57.480937)scale(0.12 -0.12)">
      <use transform="translate(0 0.78125)" xlink:href="#DejaVuSans-Oblique-961"/>
      <use transform="translate(82.958984 0.78125)" xlink:href="#DejaVuSans-61"/>
      <use transform="translate(186.230469 0.78125)" xlink:href="#DejaVuSans-48"/>
      <use transform="translate(249.853516 0.78125)" xlink:href="#DejaVuSans-46"/>
      <use transform="translate(281.640625 0.78125)" xlink:href="#DejaVuSans-48"/>
      <use transform="translate(345.263672 0.78125)" xlink:href="#DejaVuSans-49"/>
      <use transform="translate(408.886719 0.78125)" xlink:href="#DejaVuSans-48"/>
     </g>
    </g>
    <g id="line2d_32">
     <path d="M 414.48375 70.919062 
L 438.48375 70.919062 
" style="fill:none;stroke:#2ca02c;stroke-linecap:square;stroke-width:1.5;"/>
    </g>
    <g id="line2d_33"/>
    <g id="text_16">
     <!-- $\rho=0.020$ -->
     <g transform="translate(448.08375 75.119062)scale(0.12 -0.12)">
      <use transform="translate(0 0.78125)" xlink:href="#DejaVuSans-Oblique-961"/>
      <use transform="translate(82.958984 0.78125)" xlink:href="#DejaVuSans-61"/>
      <use transform="translate(186.230469 0.78125)" xlink:href="#DejaVuSans-48"/>
      <use transform="translate(249.853516 0.78125)" xlink:href="#DejaVuSans-46"/>
      <use transform="translate(281.640625 0.78125)" xlink:href="#DejaVuSans-48"/>
      <use transform="translate(345.263672 0.78125)" xlink:href="#DejaVuSans-50"/>
      <use transform="translate(408.886719 0.78125)" xlink:href="#DejaVuSans-48"/>
     </g>
    </g>
    <g id="line2d_34">
     <path d="M 414.48375 88.557187 
L 438.48375 88.557187 
" style="fill:none;stroke:#d62728;stroke-linecap:square;stroke-width:1.5;"/>
    </g>
    <g id="line2d_35"/>
    <g id="text_17">
     <!-- $\rho=0.030$ -->
     <g transform="translate(448.08375 92.757187)scale(0.12 -0.12)">
      <use transform="translate(0 0.78125)" xlink:href="#DejaVuSans-Oblique-961"/>
      <use transform="translate(82.958984 0.78125)" xlink:href="#DejaVuSans-61"/>
      <use transform="translate(186.230469 0.78125)" xlink:href="#DejaVuSans-48"/>
      <use transform="translate(249.853516 0.78125)" xlink:href="#DejaVuSans-46"/>
      <use transform="translate(281.640625 0.78125)" xlink:href="#DejaVuSans-48"/>
      <use transform="translate(345.263672 0.78125)" xlink:href="#DejaVuSans-51"/>
      <use transform="translate(408.886719 0.78125)" xlink:href="#DejaVuSans-48"/>
     </g>
    </g>
    <g id="line2d_36">
     <path d="M 414.48375 106.195312 
L 438.48375 106.195312 
" style="fill:none;stroke:#9467bd;stroke-linecap:square;stroke-width:1.5;"/>
    </g>
    <g id="line2d_37"/>
    <g id="text_18">
     <!-- $\rho=0.040$ -->
     <g transform="translate(448.08375 110.395312)scale(0.12 -0.12)">
      <use transform="translate(0 0.78125)" xlink:href="#DejaVuSans-Oblique-961"/>
      <use transform="translate(82.958984 0.78125)" xlink:href="#DejaVuSans-61"/>
      <use transform="translate(186.230469 0.78125)" xlink:href="#DejaVuSans-48"/>
      <use transform="translate(249.853516 0.78125)" xlink:href="#DejaVuSans-46"/>
      <use transform="translate(281.640625 0.78125)" xlink:href="#DejaVuSans-48"/>
      <use transform="translate(345.263672 0.78125)" xlink:href="#DejaVuSans-52"/>
      <use transform="translate(408.886719 0.78125)" xlink:href="#DejaVuSans-48"/>
     </g>
    </g>
    <g id="PathCollection_6">
     <g>
      <use style="fill:#1f77b4;stroke:#1f77b4;stroke-width:1.5;" x="426.48375" xlink:href="#m819849a49f" y="124.885312"/>
     </g>
    </g>
    <g id="text_19">
     <!-- Valid.: $\rho=0.005$ -->
     <g transform="translate(448.08375 128.035312)scale(0.12 -0.12)">
      <defs>
       <path d="M 28.609375 0 
L 0.78125 72.90625 
L 11.078125 72.90625 
L 34.1875 11.53125 
L 57.328125 72.90625 
L 67.578125 72.90625 
L 39.796875 0 
z
" id="DejaVuSans-86"/>
       <path d="M 34.28125 27.484375 
Q 23.390625 27.484375 19.1875 25 
Q 14.984375 22.515625 14.984375 16.5 
Q 14.984375 11.71875 18.140625 8.90625 
Q 21.296875 6.109375 26.703125 6.109375 
Q 34.1875 6.109375 38.703125 11.40625 
Q 43.21875 16.703125 43.21875 25.484375 
L 43.21875 27.484375 
z
M 52.203125 31.203125 
L 52.203125 0 
L 43.21875 0 
L 43.21875 8.296875 
Q 40.140625 3.328125 35.546875 0.953125 
Q 30.953125 -1.421875 24.3125 -1.421875 
Q 15.921875 -1.421875 10.953125 3.296875 
Q 6 8.015625 6 15.921875 
Q 6 25.140625 12.171875 29.828125 
Q 18.359375 34.515625 30.609375 34.515625 
L 43.21875 34.515625 
L 43.21875 35.40625 
Q 43.21875 41.609375 39.140625 45 
Q 35.0625 48.390625 27.6875 48.390625 
Q 23 48.390625 18.546875 47.265625 
Q 14.109375 46.140625 10.015625 43.890625 
L 10.015625 52.203125 
Q 14.9375 54.109375 19.578125 55.046875 
Q 24.21875 56 28.609375 56 
Q 40.484375 56 46.34375 49.84375 
Q 52.203125 43.703125 52.203125 31.203125 
z
" id="DejaVuSans-97"/>
       <path d="M 9.421875 75.984375 
L 18.40625 75.984375 
L 18.40625 0 
L 9.421875 0 
z
" id="DejaVuSans-108"/>
       <path d="M 9.421875 54.6875 
L 18.40625 54.6875 
L 18.40625 0 
L 9.421875 0 
z
M 9.421875 75.984375 
L 18.40625 75.984375 
L 18.40625 64.59375 
L 9.421875 64.59375 
z
" id="DejaVuSans-105"/>
       <path d="M 45.40625 46.390625 
L 45.40625 75.984375 
L 54.390625 75.984375 
L 54.390625 0 
L 45.40625 0 
L 45.40625 8.203125 
Q 42.578125 3.328125 38.25 0.953125 
Q 33.9375 -1.421875 27.875 -1.421875 
Q 17.96875 -1.421875 11.734375 6.484375 
Q 5.515625 14.40625 5.515625 27.296875 
Q 5.515625 40.1875 11.734375 48.09375 
Q 17.96875 56 27.875 56 
Q 33.9375 56 38.25 53.625 
Q 42.578125 51.265625 45.40625 46.390625 
z
M 14.796875 27.296875 
Q 14.796875 17.390625 18.875 11.75 
Q 22.953125 6.109375 30.078125 6.109375 
Q 37.203125 6.109375 41.296875 11.75 
Q 45.40625 17.390625 45.40625 27.296875 
Q 45.40625 37.203125 41.296875 42.84375 
Q 37.203125 48.484375 30.078125 48.484375 
Q 22.953125 48.484375 18.875 42.84375 
Q 14.796875 37.203125 14.796875 27.296875 
z
" id="DejaVuSans-100"/>
       <path d="M 11.71875 12.40625 
L 22.015625 12.40625 
L 22.015625 0 
L 11.71875 0 
z
M 11.71875 51.703125 
L 22.015625 51.703125 
L 22.015625 39.3125 
L 11.71875 39.3125 
z
" id="DejaVuSans-58"/>
       <path id="DejaVuSans-32"/>
      </defs>
      <use transform="translate(0 0.015625)" xlink:href="#DejaVuSans-86"/>
      <use transform="translate(68.408203 0.015625)" xlink:href="#DejaVuSans-97"/>
      <use transform="translate(129.6875 0.015625)" xlink:href="#DejaVuSans-108"/>
      <use transform="translate(157.470703 0.015625)" xlink:href="#DejaVuSans-105"/>
      <use transform="translate(185.253906 0.015625)" xlink:href="#DejaVuSans-100"/>
      <use transform="translate(248.730469 0.015625)" xlink:href="#DejaVuSans-46"/>
      <use transform="translate(276.892578 0.015625)" xlink:href="#DejaVuSans-58"/>
      <use transform="translate(310.583984 0.015625)" xlink:href="#DejaVuSans-32"/>
      <use transform="translate(342.371094 0.015625)" xlink:href="#DejaVuSans-Oblique-961"/>
      <use transform="translate(425.330078 0.015625)" xlink:href="#DejaVuSans-61"/>
      <use transform="translate(528.601562 0.015625)" xlink:href="#DejaVuSans-48"/>
      <use transform="translate(592.224609 0.015625)" xlink:href="#DejaVuSans-46"/>
      <use transform="translate(624.011719 0.015625)" xlink:href="#DejaVuSans-48"/>
      <use transform="translate(687.634766 0.015625)" xlink:href="#DejaVuSans-48"/>
      <use transform="translate(751.257812 0.015625)" xlink:href="#DejaVuSans-53"/>
     </g>
    </g>
    <g id="PathCollection_7">
     <g>
      <use style="fill:#ff7f0e;stroke:#ff7f0e;stroke-width:1.5;" x="426.48375" xlink:href="#m4110d74777" y="142.525312"/>
     </g>
    </g>
    <g id="text_20">
     <!-- Valid.: $\rho=0.010$ -->
     <g transform="translate(448.08375 145.675312)scale(0.12 -0.12)">
      <use transform="translate(0 0.015625)" xlink:href="#DejaVuSans-86"/>
      <use transform="translate(68.408203 0.015625)" xlink:href="#DejaVuSans-97"/>
      <use transform="translate(129.6875 0.015625)" xlink:href="#DejaVuSans-108"/>
      <use transform="translate(157.470703 0.015625)" xlink:href="#DejaVuSans-105"/>
      <use transform="translate(185.253906 0.015625)" xlink:href="#DejaVuSans-100"/>
      <use transform="translate(248.730469 0.015625)" xlink:href="#DejaVuSans-46"/>
      <use transform="translate(276.892578 0.015625)" xlink:href="#DejaVuSans-58"/>
      <use transform="translate(310.583984 0.015625)" xlink:href="#DejaVuSans-32"/>
      <use transform="translate(342.371094 0.015625)" xlink:href="#DejaVuSans-Oblique-961"/>
      <use transform="translate(425.330078 0.015625)" xlink:href="#DejaVuSans-61"/>
      <use transform="translate(528.601562 0.015625)" xlink:href="#DejaVuSans-48"/>
      <use transform="translate(592.224609 0.015625)" xlink:href="#DejaVuSans-46"/>
      <use transform="translate(624.011719 0.015625)" xlink:href="#DejaVuSans-48"/>
      <use transform="translate(687.634766 0.015625)" xlink:href="#DejaVuSans-49"/>
      <use transform="translate(751.257812 0.015625)" xlink:href="#DejaVuSans-48"/>
     </g>
    </g>
    <g id="PathCollection_8">
     <g>
      <use style="fill:#2ca02c;stroke:#2ca02c;stroke-width:1.5;" x="426.48375" xlink:href="#mb2f9c5913b" y="160.165312"/>
     </g>
    </g>
    <g id="text_21">
     <!-- Valid.: $\rho=0.020$ -->
     <g transform="translate(448.08375 163.315312)scale(0.12 -0.12)">
      <use transform="translate(0 0.015625)" xlink:href="#DejaVuSans-86"/>
      <use transform="translate(68.408203 0.015625)" xlink:href="#DejaVuSans-97"/>
      <use transform="translate(129.6875 0.015625)" xlink:href="#DejaVuSans-108"/>
      <use transform="translate(157.470703 0.015625)" xlink:href="#DejaVuSans-105"/>
      <use transform="translate(185.253906 0.015625)" xlink:href="#DejaVuSans-100"/>
      <use transform="translate(248.730469 0.015625)" xlink:href="#DejaVuSans-46"/>
      <use transform="translate(276.892578 0.015625)" xlink:href="#DejaVuSans-58"/>
      <use transform="translate(310.583984 0.015625)" xlink:href="#DejaVuSans-32"/>
      <use transform="translate(342.371094 0.015625)" xlink:href="#DejaVuSans-Oblique-961"/>
      <use transform="translate(425.330078 0.015625)" xlink:href="#DejaVuSans-61"/>
      <use transform="translate(528.601562 0.015625)" xlink:href="#DejaVuSans-48"/>
      <use transform="translate(592.224609 0.015625)" xlink:href="#DejaVuSans-46"/>
      <use transform="translate(624.011719 0.015625)" xlink:href="#DejaVuSans-48"/>
      <use transform="translate(687.634766 0.015625)" xlink:href="#DejaVuSans-50"/>
      <use transform="translate(751.257812 0.015625)" xlink:href="#DejaVuSans-48"/>
     </g>
    </g>
    <g id="PathCollection_9">
     <g>
      <use style="fill:#d62728;stroke:#d62728;stroke-width:1.5;" x="426.48375" xlink:href="#md532260fa3" y="177.805312"/>
     </g>
    </g>
    <g id="text_22">
     <!-- Valid.: $\rho=0.030$ -->
     <g transform="translate(448.08375 180.955312)scale(0.12 -0.12)">
      <use transform="translate(0 0.015625)" xlink:href="#DejaVuSans-86"/>
      <use transform="translate(68.408203 0.015625)" xlink:href="#DejaVuSans-97"/>
      <use transform="translate(129.6875 0.015625)" xlink:href="#DejaVuSans-108"/>
      <use transform="translate(157.470703 0.015625)" xlink:href="#DejaVuSans-105"/>
      <use transform="translate(185.253906 0.015625)" xlink:href="#DejaVuSans-100"/>
      <use transform="translate(248.730469 0.015625)" xlink:href="#DejaVuSans-46"/>
      <use transform="translate(276.892578 0.015625)" xlink:href="#DejaVuSans-58"/>
      <use transform="translate(310.583984 0.015625)" xlink:href="#DejaVuSans-32"/>
      <use transform="translate(342.371094 0.015625)" xlink:href="#DejaVuSans-Oblique-961"/>
      <use transform="translate(425.330078 0.015625)" xlink:href="#DejaVuSans-61"/>
      <use transform="translate(528.601562 0.015625)" xlink:href="#DejaVuSans-48"/>
      <use transform="translate(592.224609 0.015625)" xlink:href="#DejaVuSans-46"/>
      <use transform="translate(624.011719 0.015625)" xlink:href="#DejaVuSans-48"/>
      <use transform="translate(687.634766 0.015625)" xlink:href="#DejaVuSans-51"/>
      <use transform="translate(751.257812 0.015625)" xlink:href="#DejaVuSans-48"/>
     </g>
    </g>
    <g id="PathCollection_10">
     <g>
      <use style="fill:#9467bd;stroke:#9467bd;stroke-width:1.5;" x="426.48375" xlink:href="#m2788144c48" y="195.445312"/>
     </g>
    </g>
    <g id="text_23">
     <!-- Valid.: $\rho=0.040$ -->
     <g transform="translate(448.08375 198.595313)scale(0.12 -0.12)">
      <use transform="translate(0 0.015625)" xlink:href="#DejaVuSans-86"/>
      <use transform="translate(68.408203 0.015625)" xlink:href="#DejaVuSans-97"/>
      <use transform="translate(129.6875 0.015625)" xlink:href="#DejaVuSans-108"/>
      <use transform="translate(157.470703 0.015625)" xlink:href="#DejaVuSans-105"/>
      <use transform="translate(185.253906 0.015625)" xlink:href="#DejaVuSans-100"/>
      <use transform="translate(248.730469 0.015625)" xlink:href="#DejaVuSans-46"/>
      <use transform="translate(276.892578 0.015625)" xlink:href="#DejaVuSans-58"/>
      <use transform="translate(310.583984 0.015625)" xlink:href="#DejaVuSans-32"/>
      <use transform="translate(342.371094 0.015625)" xlink:href="#DejaVuSans-Oblique-961"/>
      <use transform="translate(425.330078 0.015625)" xlink:href="#DejaVuSans-61"/>
      <use transform="translate(528.601562 0.015625)" xlink:href="#DejaVuSans-48"/>
      <use transform="translate(592.224609 0.015625)" xlink:href="#DejaVuSans-46"/>
      <use transform="translate(624.011719 0.015625)" xlink:href="#DejaVuSans-48"/>
      <use transform="translate(687.634766 0.015625)" xlink:href="#DejaVuSans-52"/>
      <use transform="translate(751.257812 0.015625)" xlink:href="#DejaVuSans-48"/>
     </g>
    </g>
   </g>
  </g>
 </g>
 <defs>
  <clipPath id="pdf4d6666b5">
   <rect height="217.44" width="334.8" x="68.88375" y="7.2"/>
  </clipPath>
 </defs>
</svg>
