<?xml version="1.0" encoding="utf-8" standalone="no"?>
<!DOCTYPE svg PUBLIC "-//W3C//DTD SVG 1.1//EN"
  "http://www.w3.org/Graphics/SVG/1.1/DTD/svg11.dtd">
<!-- Created with matplotlib (https://matplotlib.org/) -->
<svg height="277.714375pt" version="1.1" viewBox="0 0 719.628125 277.714375" width="719.628125pt" xmlns="http://www.w3.org/2000/svg" xmlns:xlink="http://www.w3.org/1999/xlink">
 <metadata>
  <rdf:RDF xmlns:cc="http://creativecommons.org/ns#" xmlns:dc="http://purl.org/dc/elements/1.1/" xmlns:rdf="http://www.w3.org/1999/02/22-rdf-syntax-ns#">
   <cc:Work>
    <dc:type rdf:resource="http://purl.org/dc/dcmitype/StillImage"/>
    <dc:date>2021-01-17T19:46:29.008240</dc:date>
    <dc:format>image/svg+xml</dc:format>
    <dc:creator>
     <cc:Agent>
      <dc:title>Matplotlib v3.3.2, https://matplotlib.org/</dc:title>
     </cc:Agent>
    </dc:creator>
   </cc:Work>
  </rdf:RDF>
 </metadata>
 <defs>
  <style type="text/css">*{stroke-linecap:butt;stroke-linejoin:round;}</style>
 </defs>
 <g id="figure_1">
  <g id="patch_1">
   <path d="M 0 277.714375 
L 719.628125 277.714375 
L 719.628125 0 
L 0 0 
z
" style="fill:none;"/>
  </g>
  <g id="axes_1">
   <g id="patch_2">
    <path d="M 42.828125 239.758125 
L 347.191761 239.758125 
L 347.191761 22.318125 
L 42.828125 22.318125 
z
" style="fill:#ffffff;"/>
   </g>
   <g id="matplotlib.axis_1">
    <g id="xtick_1">
     <g id="line2d_1">
      <path clip-path="url(#p7efa9778e4)" d="M 87.406637 239.758125 
L 87.406637 22.318125 
" style="fill:none;stroke:#b0b0b0;stroke-linecap:square;stroke-width:0.8;"/>
     </g>
     <g id="line2d_2">
      <defs>
       <path d="M 0 0 
L 0 3.5 
" id="mb41acd5528" style="stroke:#000000;stroke-width:0.8;"/>
      </defs>
      <g>
       <use style="stroke:#000000;stroke-width:0.8;" x="87.406637" xlink:href="#mb41acd5528" y="239.758125"/>
      </g>
     </g>
     <g id="text_1">
      <!-- 50 -->
      <g transform="translate(81.044137 254.356563)scale(0.1 -0.1)">
       <defs>
        <path d="M 10.796875 72.90625 
L 49.515625 72.90625 
L 49.515625 64.59375 
L 19.828125 64.59375 
L 19.828125 46.734375 
Q 21.96875 47.46875 24.109375 47.828125 
Q 26.265625 48.1875 28.421875 48.1875 
Q 40.625 48.1875 47.75 41.5 
Q 54.890625 34.8125 54.890625 23.390625 
Q 54.890625 11.625 47.5625 5.09375 
Q 40.234375 -1.421875 26.90625 -1.421875 
Q 22.3125 -1.421875 17.546875 -0.640625 
Q 12.796875 0.140625 7.71875 1.703125 
L 7.71875 11.625 
Q 12.109375 9.234375 16.796875 8.0625 
Q 21.484375 6.890625 26.703125 6.890625 
Q 35.15625 6.890625 40.078125 11.328125 
Q 45.015625 15.765625 45.015625 23.390625 
Q 45.015625 31 40.078125 35.4375 
Q 35.15625 39.890625 26.703125 39.890625 
Q 22.75 39.890625 18.8125 39.015625 
Q 14.890625 38.140625 10.796875 36.28125 
z
" id="DejaVuSans-53"/>
        <path d="M 31.78125 66.40625 
Q 24.171875 66.40625 20.328125 58.90625 
Q 16.5 51.421875 16.5 36.375 
Q 16.5 21.390625 20.328125 13.890625 
Q 24.171875 6.390625 31.78125 6.390625 
Q 39.453125 6.390625 43.28125 13.890625 
Q 47.125 21.390625 47.125 36.375 
Q 47.125 51.421875 43.28125 58.90625 
Q 39.453125 66.40625 31.78125 66.40625 
z
M 31.78125 74.21875 
Q 44.046875 74.21875 50.515625 64.515625 
Q 56.984375 54.828125 56.984375 36.375 
Q 56.984375 17.96875 50.515625 8.265625 
Q 44.046875 -1.421875 31.78125 -1.421875 
Q 19.53125 -1.421875 13.0625 8.265625 
Q 6.59375 17.96875 6.59375 36.375 
Q 6.59375 54.828125 13.0625 64.515625 
Q 19.53125 74.21875 31.78125 74.21875 
z
" id="DejaVuSans-48"/>
       </defs>
       <use xlink:href="#DejaVuSans-53"/>
       <use x="63.623047" xlink:href="#DejaVuSans-48"/>
      </g>
     </g>
    </g>
    <g id="xtick_2">
     <g id="line2d_3">
      <path clip-path="url(#p7efa9778e4)" d="M 148.894241 239.758125 
L 148.894241 22.318125 
" style="fill:none;stroke:#b0b0b0;stroke-linecap:square;stroke-width:0.8;"/>
     </g>
     <g id="line2d_4">
      <g>
       <use style="stroke:#000000;stroke-width:0.8;" x="148.894241" xlink:href="#mb41acd5528" y="239.758125"/>
      </g>
     </g>
     <g id="text_2">
      <!-- 100 -->
      <g transform="translate(139.350491 254.356563)scale(0.1 -0.1)">
       <defs>
        <path d="M 12.40625 8.296875 
L 28.515625 8.296875 
L 28.515625 63.921875 
L 10.984375 60.40625 
L 10.984375 69.390625 
L 28.421875 72.90625 
L 38.28125 72.90625 
L 38.28125 8.296875 
L 54.390625 8.296875 
L 54.390625 0 
L 12.40625 0 
z
" id="DejaVuSans-49"/>
       </defs>
       <use xlink:href="#DejaVuSans-49"/>
       <use x="63.623047" xlink:href="#DejaVuSans-48"/>
       <use x="127.246094" xlink:href="#DejaVuSans-48"/>
      </g>
     </g>
    </g>
    <g id="xtick_3">
     <g id="line2d_5">
      <path clip-path="url(#p7efa9778e4)" d="M 210.381844 239.758125 
L 210.381844 22.318125 
" style="fill:none;stroke:#b0b0b0;stroke-linecap:square;stroke-width:0.8;"/>
     </g>
     <g id="line2d_6">
      <g>
       <use style="stroke:#000000;stroke-width:0.8;" x="210.381844" xlink:href="#mb41acd5528" y="239.758125"/>
      </g>
     </g>
     <g id="text_3">
      <!-- 150 -->
      <g transform="translate(200.838094 254.356563)scale(0.1 -0.1)">
       <use xlink:href="#DejaVuSans-49"/>
       <use x="63.623047" xlink:href="#DejaVuSans-53"/>
       <use x="127.246094" xlink:href="#DejaVuSans-48"/>
      </g>
     </g>
    </g>
    <g id="xtick_4">
     <g id="line2d_7">
      <path clip-path="url(#p7efa9778e4)" d="M 271.869447 239.758125 
L 271.869447 22.318125 
" style="fill:none;stroke:#b0b0b0;stroke-linecap:square;stroke-width:0.8;"/>
     </g>
     <g id="line2d_8">
      <g>
       <use style="stroke:#000000;stroke-width:0.8;" x="271.869447" xlink:href="#mb41acd5528" y="239.758125"/>
      </g>
     </g>
     <g id="text_4">
      <!-- 200 -->
      <g transform="translate(262.325697 254.356563)scale(0.1 -0.1)">
       <defs>
        <path d="M 19.1875 8.296875 
L 53.609375 8.296875 
L 53.609375 0 
L 7.328125 0 
L 7.328125 8.296875 
Q 12.9375 14.109375 22.625 23.890625 
Q 32.328125 33.6875 34.8125 36.53125 
Q 39.546875 41.84375 41.421875 45.53125 
Q 43.3125 49.21875 43.3125 52.78125 
Q 43.3125 58.59375 39.234375 62.25 
Q 35.15625 65.921875 28.609375 65.921875 
Q 23.96875 65.921875 18.8125 64.3125 
Q 13.671875 62.703125 7.8125 59.421875 
L 7.8125 69.390625 
Q 13.765625 71.78125 18.9375 73 
Q 24.125 74.21875 28.421875 74.21875 
Q 39.75 74.21875 46.484375 68.546875 
Q 53.21875 62.890625 53.21875 53.421875 
Q 53.21875 48.921875 51.53125 44.890625 
Q 49.859375 40.875 45.40625 35.40625 
Q 44.1875 33.984375 37.640625 27.21875 
Q 31.109375 20.453125 19.1875 8.296875 
z
" id="DejaVuSans-50"/>
       </defs>
       <use xlink:href="#DejaVuSans-50"/>
       <use x="63.623047" xlink:href="#DejaVuSans-48"/>
       <use x="127.246094" xlink:href="#DejaVuSans-48"/>
      </g>
     </g>
    </g>
    <g id="xtick_5">
     <g id="line2d_9">
      <path clip-path="url(#p7efa9778e4)" d="M 333.357051 239.758125 
L 333.357051 22.318125 
" style="fill:none;stroke:#b0b0b0;stroke-linecap:square;stroke-width:0.8;"/>
     </g>
     <g id="line2d_10">
      <g>
       <use style="stroke:#000000;stroke-width:0.8;" x="333.357051" xlink:href="#mb41acd5528" y="239.758125"/>
      </g>
     </g>
     <g id="text_5">
      <!-- 250 -->
      <g transform="translate(323.813301 254.356563)scale(0.1 -0.1)">
       <use xlink:href="#DejaVuSans-50"/>
       <use x="63.623047" xlink:href="#DejaVuSans-53"/>
       <use x="127.246094" xlink:href="#DejaVuSans-48"/>
      </g>
     </g>
    </g>
    <g id="text_6">
     <!-- Máxima precipitação diária [mm] -->
     <g transform="translate(112.011506 268.434687)scale(0.1 -0.1)">
      <defs>
       <path d="M 9.8125 72.90625 
L 24.515625 72.90625 
L 43.109375 23.296875 
L 61.8125 72.90625 
L 76.515625 72.90625 
L 76.515625 0 
L 66.890625 0 
L 66.890625 64.015625 
L 48.09375 14.015625 
L 38.1875 14.015625 
L 19.390625 64.015625 
L 19.390625 0 
L 9.8125 0 
z
" id="DejaVuSans-77"/>
       <path d="M 34.28125 27.484375 
Q 23.390625 27.484375 19.1875 25 
Q 14.984375 22.515625 14.984375 16.5 
Q 14.984375 11.71875 18.140625 8.90625 
Q 21.296875 6.109375 26.703125 6.109375 
Q 34.1875 6.109375 38.703125 11.40625 
Q 43.21875 16.703125 43.21875 25.484375 
L 43.21875 27.484375 
z
M 52.203125 31.203125 
L 52.203125 0 
L 43.21875 0 
L 43.21875 8.296875 
Q 40.140625 3.328125 35.546875 0.953125 
Q 30.953125 -1.421875 24.3125 -1.421875 
Q 15.921875 -1.421875 10.953125 3.296875 
Q 6 8.015625 6 15.921875 
Q 6 25.140625 12.171875 29.828125 
Q 18.359375 34.515625 30.609375 34.515625 
L 43.21875 34.515625 
L 43.21875 35.40625 
Q 43.21875 41.609375 39.140625 45 
Q 35.0625 48.390625 27.6875 48.390625 
Q 23 48.390625 18.546875 47.265625 
Q 14.109375 46.140625 10.015625 43.890625 
L 10.015625 52.203125 
Q 14.9375 54.109375 19.578125 55.046875 
Q 24.21875 56 28.609375 56 
Q 40.484375 56 46.34375 49.84375 
Q 52.203125 43.703125 52.203125 31.203125 
z
M 35.796875 79.984375 
L 45.515625 79.984375 
L 29.59375 61.625 
L 22.125 61.625 
z
" id="DejaVuSans-225"/>
       <path d="M 54.890625 54.6875 
L 35.109375 28.078125 
L 55.90625 0 
L 45.3125 0 
L 29.390625 21.484375 
L 13.484375 0 
L 2.875 0 
L 24.125 28.609375 
L 4.6875 54.6875 
L 15.28125 54.6875 
L 29.78125 35.203125 
L 44.28125 54.6875 
z
" id="DejaVuSans-120"/>
       <path d="M 9.421875 54.6875 
L 18.40625 54.6875 
L 18.40625 0 
L 9.421875 0 
z
M 9.421875 75.984375 
L 18.40625 75.984375 
L 18.40625 64.59375 
L 9.421875 64.59375 
z
" id="DejaVuSans-105"/>
       <path d="M 52 44.1875 
Q 55.375 50.25 60.0625 53.125 
Q 64.75 56 71.09375 56 
Q 79.640625 56 84.28125 50.015625 
Q 88.921875 44.046875 88.921875 33.015625 
L 88.921875 0 
L 79.890625 0 
L 79.890625 32.71875 
Q 79.890625 40.578125 77.09375 44.375 
Q 74.3125 48.1875 68.609375 48.1875 
Q 61.625 48.1875 57.5625 43.546875 
Q 53.515625 38.921875 53.515625 30.90625 
L 53.515625 0 
L 44.484375 0 
L 44.484375 32.71875 
Q 44.484375 40.625 41.703125 44.40625 
Q 38.921875 48.1875 33.109375 48.1875 
Q 26.21875 48.1875 22.15625 43.53125 
Q 18.109375 38.875 18.109375 30.90625 
L 18.109375 0 
L 9.078125 0 
L 9.078125 54.6875 
L 18.109375 54.6875 
L 18.109375 46.1875 
Q 21.1875 51.21875 25.484375 53.609375 
Q 29.78125 56 35.6875 56 
Q 41.65625 56 45.828125 52.96875 
Q 50 49.953125 52 44.1875 
z
" id="DejaVuSans-109"/>
       <path d="M 34.28125 27.484375 
Q 23.390625 27.484375 19.1875 25 
Q 14.984375 22.515625 14.984375 16.5 
Q 14.984375 11.71875 18.140625 8.90625 
Q 21.296875 6.109375 26.703125 6.109375 
Q 34.1875 6.109375 38.703125 11.40625 
Q 43.21875 16.703125 43.21875 25.484375 
L 43.21875 27.484375 
z
M 52.203125 31.203125 
L 52.203125 0 
L 43.21875 0 
L 43.21875 8.296875 
Q 40.140625 3.328125 35.546875 0.953125 
Q 30.953125 -1.421875 24.3125 -1.421875 
Q 15.921875 -1.421875 10.953125 3.296875 
Q 6 8.015625 6 15.921875 
Q 6 25.140625 12.171875 29.828125 
Q 18.359375 34.515625 30.609375 34.515625 
L 43.21875 34.515625 
L 43.21875 35.40625 
Q 43.21875 41.609375 39.140625 45 
Q 35.0625 48.390625 27.6875 48.390625 
Q 23 48.390625 18.546875 47.265625 
Q 14.109375 46.140625 10.015625 43.890625 
L 10.015625 52.203125 
Q 14.9375 54.109375 19.578125 55.046875 
Q 24.21875 56 28.609375 56 
Q 40.484375 56 46.34375 49.84375 
Q 52.203125 43.703125 52.203125 31.203125 
z
" id="DejaVuSans-97"/>
       <path id="DejaVuSans-32"/>
       <path d="M 18.109375 8.203125 
L 18.109375 -20.796875 
L 9.078125 -20.796875 
L 9.078125 54.6875 
L 18.109375 54.6875 
L 18.109375 46.390625 
Q 20.953125 51.265625 25.265625 53.625 
Q 29.59375 56 35.59375 56 
Q 45.5625 56 51.78125 48.09375 
Q 58.015625 40.1875 58.015625 27.296875 
Q 58.015625 14.40625 51.78125 6.484375 
Q 45.5625 -1.421875 35.59375 -1.421875 
Q 29.59375 -1.421875 25.265625 0.953125 
Q 20.953125 3.328125 18.109375 8.203125 
z
M 48.6875 27.296875 
Q 48.6875 37.203125 44.609375 42.84375 
Q 40.53125 48.484375 33.40625 48.484375 
Q 26.265625 48.484375 22.1875 42.84375 
Q 18.109375 37.203125 18.109375 27.296875 
Q 18.109375 17.390625 22.1875 11.75 
Q 26.265625 6.109375 33.40625 6.109375 
Q 40.53125 6.109375 44.609375 11.75 
Q 48.6875 17.390625 48.6875 27.296875 
z
" id="DejaVuSans-112"/>
       <path d="M 41.109375 46.296875 
Q 39.59375 47.171875 37.8125 47.578125 
Q 36.03125 48 33.890625 48 
Q 26.265625 48 22.1875 43.046875 
Q 18.109375 38.09375 18.109375 28.8125 
L 18.109375 0 
L 9.078125 0 
L 9.078125 54.6875 
L 18.109375 54.6875 
L 18.109375 46.1875 
Q 20.953125 51.171875 25.484375 53.578125 
Q 30.03125 56 36.53125 56 
Q 37.453125 56 38.578125 55.875 
Q 39.703125 55.765625 41.0625 55.515625 
z
" id="DejaVuSans-114"/>
       <path d="M 56.203125 29.59375 
L 56.203125 25.203125 
L 14.890625 25.203125 
Q 15.484375 15.921875 20.484375 11.0625 
Q 25.484375 6.203125 34.421875 6.203125 
Q 39.59375 6.203125 44.453125 7.46875 
Q 49.3125 8.734375 54.109375 11.28125 
L 54.109375 2.78125 
Q 49.265625 0.734375 44.1875 -0.34375 
Q 39.109375 -1.421875 33.890625 -1.421875 
Q 20.796875 -1.421875 13.15625 6.1875 
Q 5.515625 13.8125 5.515625 26.8125 
Q 5.515625 40.234375 12.765625 48.109375 
Q 20.015625 56 32.328125 56 
Q 43.359375 56 49.78125 48.890625 
Q 56.203125 41.796875 56.203125 29.59375 
z
M 47.21875 32.234375 
Q 47.125 39.59375 43.09375 43.984375 
Q 39.0625 48.390625 32.421875 48.390625 
Q 24.90625 48.390625 20.390625 44.140625 
Q 15.875 39.890625 15.1875 32.171875 
z
" id="DejaVuSans-101"/>
       <path d="M 48.78125 52.59375 
L 48.78125 44.1875 
Q 44.96875 46.296875 41.140625 47.34375 
Q 37.3125 48.390625 33.40625 48.390625 
Q 24.65625 48.390625 19.8125 42.84375 
Q 14.984375 37.3125 14.984375 27.296875 
Q 14.984375 17.28125 19.8125 11.734375 
Q 24.65625 6.203125 33.40625 6.203125 
Q 37.3125 6.203125 41.140625 7.25 
Q 44.96875 8.296875 48.78125 10.40625 
L 48.78125 2.09375 
Q 45.015625 0.34375 40.984375 -0.53125 
Q 36.96875 -1.421875 32.421875 -1.421875 
Q 20.0625 -1.421875 12.78125 6.34375 
Q 5.515625 14.109375 5.515625 27.296875 
Q 5.515625 40.671875 12.859375 48.328125 
Q 20.21875 56 33.015625 56 
Q 37.15625 56 41.109375 55.140625 
Q 45.0625 54.296875 48.78125 52.59375 
z
" id="DejaVuSans-99"/>
       <path d="M 18.3125 70.21875 
L 18.3125 54.6875 
L 36.8125 54.6875 
L 36.8125 47.703125 
L 18.3125 47.703125 
L 18.3125 18.015625 
Q 18.3125 11.328125 20.140625 9.421875 
Q 21.96875 7.515625 27.59375 7.515625 
L 36.8125 7.515625 
L 36.8125 0 
L 27.59375 0 
Q 17.1875 0 13.234375 3.875 
Q 9.28125 7.765625 9.28125 18.015625 
L 9.28125 47.703125 
L 2.6875 47.703125 
L 2.6875 54.6875 
L 9.28125 54.6875 
L 9.28125 70.21875 
z
" id="DejaVuSans-116"/>
       <path d="M 48.78125 52.59375 
L 48.78125 44.1875 
Q 44.96875 46.296875 41.140625 47.34375 
Q 37.3125 48.390625 33.40625 48.390625 
Q 24.65625 48.390625 19.8125 42.84375 
Q 14.984375 37.3125 14.984375 27.296875 
Q 14.984375 17.28125 19.8125 11.734375 
Q 24.65625 6.203125 33.40625 6.203125 
Q 37.3125 6.203125 41.140625 7.25 
Q 44.96875 8.296875 48.78125 10.40625 
L 48.78125 2.09375 
Q 45.015625 0.34375 40.984375 -0.53125 
Q 36.96875 -1.421875 32.421875 -1.421875 
Q 20.0625 -1.421875 12.78125 6.34375 
Q 5.515625 14.109375 5.515625 27.296875 
Q 5.515625 40.671875 12.859375 48.328125 
Q 20.21875 56 33.015625 56 
Q 37.15625 56 41.109375 55.140625 
Q 45.0625 54.296875 48.78125 52.59375 
z
M 36.078125 0 
Q 38.765625 -3.03125 40.078125 -5.59375 
Q 41.40625 -8.15625 41.40625 -10.5 
Q 41.40625 -14.84375 38.46875 -17.0625 
Q 35.546875 -19.28125 29.78125 -19.28125 
Q 27.546875 -19.28125 25.421875 -18.984375 
Q 23.296875 -18.703125 21.1875 -18.109375 
L 21.1875 -11.71875 
Q 22.859375 -12.546875 24.65625 -12.90625 
Q 26.46875 -13.28125 28.765625 -13.28125 
Q 31.640625 -13.28125 33.109375 -12.109375 
Q 34.578125 -10.9375 34.578125 -8.6875 
Q 34.578125 -7.234375 33.515625 -5.109375 
Q 32.46875 -2.984375 30.28125 0 
z
" id="DejaVuSans-231"/>
       <path d="M 34.28125 27.484375 
Q 23.390625 27.484375 19.1875 25 
Q 14.984375 22.515625 14.984375 16.5 
Q 14.984375 11.71875 18.140625 8.90625 
Q 21.296875 6.109375 26.703125 6.109375 
Q 34.1875 6.109375 38.703125 11.40625 
Q 43.21875 16.703125 43.21875 25.484375 
L 43.21875 27.484375 
z
M 52.203125 31.203125 
L 52.203125 0 
L 43.21875 0 
L 43.21875 8.296875 
Q 40.140625 3.328125 35.546875 0.953125 
Q 30.953125 -1.421875 24.3125 -1.421875 
Q 15.921875 -1.421875 10.953125 3.296875 
Q 6 8.015625 6 15.921875 
Q 6 25.140625 12.171875 29.828125 
Q 18.359375 34.515625 30.609375 34.515625 
L 43.21875 34.515625 
L 43.21875 35.40625 
Q 43.21875 41.609375 39.140625 45 
Q 35.0625 48.390625 27.6875 48.390625 
Q 23 48.390625 18.546875 47.265625 
Q 14.109375 46.140625 10.015625 43.890625 
L 10.015625 52.203125 
Q 14.9375 54.109375 19.578125 55.046875 
Q 24.21875 56 28.609375 56 
Q 40.484375 56 46.34375 49.84375 
Q 52.203125 43.703125 52.203125 31.203125 
z
M 28.8125 66.890625 
L 26.03125 69.578125 
Q 24.953125 70.5625 24.140625 71.015625 
Q 23.34375 71.484375 22.703125 71.484375 
Q 20.84375 71.484375 19.96875 69.703125 
Q 19.09375 67.921875 19 63.921875 
L 12.890625 63.921875 
Q 12.984375 70.515625 15.46875 74.09375 
Q 17.96875 77.6875 22.40625 77.6875 
Q 24.265625 77.6875 25.828125 77 
Q 27.390625 76.3125 29.203125 74.703125 
L 31.984375 72.015625 
Q 33.0625 71.046875 33.859375 70.578125 
Q 34.671875 70.125 35.296875 70.125 
Q 37.15625 70.125 38.03125 71.90625 
Q 38.921875 73.6875 39.015625 77.6875 
L 45.125 77.6875 
Q 45.015625 71.09375 42.53125 67.5 
Q 40.046875 63.921875 35.59375 63.921875 
Q 33.734375 63.921875 32.171875 64.59375 
Q 30.609375 65.28125 28.8125 66.890625 
z
" id="DejaVuSans-227"/>
       <path d="M 30.609375 48.390625 
Q 23.390625 48.390625 19.1875 42.75 
Q 14.984375 37.109375 14.984375 27.296875 
Q 14.984375 17.484375 19.15625 11.84375 
Q 23.34375 6.203125 30.609375 6.203125 
Q 37.796875 6.203125 41.984375 11.859375 
Q 46.1875 17.53125 46.1875 27.296875 
Q 46.1875 37.015625 41.984375 42.703125 
Q 37.796875 48.390625 30.609375 48.390625 
z
M 30.609375 56 
Q 42.328125 56 49.015625 48.375 
Q 55.71875 40.765625 55.71875 27.296875 
Q 55.71875 13.875 49.015625 6.21875 
Q 42.328125 -1.421875 30.609375 -1.421875 
Q 18.84375 -1.421875 12.171875 6.21875 
Q 5.515625 13.875 5.515625 27.296875 
Q 5.515625 40.765625 12.171875 48.375 
Q 18.84375 56 30.609375 56 
z
" id="DejaVuSans-111"/>
       <path d="M 45.40625 46.390625 
L 45.40625 75.984375 
L 54.390625 75.984375 
L 54.390625 0 
L 45.40625 0 
L 45.40625 8.203125 
Q 42.578125 3.328125 38.25 0.953125 
Q 33.9375 -1.421875 27.875 -1.421875 
Q 17.96875 -1.421875 11.734375 6.484375 
Q 5.515625 14.40625 5.515625 27.296875 
Q 5.515625 40.1875 11.734375 48.09375 
Q 17.96875 56 27.875 56 
Q 33.9375 56 38.25 53.625 
Q 42.578125 51.265625 45.40625 46.390625 
z
M 14.796875 27.296875 
Q 14.796875 17.390625 18.875 11.75 
Q 22.953125 6.109375 30.078125 6.109375 
Q 37.203125 6.109375 41.296875 11.75 
Q 45.40625 17.390625 45.40625 27.296875 
Q 45.40625 37.203125 41.296875 42.84375 
Q 37.203125 48.484375 30.078125 48.484375 
Q 22.953125 48.484375 18.875 42.84375 
Q 14.796875 37.203125 14.796875 27.296875 
z
" id="DejaVuSans-100"/>
       <path d="M 8.59375 75.984375 
L 29.296875 75.984375 
L 29.296875 69 
L 17.578125 69 
L 17.578125 -6.203125 
L 29.296875 -6.203125 
L 29.296875 -13.1875 
L 8.59375 -13.1875 
z
" id="DejaVuSans-91"/>
       <path d="M 30.421875 75.984375 
L 30.421875 -13.1875 
L 9.71875 -13.1875 
L 9.71875 -6.203125 
L 21.390625 -6.203125 
L 21.390625 69 
L 9.71875 69 
L 9.71875 75.984375 
z
" id="DejaVuSans-93"/>
      </defs>
      <use xlink:href="#DejaVuSans-77"/>
      <use x="86.279297" xlink:href="#DejaVuSans-225"/>
      <use x="147.558594" xlink:href="#DejaVuSans-120"/>
      <use x="206.738281" xlink:href="#DejaVuSans-105"/>
      <use x="234.521484" xlink:href="#DejaVuSans-109"/>
      <use x="331.933594" xlink:href="#DejaVuSans-97"/>
      <use x="393.212891" xlink:href="#DejaVuSans-32"/>
      <use x="425" xlink:href="#DejaVuSans-112"/>
      <use x="488.476562" xlink:href="#DejaVuSans-114"/>
      <use x="527.339844" xlink:href="#DejaVuSans-101"/>
      <use x="588.863281" xlink:href="#DejaVuSans-99"/>
      <use x="643.84375" xlink:href="#DejaVuSans-105"/>
      <use x="671.626953" xlink:href="#DejaVuSans-112"/>
      <use x="735.103516" xlink:href="#DejaVuSans-105"/>
      <use x="762.886719" xlink:href="#DejaVuSans-116"/>
      <use x="802.095703" xlink:href="#DejaVuSans-97"/>
      <use x="863.375" xlink:href="#DejaVuSans-231"/>
      <use x="918.355469" xlink:href="#DejaVuSans-227"/>
      <use x="979.634766" xlink:href="#DejaVuSans-111"/>
      <use x="1040.816406" xlink:href="#DejaVuSans-32"/>
      <use x="1072.603516" xlink:href="#DejaVuSans-100"/>
      <use x="1136.080078" xlink:href="#DejaVuSans-105"/>
      <use x="1163.863281" xlink:href="#DejaVuSans-225"/>
      <use x="1225.142578" xlink:href="#DejaVuSans-114"/>
      <use x="1266.255859" xlink:href="#DejaVuSans-105"/>
      <use x="1294.039062" xlink:href="#DejaVuSans-97"/>
      <use x="1355.318359" xlink:href="#DejaVuSans-32"/>
      <use x="1387.105469" xlink:href="#DejaVuSans-91"/>
      <use x="1426.119141" xlink:href="#DejaVuSans-109"/>
      <use x="1523.53125" xlink:href="#DejaVuSans-109"/>
      <use x="1620.943359" xlink:href="#DejaVuSans-93"/>
     </g>
    </g>
   </g>
   <g id="matplotlib.axis_2">
    <g id="ytick_1">
     <g id="line2d_11">
      <path clip-path="url(#p7efa9778e4)" d="M 42.828125 229.874489 
L 347.191761 229.874489 
" style="fill:none;stroke:#b0b0b0;stroke-linecap:square;stroke-width:0.8;"/>
     </g>
     <g id="line2d_12">
      <defs>
       <path d="M 0 0 
L -3.5 0 
" id="m0d917cb7cb" style="stroke:#000000;stroke-width:0.8;"/>
      </defs>
      <g>
       <use style="stroke:#000000;stroke-width:0.8;" x="42.828125" xlink:href="#m0d917cb7cb" y="229.874489"/>
      </g>
     </g>
     <g id="text_7">
      <!-- 0.000 -->
      <g transform="translate(7.2 233.673707)scale(0.1 -0.1)">
       <defs>
        <path d="M 10.6875 12.40625 
L 21 12.40625 
L 21 0 
L 10.6875 0 
z
" id="DejaVuSans-46"/>
       </defs>
       <use xlink:href="#DejaVuSans-48"/>
       <use x="63.623047" xlink:href="#DejaVuSans-46"/>
       <use x="95.410156" xlink:href="#DejaVuSans-48"/>
       <use x="159.033203" xlink:href="#DejaVuSans-48"/>
       <use x="222.65625" xlink:href="#DejaVuSans-48"/>
      </g>
     </g>
    </g>
    <g id="ytick_2">
     <g id="line2d_13">
      <path clip-path="url(#p7efa9778e4)" d="M 42.828125 183.028032 
L 347.191761 183.028032 
" style="fill:none;stroke:#b0b0b0;stroke-linecap:square;stroke-width:0.8;"/>
     </g>
     <g id="line2d_14">
      <g>
       <use style="stroke:#000000;stroke-width:0.8;" x="42.828125" xlink:href="#m0d917cb7cb" y="183.028032"/>
      </g>
     </g>
     <g id="text_8">
      <!-- 0.005 -->
      <g transform="translate(7.2 186.827251)scale(0.1 -0.1)">
       <use xlink:href="#DejaVuSans-48"/>
       <use x="63.623047" xlink:href="#DejaVuSans-46"/>
       <use x="95.410156" xlink:href="#DejaVuSans-48"/>
       <use x="159.033203" xlink:href="#DejaVuSans-48"/>
       <use x="222.65625" xlink:href="#DejaVuSans-53"/>
      </g>
     </g>
    </g>
    <g id="ytick_3">
     <g id="line2d_15">
      <path clip-path="url(#p7efa9778e4)" d="M 42.828125 136.181576 
L 347.191761 136.181576 
" style="fill:none;stroke:#b0b0b0;stroke-linecap:square;stroke-width:0.8;"/>
     </g>
     <g id="line2d_16">
      <g>
       <use style="stroke:#000000;stroke-width:0.8;" x="42.828125" xlink:href="#m0d917cb7cb" y="136.181576"/>
      </g>
     </g>
     <g id="text_9">
      <!-- 0.010 -->
      <g transform="translate(7.2 139.980794)scale(0.1 -0.1)">
       <use xlink:href="#DejaVuSans-48"/>
       <use x="63.623047" xlink:href="#DejaVuSans-46"/>
       <use x="95.410156" xlink:href="#DejaVuSans-48"/>
       <use x="159.033203" xlink:href="#DejaVuSans-49"/>
       <use x="222.65625" xlink:href="#DejaVuSans-48"/>
      </g>
     </g>
    </g>
    <g id="ytick_4">
     <g id="line2d_17">
      <path clip-path="url(#p7efa9778e4)" d="M 42.828125 89.335119 
L 347.191761 89.335119 
" style="fill:none;stroke:#b0b0b0;stroke-linecap:square;stroke-width:0.8;"/>
     </g>
     <g id="line2d_18">
      <g>
       <use style="stroke:#000000;stroke-width:0.8;" x="42.828125" xlink:href="#m0d917cb7cb" y="89.335119"/>
      </g>
     </g>
     <g id="text_10">
      <!-- 0.015 -->
      <g transform="translate(7.2 93.134338)scale(0.1 -0.1)">
       <use xlink:href="#DejaVuSans-48"/>
       <use x="63.623047" xlink:href="#DejaVuSans-46"/>
       <use x="95.410156" xlink:href="#DejaVuSans-48"/>
       <use x="159.033203" xlink:href="#DejaVuSans-49"/>
       <use x="222.65625" xlink:href="#DejaVuSans-53"/>
      </g>
     </g>
    </g>
    <g id="ytick_5">
     <g id="line2d_19">
      <path clip-path="url(#p7efa9778e4)" d="M 42.828125 42.488662 
L 347.191761 42.488662 
" style="fill:none;stroke:#b0b0b0;stroke-linecap:square;stroke-width:0.8;"/>
     </g>
     <g id="line2d_20">
      <g>
       <use style="stroke:#000000;stroke-width:0.8;" x="42.828125" xlink:href="#m0d917cb7cb" y="42.488662"/>
      </g>
     </g>
     <g id="text_11">
      <!-- 0.020 -->
      <g transform="translate(7.2 46.287881)scale(0.1 -0.1)">
       <use xlink:href="#DejaVuSans-48"/>
       <use x="63.623047" xlink:href="#DejaVuSans-46"/>
       <use x="95.410156" xlink:href="#DejaVuSans-48"/>
       <use x="159.033203" xlink:href="#DejaVuSans-50"/>
       <use x="222.65625" xlink:href="#DejaVuSans-48"/>
      </g>
     </g>
    </g>
   </g>
   <g id="line2d_21">
    <path clip-path="url(#p7efa9778e4)" d="M 56.662836 229.866403 
L 62.210589 229.731927 
L 64.984466 229.42142 
L 67.064874 228.902065 
L 68.451812 228.32718 
L 69.838751 227.492692 
L 71.225689 226.320305 
L 72.612628 224.723059 
L 73.999566 222.60907 
L 75.386504 219.886434 
L 76.773443 216.46894 
L 78.160381 212.282128 
L 79.54732 207.269147 
L 80.934258 201.395885 
L 82.321197 194.654896 
L 83.708135 187.067796 
L 85.788543 174.22091 
L 87.86895 159.883929 
L 90.642827 139.175522 
L 96.88405 91.912479 
L 98.964458 77.794445 
L 101.044865 65.218854 
L 102.431804 57.845796 
L 103.818742 51.359685 
L 105.20568 45.805145 
L 106.592619 41.207541 
L 107.979557 37.574299 
L 109.366496 34.8966 
L 110.059965 33.909361 
L 110.753434 33.151341 
L 111.446903 32.617764 
L 112.140373 32.303225 
L 112.833842 32.201761 
L 113.527311 32.306911 
L 114.22078 32.611781 
L 114.914249 33.109109 
L 115.607719 33.791321 
L 116.994657 35.67889 
L 118.381595 38.209771 
L 119.768534 41.317599 
L 121.155472 44.935736 
L 123.23588 51.176433 
L 125.316288 58.204575 
L 128.090164 68.459811 
L 132.25098 84.911209 
L 139.879141 115.243781 
L 143.346487 128.147594 
L 146.813833 140.16689 
L 149.58771 149.067788 
L 152.361587 157.304822 
L 155.135464 164.874766 
L 157.90934 171.79053 
L 160.683217 178.076608 
L 163.457094 183.765379 
L 166.230971 188.894181 
L 169.004848 193.503033 
L 171.778725 197.632907 
L 174.552601 201.324467 
L 177.326478 204.617155 
L 180.100355 207.548579 
L 182.874232 210.154121 
L 185.648109 212.466709 
L 188.421986 214.516726 
L 191.195863 216.332006 
L 194.663209 218.309392 
L 198.130555 220.003746 
L 201.597901 221.453998 
L 205.758716 222.919671 
L 209.919531 224.133073 
L 214.773816 225.286179 
L 219.6281 226.209319 
L 225.175854 227.040408 
L 231.417077 227.753263 
L 239.045238 228.386483 
L 248.060338 228.896281 
L 259.155845 229.291007 
L 273.718699 229.578476 
L 295.909713 229.769288 
L 333.357051 229.856138 
L 333.357051 229.856138 
" style="fill:none;stroke:#1f77b4;stroke-linecap:square;stroke-width:1.5;"/>
   </g>
   <g id="line2d_22">
    <path clip-path="url(#p7efa9778e4)" d="M 56.662836 229.874489 
L 76.079974 229.784149 
L 78.85385 229.569331 
L 80.934258 229.192233 
L 82.321197 228.7613 
L 83.708135 228.120148 
L 85.095073 227.198238 
L 86.482012 225.914513 
L 87.86895 224.180183 
L 89.255889 221.902817 
L 90.642827 218.99152 
L 92.029765 215.362795 
L 93.416704 210.946603 
L 94.803642 205.692065 
L 96.190581 199.57229 
L 97.577519 192.587904 
L 99.657927 180.564046 
L 101.738334 166.894081 
L 104.512211 146.741746 
L 112.833842 84.367724 
L 114.914249 71.011509 
L 116.994657 59.368458 
L 118.381595 52.685894 
L 119.768534 46.926911 
L 121.155472 42.120947 
L 122.542411 38.279178 
L 123.929349 35.396143 
L 124.622818 34.308362 
L 125.316288 33.451656 
L 126.009757 32.821541 
L 126.703226 32.412878 
L 127.396695 32.219936 
L 128.090164 32.236461 
L 128.783634 32.455739 
L 129.477103 32.870661 
L 130.170572 33.473781 
L 130.864041 34.257375 
L 132.25098 36.334022 
L 133.637918 39.035268 
L 135.024856 42.294539 
L 136.411795 46.045341 
L 138.492203 52.450849 
L 140.57261 59.605011 
L 143.346487 69.973618 
L 148.200771 89.295148 
L 154.441994 114.090757 
L 157.90934 127.063099 
L 161.376686 139.164546 
L 164.150563 148.136246 
L 166.92444 156.445621 
L 169.698317 164.087387 
L 172.472194 171.072943 
L 175.246071 177.425722 
L 178.019948 183.177404 
L 180.793824 188.364912 
L 183.567701 193.028065 
L 186.341578 197.207803 
L 189.115455 200.94487 
L 191.889332 204.278875 
L 194.663209 207.24765 
L 197.437085 209.886828 
L 200.210962 212.22961 
L 202.984839 214.306656 
L 205.758716 216.146075 
L 209.226062 218.149972 
L 212.693408 219.867218 
L 216.160754 221.337193 
L 220.321569 222.822918 
L 224.482385 224.05301 
L 229.336669 225.222052 
L 234.190954 226.158004 
L 239.738707 227.000664 
L 245.97993 227.723476 
L 253.608091 228.365562 
L 262.623191 228.882515 
L 273.718699 229.282789 
L 288.281552 229.574305 
L 309.779097 229.764299 
L 333.357051 229.837789 
L 333.357051 229.837789 
" style="fill:none;stroke:#ff7f0e;stroke-linecap:square;stroke-width:1.5;"/>
   </g>
   <g id="line2d_23">
    <path clip-path="url(#p7efa9778e4)" d="M 56.662836 229.874489 
L 95.497112 229.793504 
L 98.270988 229.596916 
L 100.351396 229.247822 
L 101.738334 228.84585 
L 103.125273 228.244256 
L 104.512211 227.374426 
L 105.89915 226.156896 
L 107.286088 224.503912 
L 108.673027 222.323316 
L 110.059965 219.523562 
L 111.446903 216.019503 
L 112.833842 211.738447 
L 114.22078 206.625963 
L 115.607719 200.650885 
L 116.994657 193.80908 
L 119.075065 181.984307 
L 121.155472 168.481497 
L 123.929349 148.479459 
L 132.25098 85.940575 
L 134.331387 72.414125 
L 136.411795 60.566843 
L 137.798733 53.734815 
L 139.185672 47.819605 
L 140.57261 42.85382 
L 141.959549 38.851573 
L 143.346487 35.810044 
L 144.039956 34.644495 
L 144.733425 33.711356 
L 145.426895 33.006377 
L 146.120364 32.524628 
L 146.813833 32.260569 
L 147.507302 32.208112 
L 148.200771 32.36069 
L 148.894241 32.711318 
L 149.58771 33.252656 
L 150.281179 33.977064 
L 151.668118 35.943391 
L 153.055056 38.545312 
L 154.441994 41.716363 
L 155.828933 45.389953 
L 157.90934 51.699668 
L 159.989748 58.780733 
L 162.763625 69.083823 
L 166.92444 85.565933 
L 173.859132 113.20103 
L 177.326478 126.224984 
L 180.793824 138.388985 
L 183.567701 147.414897 
L 186.341578 155.779842 
L 189.115455 163.476911 
L 191.889332 170.516305 
L 194.663209 176.92061 
L 197.437085 182.720947 
L 200.210962 187.953899 
L 202.984839 192.65912 
L 205.758716 196.877511 
L 208.532593 200.649874 
L 211.30647 204.015942 
L 214.080346 207.01371 
L 216.854223 209.679007 
L 219.6281 212.045244 
L 222.401977 214.143291 
L 225.175854 216.001469 
L 228.6432 218.025971 
L 232.110546 219.761014 
L 235.577892 221.246325 
L 239.045238 222.516644 
L 243.206053 223.799537 
L 247.366869 224.860913 
L 252.221153 225.868961 
L 257.768907 226.776773 
L 264.01013 227.55565 
L 270.944822 228.194376 
L 279.266452 228.733624 
L 289.66849 229.17156 
L 302.844405 229.494025 
L 321.568074 229.715535 
L 333.357051 229.782749 
L 333.357051 229.782749 
" style="fill:none;stroke:#2ca02c;stroke-linecap:square;stroke-width:1.5;"/>
   </g>
   <g id="line2d_24">
    <path clip-path="url(#p7efa9778e4)" d="M 56.662836 229.874489 
L 110.753434 229.776996 
L 113.527311 229.548501 
L 115.607719 229.150606 
L 116.994657 228.698312 
L 118.381595 228.028137 
L 119.768534 227.06821 
L 121.155472 225.736399 
L 122.542411 223.943251 
L 123.929349 221.596231 
L 125.316288 218.604999 
L 126.703226 214.887322 
L 128.090164 210.375124 
L 129.477103 205.020108 
L 130.864041 198.798453 
L 132.25098 191.714166 
L 134.331387 179.55179 
L 136.411795 165.766786 
L 139.185672 145.513315 
L 146.813833 88.011077 
L 148.894241 74.269837 
L 150.974648 62.161704 
L 152.361587 55.137409 
L 153.748525 49.020319 
L 155.135464 43.847213 
L 156.522402 39.636083 
L 157.90934 36.387627 
L 158.60281 35.120331 
L 159.296279 34.087056 
L 159.989748 33.28387 
L 160.683217 32.706126 
L 161.376686 32.348542 
L 162.070156 32.205258 
L 162.763625 32.269908 
L 163.457094 32.535678 
L 164.150563 32.995375 
L 164.844033 33.641483 
L 166.230971 35.461595 
L 167.617909 37.931543 
L 169.004848 40.985063 
L 170.391786 44.555486 
L 172.472194 50.736659 
L 174.552601 57.718991 
L 177.326478 67.932536 
L 181.487294 84.356543 
L 189.115455 114.715436 
L 192.582801 127.650879 
L 196.050147 139.70797 
L 198.824024 148.641387 
L 201.597901 156.911614 
L 204.371778 164.51449 
L 207.145654 171.462238 
L 209.919531 177.778869 
L 212.693408 183.496449 
L 215.467285 188.652125 
L 218.241162 193.285829 
L 221.015039 197.43852 
L 223.788915 201.1509 
L 226.562792 204.462489 
L 229.336669 207.410997 
L 232.110546 210.031921 
L 234.884423 212.358317 
L 237.6583 214.420694 
L 240.432176 216.247012 
L 243.899523 218.236519 
L 247.366869 219.941339 
L 250.834215 221.400607 
L 254.99503 222.875446 
L 259.155845 224.096478 
L 264.01013 225.256868 
L 268.864414 226.185865 
L 274.412168 227.022243 
L 280.653391 227.739649 
L 288.281552 228.376921 
L 297.296652 228.88999 
L 308.392159 229.287251 
L 322.955012 229.57657 
L 333.357051 229.691041 
L 333.357051 229.691041 
" style="fill:none;stroke:#d62728;stroke-linecap:square;stroke-width:1.5;"/>
   </g>
   <g id="line2d_25">
    <path clip-path="url(#p7efa9778e4)" d="M 56.662836 229.874489 
L 130.170572 229.787013 
L 132.944449 229.577733 
L 135.024856 229.209106 
L 136.411795 228.786909 
L 137.798733 228.157664 
L 139.185672 227.251397 
L 140.57261 225.987515 
L 141.959549 224.277523 
L 143.346487 222.029056 
L 144.733425 219.15101 
L 146.120364 215.559381 
L 147.507302 211.183329 
L 148.894241 205.970909 
L 150.281179 199.893956 
L 151.668118 192.95168 
L 153.748525 180.986451 
L 155.828933 167.365494 
L 158.60281 147.256822 
L 166.92444 84.831406 
L 169.004848 71.424362 
L 171.085255 59.720552 
L 172.472194 52.993615 
L 173.859132 47.188316 
L 175.246071 42.335024 
L 176.633009 38.445782 
L 178.019948 35.515903 
L 178.713417 34.405152 
L 179.406886 33.52588 
L 180.100355 32.873671 
L 180.793824 32.443446 
L 181.487294 32.229532 
L 182.180763 32.225721 
L 182.874232 32.425345 
L 183.567701 32.821327 
L 184.26117 33.406254 
L 184.95464 34.172426 
L 186.341578 36.216617 
L 187.728516 38.888664 
L 189.115455 42.122022 
L 190.502393 45.850166 
L 192.582801 52.2276 
L 194.663209 59.360384 
L 197.437085 69.709902 
L 201.597901 86.221007 
L 208.532593 113.827788 
L 211.999939 126.8155 
L 215.467285 138.935511 
L 218.241162 147.923273 
L 221.015039 156.249096 
L 223.788915 163.907218 
L 226.562792 170.908689 
L 229.336669 177.276692 
L 232.110546 183.042745 
L 234.884423 188.24367 
L 237.6583 192.919242 
L 240.432176 197.110389 
L 243.206053 200.857872 
L 245.97993 204.201336 
L 248.753807 207.178663 
L 251.527684 209.825548 
L 254.301561 212.175247 
L 257.075437 214.258488 
L 259.849314 216.103439 
L 263.31666 218.113411 
L 266.784006 219.835906 
L 270.251352 221.310403 
L 273.718699 222.57142 
L 277.879514 223.844875 
L 282.040329 224.898406 
L 286.894614 225.898972 
L 292.442367 226.800022 
L 298.68359 227.573079 
L 305.618282 228.207019 
L 313.939913 228.742217 
L 324.341951 229.17686 
L 333.357051 229.416104 
L 333.357051 229.416104 
" style="fill:none;stroke:#9467bd;stroke-linecap:square;stroke-width:1.5;"/>
   </g>
   <g id="line2d_26">
    <path clip-path="url(#p7efa9778e4)" d="M 56.662836 229.874489 
L 145.426895 229.769344 
L 148.200771 229.526443 
L 150.281179 229.106826 
L 151.668118 228.632346 
L 153.055056 227.93216 
L 154.441994 226.933087 
L 155.828933 225.551957 
L 157.215871 223.698715 
L 158.60281 221.280795 
L 159.989748 218.208491 
L 161.376686 214.400922 
L 162.763625 209.79205 
L 164.150563 204.336224 
L 165.537502 198.012743 
L 166.92444 190.829016 
L 169.004848 178.529569 
L 171.085255 164.631784 
L 173.859132 144.281108 
L 180.793824 91.736899 
L 182.874232 77.635054 
L 184.95464 65.079838 
L 186.341578 57.722102 
L 187.728516 51.252286 
L 189.115455 45.714657 
L 190.502393 41.13425 
L 191.889332 37.518184 
L 193.27627 34.857368 
L 193.969739 33.878386 
L 194.663209 33.128463 
L 195.356678 32.602801 
L 196.050147 32.295974 
L 196.743616 32.201998 
L 197.437085 32.314398 
L 198.130555 32.626264 
L 198.824024 33.130323 
L 199.517493 33.818993 
L 200.904431 35.718618 
L 202.29137 38.260379 
L 203.678308 41.377896 
L 205.065247 45.004541 
L 207.145654 51.255835 
L 209.226062 58.292119 
L 211.999939 68.554737 
L 216.160754 85.010925 
L 223.788915 115.338619 
L 227.256261 128.236714 
L 230.723608 140.249199 
L 233.497484 149.144246 
L 236.271361 157.375313 
L 239.045238 164.939344 
L 241.819115 171.849364 
L 244.592992 178.129959 
L 247.366869 183.813566 
L 250.140745 188.937548 
L 252.914622 193.541941 
L 255.688499 197.667728 
L 258.462376 201.355554 
L 261.236253 204.644859 
L 264.01013 207.57322 
L 266.784006 210.176005 
L 269.557883 212.486118 
L 272.33176 214.533925 
L 275.105637 216.347226 
L 278.572983 218.322439 
L 282.040329 220.014921 
L 285.507675 221.463558 
L 289.66849 222.927587 
L 293.829306 224.139628 
L 298.68359 225.291427 
L 303.537875 226.213517 
L 309.085628 227.043658 
L 315.326851 227.755703 
L 322.955012 228.388196 
L 331.970112 228.897409 
L 333.357051 228.958501 
L 333.357051 228.958501 
" style="fill:none;stroke:#8c564b;stroke-linecap:square;stroke-width:1.5;"/>
   </g>
   <g id="line2d_27">
    <path clip-path="url(#p7efa9778e4)" d="M 56.662836 229.874489 
L 159.989748 229.78309 
L 162.763625 229.566235 
L 164.844033 229.186027 
L 166.230971 228.751892 
L 167.617909 228.106382 
L 169.004848 227.178753 
L 170.391786 225.887782 
L 171.778725 224.144574 
L 173.165663 221.856678 
L 174.552601 218.933277 
L 175.93954 215.291063 
L 177.326478 210.860291 
L 178.713417 205.590468 
L 180.100355 199.455172 
L 181.487294 192.455539 
L 183.567701 180.410488 
L 185.648109 166.722855 
L 188.421986 146.554861 
L 196.050147 88.969872 
L 198.130555 75.132687 
L 200.210962 62.906788 
L 201.597901 55.795161 
L 202.984839 49.586018 
L 204.371778 44.318065 
L 205.758716 40.011105 
L 207.145654 36.667472 
L 208.532593 34.27383 
L 209.226062 33.425294 
L 209.919531 32.803176 
L 210.613 32.402315 
L 211.30647 32.216961 
L 211.999939 32.24084 
L 212.693408 32.467227 
L 213.386877 32.888994 
L 214.080346 33.498691 
L 214.773816 34.288583 
L 216.160754 36.376955 
L 217.547693 39.088743 
L 218.934631 42.357368 
L 220.321569 46.116342 
L 222.401977 52.531971 
L 224.482385 59.693829 
L 227.256261 70.069299 
L 232.110546 89.395086 
L 238.351769 114.186013 
L 241.819115 127.152763 
L 245.286461 139.247476 
L 248.060338 148.213343 
L 250.834215 156.516761 
L 253.608091 164.152595 
L 256.381968 171.132386 
L 259.155845 177.47965 
L 261.929722 183.226136 
L 264.703599 188.40878 
L 267.477476 193.067439 
L 270.251352 197.243047 
L 273.025229 200.976343 
L 275.799106 204.306929 
L 278.572983 207.272603 
L 281.34686 209.908997 
L 284.120737 212.249275 
L 286.894614 214.324078 
L 289.66849 216.161494 
L 293.135836 218.163195 
L 296.603182 219.878545 
L 300.070529 221.346884 
L 304.231344 222.830947 
L 308.392159 224.059651 
L 313.246444 225.227371 
L 318.100728 226.162262 
L 323.648482 227.003966 
L 329.889705 227.725944 
L 333.357051 228.045639 
L 333.357051 228.045639 
" style="fill:none;stroke:#e377c2;stroke-linecap:square;stroke-width:1.5;"/>
   </g>
   <g id="patch_3">
    <path d="M 42.828125 239.758125 
L 42.828125 22.318125 
" style="fill:none;stroke:#000000;stroke-linecap:square;stroke-linejoin:miter;stroke-width:0.8;"/>
   </g>
   <g id="patch_4">
    <path d="M 347.191761 239.758125 
L 347.191761 22.318125 
" style="fill:none;stroke:#000000;stroke-linecap:square;stroke-linejoin:miter;stroke-width:0.8;"/>
   </g>
   <g id="patch_5">
    <path d="M 42.828125 239.758125 
L 347.191761 239.758125 
" style="fill:none;stroke:#000000;stroke-linecap:square;stroke-linejoin:miter;stroke-width:0.8;"/>
   </g>
   <g id="patch_6">
    <path d="M 42.828125 22.318125 
L 347.191761 22.318125 
" style="fill:none;stroke:#000000;stroke-linecap:square;stroke-linejoin:miter;stroke-width:0.8;"/>
   </g>
   <g id="text_12">
    <!-- PDF -->
    <g transform="translate(183.321193 16.318125)scale(0.12 -0.12)">
     <defs>
      <path d="M 19.671875 64.796875 
L 19.671875 37.40625 
L 32.078125 37.40625 
Q 38.96875 37.40625 42.71875 40.96875 
Q 46.484375 44.53125 46.484375 51.125 
Q 46.484375 57.671875 42.71875 61.234375 
Q 38.96875 64.796875 32.078125 64.796875 
z
M 9.8125 72.90625 
L 32.078125 72.90625 
Q 44.34375 72.90625 50.609375 67.359375 
Q 56.890625 61.8125 56.890625 51.125 
Q 56.890625 40.328125 50.609375 34.8125 
Q 44.34375 29.296875 32.078125 29.296875 
L 19.671875 29.296875 
L 19.671875 0 
L 9.8125 0 
z
" id="DejaVuSans-80"/>
      <path d="M 19.671875 64.796875 
L 19.671875 8.109375 
L 31.59375 8.109375 
Q 46.6875 8.109375 53.6875 14.9375 
Q 60.6875 21.78125 60.6875 36.53125 
Q 60.6875 51.171875 53.6875 57.984375 
Q 46.6875 64.796875 31.59375 64.796875 
z
M 9.8125 72.90625 
L 30.078125 72.90625 
Q 51.265625 72.90625 61.171875 64.09375 
Q 71.09375 55.28125 71.09375 36.53125 
Q 71.09375 17.671875 61.125 8.828125 
Q 51.171875 0 30.078125 0 
L 9.8125 0 
z
" id="DejaVuSans-68"/>
      <path d="M 9.8125 72.90625 
L 51.703125 72.90625 
L 51.703125 64.59375 
L 19.671875 64.59375 
L 19.671875 43.109375 
L 48.578125 43.109375 
L 48.578125 34.8125 
L 19.671875 34.8125 
L 19.671875 0 
L 9.8125 0 
z
" id="DejaVuSans-70"/>
     </defs>
     <use xlink:href="#DejaVuSans-80"/>
     <use x="60.302734" xlink:href="#DejaVuSans-68"/>
     <use x="137.304688" xlink:href="#DejaVuSans-70"/>
    </g>
   </g>
  </g>
  <g id="axes_2">
   <g id="patch_7">
    <path d="M 408.064489 239.758125 
L 712.428125 239.758125 
L 712.428125 22.318125 
L 408.064489 22.318125 
z
" style="fill:#ffffff;"/>
   </g>
   <g id="matplotlib.axis_3">
    <g id="xtick_6">
     <g id="line2d_28">
      <path clip-path="url(#p0f6dff42b6)" d="M 452.643001 239.758125 
L 452.643001 22.318125 
" style="fill:none;stroke:#b0b0b0;stroke-linecap:square;stroke-width:0.8;"/>
     </g>
     <g id="line2d_29">
      <g>
       <use style="stroke:#000000;stroke-width:0.8;" x="452.643001" xlink:href="#mb41acd5528" y="239.758125"/>
      </g>
     </g>
     <g id="text_13">
      <!-- 50 -->
      <g transform="translate(446.280501 254.356563)scale(0.1 -0.1)">
       <use xlink:href="#DejaVuSans-53"/>
       <use x="63.623047" xlink:href="#DejaVuSans-48"/>
      </g>
     </g>
    </g>
    <g id="xtick_7">
     <g id="line2d_30">
      <path clip-path="url(#p0f6dff42b6)" d="M 514.130604 239.758125 
L 514.130604 22.318125 
" style="fill:none;stroke:#b0b0b0;stroke-linecap:square;stroke-width:0.8;"/>
     </g>
     <g id="line2d_31">
      <g>
       <use style="stroke:#000000;stroke-width:0.8;" x="514.130604" xlink:href="#mb41acd5528" y="239.758125"/>
      </g>
     </g>
     <g id="text_14">
      <!-- 100 -->
      <g transform="translate(504.586854 254.356563)scale(0.1 -0.1)">
       <use xlink:href="#DejaVuSans-49"/>
       <use x="63.623047" xlink:href="#DejaVuSans-48"/>
       <use x="127.246094" xlink:href="#DejaVuSans-48"/>
      </g>
     </g>
    </g>
    <g id="xtick_8">
     <g id="line2d_32">
      <path clip-path="url(#p0f6dff42b6)" d="M 575.618208 239.758125 
L 575.618208 22.318125 
" style="fill:none;stroke:#b0b0b0;stroke-linecap:square;stroke-width:0.8;"/>
     </g>
     <g id="line2d_33">
      <g>
       <use style="stroke:#000000;stroke-width:0.8;" x="575.618208" xlink:href="#mb41acd5528" y="239.758125"/>
      </g>
     </g>
     <g id="text_15">
      <!-- 150 -->
      <g transform="translate(566.074458 254.356563)scale(0.1 -0.1)">
       <use xlink:href="#DejaVuSans-49"/>
       <use x="63.623047" xlink:href="#DejaVuSans-53"/>
       <use x="127.246094" xlink:href="#DejaVuSans-48"/>
      </g>
     </g>
    </g>
    <g id="xtick_9">
     <g id="line2d_34">
      <path clip-path="url(#p0f6dff42b6)" d="M 637.105811 239.758125 
L 637.105811 22.318125 
" style="fill:none;stroke:#b0b0b0;stroke-linecap:square;stroke-width:0.8;"/>
     </g>
     <g id="line2d_35">
      <g>
       <use style="stroke:#000000;stroke-width:0.8;" x="637.105811" xlink:href="#mb41acd5528" y="239.758125"/>
      </g>
     </g>
     <g id="text_16">
      <!-- 200 -->
      <g transform="translate(627.562061 254.356563)scale(0.1 -0.1)">
       <use xlink:href="#DejaVuSans-50"/>
       <use x="63.623047" xlink:href="#DejaVuSans-48"/>
       <use x="127.246094" xlink:href="#DejaVuSans-48"/>
      </g>
     </g>
    </g>
    <g id="xtick_10">
     <g id="line2d_36">
      <path clip-path="url(#p0f6dff42b6)" d="M 698.593414 239.758125 
L 698.593414 22.318125 
" style="fill:none;stroke:#b0b0b0;stroke-linecap:square;stroke-width:0.8;"/>
     </g>
     <g id="line2d_37">
      <g>
       <use style="stroke:#000000;stroke-width:0.8;" x="698.593414" xlink:href="#mb41acd5528" y="239.758125"/>
      </g>
     </g>
     <g id="text_17">
      <!-- 250 -->
      <g transform="translate(689.049664 254.356563)scale(0.1 -0.1)">
       <use xlink:href="#DejaVuSans-50"/>
       <use x="63.623047" xlink:href="#DejaVuSans-53"/>
       <use x="127.246094" xlink:href="#DejaVuSans-48"/>
      </g>
     </g>
    </g>
    <g id="text_18">
     <!-- Máxima precipitação diária [mm] -->
     <g transform="translate(477.247869 268.434687)scale(0.1 -0.1)">
      <use xlink:href="#DejaVuSans-77"/>
      <use x="86.279297" xlink:href="#DejaVuSans-225"/>
      <use x="147.558594" xlink:href="#DejaVuSans-120"/>
      <use x="206.738281" xlink:href="#DejaVuSans-105"/>
      <use x="234.521484" xlink:href="#DejaVuSans-109"/>
      <use x="331.933594" xlink:href="#DejaVuSans-97"/>
      <use x="393.212891" xlink:href="#DejaVuSans-32"/>
      <use x="425" xlink:href="#DejaVuSans-112"/>
      <use x="488.476562" xlink:href="#DejaVuSans-114"/>
      <use x="527.339844" xlink:href="#DejaVuSans-101"/>
      <use x="588.863281" xlink:href="#DejaVuSans-99"/>
      <use x="643.84375" xlink:href="#DejaVuSans-105"/>
      <use x="671.626953" xlink:href="#DejaVuSans-112"/>
      <use x="735.103516" xlink:href="#DejaVuSans-105"/>
      <use x="762.886719" xlink:href="#DejaVuSans-116"/>
      <use x="802.095703" xlink:href="#DejaVuSans-97"/>
      <use x="863.375" xlink:href="#DejaVuSans-231"/>
      <use x="918.355469" xlink:href="#DejaVuSans-227"/>
      <use x="979.634766" xlink:href="#DejaVuSans-111"/>
      <use x="1040.816406" xlink:href="#DejaVuSans-32"/>
      <use x="1072.603516" xlink:href="#DejaVuSans-100"/>
      <use x="1136.080078" xlink:href="#DejaVuSans-105"/>
      <use x="1163.863281" xlink:href="#DejaVuSans-225"/>
      <use x="1225.142578" xlink:href="#DejaVuSans-114"/>
      <use x="1266.255859" xlink:href="#DejaVuSans-105"/>
      <use x="1294.039062" xlink:href="#DejaVuSans-97"/>
      <use x="1355.318359" xlink:href="#DejaVuSans-32"/>
      <use x="1387.105469" xlink:href="#DejaVuSans-91"/>
      <use x="1426.119141" xlink:href="#DejaVuSans-109"/>
      <use x="1523.53125" xlink:href="#DejaVuSans-109"/>
      <use x="1620.943359" xlink:href="#DejaVuSans-93"/>
     </g>
    </g>
   </g>
   <g id="matplotlib.axis_4">
    <g id="ytick_6">
     <g id="line2d_38">
      <path clip-path="url(#p0f6dff42b6)" d="M 408.064489 229.874489 
L 712.428125 229.874489 
" style="fill:none;stroke:#b0b0b0;stroke-linecap:square;stroke-width:0.8;"/>
     </g>
     <g id="line2d_39">
      <g>
       <use style="stroke:#000000;stroke-width:0.8;" x="408.064489" xlink:href="#m0d917cb7cb" y="229.874489"/>
      </g>
     </g>
     <g id="text_19">
      <!-- 0.0 -->
      <g transform="translate(385.161364 233.673707)scale(0.1 -0.1)">
       <use xlink:href="#DejaVuSans-48"/>
       <use x="63.623047" xlink:href="#DejaVuSans-46"/>
       <use x="95.410156" xlink:href="#DejaVuSans-48"/>
      </g>
     </g>
    </g>
    <g id="ytick_7">
     <g id="line2d_40">
      <path clip-path="url(#p0f6dff42b6)" d="M 408.064489 190.338593 
L 712.428125 190.338593 
" style="fill:none;stroke:#b0b0b0;stroke-linecap:square;stroke-width:0.8;"/>
     </g>
     <g id="line2d_41">
      <g>
       <use style="stroke:#000000;stroke-width:0.8;" x="408.064489" xlink:href="#m0d917cb7cb" y="190.338593"/>
      </g>
     </g>
     <g id="text_20">
      <!-- 0.2 -->
      <g transform="translate(385.161364 194.137812)scale(0.1 -0.1)">
       <use xlink:href="#DejaVuSans-48"/>
       <use x="63.623047" xlink:href="#DejaVuSans-46"/>
       <use x="95.410156" xlink:href="#DejaVuSans-50"/>
      </g>
     </g>
    </g>
    <g id="ytick_8">
     <g id="line2d_42">
      <path clip-path="url(#p0f6dff42b6)" d="M 408.064489 150.802697 
L 712.428125 150.802697 
" style="fill:none;stroke:#b0b0b0;stroke-linecap:square;stroke-width:0.8;"/>
     </g>
     <g id="line2d_43">
      <g>
       <use style="stroke:#000000;stroke-width:0.8;" x="408.064489" xlink:href="#m0d917cb7cb" y="150.802697"/>
      </g>
     </g>
     <g id="text_21">
      <!-- 0.4 -->
      <g transform="translate(385.161364 154.601916)scale(0.1 -0.1)">
       <defs>
        <path d="M 37.796875 64.3125 
L 12.890625 25.390625 
L 37.796875 25.390625 
z
M 35.203125 72.90625 
L 47.609375 72.90625 
L 47.609375 25.390625 
L 58.015625 25.390625 
L 58.015625 17.1875 
L 47.609375 17.1875 
L 47.609375 0 
L 37.796875 0 
L 37.796875 17.1875 
L 4.890625 17.1875 
L 4.890625 26.703125 
z
" id="DejaVuSans-52"/>
       </defs>
       <use xlink:href="#DejaVuSans-48"/>
       <use x="63.623047" xlink:href="#DejaVuSans-46"/>
       <use x="95.410156" xlink:href="#DejaVuSans-52"/>
      </g>
     </g>
    </g>
    <g id="ytick_9">
     <g id="line2d_44">
      <path clip-path="url(#p0f6dff42b6)" d="M 408.064489 111.266802 
L 712.428125 111.266802 
" style="fill:none;stroke:#b0b0b0;stroke-linecap:square;stroke-width:0.8;"/>
     </g>
     <g id="line2d_45">
      <g>
       <use style="stroke:#000000;stroke-width:0.8;" x="408.064489" xlink:href="#m0d917cb7cb" y="111.266802"/>
      </g>
     </g>
     <g id="text_22">
      <!-- 0.6 -->
      <g transform="translate(385.161364 115.06602)scale(0.1 -0.1)">
       <defs>
        <path d="M 33.015625 40.375 
Q 26.375 40.375 22.484375 35.828125 
Q 18.609375 31.296875 18.609375 23.390625 
Q 18.609375 15.53125 22.484375 10.953125 
Q 26.375 6.390625 33.015625 6.390625 
Q 39.65625 6.390625 43.53125 10.953125 
Q 47.40625 15.53125 47.40625 23.390625 
Q 47.40625 31.296875 43.53125 35.828125 
Q 39.65625 40.375 33.015625 40.375 
z
M 52.59375 71.296875 
L 52.59375 62.3125 
Q 48.875 64.0625 45.09375 64.984375 
Q 41.3125 65.921875 37.59375 65.921875 
Q 27.828125 65.921875 22.671875 59.328125 
Q 17.53125 52.734375 16.796875 39.40625 
Q 19.671875 43.65625 24.015625 45.921875 
Q 28.375 48.1875 33.59375 48.1875 
Q 44.578125 48.1875 50.953125 41.515625 
Q 57.328125 34.859375 57.328125 23.390625 
Q 57.328125 12.15625 50.6875 5.359375 
Q 44.046875 -1.421875 33.015625 -1.421875 
Q 20.359375 -1.421875 13.671875 8.265625 
Q 6.984375 17.96875 6.984375 36.375 
Q 6.984375 53.65625 15.1875 63.9375 
Q 23.390625 74.21875 37.203125 74.21875 
Q 40.921875 74.21875 44.703125 73.484375 
Q 48.484375 72.75 52.59375 71.296875 
z
" id="DejaVuSans-54"/>
       </defs>
       <use xlink:href="#DejaVuSans-48"/>
       <use x="63.623047" xlink:href="#DejaVuSans-46"/>
       <use x="95.410156" xlink:href="#DejaVuSans-54"/>
      </g>
     </g>
    </g>
    <g id="ytick_10">
     <g id="line2d_46">
      <path clip-path="url(#p0f6dff42b6)" d="M 408.064489 71.730906 
L 712.428125 71.730906 
" style="fill:none;stroke:#b0b0b0;stroke-linecap:square;stroke-width:0.8;"/>
     </g>
     <g id="line2d_47">
      <g>
       <use style="stroke:#000000;stroke-width:0.8;" x="408.064489" xlink:href="#m0d917cb7cb" y="71.730906"/>
      </g>
     </g>
     <g id="text_23">
      <!-- 0.8 -->
      <g transform="translate(385.161364 75.530125)scale(0.1 -0.1)">
       <defs>
        <path d="M 31.78125 34.625 
Q 24.75 34.625 20.71875 30.859375 
Q 16.703125 27.09375 16.703125 20.515625 
Q 16.703125 13.921875 20.71875 10.15625 
Q 24.75 6.390625 31.78125 6.390625 
Q 38.8125 6.390625 42.859375 10.171875 
Q 46.921875 13.96875 46.921875 20.515625 
Q 46.921875 27.09375 42.890625 30.859375 
Q 38.875 34.625 31.78125 34.625 
z
M 21.921875 38.8125 
Q 15.578125 40.375 12.03125 44.71875 
Q 8.5 49.078125 8.5 55.328125 
Q 8.5 64.0625 14.71875 69.140625 
Q 20.953125 74.21875 31.78125 74.21875 
Q 42.671875 74.21875 48.875 69.140625 
Q 55.078125 64.0625 55.078125 55.328125 
Q 55.078125 49.078125 51.53125 44.71875 
Q 48 40.375 41.703125 38.8125 
Q 48.828125 37.15625 52.796875 32.3125 
Q 56.78125 27.484375 56.78125 20.515625 
Q 56.78125 9.90625 50.3125 4.234375 
Q 43.84375 -1.421875 31.78125 -1.421875 
Q 19.734375 -1.421875 13.25 4.234375 
Q 6.78125 9.90625 6.78125 20.515625 
Q 6.78125 27.484375 10.78125 32.3125 
Q 14.796875 37.15625 21.921875 38.8125 
z
M 18.3125 54.390625 
Q 18.3125 48.734375 21.84375 45.5625 
Q 25.390625 42.390625 31.78125 42.390625 
Q 38.140625 42.390625 41.71875 45.5625 
Q 45.3125 48.734375 45.3125 54.390625 
Q 45.3125 60.0625 41.71875 63.234375 
Q 38.140625 66.40625 31.78125 66.40625 
Q 25.390625 66.40625 21.84375 63.234375 
Q 18.3125 60.0625 18.3125 54.390625 
z
" id="DejaVuSans-56"/>
       </defs>
       <use xlink:href="#DejaVuSans-48"/>
       <use x="63.623047" xlink:href="#DejaVuSans-46"/>
       <use x="95.410156" xlink:href="#DejaVuSans-56"/>
      </g>
     </g>
    </g>
    <g id="ytick_11">
     <g id="line2d_48">
      <path clip-path="url(#p0f6dff42b6)" d="M 408.064489 32.19501 
L 712.428125 32.19501 
" style="fill:none;stroke:#b0b0b0;stroke-linecap:square;stroke-width:0.8;"/>
     </g>
     <g id="line2d_49">
      <g>
       <use style="stroke:#000000;stroke-width:0.8;" x="408.064489" xlink:href="#m0d917cb7cb" y="32.19501"/>
      </g>
     </g>
     <g id="text_24">
      <!-- 1.0 -->
      <g transform="translate(385.161364 35.994229)scale(0.1 -0.1)">
       <use xlink:href="#DejaVuSans-49"/>
       <use x="63.623047" xlink:href="#DejaVuSans-46"/>
       <use x="95.410156" xlink:href="#DejaVuSans-48"/>
      </g>
     </g>
    </g>
   </g>
   <g id="line2d_50">
    <path clip-path="url(#p0f6dff42b6)" d="M 421.899199 229.874272 
L 434.381645 229.782007 
L 437.848991 229.583935 
L 440.622868 229.233338 
L 442.703276 228.785306 
L 444.783683 228.112667 
L 446.864091 227.148582 
L 448.251029 226.309674 
L 449.637968 225.290278 
L 451.024906 224.071511 
L 452.411845 222.636392 
L 453.798783 220.970455 
L 455.185721 219.062276 
L 457.266129 215.72935 
L 459.346537 211.823122 
L 461.426944 207.351766 
L 463.507352 202.342031 
L 465.58776 196.837224 
L 468.361636 188.827357 
L 471.828983 177.969377 
L 476.683267 161.81908 
L 485.004898 133.975098 
L 489.165713 120.925352 
L 492.633059 110.790157 
L 496.100405 101.429347 
L 498.874282 94.530643 
L 501.648159 88.163896 
L 504.422035 82.322984 
L 507.195912 76.992458 
L 509.969789 72.150046 
L 512.743666 67.768799 
L 515.517543 63.818854 
L 518.29142 60.26885 
L 521.065296 57.087031 
L 523.839173 54.242077 
L 526.61305 51.703704 
L 529.386927 49.443084 
L 532.160804 47.433115 
L 535.62815 45.234886 
L 539.095496 43.344026 
L 542.562842 41.720246 
L 546.030188 40.327782 
L 550.191003 38.918055 
L 554.351819 37.749101 
L 559.206103 36.636665 
L 564.060387 35.744979 
L 569.608141 34.94137 
L 575.849364 34.251451 
L 583.477525 33.638114 
L 592.492625 33.143986 
L 603.588132 32.761189 
L 618.844455 32.473158 
L 641.728939 32.290726 
L 685.417499 32.207491 
L 698.593414 32.201761 
L 698.593414 32.201761 
" style="fill:none;stroke:#1f77b4;stroke-linecap:square;stroke-width:1.5;"/>
   </g>
   <g id="line2d_51">
    <path clip-path="url(#p0f6dff42b6)" d="M 421.899199 229.874489 
L 449.637968 229.76818 
L 453.105314 229.547371 
L 455.879191 229.162961 
L 457.959598 228.677335 
L 460.040006 227.954868 
L 462.120414 226.927897 
L 463.507352 226.039815 
L 464.89429 224.965737 
L 466.281229 223.687252 
L 467.668167 222.188032 
L 469.055106 220.454427 
L 471.135513 217.392571 
L 473.215921 213.760342 
L 475.296329 209.556683 
L 477.376736 204.799655 
L 479.457144 199.524971 
L 482.231021 191.776476 
L 485.004898 183.351232 
L 488.472244 172.134442 
L 503.035097 123.960953 
L 506.502443 113.618692 
L 509.969789 104.029358 
L 512.743666 96.940839 
L 515.517543 90.383662 
L 518.29142 84.355728 
L 521.065296 78.844621 
L 523.839173 73.830248 
L 526.61305 69.287113 
L 529.386927 65.186217 
L 532.160804 61.496592 
L 534.934681 58.186517 
L 537.708557 55.224433 
L 540.482434 52.57963 
L 543.256311 50.222721 
L 546.030188 48.125961 
L 548.804065 46.263441 
L 552.271411 44.228342 
L 555.738757 42.479346 
L 559.206103 40.97852 
L 562.673449 39.692316 
L 566.834264 38.390934 
L 570.99508 37.3124 
L 575.849364 36.286498 
L 581.397118 35.361307 
L 587.638341 34.566537 
L 594.573033 33.914101 
L 602.894663 33.362802 
L 613.296701 32.91476 
L 626.472616 32.58467 
L 645.196285 32.357833 
L 676.4024 32.233013 
L 698.593414 32.208512 
L 698.593414 32.208512 
" style="fill:none;stroke:#ff7f0e;stroke-linecap:square;stroke-width:1.5;"/>
   </g>
   <g id="line2d_52">
    <path clip-path="url(#p0f6dff42b6)" d="M 421.899199 229.874489 
L 469.055106 229.776496 
L 472.522452 229.56927 
L 475.296329 229.20499 
L 477.376736 228.74169 
L 479.457144 228.048756 
L 481.537551 227.05899 
L 482.92449 226.19996 
L 484.311428 225.158153 
L 485.698367 223.914875 
L 487.085305 222.453408 
L 488.472244 220.759619 
L 490.552651 217.760127 
L 492.633059 214.191574 
L 494.713466 210.050752 
L 496.793874 205.353649 
L 498.874282 200.13413 
L 501.648159 192.449194 
L 504.422035 184.073815 
L 507.889381 172.898234 
L 514.824074 149.525662 
L 520.371827 131.221811 
L 523.839173 120.434263 
L 527.306519 110.33368 
L 530.773865 101.01062 
L 533.547742 94.143042 
L 536.321619 87.807368 
L 539.095496 81.996857 
L 541.869373 76.695591 
L 544.64325 71.880972 
L 547.417126 67.525833 
L 550.191003 63.600188 
L 552.96488 60.072626 
L 555.738757 56.911396 
L 558.512634 54.085223 
L 561.286511 51.563898 
L 564.060387 49.318691 
L 566.834264 47.322603 
L 570.30161 45.139746 
L 573.768956 43.262265 
L 577.236302 41.650089 
L 580.703649 40.267659 
L 584.864464 38.86817 
L 589.025279 37.707764 
L 593.879564 36.603512 
L 598.733848 35.718421 
L 604.281602 34.920782 
L 610.522825 34.236007 
L 618.150986 33.627259 
L 627.166086 33.13684 
L 638.955062 32.739064 
L 654.211385 32.462281 
L 677.789338 32.284055 
L 698.593414 32.228763 
L 698.593414 32.228763 
" style="fill:none;stroke:#2ca02c;stroke-linecap:square;stroke-width:1.5;"/>
   </g>
   <g id="line2d_53">
    <path clip-path="url(#p0f6dff42b6)" d="M 421.899199 229.874489 
L 483.617959 229.786465 
L 487.778774 229.531168 
L 490.552651 229.132086 
L 492.633059 228.630284 
L 494.713466 227.88652 
L 496.793874 226.83284 
L 498.180813 225.923972 
L 499.567751 224.826865 
L 500.954689 223.523318 
L 502.341628 221.997288 
L 503.728566 220.235473 
L 505.808974 217.129556 
L 507.889381 213.452482 
L 509.969789 209.204714 
L 512.050197 204.405756 
L 514.130604 199.092607 
L 516.904481 191.299996 
L 519.678358 182.84037 
L 523.839173 169.285686 
L 536.321619 127.774529 
L 539.788965 117.189379 
L 543.256311 107.325105 
L 546.030188 100.004692 
L 548.804065 93.212512 
L 551.577942 86.951942 
L 554.351819 81.214775 
L 557.125695 75.984003 
L 559.899572 71.23626 
L 562.673449 66.943882 
L 565.447326 63.076602 
L 568.221203 59.602903 
L 570.99508 56.491058 
L 573.768956 53.70991 
L 576.542833 51.229441 
L 579.31671 49.021151 
L 582.090587 47.058304 
L 585.557933 44.912244 
L 589.025279 43.066781 
L 592.492625 41.482368 
L 595.959971 40.123942 
L 600.120786 38.748935 
L 604.281602 37.608968 
L 609.135886 36.524282 
L 614.68364 35.545789 
L 620.924863 34.705011 
L 627.859555 34.014657 
L 636.181185 33.431212 
L 645.889754 32.981969 
L 658.3722 32.635079 
L 675.70893 32.391192 
L 698.593414 32.262511 
L 698.593414 32.262511 
" style="fill:none;stroke:#d62728;stroke-linecap:square;stroke-width:1.5;"/>
   </g>
   <g id="line2d_54">
    <path clip-path="url(#p0f6dff42b6)" d="M 421.899199 229.874489 
L 503.728566 229.770702 
L 507.195912 229.553985 
L 509.969789 229.175618 
L 512.050197 228.696677 
L 514.130604 227.983036 
L 516.211012 226.967163 
L 517.59795 226.087736 
L 518.984889 225.02326 
L 520.371827 223.755241 
L 521.758766 222.267232 
L 523.145704 220.54544 
L 525.226112 217.502066 
L 527.306519 213.88868 
L 529.386927 209.703594 
L 531.467335 204.964253 
L 533.547742 199.705827 
L 536.321619 191.97603 
L 539.095496 183.565415 
L 542.562842 172.360655 
L 550.884472 144.321612 
L 555.738757 128.501824 
L 559.206103 117.872593 
L 562.673449 107.957477 
L 565.447326 100.593704 
L 568.221203 93.757269 
L 570.99508 87.452645 
L 573.768956 81.672479 
L 576.542833 76.400396 
L 579.31671 71.613476 
L 582.090587 67.284342 
L 584.864464 63.382889 
L 587.638341 59.87766 
L 590.412217 56.73691 
L 593.186094 53.929414 
L 595.959971 51.42504 
L 598.733848 49.195151 
L 601.507725 47.212859 
L 604.975071 45.045275 
L 608.442417 43.181085 
L 611.909763 41.580435 
L 615.377109 40.207972 
L 619.537924 38.818649 
L 623.69874 37.66673 
L 628.553024 36.570604 
L 634.100778 35.581732 
L 640.342001 34.731995 
L 647.276693 34.034254 
L 655.598323 33.444546 
L 665.306892 32.990467 
L 677.789338 32.639835 
L 695.126068 32.393313 
L 698.593414 32.363718 
L 698.593414 32.363718 
" style="fill:none;stroke:#9467bd;stroke-linecap:square;stroke-width:1.5;"/>
   </g>
   <g id="line2d_55">
    <path clip-path="url(#p0f6dff42b6)" d="M 421.899199 229.874489 
L 518.29142 229.781185 
L 521.758766 229.58174 
L 524.532642 229.229084 
L 526.61305 228.77875 
L 528.693458 228.103047 
L 530.773865 227.135077 
L 532.160804 226.293121 
L 533.547742 225.270328 
L 534.934681 224.047842 
L 536.321619 222.608721 
L 537.708557 220.938551 
L 539.095496 219.025966 
L 541.175904 215.686246 
L 543.256311 211.773208 
L 545.336719 207.295254 
L 547.417126 202.279344 
L 549.497534 196.768966 
L 552.271411 188.752849 
L 555.738757 177.889238 
L 560.593041 161.735305 
L 568.914672 133.895034 
L 573.075487 120.850442 
L 576.542833 110.720507 
L 580.010179 101.365441 
L 582.784056 94.471478 
L 585.557933 88.109466 
L 588.33181 82.273189 
L 591.105687 76.947125 
L 593.879564 72.108953 
L 596.65344 67.73169 
L 599.427317 63.785454 
L 602.201194 60.238876 
L 604.975071 57.060201 
L 607.748948 54.218114 
L 610.522825 51.682345 
L 613.296701 49.424079 
L 616.070578 47.41623 
L 619.537924 45.220349 
L 623.00527 43.331533 
L 626.472616 41.709526 
L 629.939962 40.318594 
L 634.100778 38.910432 
L 638.261593 37.742784 
L 643.115877 36.631598 
L 647.970162 35.740921 
L 653.517916 34.938224 
L 659.759138 34.249091 
L 667.3873 33.636455 
L 676.4024 33.142894 
L 687.497907 32.760537 
L 698.593414 32.532283 
L 698.593414 32.532283 
" style="fill:none;stroke:#8c564b;stroke-linecap:square;stroke-width:1.5;"/>
   </g>
   <g id="line2d_56">
    <path clip-path="url(#p0f6dff42b6)" d="M 421.899199 229.874489 
L 533.547742 229.767253 
L 537.015088 229.544945 
L 539.788965 229.158327 
L 541.869373 228.670261 
L 543.94978 227.944577 
L 546.030188 226.913564 
L 547.417126 226.022333 
L 548.804065 224.944764 
L 550.191003 223.662475 
L 551.577942 222.159182 
L 552.96488 220.421289 
L 555.045288 217.352729 
L 557.125695 213.713668 
L 559.206103 209.503283 
L 561.286511 204.739852 
L 563.366918 199.459288 
L 566.140795 191.704039 
L 568.914672 183.273518 
L 572.382018 172.052402 
L 586.944871 123.884675 
L 590.412217 113.54747 
L 593.879564 103.963775 
L 596.65344 96.87997 
L 599.427317 90.327543 
L 602.201194 84.304289 
L 604.975071 78.797713 
L 607.748948 73.787665 
L 610.522825 69.248608 
L 613.296701 65.15152 
L 616.070578 61.465423 
L 618.844455 58.158592 
L 621.618332 55.199474 
L 624.392209 52.557368 
L 627.166086 50.2029 
L 629.939962 48.108342 
L 632.713839 46.247801 
L 636.181185 44.21489 
L 639.648531 42.467795 
L 643.115877 40.968615 
L 646.583223 39.683832 
L 650.744039 38.383899 
L 654.904854 37.306573 
L 659.759138 36.281827 
L 665.306892 35.357684 
L 671.548115 34.563818 
L 678.482807 33.912126 
L 686.804438 33.361459 
L 697.206476 32.913931 
L 698.593414 32.868979 
L 698.593414 32.868979 
" style="fill:none;stroke:#e377c2;stroke-linecap:square;stroke-width:1.5;"/>
   </g>
   <g id="patch_8">
    <path d="M 408.064489 239.758125 
L 408.064489 22.318125 
" style="fill:none;stroke:#000000;stroke-linecap:square;stroke-linejoin:miter;stroke-width:0.8;"/>
   </g>
   <g id="patch_9">
    <path d="M 712.428125 239.758125 
L 712.428125 22.318125 
" style="fill:none;stroke:#000000;stroke-linecap:square;stroke-linejoin:miter;stroke-width:0.8;"/>
   </g>
   <g id="patch_10">
    <path d="M 408.064489 239.758125 
L 712.428125 239.758125 
" style="fill:none;stroke:#000000;stroke-linecap:square;stroke-linejoin:miter;stroke-width:0.8;"/>
   </g>
   <g id="patch_11">
    <path d="M 408.064489 22.318125 
L 712.428125 22.318125 
" style="fill:none;stroke:#000000;stroke-linecap:square;stroke-linejoin:miter;stroke-width:0.8;"/>
   </g>
   <g id="text_25">
    <!-- CDF -->
    <g transform="translate(547.985682 16.318125)scale(0.12 -0.12)">
     <defs>
      <path d="M 64.40625 67.28125 
L 64.40625 56.890625 
Q 59.421875 61.53125 53.78125 63.8125 
Q 48.140625 66.109375 41.796875 66.109375 
Q 29.296875 66.109375 22.65625 58.46875 
Q 16.015625 50.828125 16.015625 36.375 
Q 16.015625 21.96875 22.65625 14.328125 
Q 29.296875 6.6875 41.796875 6.6875 
Q 48.140625 6.6875 53.78125 8.984375 
Q 59.421875 11.28125 64.40625 15.921875 
L 64.40625 5.609375 
Q 59.234375 2.09375 53.4375 0.328125 
Q 47.65625 -1.421875 41.21875 -1.421875 
Q 24.65625 -1.421875 15.125 8.703125 
Q 5.609375 18.84375 5.609375 36.375 
Q 5.609375 53.953125 15.125 64.078125 
Q 24.65625 74.21875 41.21875 74.21875 
Q 47.75 74.21875 53.53125 72.484375 
Q 59.328125 70.75 64.40625 67.28125 
z
" id="DejaVuSans-67"/>
     </defs>
     <use xlink:href="#DejaVuSans-67"/>
     <use x="69.824219" xlink:href="#DejaVuSans-68"/>
     <use x="146.826172" xlink:href="#DejaVuSans-70"/>
    </g>
   </g>
   <g id="legend_1">
    <g id="patch_12">
     <path d="M 627.36875 234.758125 
L 705.428125 234.758125 
Q 707.428125 234.758125 707.428125 232.758125 
L 707.428125 131.01125 
Q 707.428125 129.01125 705.428125 129.01125 
L 627.36875 129.01125 
Q 625.36875 129.01125 625.36875 131.01125 
L 625.36875 232.758125 
Q 625.36875 234.758125 627.36875 234.758125 
z
" style="fill:#ffffff;opacity:0.8;stroke:#cccccc;stroke-linejoin:miter;"/>
    </g>
    <g id="line2d_57">
     <path d="M 629.36875 137.109688 
L 649.36875 137.109688 
" style="fill:none;stroke:#1f77b4;stroke-linecap:square;stroke-width:1.5;"/>
    </g>
    <g id="line2d_58"/>
    <g id="text_26">
     <!-- 1 anos -->
     <g transform="translate(657.36875 140.609688)scale(0.1 -0.1)">
      <defs>
       <path d="M 54.890625 33.015625 
L 54.890625 0 
L 45.90625 0 
L 45.90625 32.71875 
Q 45.90625 40.484375 42.875 44.328125 
Q 39.84375 48.1875 33.796875 48.1875 
Q 26.515625 48.1875 22.3125 43.546875 
Q 18.109375 38.921875 18.109375 30.90625 
L 18.109375 0 
L 9.078125 0 
L 9.078125 54.6875 
L 18.109375 54.6875 
L 18.109375 46.1875 
Q 21.34375 51.125 25.703125 53.5625 
Q 30.078125 56 35.796875 56 
Q 45.21875 56 50.046875 50.171875 
Q 54.890625 44.34375 54.890625 33.015625 
z
" id="DejaVuSans-110"/>
       <path d="M 44.28125 53.078125 
L 44.28125 44.578125 
Q 40.484375 46.53125 36.375 47.5 
Q 32.28125 48.484375 27.875 48.484375 
Q 21.1875 48.484375 17.84375 46.4375 
Q 14.5 44.390625 14.5 40.28125 
Q 14.5 37.15625 16.890625 35.375 
Q 19.28125 33.59375 26.515625 31.984375 
L 29.59375 31.296875 
Q 39.15625 29.25 43.1875 25.515625 
Q 47.21875 21.78125 47.21875 15.09375 
Q 47.21875 7.46875 41.1875 3.015625 
Q 35.15625 -1.421875 24.609375 -1.421875 
Q 20.21875 -1.421875 15.453125 -0.5625 
Q 10.6875 0.296875 5.421875 2 
L 5.421875 11.28125 
Q 10.40625 8.6875 15.234375 7.390625 
Q 20.0625 6.109375 24.8125 6.109375 
Q 31.15625 6.109375 34.5625 8.28125 
Q 37.984375 10.453125 37.984375 14.40625 
Q 37.984375 18.0625 35.515625 20.015625 
Q 33.0625 21.96875 24.703125 23.78125 
L 21.578125 24.515625 
Q 13.234375 26.265625 9.515625 29.90625 
Q 5.8125 33.546875 5.8125 39.890625 
Q 5.8125 47.609375 11.28125 51.796875 
Q 16.75 56 26.8125 56 
Q 31.78125 56 36.171875 55.265625 
Q 40.578125 54.546875 44.28125 53.078125 
z
" id="DejaVuSans-115"/>
      </defs>
      <use xlink:href="#DejaVuSans-49"/>
      <use x="63.623047" xlink:href="#DejaVuSans-32"/>
      <use x="95.410156" xlink:href="#DejaVuSans-97"/>
      <use x="156.689453" xlink:href="#DejaVuSans-110"/>
      <use x="220.068359" xlink:href="#DejaVuSans-111"/>
      <use x="281.25" xlink:href="#DejaVuSans-115"/>
     </g>
    </g>
    <g id="line2d_59">
     <path d="M 629.36875 151.787813 
L 649.36875 151.787813 
" style="fill:none;stroke:#ff7f0e;stroke-linecap:square;stroke-width:1.5;"/>
    </g>
    <g id="line2d_60"/>
    <g id="text_27">
     <!-- 2 anos -->
     <g transform="translate(657.36875 155.287813)scale(0.1 -0.1)">
      <use xlink:href="#DejaVuSans-50"/>
      <use x="63.623047" xlink:href="#DejaVuSans-32"/>
      <use x="95.410156" xlink:href="#DejaVuSans-97"/>
      <use x="156.689453" xlink:href="#DejaVuSans-110"/>
      <use x="220.068359" xlink:href="#DejaVuSans-111"/>
      <use x="281.25" xlink:href="#DejaVuSans-115"/>
     </g>
    </g>
    <g id="line2d_61">
     <path d="M 629.36875 166.465938 
L 649.36875 166.465938 
" style="fill:none;stroke:#2ca02c;stroke-linecap:square;stroke-width:1.5;"/>
    </g>
    <g id="line2d_62"/>
    <g id="text_28">
     <!-- 5 anos -->
     <g transform="translate(657.36875 169.965938)scale(0.1 -0.1)">
      <use xlink:href="#DejaVuSans-53"/>
      <use x="63.623047" xlink:href="#DejaVuSans-32"/>
      <use x="95.410156" xlink:href="#DejaVuSans-97"/>
      <use x="156.689453" xlink:href="#DejaVuSans-110"/>
      <use x="220.068359" xlink:href="#DejaVuSans-111"/>
      <use x="281.25" xlink:href="#DejaVuSans-115"/>
     </g>
    </g>
    <g id="line2d_63">
     <path d="M 629.36875 181.144063 
L 649.36875 181.144063 
" style="fill:none;stroke:#d62728;stroke-linecap:square;stroke-width:1.5;"/>
    </g>
    <g id="line2d_64"/>
    <g id="text_29">
     <!-- 10 anos -->
     <g transform="translate(657.36875 184.644063)scale(0.1 -0.1)">
      <use xlink:href="#DejaVuSans-49"/>
      <use x="63.623047" xlink:href="#DejaVuSans-48"/>
      <use x="127.246094" xlink:href="#DejaVuSans-32"/>
      <use x="159.033203" xlink:href="#DejaVuSans-97"/>
      <use x="220.3125" xlink:href="#DejaVuSans-110"/>
      <use x="283.691406" xlink:href="#DejaVuSans-111"/>
      <use x="344.873047" xlink:href="#DejaVuSans-115"/>
     </g>
    </g>
    <g id="line2d_65">
     <path d="M 629.36875 195.822188 
L 649.36875 195.822188 
" style="fill:none;stroke:#9467bd;stroke-linecap:square;stroke-width:1.5;"/>
    </g>
    <g id="line2d_66"/>
    <g id="text_30">
     <!-- 25 anos -->
     <g transform="translate(657.36875 199.322188)scale(0.1 -0.1)">
      <use xlink:href="#DejaVuSans-50"/>
      <use x="63.623047" xlink:href="#DejaVuSans-53"/>
      <use x="127.246094" xlink:href="#DejaVuSans-32"/>
      <use x="159.033203" xlink:href="#DejaVuSans-97"/>
      <use x="220.3125" xlink:href="#DejaVuSans-110"/>
      <use x="283.691406" xlink:href="#DejaVuSans-111"/>
      <use x="344.873047" xlink:href="#DejaVuSans-115"/>
     </g>
    </g>
    <g id="line2d_67">
     <path d="M 629.36875 210.500313 
L 649.36875 210.500313 
" style="fill:none;stroke:#8c564b;stroke-linecap:square;stroke-width:1.5;"/>
    </g>
    <g id="line2d_68"/>
    <g id="text_31">
     <!-- 50 anos -->
     <g transform="translate(657.36875 214.000313)scale(0.1 -0.1)">
      <use xlink:href="#DejaVuSans-53"/>
      <use x="63.623047" xlink:href="#DejaVuSans-48"/>
      <use x="127.246094" xlink:href="#DejaVuSans-32"/>
      <use x="159.033203" xlink:href="#DejaVuSans-97"/>
      <use x="220.3125" xlink:href="#DejaVuSans-110"/>
      <use x="283.691406" xlink:href="#DejaVuSans-111"/>
      <use x="344.873047" xlink:href="#DejaVuSans-115"/>
     </g>
    </g>
    <g id="line2d_69">
     <path d="M 629.36875 225.178438 
L 649.36875 225.178438 
" style="fill:none;stroke:#e377c2;stroke-linecap:square;stroke-width:1.5;"/>
    </g>
    <g id="line2d_70"/>
    <g id="text_32">
     <!-- 100 anos -->
     <g transform="translate(657.36875 228.678438)scale(0.1 -0.1)">
      <use xlink:href="#DejaVuSans-49"/>
      <use x="63.623047" xlink:href="#DejaVuSans-48"/>
      <use x="127.246094" xlink:href="#DejaVuSans-48"/>
      <use x="190.869141" xlink:href="#DejaVuSans-32"/>
      <use x="222.65625" xlink:href="#DejaVuSans-97"/>
      <use x="283.935547" xlink:href="#DejaVuSans-110"/>
      <use x="347.314453" xlink:href="#DejaVuSans-111"/>
      <use x="408.496094" xlink:href="#DejaVuSans-115"/>
     </g>
    </g>
   </g>
  </g>
 </g>
 <defs>
  <clipPath id="p7efa9778e4">
   <rect height="217.44" width="304.363636" x="42.828125" y="22.318125"/>
  </clipPath>
  <clipPath id="p0f6dff42b6">
   <rect height="217.44" width="304.363636" x="408.064489" y="22.318125"/>
  </clipPath>
 </defs>
</svg>
